<?xml version="1.0" encoding="utf-8" standalone="no"?>
<!DOCTYPE svg PUBLIC "-//W3C//DTD SVG 1.1//EN"
  "http://www.w3.org/Graphics/SVG/1.1/DTD/svg11.dtd">
<svg height="200pt" version="1.1" viewBox="0 0 500 200" width="500pt" xmlns="http://www.w3.org/2000/svg" xmlns:xlink="http://www.w3.org/1999/xlink">
 <metadata>
  <rdf:RDF xmlns:cc="http://creativecommons.org/ns#" xmlns:dc="http://purl.org/dc/elements/1.1/" xmlns:rdf="http://www.w3.org/1999/02/22-rdf-syntax-ns#">
   <cc:Work>
    <dc:type rdf:resource="http://purl.org/dc/dcmitype/StillImage"/>
    <dc:date>2024-05-29T18:38:47.682813</dc:date>
    <dc:format>image/svg+xml</dc:format>
    <dc:creator>
     <cc:Agent>
      <dc:title>Matplotlib v3.4.3, https://matplotlib.org/</dc:title>
     </cc:Agent>
    </dc:creator>
   </cc:Work>
  </rdf:RDF>
 </metadata>
 <defs>
  <style type="text/css">*{stroke-linecap:butt;stroke-linejoin:round;}</style>
 </defs>
 <g id="figure_1">
  <g id="patch_1">
   <path d="M 0 200 
L 500 200 
L 500 0 
L 0 0 
z
" style="fill:none;"/>
  </g>
  <g id="axes_1">
   <g id="patch_2">
    <path d="M 47.675 156.4 
L 291.33875 156.4 
L 291.33875 12.52055 
L 47.675 12.52055 
z
" style="fill:#ffffff;"/>
   </g>
   <g id="patch_3">
    <path clip-path="url(#p960b109d67)" d="M 65.949781 147.30716 
L 70.010844 147.30716 
L 70.010844 116.115796 
L 65.949781 116.115796 
L 65.949781 147.30716 
z
" style="fill:#f6bfc7;stroke:#575757;stroke-linejoin:miter;stroke-width:1.5;"/>
   </g>
   <g id="patch_4">
    <path clip-path="url(#p960b109d67)" d="M 106.560406 111.984797 
L 110.621469 111.984797 
L 110.621469 100.334451 
L 106.560406 100.334451 
L 106.560406 111.984797 
z
" style="fill:#d5a8d5;stroke:#575757;stroke-linejoin:miter;stroke-width:1.5;"/>
   </g>
   <g id="patch_5">
    <path clip-path="url(#p960b109d67)" d="M 147.171031 94.578902 
L 151.232094 94.578902 
L 151.232094 90.958476 
L 147.171031 90.958476 
L 147.171031 94.578902 
z
" style="fill:#987dce;stroke:#575757;stroke-linejoin:miter;stroke-width:1.5;"/>
   </g>
   <g id="patch_6">
    <path clip-path="url(#p960b109d67)" d="M 187.781656 91.23697 
L 191.842719 91.23697 
L 191.842719 86.641814 
L 187.781656 86.641814 
L 187.781656 91.23697 
z
" style="fill:#b6c5d8;stroke:#575757;stroke-linejoin:miter;stroke-width:1.5;"/>
   </g>
   <g id="patch_7">
    <path clip-path="url(#p960b109d67)" d="M 228.392281 89.519588 
L 232.453344 89.519588 
L 232.453344 73.691828 
L 228.392281 73.691828 
L 228.392281 89.519588 
z
" style="fill:#94c9de;stroke:#575757;stroke-linejoin:miter;stroke-width:1.5;"/>
   </g>
   <g id="patch_8">
    <path clip-path="url(#p960b109d67)" d="M 269.002906 47.374114 
L 273.063969 47.374114 
L 273.063969 36.744914 
L 269.002906 36.744914 
L 269.002906 47.374114 
z
" style="fill:#5573cd;stroke:#575757;stroke-linejoin:miter;stroke-width:1.5;"/>
   </g>
   <g id="matplotlib.axis_1">
    <g id="xtick_1">
     <g id="line2d_1">
      <defs>
       <path d="M 0 0 
L 0 3.5 
" id="m0c68a6151a" style="stroke:#000000;stroke-width:0.8;"/>
      </defs>
      <g>
       <use style="stroke:#000000;stroke-width:0.8;" x="67.980312" xlink:href="#m0c68a6151a" y="156.4"/>
      </g>
     </g>
     <g id="text_1">
      <!-- 1 -->
      <g transform="translate(64.799062 170.998437)scale(0.1 -0.1)">
       <defs>
        <path d="M 794 531 
L 1825 531 
L 1825 4091 
L 703 3866 
L 703 4441 
L 1819 4666 
L 2450 4666 
L 2450 531 
L 3481 531 
L 3481 0 
L 794 0 
L 794 531 
z
" id="DejaVuSans-31" transform="scale(0.015625)"/>
       </defs>
       <use xlink:href="#DejaVuSans-31"/>
      </g>
     </g>
    </g>
    <g id="xtick_2">
     <g id="line2d_2">
      <g>
       <use style="stroke:#000000;stroke-width:0.8;" x="108.590937" xlink:href="#m0c68a6151a" y="156.4"/>
      </g>
     </g>
     <g id="text_2">
      <!-- 2 -->
      <g transform="translate(105.409687 170.998437)scale(0.1 -0.1)">
       <defs>
        <path d="M 1228 531 
L 3431 531 
L 3431 0 
L 469 0 
L 469 531 
Q 828 903 1448 1529 
Q 2069 2156 2228 2338 
Q 2531 2678 2651 2914 
Q 2772 3150 2772 3378 
Q 2772 3750 2511 3984 
Q 2250 4219 1831 4219 
Q 1534 4219 1204 4116 
Q 875 4013 500 3803 
L 500 4441 
Q 881 4594 1212 4672 
Q 1544 4750 1819 4750 
Q 2544 4750 2975 4387 
Q 3406 4025 3406 3419 
Q 3406 3131 3298 2873 
Q 3191 2616 2906 2266 
Q 2828 2175 2409 1742 
Q 1991 1309 1228 531 
z
" id="DejaVuSans-32" transform="scale(0.015625)"/>
       </defs>
       <use xlink:href="#DejaVuSans-32"/>
      </g>
     </g>
    </g>
    <g id="xtick_3">
     <g id="line2d_3">
      <g>
       <use style="stroke:#000000;stroke-width:0.8;" x="149.201562" xlink:href="#m0c68a6151a" y="156.4"/>
      </g>
     </g>
     <g id="text_3">
      <!-- 3 -->
      <g transform="translate(146.020312 170.998437)scale(0.1 -0.1)">
       <defs>
        <path d="M 2597 2516 
Q 3050 2419 3304 2112 
Q 3559 1806 3559 1356 
Q 3559 666 3084 287 
Q 2609 -91 1734 -91 
Q 1441 -91 1130 -33 
Q 819 25 488 141 
L 488 750 
Q 750 597 1062 519 
Q 1375 441 1716 441 
Q 2309 441 2620 675 
Q 2931 909 2931 1356 
Q 2931 1769 2642 2001 
Q 2353 2234 1838 2234 
L 1294 2234 
L 1294 2753 
L 1863 2753 
Q 2328 2753 2575 2939 
Q 2822 3125 2822 3475 
Q 2822 3834 2567 4026 
Q 2313 4219 1838 4219 
Q 1578 4219 1281 4162 
Q 984 4106 628 3988 
L 628 4550 
Q 988 4650 1302 4700 
Q 1616 4750 1894 4750 
Q 2613 4750 3031 4423 
Q 3450 4097 3450 3541 
Q 3450 3153 3228 2886 
Q 3006 2619 2597 2516 
z
" id="DejaVuSans-33" transform="scale(0.015625)"/>
       </defs>
       <use xlink:href="#DejaVuSans-33"/>
      </g>
     </g>
    </g>
    <g id="xtick_4">
     <g id="line2d_4">
      <g>
       <use style="stroke:#000000;stroke-width:0.8;" x="189.812187" xlink:href="#m0c68a6151a" y="156.4"/>
      </g>
     </g>
     <g id="text_4">
      <!-- 4 -->
      <g transform="translate(186.630937 170.998437)scale(0.1 -0.1)">
       <defs>
        <path d="M 2419 4116 
L 825 1625 
L 2419 1625 
L 2419 4116 
z
M 2253 4666 
L 3047 4666 
L 3047 1625 
L 3713 1625 
L 3713 1100 
L 3047 1100 
L 3047 0 
L 2419 0 
L 2419 1100 
L 313 1100 
L 313 1709 
L 2253 4666 
z
" id="DejaVuSans-34" transform="scale(0.015625)"/>
       </defs>
       <use xlink:href="#DejaVuSans-34"/>
      </g>
     </g>
    </g>
    <g id="xtick_5">
     <g id="line2d_5">
      <g>
       <use style="stroke:#000000;stroke-width:0.8;" x="230.422812" xlink:href="#m0c68a6151a" y="156.4"/>
      </g>
     </g>
     <g id="text_5">
      <!-- 5 -->
      <g transform="translate(227.241562 170.998437)scale(0.1 -0.1)">
       <defs>
        <path d="M 691 4666 
L 3169 4666 
L 3169 4134 
L 1269 4134 
L 1269 2991 
Q 1406 3038 1543 3061 
Q 1681 3084 1819 3084 
Q 2600 3084 3056 2656 
Q 3513 2228 3513 1497 
Q 3513 744 3044 326 
Q 2575 -91 1722 -91 
Q 1428 -91 1123 -41 
Q 819 9 494 109 
L 494 744 
Q 775 591 1075 516 
Q 1375 441 1709 441 
Q 2250 441 2565 725 
Q 2881 1009 2881 1497 
Q 2881 1984 2565 2268 
Q 2250 2553 1709 2553 
Q 1456 2553 1204 2497 
Q 953 2441 691 2322 
L 691 4666 
z
" id="DejaVuSans-35" transform="scale(0.015625)"/>
       </defs>
       <use xlink:href="#DejaVuSans-35"/>
      </g>
     </g>
    </g>
    <g id="xtick_6">
     <g id="line2d_6">
      <g>
       <use style="stroke:#000000;stroke-width:0.8;" x="271.033437" xlink:href="#m0c68a6151a" y="156.4"/>
      </g>
     </g>
     <g id="text_6">
      <!-- 6 -->
      <g transform="translate(267.852187 170.998437)scale(0.1 -0.1)">
       <defs>
        <path d="M 2113 2584 
Q 1688 2584 1439 2293 
Q 1191 2003 1191 1497 
Q 1191 994 1439 701 
Q 1688 409 2113 409 
Q 2538 409 2786 701 
Q 3034 994 3034 1497 
Q 3034 2003 2786 2293 
Q 2538 2584 2113 2584 
z
M 3366 4563 
L 3366 3988 
Q 3128 4100 2886 4159 
Q 2644 4219 2406 4219 
Q 1781 4219 1451 3797 
Q 1122 3375 1075 2522 
Q 1259 2794 1537 2939 
Q 1816 3084 2150 3084 
Q 2853 3084 3261 2657 
Q 3669 2231 3669 1497 
Q 3669 778 3244 343 
Q 2819 -91 2113 -91 
Q 1303 -91 875 529 
Q 447 1150 447 2328 
Q 447 3434 972 4092 
Q 1497 4750 2381 4750 
Q 2619 4750 2861 4703 
Q 3103 4656 3366 4563 
z
" id="DejaVuSans-36" transform="scale(0.015625)"/>
       </defs>
       <use xlink:href="#DejaVuSans-36"/>
      </g>
     </g>
    </g>
    <g id="text_7">
     <!-- $n_t$ -->
     <g transform="translate(164.756875 184.676562)scale(0.1 -0.1)">
      <defs>
       <path d="M 3513 2113 
L 3513 0 
L 2938 0 
L 2938 2094 
Q 2938 2591 2744 2837 
Q 2550 3084 2163 3084 
Q 1697 3084 1428 2787 
Q 1159 2491 1159 1978 
L 1159 0 
L 581 0 
L 581 3500 
L 1159 3500 
L 1159 2956 
Q 1366 3272 1645 3428 
Q 1925 3584 2291 3584 
Q 2894 3584 3203 3211 
Q 3513 2838 3513 2113 
z
" id="DejaVuSans-6e" transform="scale(0.015625)"/>
       <path d="M 1172 4494 
L 1172 3500 
L 2356 3500 
L 2356 3053 
L 1172 3053 
L 1172 1153 
Q 1172 725 1289 603 
Q 1406 481 1766 481 
L 2356 481 
L 2356 0 
L 1766 0 
Q 1100 0 847 248 
Q 594 497 594 1153 
L 594 3053 
L 172 3053 
L 172 3500 
L 594 3500 
L 594 4494 
L 1172 4494 
z
" id="DejaVuSans-74" transform="scale(0.015625)"/>
      </defs>
      <use xlink:href="#DejaVuSans-6e"/>
      <use transform="translate(64.335938 -16.40625)scale(0.7)" xlink:href="#DejaVuSans-74"/>
     </g>
    </g>
   </g>
   <g id="matplotlib.axis_2">
    <g id="ytick_1">
     <g id="line2d_7">
      <defs>
       <path d="M 0 0 
L -3.5 0 
" id="m7a16d37154" style="stroke:#000000;stroke-width:0.8;"/>
      </defs>
      <g>
       <use style="stroke:#000000;stroke-width:0.8;" x="47.675" xlink:href="#m7a16d37154" y="126.234423"/>
      </g>
     </g>
     <g id="text_8">
      <!-- 0.6 -->
      <g transform="translate(24.771875 130.033642)scale(0.1 -0.1)">
       <defs>
        <path d="M 2034 4250 
Q 1547 4250 1301 3770 
Q 1056 3291 1056 2328 
Q 1056 1369 1301 889 
Q 1547 409 2034 409 
Q 2525 409 2770 889 
Q 3016 1369 3016 2328 
Q 3016 3291 2770 3770 
Q 2525 4250 2034 4250 
z
M 2034 4750 
Q 2819 4750 3233 4129 
Q 3647 3509 3647 2328 
Q 3647 1150 3233 529 
Q 2819 -91 2034 -91 
Q 1250 -91 836 529 
Q 422 1150 422 2328 
Q 422 3509 836 4129 
Q 1250 4750 2034 4750 
z
" id="DejaVuSans-30" transform="scale(0.015625)"/>
        <path d="M 684 794 
L 1344 794 
L 1344 0 
L 684 0 
L 684 794 
z
" id="DejaVuSans-2e" transform="scale(0.015625)"/>
       </defs>
       <use xlink:href="#DejaVuSans-30"/>
       <use x="63.623047" xlink:href="#DejaVuSans-2e"/>
       <use x="95.410156" xlink:href="#DejaVuSans-36"/>
      </g>
     </g>
    </g>
    <g id="ytick_2">
     <g id="line2d_8">
      <g>
       <use style="stroke:#000000;stroke-width:0.8;" x="47.675" xlink:href="#m7a16d37154" y="89.101847"/>
      </g>
     </g>
     <g id="text_9">
      <!-- 0.7 -->
      <g transform="translate(24.771875 92.901066)scale(0.1 -0.1)">
       <defs>
        <path d="M 525 4666 
L 3525 4666 
L 3525 4397 
L 1831 0 
L 1172 0 
L 2766 4134 
L 525 4134 
L 525 4666 
z
" id="DejaVuSans-37" transform="scale(0.015625)"/>
       </defs>
       <use xlink:href="#DejaVuSans-30"/>
       <use x="63.623047" xlink:href="#DejaVuSans-2e"/>
       <use x="95.410156" xlink:href="#DejaVuSans-37"/>
      </g>
     </g>
    </g>
    <g id="ytick_3">
     <g id="line2d_9">
      <g>
       <use style="stroke:#000000;stroke-width:0.8;" x="47.675" xlink:href="#m7a16d37154" y="51.969271"/>
      </g>
     </g>
     <g id="text_10">
      <!-- 0.8 -->
      <g transform="translate(24.771875 55.768489)scale(0.1 -0.1)">
       <defs>
        <path d="M 2034 2216 
Q 1584 2216 1326 1975 
Q 1069 1734 1069 1313 
Q 1069 891 1326 650 
Q 1584 409 2034 409 
Q 2484 409 2743 651 
Q 3003 894 3003 1313 
Q 3003 1734 2745 1975 
Q 2488 2216 2034 2216 
z
M 1403 2484 
Q 997 2584 770 2862 
Q 544 3141 544 3541 
Q 544 4100 942 4425 
Q 1341 4750 2034 4750 
Q 2731 4750 3128 4425 
Q 3525 4100 3525 3541 
Q 3525 3141 3298 2862 
Q 3072 2584 2669 2484 
Q 3125 2378 3379 2068 
Q 3634 1759 3634 1313 
Q 3634 634 3220 271 
Q 2806 -91 2034 -91 
Q 1263 -91 848 271 
Q 434 634 434 1313 
Q 434 1759 690 2068 
Q 947 2378 1403 2484 
z
M 1172 3481 
Q 1172 3119 1398 2916 
Q 1625 2713 2034 2713 
Q 2441 2713 2670 2916 
Q 2900 3119 2900 3481 
Q 2900 3844 2670 4047 
Q 2441 4250 2034 4250 
Q 1625 4250 1398 4047 
Q 1172 3844 1172 3481 
z
" id="DejaVuSans-38" transform="scale(0.015625)"/>
       </defs>
       <use xlink:href="#DejaVuSans-30"/>
       <use x="63.623047" xlink:href="#DejaVuSans-2e"/>
       <use x="95.410156" xlink:href="#DejaVuSans-38"/>
      </g>
     </g>
    </g>
    <g id="ytick_4">
     <g id="line2d_10">
      <g>
       <use style="stroke:#000000;stroke-width:0.8;" x="47.675" xlink:href="#m7a16d37154" y="14.836694"/>
      </g>
     </g>
     <g id="text_11">
      <!-- 0.9 -->
      <g transform="translate(24.771875 18.635913)scale(0.1 -0.1)">
       <defs>
        <path d="M 703 97 
L 703 672 
Q 941 559 1184 500 
Q 1428 441 1663 441 
Q 2288 441 2617 861 
Q 2947 1281 2994 2138 
Q 2813 1869 2534 1725 
Q 2256 1581 1919 1581 
Q 1219 1581 811 2004 
Q 403 2428 403 3163 
Q 403 3881 828 4315 
Q 1253 4750 1959 4750 
Q 2769 4750 3195 4129 
Q 3622 3509 3622 2328 
Q 3622 1225 3098 567 
Q 2575 -91 1691 -91 
Q 1453 -91 1209 -44 
Q 966 3 703 97 
z
M 1959 2075 
Q 2384 2075 2632 2365 
Q 2881 2656 2881 3163 
Q 2881 3666 2632 3958 
Q 2384 4250 1959 4250 
Q 1534 4250 1286 3958 
Q 1038 3666 1038 3163 
Q 1038 2656 1286 2365 
Q 1534 2075 1959 2075 
z
" id="DejaVuSans-39" transform="scale(0.015625)"/>
       </defs>
       <use xlink:href="#DejaVuSans-30"/>
       <use x="63.623047" xlink:href="#DejaVuSans-2e"/>
       <use x="95.410156" xlink:href="#DejaVuSans-39"/>
      </g>
     </g>
    </g>
    <g id="text_12">
     <!-- AUC -->
     <g transform="translate(18.692188 95.031369)rotate(-90)scale(0.1 -0.1)">
      <defs>
       <path d="M 2188 4044 
L 1331 1722 
L 3047 1722 
L 2188 4044 
z
M 1831 4666 
L 2547 4666 
L 4325 0 
L 3669 0 
L 3244 1197 
L 1141 1197 
L 716 0 
L 50 0 
L 1831 4666 
z
" id="DejaVuSans-41" transform="scale(0.015625)"/>
       <path d="M 556 4666 
L 1191 4666 
L 1191 1831 
Q 1191 1081 1462 751 
Q 1734 422 2344 422 
Q 2950 422 3222 751 
Q 3494 1081 3494 1831 
L 3494 4666 
L 4128 4666 
L 4128 1753 
Q 4128 841 3676 375 
Q 3225 -91 2344 -91 
Q 1459 -91 1007 375 
Q 556 841 556 1753 
L 556 4666 
z
" id="DejaVuSans-55" transform="scale(0.015625)"/>
       <path d="M 4122 4306 
L 4122 3641 
Q 3803 3938 3442 4084 
Q 3081 4231 2675 4231 
Q 1875 4231 1450 3742 
Q 1025 3253 1025 2328 
Q 1025 1406 1450 917 
Q 1875 428 2675 428 
Q 3081 428 3442 575 
Q 3803 722 4122 1019 
L 4122 359 
Q 3791 134 3420 21 
Q 3050 -91 2638 -91 
Q 1578 -91 968 557 
Q 359 1206 359 2328 
Q 359 3453 968 4101 
Q 1578 4750 2638 4750 
Q 3056 4750 3426 4639 
Q 3797 4528 4122 4306 
z
" id="DejaVuSans-43" transform="scale(0.015625)"/>
      </defs>
      <use xlink:href="#DejaVuSans-41"/>
      <use x="68.408203" xlink:href="#DejaVuSans-55"/>
      <use x="141.601562" xlink:href="#DejaVuSans-43"/>
     </g>
    </g>
   </g>
   <g id="line2d_11">
    <path clip-path="url(#p960b109d67)" d="M 67.980312 147.30716 
L 67.980312 149.860025 
" style="fill:none;stroke:#575757;stroke-linecap:square;stroke-width:1.5;"/>
   </g>
   <g id="line2d_12">
    <path clip-path="url(#p960b109d67)" d="M 67.980312 116.115796 
L 67.980312 113.516516 
" style="fill:none;stroke:#575757;stroke-linecap:square;stroke-width:1.5;"/>
   </g>
   <g id="line2d_13"/>
   <g id="line2d_14">
    <path clip-path="url(#p960b109d67)" d="M 108.590937 111.984797 
L 108.590937 118.390167 
" style="fill:none;stroke:#575757;stroke-linecap:square;stroke-width:1.5;"/>
   </g>
   <g id="line2d_15">
    <path clip-path="url(#p960b109d67)" d="M 108.590937 100.334451 
L 108.590937 100.334451 
" style="fill:none;stroke:#575757;stroke-linecap:square;stroke-width:1.5;"/>
   </g>
   <g id="line2d_16"/>
   <g id="line2d_17">
    <path clip-path="url(#p960b109d67)" d="M 149.201562 94.578902 
L 149.201562 98.060081 
" style="fill:none;stroke:#575757;stroke-linecap:square;stroke-width:1.5;"/>
   </g>
   <g id="line2d_18">
    <path clip-path="url(#p960b109d67)" d="M 149.201562 90.958476 
L 149.201562 87.709375 
" style="fill:none;stroke:#575757;stroke-linecap:square;stroke-width:1.5;"/>
   </g>
   <g id="line2d_19"/>
   <g id="line2d_20">
    <path clip-path="url(#p960b109d67)" d="M 189.812187 91.23697 
L 189.812187 91.23697 
" style="fill:none;stroke:#575757;stroke-linecap:square;stroke-width:1.5;"/>
   </g>
   <g id="line2d_21">
    <path clip-path="url(#p960b109d67)" d="M 189.812187 86.641814 
L 189.812187 80.514939 
" style="fill:none;stroke:#575757;stroke-linecap:square;stroke-width:1.5;"/>
   </g>
   <g id="line2d_22"/>
   <g id="line2d_23">
    <path clip-path="url(#p960b109d67)" d="M 230.422812 89.519588 
L 230.422812 95.414385 
" style="fill:none;stroke:#575757;stroke-linecap:square;stroke-width:1.5;"/>
   </g>
   <g id="line2d_24">
    <path clip-path="url(#p960b109d67)" d="M 230.422812 73.691828 
L 230.422812 73.691828 
" style="fill:none;stroke:#575757;stroke-linecap:square;stroke-width:1.5;"/>
   </g>
   <g id="line2d_25"/>
   <g id="line2d_26">
    <path clip-path="url(#p960b109d67)" d="M 271.033437 47.374114 
L 271.033437 53.268911 
" style="fill:none;stroke:#575757;stroke-linecap:square;stroke-width:1.5;"/>
   </g>
   <g id="line2d_27">
    <path clip-path="url(#p960b109d67)" d="M 271.033437 36.744914 
L 271.033437 23.980591 
" style="fill:none;stroke:#575757;stroke-linecap:square;stroke-width:1.5;"/>
   </g>
   <g id="line2d_28"/>
   <g id="line2d_29">
    <path clip-path="url(#p960b109d67)" d="M 65.949781 139.323656 
L 70.010844 139.323656 
" style="fill:none;stroke:#575757;stroke-linecap:square;stroke-width:1.5;"/>
   </g>
   <g id="line2d_30">
    <path clip-path="url(#p960b109d67)" d="M 106.560406 101.169934 
L 110.621469 101.169934 
" style="fill:none;stroke:#575757;stroke-linecap:square;stroke-width:1.5;"/>
   </g>
   <g id="line2d_31">
    <path clip-path="url(#p960b109d67)" d="M 147.171031 93.929082 
L 151.232094 93.929082 
" style="fill:none;stroke:#575757;stroke-linecap:square;stroke-width:1.5;"/>
   </g>
   <g id="line2d_32">
    <path clip-path="url(#p960b109d67)" d="M 187.781656 87.709375 
L 191.842719 87.709375 
" style="fill:none;stroke:#575757;stroke-linecap:square;stroke-width:1.5;"/>
   </g>
   <g id="line2d_33">
    <path clip-path="url(#p960b109d67)" d="M 228.392281 88.776937 
L 232.453344 88.776937 
" style="fill:none;stroke:#575757;stroke-linecap:square;stroke-width:1.5;"/>
   </g>
   <g id="line2d_34">
    <path clip-path="url(#p960b109d67)" d="M 269.002906 43.057452 
L 273.063969 43.057452 
" style="fill:none;stroke:#575757;stroke-linecap:square;stroke-width:1.5;"/>
   </g>
   <g id="patch_9">
    <path d="M 47.675 156.4 
L 47.675 12.52055 
" style="fill:none;stroke:#000000;stroke-linecap:square;stroke-linejoin:miter;stroke-width:0.8;"/>
   </g>
   <g id="patch_10">
    <path d="M 47.675 156.4 
L 291.33875 156.4 
" style="fill:none;stroke:#000000;stroke-linecap:square;stroke-linejoin:miter;stroke-width:0.8;"/>
   </g>
  </g>
  <g id="axes_2">
   <g id="patch_11">
    <path d="M 344.466875 156.4 
L 489.2 156.4 
L 489.2 12.52055 
L 344.466875 12.52055 
z
" style="fill:#ffffff;"/>
   </g>
   <g id="PathCollection_1">
    <defs>
     <path d="M 0 3 
C 0.795609 3 1.55874 2.683901 2.12132 2.12132 
C 2.683901 1.55874 3 0.795609 3 0 
C 3 -0.795609 2.683901 -1.55874 2.12132 -2.12132 
C 1.55874 -2.683901 0.795609 -3 0 -3 
C -0.795609 -3 -1.55874 -2.683901 -2.12132 -2.12132 
C -2.683901 -1.55874 -3 -0.795609 -3 0 
C -3 0.795609 -2.683901 1.55874 -2.12132 2.12132 
C -1.55874 2.683901 -0.795609 3 0 3 
z
" id="m19e0f84da2" style="stroke:#808080;stroke-opacity:0.8;"/>
    </defs>
    <g clip-path="url(#p5e8521f14a)">
     <use style="fill:#808080;fill-opacity:0.8;stroke:#808080;stroke-opacity:0.8;" x="351.045653" xlink:href="#m19e0f84da2" y="102.894831"/>
     <use style="fill:#808080;fill-opacity:0.8;stroke:#808080;stroke-opacity:0.8;" x="401.946031" xlink:href="#m19e0f84da2" y="74.685982"/>
     <use style="fill:#808080;fill-opacity:0.8;stroke:#808080;stroke-opacity:0.8;" x="431.720844" xlink:href="#m19e0f84da2" y="66.418016"/>
     <use style="fill:#808080;fill-opacity:0.8;stroke:#808080;stroke-opacity:0.8;" x="452.846409" xlink:href="#m19e0f84da2" y="61.352728"/>
     <use style="fill:#808080;fill-opacity:0.8;stroke:#808080;stroke-opacity:0.8;" x="469.232671" xlink:href="#m19e0f84da2" y="48.48302"/>
     <use style="fill:#808080;fill-opacity:0.8;stroke:#808080;stroke-opacity:0.8;" x="482.621222" xlink:href="#m19e0f84da2" y="19.060525"/>
    </g>
   </g>
   <g id="PolyCollection_1">
    <path clip-path="url(#p5e8521f14a)" d="M 351.045653 93.605962 
L 351.045653 149.860025 
L 352.3747 148.645313 
L 353.703746 147.430601 
L 355.032792 146.21589 
L 356.361838 145.001178 
L 357.690884 143.786466 
L 359.01993 142.571754 
L 360.348976 141.357042 
L 361.678023 140.14233 
L 363.007069 138.927619 
L 364.336115 137.712907 
L 365.665161 136.498195 
L 366.994207 135.283483 
L 368.323253 134.068771 
L 369.652299 132.85406 
L 370.981346 131.639348 
L 372.310392 130.424636 
L 373.639438 129.209924 
L 374.968484 127.995212 
L 376.29753 126.780501 
L 377.626576 125.565789 
L 378.955622 124.351077 
L 380.284669 123.136365 
L 381.613715 121.921653 
L 382.942761 120.706941 
L 384.271807 119.482324 
L 385.600853 118.232055 
L 386.929899 116.981786 
L 388.258945 115.731518 
L 389.587992 114.481249 
L 390.917038 113.23098 
L 392.246084 111.980712 
L 393.57513 110.730443 
L 394.904176 109.480174 
L 396.233222 108.229905 
L 397.562268 106.979637 
L 398.891315 105.729368 
L 400.220361 104.479099 
L 401.549407 103.228831 
L 402.878453 101.978562 
L 404.207499 100.728293 
L 405.536545 99.478024 
L 406.865591 98.180319 
L 408.194638 96.814412 
L 409.523684 95.448504 
L 410.85273 94.082596 
L 412.181776 92.716688 
L 413.510822 91.350781 
L 414.839868 89.984873 
L 416.168914 88.618965 
L 417.497961 87.253058 
L 418.827007 85.88715 
L 420.156053 84.714662 
L 421.485099 83.576214 
L 422.814145 82.437766 
L 424.143191 81.299317 
L 425.472237 80.159325 
L 426.801284 79.018679 
L 428.13033 77.878033 
L 429.459376 76.739687 
L 430.788422 75.604105 
L 432.117468 74.468524 
L 433.446514 73.225145 
L 434.77556 71.977744 
L 436.104607 70.730342 
L 437.433653 69.482941 
L 438.762699 68.235539 
L 440.091745 66.988138 
L 441.420791 66.027817 
L 442.749837 65.2404 
L 444.078883 64.248294 
L 445.40793 63.232119 
L 446.736976 62.778693 
L 448.066022 62.428912 
L 449.395068 62.048542 
L 450.724114 61.631223 
L 452.05316 61.259494 
L 453.382206 60.90528 
L 454.711253 60.4959 
L 456.040299 59.468328 
L 457.369345 58.723408 
L 458.698391 57.973447 
L 460.027437 57.328961 
L 461.356483 56.654221 
L 462.685529 56.140028 
L 464.014576 55.638035 
L 465.343622 55.134613 
L 466.672668 54.627122 
L 468.001714 54.130109 
L 469.33076 53.699526 
L 470.659806 53.239445 
L 471.988852 52.691049 
L 473.317899 52.143964 
L 474.646945 51.609553 
L 475.975991 51.107376 
L 477.305037 50.603885 
L 478.634083 50.099417 
L 479.963129 49.594949 
L 481.292175 49.090481 
L 482.621222 48.589351 
L 482.621222 21.40969 
L 482.621222 21.40969 
L 481.292175 22.447823 
L 479.963129 23.781225 
L 478.634083 24.758641 
L 477.305037 25.746111 
L 475.975991 26.726808 
L 474.646945 27.656709 
L 473.317899 28.513755 
L 471.988852 29.370802 
L 470.659806 30.227848 
L 469.33076 31.18855 
L 468.001714 32.023988 
L 466.672668 32.859426 
L 465.343622 33.694864 
L 464.014576 34.530302 
L 462.685529 35.365627 
L 461.356483 36.200511 
L 460.027437 37.035395 
L 458.698391 37.870279 
L 457.369345 38.705232 
L 456.040299 39.652477 
L 454.711253 40.50897 
L 453.382206 41.365462 
L 452.05316 42.223868 
L 450.724114 43.082506 
L 449.395068 43.940593 
L 448.066022 44.797639 
L 446.736976 45.654686 
L 445.40793 46.511732 
L 444.078883 47.368779 
L 442.749837 48.225825 
L 441.420791 49.082872 
L 440.091745 49.939918 
L 438.762699 50.796965 
L 437.433653 51.654011 
L 436.104607 52.511058 
L 434.77556 53.368104 
L 433.446514 54.225151 
L 432.117468 55.082197 
L 430.788422 55.909916 
L 429.459376 56.728894 
L 428.13033 57.547873 
L 426.801284 58.366851 
L 425.472237 59.18583 
L 424.143191 60.004808 
L 422.814145 60.823786 
L 421.485099 61.642765 
L 420.156053 62.461743 
L 418.827007 63.280722 
L 417.497961 64.0997 
L 416.168914 64.918678 
L 414.839868 65.741022 
L 413.510822 66.556635 
L 412.181776 67.375613 
L 410.85273 68.194592 
L 409.523684 69.01357 
L 408.194638 69.832549 
L 406.865591 70.651527 
L 405.536545 71.470505 
L 404.207499 72.289484 
L 402.878453 73.108462 
L 401.549407 73.923512 
L 400.220361 74.742888 
L 398.891315 75.325555 
L 397.562268 75.75287 
L 396.233222 76.141226 
L 394.904176 76.529585 
L 393.57513 77.290041 
L 392.246084 78.14277 
L 390.917038 78.854829 
L 389.587992 79.533612 
L 388.258945 79.965096 
L 386.929899 80.607555 
L 385.600853 81.05945 
L 384.271807 81.583979 
L 382.942761 82.072778 
L 381.613715 82.561185 
L 380.284669 83.049593 
L 378.955622 83.538 
L 377.626576 84.026408 
L 376.29753 84.514815 
L 374.968484 85.003223 
L 373.639438 85.49163 
L 372.310392 85.980038 
L 370.981346 86.468445 
L 369.652299 86.956853 
L 368.323253 87.44526 
L 366.994207 87.933667 
L 365.665161 88.422075 
L 364.336115 88.910482 
L 363.007069 89.39889 
L 361.678023 89.877374 
L 360.348976 90.343949 
L 359.01993 90.809951 
L 357.690884 91.275953 
L 356.361838 91.741954 
L 355.032792 92.207956 
L 353.703746 92.673958 
L 352.3747 93.13996 
L 351.045653 93.605962 
z
" style="fill:#808080;fill-opacity:0.15;"/>
   </g>
   <g id="matplotlib.axis_3">
    <g id="xtick_7">
     <g id="line2d_35">
      <g>
       <use style="stroke:#000000;stroke-width:0.8;" x="351.045653" xlink:href="#m0c68a6151a" y="156.4"/>
      </g>
     </g>
     <g id="text_13">
      <!-- 1 -->
      <g transform="translate(347.864403 170.998437)scale(0.1 -0.1)">
       <use xlink:href="#DejaVuSans-31"/>
      </g>
     </g>
    </g>
    <g id="xtick_8">
     <g id="line2d_36">
      <g>
       <use style="stroke:#000000;stroke-width:0.8;" x="401.946031" xlink:href="#m0c68a6151a" y="156.4"/>
      </g>
     </g>
     <g id="text_14">
      <!-- 2 -->
      <g transform="translate(398.764781 170.998437)scale(0.1 -0.1)">
       <use xlink:href="#DejaVuSans-32"/>
      </g>
     </g>
    </g>
    <g id="xtick_9">
     <g id="line2d_37">
      <g>
       <use style="stroke:#000000;stroke-width:0.8;" x="431.720844" xlink:href="#m0c68a6151a" y="156.4"/>
      </g>
     </g>
     <g id="text_15">
      <!-- 3 -->
      <g transform="translate(428.539594 170.998437)scale(0.1 -0.1)">
       <use xlink:href="#DejaVuSans-33"/>
      </g>
     </g>
    </g>
    <g id="xtick_10">
     <g id="line2d_38">
      <g>
       <use style="stroke:#000000;stroke-width:0.8;" x="452.846409" xlink:href="#m0c68a6151a" y="156.4"/>
      </g>
     </g>
     <g id="text_16">
      <!-- 4 -->
      <g transform="translate(449.665159 170.998437)scale(0.1 -0.1)">
       <use xlink:href="#DejaVuSans-34"/>
      </g>
     </g>
    </g>
    <g id="xtick_11">
     <g id="line2d_39">
      <g>
       <use style="stroke:#000000;stroke-width:0.8;" x="469.232671" xlink:href="#m0c68a6151a" y="156.4"/>
      </g>
     </g>
     <g id="text_17">
      <!-- 5 -->
      <g transform="translate(466.051421 170.998437)scale(0.1 -0.1)">
       <use xlink:href="#DejaVuSans-35"/>
      </g>
     </g>
    </g>
    <g id="xtick_12">
     <g id="line2d_40">
      <g>
       <use style="stroke:#000000;stroke-width:0.8;" x="482.621222" xlink:href="#m0c68a6151a" y="156.4"/>
      </g>
     </g>
     <g id="text_18">
      <!-- 6 -->
      <g transform="translate(479.439972 170.998437)scale(0.1 -0.1)">
       <use xlink:href="#DejaVuSans-36"/>
      </g>
     </g>
    </g>
    <g id="text_19">
     <!-- $n_t$ -->
     <g transform="translate(412.083437 184.676562)scale(0.1 -0.1)">
      <use xlink:href="#DejaVuSans-6e"/>
      <use transform="translate(64.335938 -16.40625)scale(0.7)" xlink:href="#DejaVuSans-74"/>
     </g>
    </g>
   </g>
   <g id="matplotlib.axis_4">
    <g id="ytick_5">
     <g id="line2d_41">
      <g>
       <use style="stroke:#000000;stroke-width:0.8;" x="344.466875" xlink:href="#m7a16d37154" y="130.26087"/>
      </g>
     </g>
     <g id="text_20">
      <!-- 0.5 -->
      <g transform="translate(321.56375 134.060089)scale(0.1 -0.1)">
       <use xlink:href="#DejaVuSans-30"/>
       <use x="63.623047" xlink:href="#DejaVuSans-2e"/>
       <use x="95.410156" xlink:href="#DejaVuSans-35"/>
      </g>
     </g>
    </g>
    <g id="ytick_6">
     <g id="line2d_42">
      <g>
       <use style="stroke:#000000;stroke-width:0.8;" x="344.466875" xlink:href="#m7a16d37154" y="96.548472"/>
      </g>
     </g>
     <g id="text_21">
      <!-- 0.6 -->
      <g transform="translate(321.56375 100.347691)scale(0.1 -0.1)">
       <use xlink:href="#DejaVuSans-30"/>
       <use x="63.623047" xlink:href="#DejaVuSans-2e"/>
       <use x="95.410156" xlink:href="#DejaVuSans-36"/>
      </g>
     </g>
    </g>
    <g id="ytick_7">
     <g id="line2d_43">
      <g>
       <use style="stroke:#000000;stroke-width:0.8;" x="344.466875" xlink:href="#m7a16d37154" y="62.836074"/>
      </g>
     </g>
     <g id="text_22">
      <!-- 0.7 -->
      <g transform="translate(321.56375 66.635293)scale(0.1 -0.1)">
       <use xlink:href="#DejaVuSans-30"/>
       <use x="63.623047" xlink:href="#DejaVuSans-2e"/>
       <use x="95.410156" xlink:href="#DejaVuSans-37"/>
      </g>
     </g>
    </g>
    <g id="ytick_8">
     <g id="line2d_44">
      <g>
       <use style="stroke:#000000;stroke-width:0.8;" x="344.466875" xlink:href="#m7a16d37154" y="29.123676"/>
      </g>
     </g>
     <g id="text_23">
      <!-- 0.8 -->
      <g transform="translate(321.56375 32.922894)scale(0.1 -0.1)">
       <use xlink:href="#DejaVuSans-30"/>
       <use x="63.623047" xlink:href="#DejaVuSans-2e"/>
       <use x="95.410156" xlink:href="#DejaVuSans-38"/>
      </g>
     </g>
    </g>
    <g id="text_24">
     <!-- $\widehat{AUC}$ -->
     <g transform="translate(315.484062 95.060275)rotate(-90)scale(0.1 -0.1)">
      <defs>
       <path d="M -1005 3859 
L -1037 3661 
L -8461 4826 
L -15872 3661 
L -15904 3859 
L -8454 5222 
L -1005 3859 
z
" id="STIXSizeFiveSym-Regular-302" transform="scale(0.015625)"/>
      </defs>
      <use transform="translate(252.68457 34.75)scale(0.908199)" xlink:href="#STIXSizeFiveSym-Regular-302"/>
      <use transform="translate(0 0.078125)" xlink:href="#DejaVuSans-41"/>
      <use transform="translate(68.408203 0.078125)" xlink:href="#DejaVuSans-55"/>
      <use transform="translate(141.601562 0.078125)" xlink:href="#DejaVuSans-43"/>
     </g>
    </g>
   </g>
   <g id="line2d_45">
    <defs>
     <path d="M 0 3 
C 0.795609 3 1.55874 2.683901 2.12132 2.12132 
C 2.683901 1.55874 3 0.795609 3 0 
C 3 -0.795609 2.683901 -1.55874 2.12132 -2.12132 
C 1.55874 -2.683901 0.795609 -3 0 -3 
C -0.795609 -3 -1.55874 -2.683901 -2.12132 -2.12132 
C -2.683901 -1.55874 -3 -0.795609 -3 0 
C -3 0.795609 -2.683901 1.55874 -2.12132 2.12132 
C -1.55874 2.683901 -0.795609 3 0 3 
z
" id="mcd280485cd" style="stroke:#ffb6c1;"/>
    </defs>
    <g clip-path="url(#p5e8521f14a)">
     <use style="fill:#ffb6c1;stroke:#ffb6c1;" x="351.045653" xlink:href="#mcd280485cd" y="102.894831"/>
    </g>
   </g>
   <g id="line2d_46">
    <defs>
     <path d="M 0 3 
C 0.795609 3 1.55874 2.683901 2.12132 2.12132 
C 2.683901 1.55874 3 0.795609 3 0 
C 3 -0.795609 2.683901 -1.55874 2.12132 -2.12132 
C 1.55874 -2.683901 0.795609 -3 0 -3 
C -0.795609 -3 -1.55874 -2.683901 -2.12132 -2.12132 
C -2.683901 -1.55874 -3 -0.795609 -3 0 
C -3 0.795609 -2.683901 1.55874 -2.12132 2.12132 
C -1.55874 2.683901 -0.795609 3 0 3 
z
" id="m6bf6c27435" style="stroke:#dda0dd;"/>
    </defs>
    <g clip-path="url(#p5e8521f14a)">
     <use style="fill:#dda0dd;stroke:#dda0dd;" x="401.946031" xlink:href="#m6bf6c27435" y="74.685982"/>
    </g>
   </g>
   <g id="line2d_47">
    <defs>
     <path d="M 0 3 
C 0.795609 3 1.55874 2.683901 2.12132 2.12132 
C 2.683901 1.55874 3 0.795609 3 0 
C 3 -0.795609 2.683901 -1.55874 2.12132 -2.12132 
C 1.55874 -2.683901 0.795609 -3 0 -3 
C -0.795609 -3 -1.55874 -2.683901 -2.12132 -2.12132 
C -2.683901 -1.55874 -3 -0.795609 -3 0 
C -3 0.795609 -2.683901 1.55874 -2.12132 2.12132 
C -1.55874 2.683901 -0.795609 3 0 3 
z
" id="mf2df8ce238" style="stroke:#9370db;"/>
    </defs>
    <g clip-path="url(#p5e8521f14a)">
     <use style="fill:#9370db;stroke:#9370db;" x="431.720844" xlink:href="#mf2df8ce238" y="66.418016"/>
    </g>
   </g>
   <g id="line2d_48">
    <defs>
     <path d="M 0 3 
C 0.795609 3 1.55874 2.683901 2.12132 2.12132 
C 2.683901 1.55874 3 0.795609 3 0 
C 3 -0.795609 2.683901 -1.55874 2.12132 -2.12132 
C 1.55874 -2.683901 0.795609 -3 0 -3 
C -0.795609 -3 -1.55874 -2.683901 -2.12132 -2.12132 
C -2.683901 -1.55874 -3 -0.795609 -3 0 
C -3 0.795609 -2.683901 1.55874 -2.12132 2.12132 
C -1.55874 2.683901 -0.795609 3 0 3 
z
" id="mca408061be" style="stroke:#b0c4de;"/>
    </defs>
    <g clip-path="url(#p5e8521f14a)">
     <use style="fill:#b0c4de;stroke:#b0c4de;" x="452.846409" xlink:href="#mca408061be" y="61.352728"/>
    </g>
   </g>
   <g id="line2d_49">
    <defs>
     <path d="M 0 3 
C 0.795609 3 1.55874 2.683901 2.12132 2.12132 
C 2.683901 1.55874 3 0.795609 3 0 
C 3 -0.795609 2.683901 -1.55874 2.12132 -2.12132 
C 1.55874 -2.683901 0.795609 -3 0 -3 
C -0.795609 -3 -1.55874 -2.683901 -2.12132 -2.12132 
C -2.683901 -1.55874 -3 -0.795609 -3 0 
C -3 0.795609 -2.683901 1.55874 -2.12132 2.12132 
C -1.55874 2.683901 -0.795609 3 0 3 
z
" id="mfe8ed440e2" style="stroke:#87ceeb;"/>
    </defs>
    <g clip-path="url(#p5e8521f14a)">
     <use style="fill:#87ceeb;stroke:#87ceeb;" x="469.232671" xlink:href="#mfe8ed440e2" y="48.48302"/>
    </g>
   </g>
   <g id="line2d_50">
    <defs>
     <path d="M 0 3 
C 0.795609 3 1.55874 2.683901 2.12132 2.12132 
C 2.683901 1.55874 3 0.795609 3 0 
C 3 -0.795609 2.683901 -1.55874 2.12132 -2.12132 
C 1.55874 -2.683901 0.795609 -3 0 -3 
C -0.795609 -3 -1.55874 -2.683901 -2.12132 -2.12132 
C -2.683901 -1.55874 -3 -0.795609 -3 0 
C -3 0.795609 -2.683901 1.55874 -2.12132 2.12132 
C -1.55874 2.683901 -0.795609 3 0 3 
z
" id="m22267d2067" style="stroke:#4169e1;"/>
    </defs>
    <g clip-path="url(#p5e8521f14a)">
     <use style="fill:#4169e1;stroke:#4169e1;" x="482.621222" xlink:href="#m22267d2067" y="19.060525"/>
    </g>
   </g>
   <g id="line2d_51">
    <path clip-path="url(#p5e8521f14a)" d="M 351.045653 105.563627 
L 352.3747 104.847065 
L 353.703746 104.130503 
L 355.032792 103.413942 
L 356.361838 102.69738 
L 357.690884 101.980819 
L 359.01993 101.264257 
L 360.348976 100.547695 
L 361.678023 99.831134 
L 363.007069 99.114572 
L 364.336115 98.398011 
L 365.665161 97.681449 
L 366.994207 96.964887 
L 368.323253 96.248326 
L 369.652299 95.531764 
L 370.981346 94.815203 
L 372.310392 94.098641 
L 373.639438 93.38208 
L 374.968484 92.665518 
L 376.29753 91.948956 
L 377.626576 91.232395 
L 378.955622 90.515833 
L 380.284669 89.799272 
L 381.613715 89.08271 
L 382.942761 88.366148 
L 384.271807 87.649587 
L 385.600853 86.933025 
L 386.929899 86.216464 
L 388.258945 85.499902 
L 389.587992 84.78334 
L 390.917038 84.066779 
L 392.246084 83.350217 
L 393.57513 82.633656 
L 394.904176 81.917094 
L 396.233222 81.200532 
L 397.562268 80.483971 
L 398.891315 79.767409 
L 400.220361 79.050848 
L 401.549407 78.334286 
L 402.878453 77.617724 
L 404.207499 76.901163 
L 405.536545 76.184601 
L 406.865591 75.46804 
L 408.194638 74.751478 
L 409.523684 74.034917 
L 410.85273 73.318355 
L 412.181776 72.601793 
L 413.510822 71.885232 
L 414.839868 71.16867 
L 416.168914 70.452109 
L 417.497961 69.735547 
L 418.827007 69.018985 
L 420.156053 68.302424 
L 421.485099 67.585862 
L 422.814145 66.869301 
L 424.143191 66.152739 
L 425.472237 65.436177 
L 426.801284 64.719616 
L 428.13033 64.003054 
L 429.459376 63.286493 
L 430.788422 62.569931 
L 432.117468 61.853369 
L 433.446514 61.136808 
L 434.77556 60.420246 
L 436.104607 59.703685 
L 437.433653 58.987123 
L 438.762699 58.270561 
L 440.091745 57.554 
L 441.420791 56.837438 
L 442.749837 56.120877 
L 444.078883 55.404315 
L 445.40793 54.687754 
L 446.736976 53.971192 
L 448.066022 53.25463 
L 449.395068 52.538069 
L 450.724114 51.821507 
L 452.05316 51.104946 
L 453.382206 50.388384 
L 454.711253 49.671822 
L 456.040299 48.955261 
L 457.369345 48.238699 
L 458.698391 47.522138 
L 460.027437 46.805576 
L 461.356483 46.089014 
L 462.685529 45.372453 
L 464.014576 44.655891 
L 465.343622 43.93933 
L 466.672668 43.222768 
L 468.001714 42.506206 
L 469.33076 41.789645 
L 470.659806 41.073083 
L 471.988852 40.356522 
L 473.317899 39.63996 
L 474.646945 38.923398 
L 475.975991 38.206837 
L 477.305037 37.490275 
L 478.634083 36.773714 
L 479.963129 36.057152 
L 481.292175 35.34059 
L 482.621222 34.624029 
" style="fill:none;stroke:#808080;stroke-linecap:square;stroke-width:2.25;"/>
   </g>
   <g id="patch_12">
    <path d="M 344.466875 156.4 
L 344.466875 12.52055 
" style="fill:none;stroke:#000000;stroke-linecap:square;stroke-linejoin:miter;stroke-width:0.8;"/>
   </g>
   <g id="patch_13">
    <path d="M 344.466875 156.4 
L 489.2 156.4 
" style="fill:none;stroke:#000000;stroke-linecap:square;stroke-linejoin:miter;stroke-width:0.8;"/>
   </g>
  </g>
 </g>
 <defs>
  <clipPath id="p960b109d67">
   <rect height="143.87945" width="243.66375" x="47.675" y="12.52055"/>
  </clipPath>
  <clipPath id="p5e8521f14a">
   <rect height="143.87945" width="144.733125" x="344.466875" y="12.52055"/>
  </clipPath>
 </defs>
</svg>
