<?xml version="1.0" encoding="utf-8"?>
<!-- Generator: Adobe Illustrator 26.0.3, SVG Export Plug-In . SVG Version: 6.00 Build 0)  -->
<svg version="1.1" id="Layer_1" xmlns="http://www.w3.org/2000/svg" xmlns:xlink="http://www.w3.org/1999/xlink" x="0px" y="0px"
	 viewBox="0 0 293.7 163.7" style="enable-background:new 0 0 293.7 163.7;" xml:space="preserve">
<style type="text/css">
	.st0{opacity:0.5;fill:#1E4397;}
	.st1{opacity:0.5;fill:#EB2127;}
	.st2{fill:#BE202E;}
	.st3{fill:none;stroke:#231F20;stroke-miterlimit:10;}
	.st4{fill:#FFFFFF;stroke:#231F20;stroke-miterlimit:10;}
	.st5{fill:#231F20;}
	.st6{opacity:0.5;fill:#046938;}
	.st7{opacity:0.5;fill:#E90E8B;}
	.st8{font-family:'ArialMT';}
	.st9{font-size:10px;}
	.st10{font-family:'MicrosoftSansSerif';}
	.st11{font-size:8px;}
	.st12{fill:#010101;}
	.st13{fill:none;stroke:#231F20;stroke-width:0.25;stroke-linecap:square;stroke-linejoin:round;}
</style>
<circle class="st0" cx="172.5" cy="36.1" r="7.9"/>
<circle class="st1" cx="172.5" cy="108" r="7.9"/>
<path class="st2" d="M158.8,58.9"/>
<path class="st3" d="M156.7,82.6c0,9,3.9,16.7,9.9,20.6"/>
<rect x="145.3" y="69.5" class="st4" width="22.4" height="12.4"/>
<g>
	<g>
		<path class="st3" d="M178.9,40.6c1.7,1.8,10.1,8.6,10.4,27c0.2,10.2-3.9,22.7-6.7,28.3"/>
		<g>
			<polygon class="st5" points="181.6,93.7 182.8,95.3 184.8,95.6 180.9,98.4 			"/>
		</g>
	</g>
</g>
<g>
	<g>
		<path class="st3" d="M149.4,69.5C149.1,63,153,49.6,160,42.8"/>
		<g>
			<polygon class="st5" points="162.8,40.6 160.2,45.3 159.9,43 157.7,42.2 			"/>
		</g>
	</g>
</g>
<g>
	<g>
		<path class="st3" d="M164.2,69.9c0-5.6-0.7-10.5,4.4-21.8"/>
		<g>
			<path class="st5" d="M170.3,49c0.4-0.9,0-2.1-0.9-2.5c-0.9-0.4-2.1,0-2.5,0.9c-0.4,0.9,0,2.1,0.9,2.5
				C168.8,50.4,169.9,49.9,170.3,49z"/>
		</g>
	</g>
</g>
<circle class="st6" cx="256" cy="37.4" r="7.9"/>
<circle class="st7" cx="256" cy="109.3" r="7.9"/>
<path class="st2" d="M242.2,60.3"/>
<path class="st3" d="M240.2,84c0,9,3.9,16.7,9.9,20.6"/>
<rect x="228.7" y="70.9" class="st4" width="22.4" height="12.4"/>
<g>
	<g>
		<path class="st3" d="M262.4,42c1.7,1.8,10.1,8.6,10.4,27c0.2,10.2-3.9,22.7-6.7,28.3"/>
		<g>
			<polygon class="st5" points="265.1,95.1 266.2,96.7 268.2,97 264.4,99.8 			"/>
		</g>
	</g>
</g>
<g>
	<g>
		<path class="st3" d="M232.8,70.9c-0.3-6.5,3.6-19.9,10.7-26.7"/>
		<g>
			<polygon class="st5" points="246.3,42 243.7,46.7 243.3,44.4 241.1,43.6 			"/>
		</g>
	</g>
</g>
<g>
	<g>
		<path class="st3" d="M247.7,71.3c0-5.6-0.7-10.5,4.4-21.8"/>
		<g>
			<path class="st5" d="M253.8,50.4c0.4-0.9,0-2.1-0.9-2.5c-0.9-0.4-2.1,0-2.5,0.9c-0.4,0.9,0,2.1,0.9,2.5
				C252.3,51.7,253.4,51.3,253.8,50.4z"/>
		</g>
	</g>
</g>
<g>
	<g>
		<path class="st3" d="M245.1,39.5c-2.9,1.1-16.4,7-31.4,7c-11.9,0-23.6-4.3-29-7.6"/>
		<g>
			<polygon class="st5" points="187,38.2 185.3,39.2 184.9,41.2 182.4,37.2 			"/>
		</g>
	</g>
</g>
<g>
	<g>
		<path class="st3" d="M242.4,28.9c-5.4-2.4-16-6.7-27.7-7.3c-14.3-0.8-28.5,4.5-31.8,7.5"/>
		<g>
			<polygon class="st5" points="245.6,30.3 242,26.4 242.2,28.8 240.3,30.1 			"/>
		</g>
	</g>
</g>
<g>
	<g>
		<path class="st3" d="M245.4,114.8c-2.9,1.1-16.4,7-31.4,7c-12.7,0-25.2-4.9-30-8.2"/>
		<g>
			
				<ellipse transform="matrix(0.1263 -0.992 0.992 0.1263 48.0709 281.9785)" class="st5" cx="184.1" cy="113.7" rx="1.9" ry="1.9"/>
		</g>
	</g>
</g>
<g>
	<g>
		<path class="st3" d="M243.5,107c-4.7-2.2-16.3-7.3-29.3-8.1c-14.3-0.8-28.5,4.5-31.8,7.5"/>
		<g>
			<path class="st5" d="M244.2,105.2c0.9,0.4,1.4,1.6,0.9,2.5c-0.4,0.9-1.6,1.4-2.5,0.9c-0.9-0.4-1.4-1.6-0.9-2.5
				C242.2,105.2,243.3,104.8,244.2,105.2z"/>
		</g>
	</g>
</g>
<text transform="matrix(1 0 0 1 159.6451 23.0575)" class="st5 st8 st9">OFC</text>
<text transform="matrix(1 0 0 1 158.7676 130.6135)" class="st5 st8 st9">NAcc</text>
<text transform="matrix(1 0 0 1 245.1162 133.1308)" class="st5 st8 st9">dPut</text>
<text transform="matrix(1 0 0 1 243.362 23.0577)" class="st5 st8 st9">LPFC</text>
<text transform="matrix(1 0 0 1 168.4312 39.5729)" class="st5 st8 st9">O</text>
<text transform="matrix(1 0 0 1 253.076 40.4821)" class="st5 st8 st9">L</text>
<text transform="matrix(1 0 0 1 169.4313 111.2754)" class="st5 st8 st9">A</text>
<text transform="matrix(1 0 0 1 253.2645 113.1371)" class="st5 st8 st9">P</text>
<g>
	<g>
		<path class="st3" d="M167.6,154.4c4.7,0,9.3,0,14,0"/>
		<g>
			<polygon class="st5" points="185.1,154.4 180.1,156.4 181.3,154.4 180.1,152.3 			"/>
		</g>
	</g>
</g>
<g>
	<g>
		<path class="st3" d="M232.9,154.4c5.2,0,10.5,0,15.7,0"/>
		<g>
			<circle class="st5" cx="248.5" cy="154.4" r="1.9"/>
		</g>
	</g>
</g>
<text transform="matrix(1 0 0 1 253.9632 156.365)" class="st5 st10 st11">inh</text>
<text transform="matrix(1 0 0 1 189.7079 156.365)" class="st5 st10 st11">exc</text>
<g id="text_4_00000088117150089604869390000004942401608926563973_">
	<g transform="translate(505.889217 120.804375)scale(0.12 -0.12)">
		<g transform="translate(0 0.78125)">
			<path id="DejaVuSans-43_00000160173082200935347860000005456387848862084786_" class="st12" d="M-2546.2,713.2V706
				c-2.3,2.1-4.8,3.8-7.4,4.8c-2.6,1.1-5.4,1.6-8.3,1.6c-5.8,0-10.2-1.8-13.3-5.3c-3.1-3.5-4.6-8.7-4.6-15.3
				c0-6.7,1.5-11.8,4.6-15.3c3.1-3.5,7.5-5.3,13.3-5.3c2.9,0,5.7,0.5,8.3,1.6c2.6,1.1,5.1,2.7,7.4,4.8v-7.2
				c-2.4-1.6-4.9-2.9-7.6-3.7c-2.7-0.8-5.5-1.2-8.5-1.2c-7.7,0-13.7,2.3-18.1,7c-4.4,4.7-6.6,11.1-6.6,19.2c0,8.1,2.2,14.6,6.6,19.2
				c4.4,4.7,10.5,7,18.1,7c3,0,5.9-0.4,8.6-1.2C-2551.1,716-2548.6,714.8-2546.2,713.2z"/>
		</g>
		<g transform="translate(70.78125 -15.625)scale(0.7)">
			<path id="DejaVuSans-4f_00000080175472912354737960000001452004860201374380_" class="st12" d="M-2522.6,687.3
				c-3.5,0-6.3-1.3-8.3-3.9c-2-2.6-3.1-6.1-3.1-10.6c0-4.5,1-8,3.1-10.6c2.1-2.6,4.8-3.9,8.3-3.9c3.5,0,6.2,1.3,8.3,3.9
				c2,2.6,3.1,6.1,3.1,10.6c0,4.5-1,8-3.1,10.6C-2516.4,686-2519.1,687.3-2522.6,687.3z M-2522.6,691.2c5,0,8.9-1.7,11.9-5
				c3-3.3,4.5-7.8,4.5-13.4c0-5.6-1.5-10-4.5-13.4c-3-3.3-6.9-5-11.9-5c-5,0-9,1.7-12,5c-3,3.3-4.5,7.8-4.5,13.4s1.5,10.1,4.5,13.4
				C-2531.6,689.5-2527.6,691.2-2522.6,691.2z"/>
		</g>
		<g transform="translate(125.878906 -15.625)scale(0.7)">
			<path id="DejaVuSans-4c_00000056388869812099789000000003099979387204411324_" class="st12" d="M-2498.7,690.5h4.8v-31.4h17.3v-4
				h-22V690.5z"/>
		</g>
	</g>
</g>
<g id="text_19_00000075151382255089023810000002382441458862419331_">
	<g transform="translate(505.889217 244.104375)scale(0.12 -0.12)">
		<g transform="translate(0 0.78125)">
			<path id="DejaVuSans-43_00000088840952655431377150000008865315932474730638_" class="st12" d="M-2332.2,1931.4v-7.2
				c-2.3,2.1-4.8,3.8-7.4,4.8c-2.6,1.1-5.4,1.6-8.3,1.6c-5.8,0-10.2-1.8-13.3-5.3c-3.1-3.5-4.6-8.7-4.6-15.3
				c0-6.7,1.5-11.8,4.6-15.3c3.1-3.5,7.5-5.3,13.3-5.3c2.9,0,5.7,0.5,8.3,1.6s5.1,2.7,7.4,4.8v-7.2c-2.4-1.6-4.9-2.9-7.6-3.7
				c-2.7-0.8-5.5-1.2-8.5-1.2c-7.7,0-13.7,2.3-18.1,7c-4.4,4.7-6.6,11.1-6.6,19.2c0,8.1,2.2,14.6,6.6,19.2c4.4,4.7,10.5,7,18.1,7
				c3,0,5.9-0.4,8.6-1.2C-2337.1,1934.2-2334.6,1933-2332.2,1931.4z"/>
		</g>
		<g transform="translate(70.78125 -15.625)scale(0.7)">
			<path id="DejaVuSans-4c_00000007392000662999161090000000912549393462925465_" class="st12" d="M-2323,1908.7h4.8v-31.4h17.3v-4
				h-22V1908.7z"/>
		</g>
		<g transform="translate(109.780273 -15.625)scale(0.7)">
			<path id="DejaVuSans-4f_00000005974511296189794170000017952561372298646157_" class="st12" d="M-2281.6,1905.5
				c-3.5,0-6.3-1.3-8.3-3.9c-2-2.6-3.1-6.1-3.1-10.6c0-4.5,1-8,3.1-10.6c2.1-2.6,4.8-3.9,8.3-3.9c3.5,0,6.2,1.3,8.3,3.9
				c2,2.6,3.1,6.1,3.1,10.6c0,4.5-1,8-3.1,10.6C-2275.3,1904.2-2278.1,1905.5-2281.6,1905.5z M-2281.6,1909.3c5,0,8.9-1.7,11.9-5
				c3-3.3,4.5-7.8,4.5-13.4c0-5.6-1.5-10-4.5-13.4c-3-3.3-6.9-5-11.9-5c-5,0-9,1.7-12,5c-3,3.3-4.5,7.8-4.5,13.4
				c0,5.6,1.5,10.1,4.5,13.4C-2290.5,1907.7-2286.5,1909.3-2281.6,1909.3z"/>
		</g>
	</g>
</g>
<g id="text_48_00000072983503271806026120000009289399609280947887_">
	<g transform="translate(367.435803 367.404375)scale(0.12 -0.12)">
		<g transform="translate(0 0.78125)">
			<path id="DejaVuSans-43_00000157294406844774495970000007670184390475131275_" class="st12" d="M-738.8,2367.5v-7.2
				c-2.3,2.1-4.8,3.8-7.4,4.8c-2.6,1.1-5.4,1.6-8.3,1.6c-5.8,0-10.2-1.8-13.3-5.3c-3.1-3.5-4.6-8.7-4.6-15.3
				c0-6.7,1.5-11.8,4.6-15.3c3.1-3.5,7.5-5.3,13.3-5.3c2.9,0,5.7,0.5,8.3,1.6c2.6,1.1,5.1,2.7,7.4,4.8v-7.2
				c-2.4-1.6-4.9-2.9-7.6-3.7c-2.7-0.8-5.5-1.2-8.5-1.2c-7.7,0-13.7,2.3-18.1,7c-4.4,4.7-6.6,11.1-6.6,19.2c0,8.1,2.2,14.6,6.6,19.2
				c4.4,4.7,10.5,7,18.1,7c3,0,5.9-0.4,8.6-1.2C-743.7,2370.3-741.1,2369.1-738.8,2367.5z"/>
		</g>
		<g transform="translate(70.78125 -15.625)scale(0.7)">
			<path id="DejaVuSans-50_00000077297966191705987730000013753303914274410669_" class="st12" d="M-724.8,2340.9v-13.3h6
				c2.2,0,4,0.6,5.2,1.7c1.2,1.2,1.8,2.8,1.8,4.9c0,2.1-0.6,3.8-1.8,4.9c-1.2,1.2-2.9,1.7-5.2,1.7H-724.8z M-729.6,2344.8h10.8
				c4,0,7-0.9,9-2.7c2-1.8,3.1-4.4,3.1-7.9c0-3.5-1-6.1-3.1-7.9c-2-1.8-5-2.7-9-2.7h-6v-14.2h-4.8V2344.8z"/>
		</g>
		<g transform="translate(112.993164 -15.625)scale(0.7)">
			<path id="DejaVuSans-4c_00000152264570715441135010000001467669188375143045_" class="st12" d="M-700.3,2344.8h4.8v-31.4h17.3v-4
				h-22V2344.8z"/>
		</g>
	</g>
</g>
<g id="text_26_00000130607081888136218410000013979048296666459776_">
	<g transform="translate(645.90263 244.104375)scale(0.12 -0.12)">
		<g transform="translate(0 0.78125)">
			<path id="DejaVuSans-43_00000059279343109676216080000016258975588575927431_" class="st12" d="M-3562,1422v-7.2
				c-2.3,2.1-4.8,3.8-7.4,4.8c-2.6,1.1-5.4,1.6-8.3,1.6c-5.8,0-10.2-1.8-13.3-5.3c-3.1-3.5-4.6-8.7-4.6-15.3
				c0-6.7,1.5-11.8,4.6-15.3s7.5-5.3,13.3-5.3c2.9,0,5.7,0.5,8.3,1.6c2.6,1.1,5.1,2.7,7.4,4.8v-7.2c-2.4-1.6-4.9-2.9-7.6-3.7
				c-2.7-0.8-5.5-1.2-8.5-1.2c-7.7,0-13.7,2.3-18.1,7c-4.4,4.7-6.6,11.1-6.6,19.2c0,8.1,2.2,14.6,6.6,19.2c4.4,4.7,10.5,7,18.1,7
				c3,0,5.9-0.4,8.6-1.2C-3566.9,1424.8-3564.4,1423.6-3562,1422z"/>
		</g>
		<g transform="translate(70.78125 -15.625)scale(0.7)">
			<path id="DejaVuSans-4c_00000019657778156991403790000009529358151291230377_" class="st12" d="M-3552.8,1399.3h4.8v-31.4h17.3
				v-4h-22V1399.3z"/>
		</g>
		<g transform="translate(109.780273 -15.625)scale(0.7)">
			<path id="DejaVuSans-50_00000129207985973860088160000006736362122015601808_" class="st12" d="M-3521,1395.4v-13.3h6
				c2.2,0,4,0.6,5.2,1.7c1.2,1.2,1.8,2.8,1.8,4.9c0,2.1-0.6,3.8-1.8,4.9c-1.2,1.2-2.9,1.7-5.2,1.7H-3521z M-3525.8,1399.3h10.8
				c4,0,7-0.9,9-2.7c2-1.8,3.1-4.4,3.1-7.9c0-3.5-1-6.1-3.1-7.9c-2-1.8-5-2.7-9-2.7h-6v-14.2h-4.8V1399.3z"/>
		</g>
	</g>
</g>
<g id="text_12_00000053530740891689753030000004150824874454731704_">
	<g transform="translate(644.58263 120.804375)scale(0.12 -0.12)">
		<g transform="translate(0 0.78125)">
			<path id="DejaVuSans-43_00000021113476060041747290000004654425194383407755_" class="st12" d="M-4277.8,408.9v-7.2
				c-2.3,2.1-4.8,3.8-7.4,4.8c-2.6,1.1-5.4,1.6-8.3,1.6c-5.8,0-10.2-1.8-13.3-5.3c-3.1-3.5-4.6-8.7-4.6-15.3
				c0-6.7,1.5-11.8,4.6-15.3c3.1-3.5,7.5-5.3,13.3-5.3c2.9,0,5.7,0.5,8.3,1.6c2.6,1.1,5.1,2.7,7.4,4.8v-7.2
				c-2.4-1.6-4.9-2.9-7.6-3.7c-2.7-0.8-5.5-1.2-8.5-1.2c-7.7,0-13.7,2.3-18.1,7c-4.4,4.7-6.6,11.1-6.6,19.2c0,8.1,2.2,14.6,6.6,19.2
				c4.4,4.7,10.5,7,18.1,7c3,0,5.9-0.4,8.6-1.2C-4282.6,411.7-4280.1,410.5-4277.8,408.9z"/>
		</g>
		<g transform="translate(70.78125 -15.625)scale(0.7)">
			<path id="DejaVuSans-4f_00000062895316136446237040000008665607692472321690_" class="st12" d="M-4254.2,383
				c-3.5,0-6.3-1.3-8.3-3.9c-2-2.6-3.1-6.1-3.1-10.6c0-4.5,1-8,3.1-10.6c2.1-2.6,4.8-3.9,8.3-3.9c3.5,0,6.2,1.3,8.3,3.9
				c2,2.6,3.1,6.1,3.1,10.6c0,4.5-1,8-3.1,10.6C-4247.9,381.7-4250.7,383-4254.2,383z M-4254.2,386.9c5,0,8.9-1.7,11.9-5
				c3-3.3,4.5-7.8,4.5-13.4c0-5.6-1.5-10-4.5-13.4c-3-3.3-6.9-5-11.9-5c-5,0-9,1.7-12,5c-3,3.3-4.5,7.8-4.5,13.4s1.5,10.1,4.5,13.4
				C-4263.1,385.2-4259.2,386.9-4254.2,386.9z"/>
		</g>
		<g transform="translate(125.878906 -15.625)scale(0.7)">
			<path id="DejaVuSans-41_00000073721653033685964370000014740514646723175091_" class="st12" d="M-4218.5,381.5l-6.5-17.6h13
				L-4218.5,381.5z M-4221.2,386.2h5.4l13.5-35.4h-5l-3.2,9.1h-16l-3.2-9.1h-5.1L-4221.2,386.2z"/>
		</g>
	</g>
</g>
<g id="text_33_00000083793313795987942000000001013217250621284013_">
	<g transform="translate(87.648976 367.404375)scale(0.12 -0.12)">
		<g transform="translate(0 0.78125)">
			<path id="DejaVuSans-43_00000169522867900697664970000001165369995030070935_" class="st12" d="M902.5,2371.8v-7.2
				c-2.3,2.1-4.8,3.8-7.4,4.8c-2.6,1.1-5.4,1.6-8.3,1.6c-5.8,0-10.2-1.8-13.3-5.3s-4.6-8.7-4.6-15.3c0-6.7,1.5-11.8,4.6-15.3
				s7.5-5.3,13.3-5.3c2.9,0,5.7,0.5,8.3,1.6c2.6,1.1,5.1,2.7,7.4,4.8v-7.2c-2.4-1.6-4.9-2.9-7.6-3.7c-2.7-0.8-5.5-1.2-8.5-1.2
				c-7.7,0-13.7,2.3-18.1,7c-4.4,4.7-6.6,11.1-6.6,19.2c0,8.1,2.2,14.6,6.6,19.2c4.4,4.7,10.5,7,18.1,7c3,0,5.9-0.4,8.6-1.2
				C897.7,2374.6,900.2,2373.4,902.5,2371.8z"/>
		</g>
		<g transform="translate(70.78125 -15.625)scale(0.7)">
			<path id="DejaVuSans-41_00000018936391991648223200000013292080563838652092_" class="st12" d="M923.6,2344.4l-6.5-17.6h13
				L923.6,2344.4z M920.9,2349.1h5.4l13.5-35.4h-5l-3.2,9.1h-16l-3.2-9.1h-5.1L920.9,2349.1z"/>
		</g>
		<g transform="translate(118.666992 -15.625)scale(0.7)">
			<path id="DejaVuSans-4f_00000031179071714795683020000005555339002226700687_" class="st12" d="M959.4,2345.9
				c-3.5,0-6.3-1.3-8.3-3.9c-2-2.6-3.1-6.1-3.1-10.6c0-4.5,1-8,3.1-10.6c2.1-2.6,4.8-3.9,8.3-3.9c3.5,0,6.2,1.3,8.3,3.9
				c2,2.6,3.1,6.1,3.1,10.6c0,4.5-1,8-3.1,10.6C965.6,2344.6,962.8,2345.9,959.4,2345.9z M959.4,2349.8c5,0,8.9-1.7,11.9-5
				c3-3.3,4.5-7.8,4.5-13.4c0-5.6-1.5-10-4.5-13.4c-3-3.3-6.9-5-11.9-5c-5,0-9,1.7-12,5c-3,3.3-4.5,7.8-4.5,13.4
				c0,5.6,1.5,10.1,4.5,13.4C950.4,2348.1,954.4,2349.8,959.4,2349.8z"/>
		</g>
	</g>
</g>
<g id="text_41_00000178189035789729607550000010502156945024571839_">
	<g transform="translate(227.662389 367.404375)scale(0.12 -0.12)">
		<g transform="translate(0 0.78125)">
			<path id="DejaVuSans-43_00000018201994644458274270000009390221108284352923_" class="st12" d="M-179.2,2021.8v-7.2
				c-2.3,2.1-4.8,3.8-7.4,4.8c-2.6,1.1-5.4,1.6-8.3,1.6c-5.8,0-10.2-1.8-13.3-5.3c-3.1-3.5-4.6-8.7-4.6-15.3
				c0-6.7,1.5-11.8,4.6-15.3c3.1-3.5,7.5-5.3,13.3-5.3c2.9,0,5.7,0.5,8.3,1.6c2.6,1.1,5.1,2.7,7.4,4.8v-7.2
				c-2.4-1.6-4.9-2.9-7.6-3.7c-2.7-0.8-5.5-1.2-8.5-1.2c-7.7,0-13.7,2.3-18.1,7c-4.4,4.7-6.6,11.1-6.6,19.2c0,8.1,2.2,14.6,6.6,19.2
				c4.4,4.7,10.5,7,18.1,7c3,0,5.9-0.4,8.6-1.2C-184.1,2024.7-181.6,2023.4-179.2,2021.8z"/>
		</g>
		<g transform="translate(70.78125 -15.625)scale(0.7)">
			<path id="DejaVuSans-41_00000178897495422699217880000014685262688480965538_" class="st12" d="M-158.2,1994.4l-6.5-17.6h13
				L-158.2,1994.4z M-160.9,1999.2h5.4l13.5-35.4h-5l-3.2,9.1h-16l-3.2-9.1h-5.1L-160.9,1999.2z"/>
		</g>
		<g transform="translate(118.666992 -15.625)scale(0.7)">
			<path id="DejaVuSans-50_00000056418024106368409480000005313370328135114401_" class="st12" d="M-132,1995.2v-13.3h6
				c2.2,0,4,0.6,5.2,1.7c1.2,1.2,1.8,2.8,1.8,4.9c0,2.1-0.6,3.8-1.8,4.9c-1.2,1.2-2.9,1.7-5.2,1.7H-132z M-136.8,1999.2h10.8
				c4,0,7-0.9,9-2.7c2-1.8,3.1-4.4,3.1-7.9c0-3.5-1-6.1-3.1-7.9c-2-1.8-5-2.7-9-2.7h-6v-14.2h-4.8V1999.2z"/>
		</g>
	</g>
</g>
<g id="text_55_00000176744613788249403710000001398588296165172612_">
	<g transform="translate(506.129217 367.404375)scale(0.12 -0.12)">
		<g transform="translate(0 0.78125)">
			<path id="DejaVuSans-43_00000088815533525360907340000015565840465325748609_" class="st12" d="M-2351,2201.4v-7.2
				c-2.3,2.1-4.8,3.8-7.4,4.8c-2.6,1.1-5.4,1.6-8.3,1.6c-5.8,0-10.2-1.8-13.3-5.3c-3.1-3.5-4.6-8.7-4.6-15.3
				c0-6.7,1.5-11.8,4.6-15.3c3.1-3.5,7.5-5.3,13.3-5.3c2.9,0,5.7,0.5,8.3,1.6c2.6,1.1,5.1,2.7,7.4,4.8v-7.2
				c-2.4-1.6-4.9-2.9-7.6-3.7c-2.7-0.8-5.5-1.2-8.5-1.2c-7.7,0-13.7,2.3-18.1,7c-4.4,4.7-6.6,11.1-6.6,19.2c0,8.1,2.2,14.6,6.6,19.2
				c4.4,4.7,10.5,7,18.1,7c3,0,5.9-0.4,8.6-1.2C-2355.8,2204.2-2353.3,2203-2351,2201.4z"/>
		</g>
		<g transform="translate(70.78125 -15.625)scale(0.7)">
			<path id="DejaVuSans-50_00000031168101608361413410000009907246168996524426_" class="st12" d="M-2337,2174.8v-13.3h6
				c2.2,0,4,0.6,5.2,1.7c1.2,1.2,1.8,2.8,1.8,4.9c0,2.1-0.6,3.8-1.8,4.9c-1.2,1.2-2.9,1.7-5.2,1.7H-2337z M-2341.8,2178.8h10.8
				c4,0,7-0.9,9-2.7c2-1.8,3.1-4.4,3.1-7.9c0-3.5-1-6.1-3.1-7.9c-2-1.8-5-2.7-9-2.7h-6v-14.2h-4.8V2178.8z"/>
		</g>
		<g transform="translate(112.993164 -15.625)scale(0.7)">
			<path id="DejaVuSans-41_00000071527836900143610820000013480715797707405737_" class="st12" d="M-2300.6,2174l-6.5-17.6h13
				L-2300.6,2174z M-2303.3,2178.8h5.4l13.5-35.4h-5l-3.2,9.1h-16l-3.2-9.1h-5.1L-2303.3,2178.8z"/>
		</g>
	</g>
</g>
<g id="text_68_00000009567654678835986380000011398208909582482304_">
	<g transform="translate(88.008976 490.68)scale(0.12 -0.12)">
		<g>
			<path id="DejaVuSans-3b7_00000142174323222075544840000013956488297324142735_" class="st12" d="M390.2,3570.6v-37.4H384v37.2
				c0,3.6-0.7,6.3-2.1,8.1c-1.4,1.8-3.5,2.7-6.3,2.7c-3.4,0-6-1.1-8-3.2c-1.9-2.1-2.9-5.1-2.9-8.8v-21.5h-6.3v38h6.3v-5.9
				c1.5,2.3,3.3,4,5.3,5.1c2,1.1,4.4,1.7,7,1.7c4.4,0,7.7-1.3,9.9-4C389.1,3579.8,390.2,3575.8,390.2,3570.6z"/>
		</g>
		<g transform="translate(64.335938 -16.40625)scale(0.7)">
			<path id="DejaVuSans-4f_00000179621439681181140960000010677992794675948940_" class="st12" d="M415.9,3568.5
				c-3.5,0-6.3-1.3-8.3-3.9c-2-2.6-3.1-6.1-3.1-10.6c0-4.5,1-8,3.1-10.6c2.1-2.6,4.8-3.9,8.3-3.9c3.5,0,6.2,1.3,8.3,3.9
				c2,2.6,3.1,6.1,3.1,10.6c0,4.5-1,8-3.1,10.6C422.2,3567.2,419.4,3568.5,415.9,3568.5z M415.9,3572.3c5,0,8.9-1.7,11.9-5
				c3-3.3,4.5-7.8,4.5-13.4c0-5.6-1.5-10-4.5-13.4c-3-3.3-6.9-5-11.9-5c-5,0-9,1.7-12,5c-3,3.3-4.5,7.8-4.5,13.4
				c0,5.6,1.5,10.1,4.5,13.4C407,3570.7,411,3572.3,415.9,3572.3z"/>
		</g>
		<g transform="translate(119.433594 -16.40625)scale(0.7)">
			<path id="DejaVuSans-41_00000108281793900355612450000005844684808388413372_" class="st12" d="M451.7,3567l-6.5-17.6h13
				L451.7,3567z M449,3571.7h5.4l13.5-35.4h-5l-3.2,9.1h-16l-3.2-9.1h-5.1L449,3571.7z"/>
		</g>
	</g>
</g>
<g id="text_91_00000106148418811456532760000003950293371306415244_">
	<g transform="translate(505.709217 490.704375)scale(0.12 -0.12)">
		<g transform="translate(0 0.3125)">
			<path id="DejaVuSans-3c3_00000036251916899924419520000013582600676852543413_" class="st12" d="M-3068.7,3679.1
				c-3.4,0-6.1-1.2-7.9-3.7c-1.9-2.6-2.9-6-2.9-10.3c0-4.5,1-8.1,2.9-10.7c1.9-2.6,4.6-3.9,8-3.9c3.3,0,6,1.3,7.9,3.9
				c1.9,2.6,2.9,6.2,2.9,10.7c0,4.1-1,7.6-2.9,10.3C-3062.6,3677.8-3065.2,3679.1-3068.7,3679.1z M-3068.7,3684h20.7v-6.2h-7
				c2.5-3.5,3.7-7.8,3.7-12.8c0-6.2-1.5-11.1-4.6-14.6c-3.1-3.6-7.4-5.3-12.8-5.3c-5.4,0-9.7,1.8-12.8,5.3
				c-3.1,3.5-4.6,8.4-4.6,14.6c0,6.3,1.5,11.1,4.6,14.6C-3079,3682.6-3074.7,3684-3068.7,3684z"/>
		</g>
		<g transform="translate(64.335938 -16.09375)scale(0.7)">
			<path id="DejaVuSans-4f_00000078014022683105191540000004437923360795383958_" class="st12" d="M-3026.2,3666.9
				c-3.5,0-6.3-1.3-8.3-3.9c-2-2.6-3.1-6.1-3.1-10.6c0-4.5,1-8,3.1-10.6c2.1-2.6,4.8-3.9,8.3-3.9c3.5,0,6.2,1.3,8.3,3.9
				c2,2.6,3.1,6.1,3.1,10.6c0,4.5-1,8-3.1,10.6C-3019.9,3665.6-3022.7,3666.9-3026.2,3666.9z M-3026.2,3670.7c5,0,8.9-1.7,11.9-5
				c3-3.3,4.5-7.8,4.5-13.4c0-5.6-1.5-10-4.5-13.4c-3-3.3-6.9-5-11.9-5c-5,0-9,1.7-12,5c-3,3.3-4.5,7.8-4.5,13.4s1.5,10.1,4.5,13.4
				C-3035.1,3669.1-3031.1,3670.7-3026.2,3670.7z"/>
		</g>
		<g transform="translate(119.433594 -16.09375)scale(0.7)">
			<path id="DejaVuSans-41_00000020395301246982003080000016057569809827229571_" class="st12" d="M-2990.4,3665.4l-6.5-17.6h13
				L-2990.4,3665.4z M-2993.1,3670.1h5.4l13.5-35.4h-5l-3.2,9.1h-16l-3.2-9.1h-5.1L-2993.1,3670.1z"/>
		</g>
	</g>
</g>
<g id="text_97_00000026871035626343610290000013843457690150913941_">
	<g transform="translate(646.26263 490.704375)scale(0.12 -0.12)">
		<g transform="translate(0 0.3125)">
			<path id="DejaVuSans-3c3_00000066507204532809242230000003708950223412085152_" class="st12" d="M-3528.6,3653.7
				c-3.4,0-6.1-1.2-7.9-3.7c-1.9-2.6-2.9-6-2.9-10.3c0-4.5,1-8.1,2.9-10.7c1.9-2.6,4.6-3.9,8-3.9c3.3,0,6,1.3,7.9,3.9
				c1.9,2.6,2.9,6.2,2.9,10.7c0,4.1-1,7.6-2.9,10.3C-3522.5,3652.5-3525.1,3653.7-3528.6,3653.7z M-3528.6,3658.7h20.7v-6.2h-7
				c2.5-3.5,3.7-7.8,3.7-12.8c0-6.2-1.5-11.1-4.6-14.6c-3.1-3.6-7.4-5.3-12.8-5.3c-5.4,0-9.7,1.8-12.8,5.3
				c-3.1,3.5-4.6,8.4-4.6,14.6c0,6.3,1.5,11.1,4.6,14.6C-3538.8,3657.2-3534.6,3658.7-3528.6,3658.7z"/>
		</g>
		<g transform="translate(64.335938 -16.09375)scale(0.7)">
			<path id="DejaVuSans-4c_00000065791012293057694050000011517212610064081341_" class="st12" d="M-3500.4,3644.7h4.8v-31.4h17.3
				v-4h-22V3644.7z"/>
		</g>
		<g transform="translate(103.334961 -16.09375)scale(0.7)">
			<path id="DejaVuSans-50_00000011019569200928090580000002241310681648238494_" class="st12" d="M-3468.5,3640.8v-13.3h6
				c2.2,0,4,0.6,5.2,1.7c1.2,1.2,1.8,2.8,1.8,4.9c0,2.1-0.6,3.8-1.8,4.9c-1.2,1.2-2.9,1.7-5.2,1.7H-3468.5z M-3473.3,3644.7h10.8
				c4,0,7-0.9,9-2.7c2-1.8,3.1-4.4,3.1-7.9c0-3.5-1-6.1-3.1-7.9c-2-1.8-5-2.7-9-2.7h-6v-14.2h-4.8V3644.7z"/>
		</g>
	</g>
</g>
<g id="text_77_00000114069746711501209620000007581244755940980155_">
	<g transform="translate(228.562389 490.68)scale(0.12 -0.12)">
		<g>
			<path id="DejaVuSans-3b7_00000170238250446645903360000017068050882000166306_" class="st12" d="M-62.7,3556.1v-37.4h-6.2v37.2
				c0,3.6-0.7,6.3-2.1,8.1c-1.4,1.8-3.5,2.7-6.3,2.7c-3.4,0-6-1.1-8-3.2c-1.9-2.1-2.9-5.1-2.9-8.8v-21.5h-6.3v38h6.3v-5.9
				c1.5,2.3,3.3,4,5.3,5.1c2,1.1,4.4,1.7,7,1.7c4.4,0,7.7-1.3,9.9-4C-63.8,3565.3-62.7,3561.3-62.7,3556.1z"/>
		</g>
		<g transform="translate(64.335938 -16.40625)scale(0.7)">
			<path id="DejaVuSans-4c_00000048462344617204066900000007142010457418317742_" class="st12" d="M-51.3,3557.2h4.8v-31.4h17.3v-4
				h-22V3557.2z"/>
		</g>
		<g transform="translate(103.334961 -16.40625)scale(0.7)">
			<path id="DejaVuSans-50_00000065788275864567061820000014013151738832361129_" class="st12" d="M-19.5,3553.2v-13.3h6
				c2.2,0,4,0.6,5.2,1.7c1.2,1.2,1.8,2.8,1.8,4.9c0,2.1-0.6,3.8-1.8,4.9c-1.2,1.2-2.9,1.7-5.2,1.7H-19.5z M-24.2,3557.2h10.8
				c4,0,7-0.9,9-2.7c2-1.8,3.1-4.4,3.1-7.9c0-3.5-1-6.1-3.1-7.9c-2-1.8-5-2.7-9-2.7h-6v-14.2h-4.8V3557.2z"/>
		</g>
	</g>
</g>
<g id="KAJAv0.tif">
	
		<image style="overflow:visible;" width="730" height="514" id="Layer_0_00000016793787973642204960000015454522840509929118_" xlink:href="711F30C02CCDE008.png"  transform="matrix(0.1397 0 0 0.1397 10.8098 9.4736)">
	</image>
</g>
<g id="Wf0oCq.tif">
	
		<image style="overflow:visible;" width="792" height="564" id="Layer_0_00000121270538918980526310000004390422827219576734_" xlink:href="711F30C02CCDE009.png"  transform="matrix(0.1288 0 0 0.1288 12.2404 81.8816)">
	</image>
</g>
<path class="st13" d="M145.8,76.3l0.1-0.1l0.1-0.1l0.1-0.5l0.1,0.7l0.1-1.1l0.1-0.1l0.1-1.7l0.1,4.3l0.1-4.3l0.1,2l0.1-3l0.1,3.2
	l0.1-2.2l0.1,2.9l0.1-1.4l0.1,2.6l0.1-0.5l0.1-2l0.1,2.6l0.1,0.5l0.1-1.8l0.1-3.1l0.1,1.3l0.1,2.4l0.1-1.6l0.1-0.7l0.1,4.7l0.1-4.7
	l0.1,2.2l0.1-3l0.1,1.5l0.1-3.5l0.1,7.8l0.1,0.6l0.1,0.1l0.1-4.4l0.1,1.4l0.1-0.8l0.1-2.9l0.1,2.2l0.1-0.7l0.1,1.7l0.1-3.4l0.1,2.8
	l0.1,1l0.1-1.7l0.1,2.8l0.1-0.9l0.1-2.9l0.1,0l0.1,0.5l0.1,0.3l0.1,5.1l0.1-8.3l0.1-0.6l0.1,2.4l0.1,1.6l0.1,3l0.2-6.7l0.1,6.2
	l0.1-3.6l0.1,3.5l0.1-3.6l0.1-1.3l0.1,4.7l0.1-1.3l0.1-0.2l0.1-3.3l0.2,2.6l0.1-1.4l0.1,2l0.1-2.2l0.1,3l0.1-1.6l0.1,0.7l0.1-2.2
	l0.1,0.2l0.1,3.9l0.2-5.5l0.2,3.6l0.1-0.4l0.1,5l0.1-5.9l0.1-0.8l0.1,2.8l0.2,0.7l0.1-4.2l0.1-0.9l0.2,7.1l0.1-5.2l0.1-0.5l0.2,1.6
	l0.1-4.5l0.1,3.1l0.1-0.4l0.1,1l0.1,2l0.1-0.3l0.1,0.1l0.1,4.2l0.1-9.4l0.1,5.1l0.1-4l0.1,6.3l0.1-4.7l0.1,1.7l0.1-2.3l0.2,4
	l0.1,3.3l0.1-5.2l0.1-0.6l0.1,1.8l0.1-2.4l0.1,3.6l0.1-4.7l0.1,1.6l0.1,1l0.1-4.4l0.1,4.2l0.1,1.2l0.1-3.5l0.1,2l0.1-2.4l0.1,3.3
	l0.1-5l0.1,9.3l0.2-5.1l0.1-0.8l0.1,0.4l0.1,2l0.1-1l0.1-0.5l0.1-2.4l0.1,3.4l0.1-1l0.1,2.8l0.1-6.4l0.1,0l0.2,2.7l0.1-0.6l0.1,2.3
	l0.1,0.1l0.1-1.5l0.1,0.6l0.1-1.6l0.1,4.2l0.1-3.5l0.1,3l0.1-3.7l0.1-1.2l0.1,1.5l0.1,0l0.1,0.8l0.1-0.1l0.1,3.1l0.1-3.1l0.1,2.8
	l0.1-6l0.1,8.1l0.1-6.5l0.1,3.7l0.1-4l0.2,4.9l0.1-4.1L160,75l0.1-0.7l0.1,0.8l0.1,2.7l0.1-3.3l0.1,0.5l0.1,4l0.1-1.5l0.1-1l0.2-2.8
	l0.1,4.2l0.1-0.7l0.1-2.8l0.1,0.1l0.1-2.4l0.1,5l0.1-1.4l0.1,2l0.1-0.4l0.1-3.6l0.1,3.4l0.1-4.7l0.1,4.5l0.1-3.6l0.1,5.2l0.1-5
	l0.1,2.8l0.2-2.3l0.1-2.5l0.1,4.5l0.1-2.2l0.1,0.5l0.1,3.1l0.1,0.3l0.1-6l0.1,3.7l0.2-1.5l0.1,1.1l0.1,0.4l0.1,1.8l0.1-0.9l0.1-0.6
	l0.1,0.5l0.1,0l0.2-2.4l0.1,2.3l0.1-2.9l0.1,4.7l0.1-0.8l0.1,1.1l0.1,0.6l0.1-8l0.1,2.9l0.1,0l0.1-0.9l0.1,3l0.1-0.9l0.1,2.6
	l0.1-1.3l0.1-3.7l0.1,0.6l0.1,0.8l0.1,2.8l0.1-1.4l0.1,5.4l0.1-3.7l0.1-2.7l0.1,0.8l0.1-1.3l0.1,0.5l0.1,0.2l0.1-1.1l0.1,2.7
	l0.1,0.7l0.1,0.2l0.1-4.5l0.1-0.5l0.1,4.2l0.2-1.7l0.1-1.3l0.2,3l0.1,0.1l0.1-3l0.2,2.9l0.1-0.6l0.1-1.5l0.1,3.5l0.2,2.3"/>
<path class="st13" d="M229,77.7l0.1-0.1l0.1-0.1l0.1-0.5l0.1,0.7l0.1-1.1l0.1-0.1l0.1-1.7l0.1,4.3l0.1-4.3l0.1,2l0.1-3l0.1,3.2
	l0.1-2.2l0.1,2.9l0.1-1.4l0.1,2.6l0.1-0.5l0.1-2l0.1,2.6l0.1,0.5l0.1-1.8l0.1-3.1l0.1,1.3l0.1,2.4l0.1-1.6l0.1-0.7l0.1,4.7l0.1-4.7
	l0.1,2.2l0.1-3l0.1,1.5l0.1-3.5l0.1,7.8l0.1,0.6l0.1,0.1l0.1-4.4l0.1,1.4l0.1-0.8l0.1-2.9l0.1,2.2l0.1-0.7l0.1,1.7l0.1-3.4l0.1,2.8
	l0.1,1l0.1-1.7l0.1,2.8l0.1-0.9l0.1-2.9l0.1,0l0.1,0.5l0.1,0.3l0.1,5.1l0.1-8.3l0.1-0.6l0.1,2.4l0.1,1.6l0.1,3l0.2-6.7l0.1,6.2
	l0.1-3.6l0.1,3.5l0.1-3.6l0.1-1.3l0.1,4.7l0.1-1.3l0.1-0.2l0.1-3.3l0.2,2.6l0.1-1.4l0.1,2l0.1-2.2l0.1,3l0.1-1.6l0.1,0.7l0.1-2.2
	l0.1,0.2l0.1,3.9l0.2-5.5l0.2,3.6l0.1-0.4l0.1,5L236,76l0.1-0.8l0.1,2.8l0.2,0.7l0.1-4.2l0.1-0.9l0.2,7.1l0.1-5.2l0.1-0.5l0.2,1.6
	l0.1-4.5l0.1,3.1l0.1-0.4l0.1,1l0.1,2l0.1-0.3l0.1,0.1l0.1,4.2l0.1-9.4l0.1,5.1l0.1-4l0.1,6.3l0.1-4.7l0.1,1.7l0.1-2.3l0.2,4
	l0.1,3.3l0.1-5.2l0.1-0.6l0.1,1.8l0.1-2.4l0.1,3.6l0.1-4.7l0.1,1.6l0.1,1l0.1-4.4l0.1,4.2l0.1,1.2l0.1-3.5l0.1,2l0.1-2.4l0.1,3.3
	l0.1-5l0.1,9.3l0.2-5.1l0.1-0.8l0.1,0.4l0.1,2l0.1-1l0.1-0.5l0.1-2.4l0.1,3.4l0.1-1l0.1,2.8l0.1-6.4l0.1,0l0.2,2.7l0.1-0.6l0.1,2.3
	l0.1,0.1l0.1-1.5l0.1,0.6l0.1-1.6l0.1,4.2l0.1-3.5l0.1,3l0.1-3.7l0.1-1.2l0.1,1.5l0.1,0l0.1,0.8l0.1-0.1l0.1,3.1l0.1-3.1l0.1,2.8
	l0.1-6l0.1,8.1l0.1-6.5l0.1,3.7l0.1-4l0.2,4.9l0.1-4.1l0.1,1.4l0.1-0.7l0.1,0.8l0.1,2.7l0.1-3.3l0.1,0.5l0.1,4l0.1-1.5l0.1-1
	l0.2-2.8l0.1,4.2l0.1-0.7l0.1-2.8l0.1,0.1l0.1-2.4l0.1,5l0.1-1.4l0.1,2l0.1-0.4l0.1-3.6l0.1,3.4l0.1-4.7l0.1,4.5l0.1-3.6l0.1,5.2
	l0.1-5l0.1,2.8l0.2-2.3l0.1-2.5l0.1,4.5l0.1-2.2l0.1,0.5l0.1,3.1l0.1,0.3l0.1-6l0.1,3.7l0.2-1.5l0.1,1.1l0.1,0.4l0.1,1.8l0.1-0.9
	l0.1-0.6l0.1,0.5l0.1,0l0.2-2.4l0.1,2.3l0.1-2.9l0.1,4.7l0.1-0.8l0.1,1.1l0.1,0.6l0.1-8l0.1,2.9l0.1,0l0.1-0.9l0.1,3l0.1-0.9
	l0.1,2.6l0.1-1.3l0.1-3.7l0.1,0.6l0.1,0.8l0.1,2.8l0.1-1.4l0.1,5.4l0.1-3.7l0.1-2.7l0.1,0.8L249,75l0.1,0.5l0.1,0.2l0.1-1.1l0.1,2.7
	l0.1,0.7l0.1,0.2l0.1-4.5l0.1-0.5l0.1,4.2l0.2-1.7l0.1-1.3l0.2,3l0.1,0.1l0.1-3l0.2,2.9l0.1-0.6l0.1-1.5l0.1,3.5l0.2,2.3"/>
</svg>
