<svg id="Layer_1" data-name="Layer 1" xmlns="http://www.w3.org/2000/svg" xmlns:xlink="http://www.w3.org/1999/xlink" viewBox="0 0 158.12 151.72"><defs><style>.cls-1,.cls-15,.cls-17{fill:none;}.cls-2{fill:#fff;}.cls-3{clip-path:url(#clip-path);}.cls-10,.cls-11,.cls-12,.cls-13,.cls-14,.cls-4,.cls-5,.cls-6,.cls-7,.cls-8,.cls-9{fill:#d9a528;stroke:#010101;isolation:isolate;}.cls-4{opacity:0.24;}.cls-11,.cls-5,.cls-7{stroke-dasharray:3.7 1.6;}.cls-5{opacity:0.29;}.cls-6{opacity:0.37;}.cls-7{opacity:0.44;}.cls-8{opacity:0.32;}.cls-9{opacity:0.44;}.cls-10{opacity:0.29;}.cls-11{opacity:0.23;}.cls-12{opacity:0.24;}.cls-13{opacity:0.25;}.cls-14{opacity:0.22;}.cls-15,.cls-17{stroke:#b0b1b1;stroke-linejoin:round;}.cls-15{stroke-width:0.5px;stroke-dasharray:1.85 0.8;}.cls-16{fill:#010101;}.cls-17{stroke-linecap:square;stroke-width:0.8px;}</style><clipPath id="clip-path"><path class="cls-1" d="M133.46,77.66a55.34,55.34,0,1,0-4.21,21.17,55.38,55.38,0,0,0,4.21-21.17m-55.32,0Z"/></clipPath></defs><g id="axes_2" data-name="axes 2"><g id="patch_5" data-name="patch 5"><path class="cls-2" d="M133.46,77.66a55.34,55.34,0,1,0-4.21,21.17,55.38,55.38,0,0,0,4.21-21.17m-55.32,0Z"/></g><g id="patch_6" data-name="patch 6"><g class="cls-3"><path class="cls-4" d="M78.14,77.66h0l8.52-2.18a8.9,8.9,0,0,1,0,4.35Z"/></g></g><g id="patch_7" data-name="patch 7"><g class="cls-3"><path class="cls-5" d="M78.14,77.66h0L91.77,63A20.22,20.22,0,0,1,95,66.84a20.44,20.44,0,0,1,2.15,4.5Z"/></g></g><g id="patch_8" data-name="patch 8"><g class="cls-3"><path class="cls-6" d="M78.14,77.66h0l6.51-36.12a36.69,36.69,0,0,1,16.52,7.54Z"/></g></g><g id="patch_9" data-name="patch 9"><g class="cls-3"><path class="cls-7" d="M78.14,77.66h0L58,29a52.58,52.58,0,0,1,25.81-3.71Z"/></g></g><g id="patch_10" data-name="patch 10"><g class="cls-3"><path class="cls-8" d="M78.14,77.66h0L57.43,63.28a25.51,25.51,0,0,1,4.2-4.67,25.11,25.11,0,0,1,5.23-3.49Z"/></g></g><g id="patch_11" data-name="patch 11"><g class="cls-3"><path class="cls-9" d="M78.14,77.66h0l-52.4-1.87A52.43,52.43,0,0,1,33.05,50.9Z"/></g></g><g id="patch_12" data-name="patch 12"><g class="cls-3"><path class="cls-10" d="M78.14,77.66h0L61.81,87.34A19.48,19.48,0,0,1,59.92,83a19,19,0,0,1-.75-4.67Z"/></g></g><g id="patch_13" data-name="patch 13"><g class="cls-3"><path class="cls-11" d="M78.14,77.66h0l-2.57,5.12A5.79,5.79,0,0,1,74.39,82a5.41,5.41,0,0,1-1-1.07Z"/></g></g><g id="patch_14" data-name="patch 14"><g class="cls-3"><path class="cls-12" d="M78.14,77.66h0l.86,8a8,8,0,0,1-2,0,7.68,7.68,0,0,1-1.93-.53Z"/></g></g><g id="patch_15" data-name="patch 15"><g class="cls-3"><path class="cls-13" d="M78.14,77.66h0l6.35,7.88a10.33,10.33,0,0,1-4.56,2.08Z"/></g></g><g id="patch_16" data-name="patch 16"><g class="cls-3"><path class="cls-14" d="M78.14,77.66h0L82,79a4.13,4.13,0,0,1-.45.92,4.08,4.08,0,0,1-.65.79Z"/></g></g><g id="patch_17" data-name="patch 17"><g class="cls-3"><path class="cls-4" d="M78.14,77.66h0l8.52-2.18a8.9,8.9,0,0,1,0,4.35Z"/></g></g><g id="matplotlib.axis_3" data-name="matplotlib.axis 3"><g id="xtick_4" data-name="xtick 4"><g id="line2d_10" data-name="line2d 10"><g class="cls-3"><path class="cls-15" d="M78.14,77.66h55.32"/></g></g><g id="text_12" data-name="text 12"><path id="DejaVuSans-Oblique-43" class="cls-16" d="M146.06,73.61l-.2,1a3.05,3.05,0,0,0-1-.7,2.7,2.7,0,0,0-1.14-.23,2.65,2.65,0,0,0-1.46.4,3.2,3.2,0,0,0-1.09,1.22,4.46,4.46,0,0,0-.45,1.11,4.87,4.87,0,0,0-.16,1.19,2.1,2.1,0,0,0,.52,1.52,2,2,0,0,0,1.5.52,3.82,3.82,0,0,0,1.3-.22,4.52,4.52,0,0,0,1.22-.65L144.88,80a6.44,6.44,0,0,1-1.18.37,5.29,5.29,0,0,1-1.19.13,3,3,0,0,1-2.19-.76,2.84,2.84,0,0,1-.79-2.12,5.12,5.12,0,0,1,1.17-3.24,3.59,3.59,0,0,1,1.36-1.09,4.13,4.13,0,0,1,1.78-.35,3.83,3.83,0,0,1,1.18.17A3.5,3.5,0,0,1,146.06,73.61Z"/><path id="DejaVuSans-Oblique-4f" class="cls-16" d="M149.29,77.34a1.77,1.77,0,0,0-1,.28,2.32,2.32,0,0,0-.76.84,3.37,3.37,0,0,0-.31.76,3.22,3.22,0,0,0-.11.81,1.64,1.64,0,0,0,.34,1.1,1.21,1.21,0,0,0,1,.39,1.85,1.85,0,0,0,1-.28,2.17,2.17,0,0,0,.75-.83,3.22,3.22,0,0,0,.32-.77,3.29,3.29,0,0,0,.11-.81,1.61,1.61,0,0,0-.34-1.1A1.21,1.21,0,0,0,149.29,77.34Zm-.9,4.74a1.94,1.94,0,0,1-1.47-.56,2.09,2.09,0,0,1-.54-1.52,3.36,3.36,0,0,1,.21-1.14,3.42,3.42,0,0,1,.58-1,3,3,0,0,1,1-.8,2.72,2.72,0,0,1,1.18-.26,2,2,0,0,1,1.48.56,2,2,0,0,1,.54,1.5,3.43,3.43,0,0,1-.8,2.18,2.85,2.85,0,0,1-1,.8A2.69,2.69,0,0,1,148.39,82.08Z"/><path id="DejaVuSans-Oblique-4c" class="cls-16" d="M152.78,76.87h.7l-.88,4.53h2.49L155,82h-3.18Z"/></g></g><g id="xtick_5" data-name="xtick 5"><g id="line2d_11" data-name="line2d 11"><g class="cls-3"><path class="cls-15" d="M78.14,77.66l46.54-29.92"/></g></g><g id="text_13" data-name="text 13"><path id="DejaVuSans-Oblique-43-2" data-name="DejaVuSans-Oblique-43" class="cls-16" d="M134.61,36.13l-.2,1a3.29,3.29,0,0,0-1-.71,2.81,2.81,0,0,0-1.13-.22,2.66,2.66,0,0,0-1.47.4,3.28,3.28,0,0,0-1.09,1.22,4.46,4.46,0,0,0-.45,1.11,4.85,4.85,0,0,0-.15,1.19,2.1,2.1,0,0,0,.51,1.52,2.07,2.07,0,0,0,1.5.52,3.78,3.78,0,0,0,1.3-.22,4.37,4.37,0,0,0,1.22-.65l-.23,1.17a6.59,6.59,0,0,1-1.17.37,5.42,5.42,0,0,1-1.19.13,3,3,0,0,1-2.19-.76,2.81,2.81,0,0,1-.79-2.12,5,5,0,0,1,.3-1.71,5.24,5.24,0,0,1,.86-1.53,3.67,3.67,0,0,1,1.36-1.09,4.13,4.13,0,0,1,1.78-.35,3.89,3.89,0,0,1,1.19.17A3.5,3.5,0,0,1,134.61,36.13Z"/><path id="DejaVuSans-Oblique-4f-2" data-name="DejaVuSans-Oblique-4f" class="cls-16" d="M137.83,39.86a1.8,1.8,0,0,0-1,.28,2.22,2.22,0,0,0-.75.84,3.4,3.4,0,0,0-.32.76,3.21,3.21,0,0,0-.1.81,1.59,1.59,0,0,0,.34,1.1,1.19,1.19,0,0,0,1,.39,1.88,1.88,0,0,0,1-.28,2.34,2.34,0,0,0,.75-.83,3.77,3.77,0,0,0,.32-.78,3.21,3.21,0,0,0,.11-.8,1.6,1.6,0,0,0-.35-1.1A1.19,1.19,0,0,0,137.83,39.86Zm-.89,4.74a2,2,0,0,1-1.48-.56,2.1,2.1,0,0,1-.54-1.53,3.35,3.35,0,0,1,.21-1.13,3.86,3.86,0,0,1,.58-1,3,3,0,0,1,1-.79,2.69,2.69,0,0,1,1.18-.26,2,2,0,0,1,1.47.55,2.07,2.07,0,0,1,.54,1.51,3.35,3.35,0,0,1-.79,2.18,3,3,0,0,1-1,.8A2.64,2.64,0,0,1,136.94,44.6Z"/><path id="DejaVuSans-Oblique-41" class="cls-16" d="M142.73,39.39h.78l1,5.11h-.72l-.22-1.31h-2.29l-.72,1.31h-.73Zm.25.68-1.43,2.54h1.87Z"/></g></g><g id="xtick_6" data-name="xtick 6"><g id="line2d_12" data-name="line2d 12"><g class="cls-3"><path class="cls-15" d="M78.14,77.66l23-50.33"/></g></g><g id="text_14" data-name="text 14"><path id="DejaVuSans-Oblique-43-3" data-name="DejaVuSans-Oblique-43" class="cls-16" d="M106.19,10.55l-.2,1a3.41,3.41,0,0,0-1-.71,2.85,2.85,0,0,0-1.13-.23,2.66,2.66,0,0,0-1.47.41,3.2,3.2,0,0,0-1.09,1.22,4.46,4.46,0,0,0-.45,1.11,4.79,4.79,0,0,0-.15,1.19,2.06,2.06,0,0,0,.51,1.51,2,2,0,0,0,1.5.53,4,4,0,0,0,1.3-.22,4.81,4.81,0,0,0,1.22-.65L105,16.92a6.44,6.44,0,0,1-1.18.37,5.27,5.27,0,0,1-1.18.13,3,3,0,0,1-2.19-.76,2.81,2.81,0,0,1-.79-2.12,5,5,0,0,1,.3-1.71,5.43,5.43,0,0,1,.86-1.54,3.74,3.74,0,0,1,1.36-1.08A4.13,4.13,0,0,1,104,9.85a3.79,3.79,0,0,1,1.18.18A3.55,3.55,0,0,1,106.19,10.55Z"/><path id="DejaVuSans-Oblique-4c-2" data-name="DejaVuSans-Oblique-4c" class="cls-16" d="M107.4,13.81h.69l-.88,4.53h2.49l-.11.58h-3.18Z"/><path id="DejaVuSans-Oblique-50" class="cls-16" d="M111.3,13.81h1.6a1.53,1.53,0,0,1,1.06.33,1.17,1.17,0,0,1,.37.95,1.64,1.64,0,0,1-.54,1.31,2.27,2.27,0,0,1-1.52.47h-.87l-.4,2.05h-.69Zm.58.57-.37,1.92h.87a1.25,1.25,0,0,0,.9-.3,1.14,1.14,0,0,0,.32-.86.73.73,0,0,0-.21-.56.89.89,0,0,0-.6-.2Z"/></g></g><g id="xtick_7" data-name="xtick 7"><g id="line2d_13" data-name="line2d 13"><g class="cls-3"><path class="cls-15" d="M78.14,77.66,70.26,22.89"/></g></g><g id="text_15" data-name="text 15"><path id="DejaVuSans-Oblique-43-4" data-name="DejaVuSans-Oblique-43" class="cls-16" d="M66.42,5l-.2,1a3.25,3.25,0,0,0-1-.71,2.87,2.87,0,0,0-1.14-.23,2.69,2.69,0,0,0-1.47.41,3.28,3.28,0,0,0-1.09,1.22,5.38,5.38,0,0,0-.45,1.11A4.85,4.85,0,0,0,60.93,9a2.06,2.06,0,0,0,.52,1.52,2,2,0,0,0,1.49.52,3.83,3.83,0,0,0,1.31-.22,4.46,4.46,0,0,0,1.21-.65l-.23,1.17a6.11,6.11,0,0,1-1.17.37,5.36,5.36,0,0,1-1.19.13,3,3,0,0,1-2.19-.76A2.81,2.81,0,0,1,59.89,9a5,5,0,0,1,.3-1.71,5.24,5.24,0,0,1,.86-1.53,3.67,3.67,0,0,1,1.36-1.09,4.16,4.16,0,0,1,1.78-.36,3.85,3.85,0,0,1,1.19.18A3.5,3.5,0,0,1,66.42,5Z"/><path id="DejaVuSans-Oblique-41-2" data-name="DejaVuSans-Oblique-41" class="cls-16" d="M69,8.25h.78l1,5.11H70l-.21-1.31h-2.3l-.72,1.31h-.73Zm.25.68-1.43,2.54h1.87Z"/><path id="DejaVuSans-Oblique-4f-3" data-name="DejaVuSans-Oblique-4f" class="cls-16" d="M74.44,8.72a1.81,1.81,0,0,0-1,.28,2.22,2.22,0,0,0-.75.84,3,3,0,0,0-.31.76,2.82,2.82,0,0,0-.11.81,1.59,1.59,0,0,0,.34,1.1,1.2,1.2,0,0,0,1,.39,1.88,1.88,0,0,0,1-.28,2.34,2.34,0,0,0,.75-.83,3.77,3.77,0,0,0,.32-.78,3.21,3.21,0,0,0,.11-.8,1.6,1.6,0,0,0-.35-1.1A1.18,1.18,0,0,0,74.44,8.72Zm-.9,4.74a2,2,0,0,1-1.48-.56,2.1,2.1,0,0,1-.54-1.53,3.35,3.35,0,0,1,.21-1.13,3.86,3.86,0,0,1,.58-1,3,3,0,0,1,1-.79,2.72,2.72,0,0,1,1.18-.26,2,2,0,0,1,1.47.55,2.07,2.07,0,0,1,.54,1.51,3.35,3.35,0,0,1-.79,2.18,2.9,2.9,0,0,1-1,.8A2.64,2.64,0,0,1,73.54,13.46Z"/></g></g><g id="xtick_8" data-name="xtick 8"><g id="line2d_14" data-name="line2d 14"><g class="cls-3"><path class="cls-15" d="M78.14,77.66,41.91,35.84"/></g></g><g id="text_16" data-name="text 16"><path id="DejaVuSans-Oblique-43-5" data-name="DejaVuSans-Oblique-43" class="cls-16" d="M31.54,21.22l-.2,1a3.41,3.41,0,0,0-1-.71,2.82,2.82,0,0,0-1.13-.23,2.74,2.74,0,0,0-1.47.4,3.44,3.44,0,0,0-1.09,1.22,4.69,4.69,0,0,0-.45,1.12,4.77,4.77,0,0,0-.15,1.18,2.08,2.08,0,0,0,.51,1.52,2,2,0,0,0,1.5.52,4,4,0,0,0,1.3-.21,4.65,4.65,0,0,0,1.22-.65l-.23,1.16a6.64,6.64,0,0,1-1.17.38,6.1,6.1,0,0,1-1.19.13,3,3,0,0,1-2.19-.76A2.81,2.81,0,0,1,25,25.21a5,5,0,0,1,.3-1.71A5.43,5.43,0,0,1,26.17,22a3.88,3.88,0,0,1,1.36-1.09,4.28,4.28,0,0,1,1.78-.35,3.9,3.9,0,0,1,1.19.18A3.28,3.28,0,0,1,31.54,21.22Z"/><path id="DejaVuSans-Oblique-41-3" data-name="DejaVuSans-Oblique-41" class="cls-16" d="M34.15,24.48h.78l1,5.1h-.72l-.22-1.3H32.65l-.72,1.3H31.2Zm.25.68L33,27.7h1.87Z"/><path id="DejaVuSans-Oblique-50-2" data-name="DejaVuSans-Oblique-50" class="cls-16" d="M37.54,24.48h1.6a1.53,1.53,0,0,1,1.06.33,1.17,1.17,0,0,1,.37,1A1.65,1.65,0,0,1,40,27.07a2.26,2.26,0,0,1-1.52.46h-.87l-.4,2h-.69Zm.58.57L37.75,27h.87a1.25,1.25,0,0,0,.9-.3,1.15,1.15,0,0,0,.32-.87.72.72,0,0,0-.21-.55.89.89,0,0,0-.6-.2Z"/></g></g><g id="xtick_9" data-name="xtick 9"><g id="line2d_15" data-name="line2d 15"><g class="cls-3"><path class="cls-15" d="M78.14,77.66,25.05,62.07"/></g></g><g id="text_17" data-name="text 17"><path id="DejaVuSans-Oblique-43-6" data-name="DejaVuSans-Oblique-43" class="cls-16" d="M10.87,54.08l-.2,1a3.29,3.29,0,0,0-1-.71,2.82,2.82,0,0,0-1.13-.23,2.66,2.66,0,0,0-1.47.41A3.28,3.28,0,0,0,6,55.81a5.38,5.38,0,0,0-.45,1.11,4.79,4.79,0,0,0-.15,1.19,2.06,2.06,0,0,0,.51,1.51,2,2,0,0,0,1.5.53,4,4,0,0,0,1.3-.22,4.65,4.65,0,0,0,1.22-.65l-.23,1.17a6.59,6.59,0,0,1-1.17.37A5.36,5.36,0,0,1,7.32,61a3,3,0,0,1-2.19-.76,2.81,2.81,0,0,1-.79-2.12,5,5,0,0,1,.3-1.71,5.43,5.43,0,0,1,.86-1.54,3.74,3.74,0,0,1,1.36-1.08,4.13,4.13,0,0,1,1.78-.36,3.9,3.9,0,0,1,1.19.18A3.5,3.5,0,0,1,10.87,54.08Z"/><path id="DejaVuSans-Oblique-50-3" data-name="DejaVuSans-Oblique-50" class="cls-16" d="M12.08,57.34h1.6a1.51,1.51,0,0,1,1.06.33,1.17,1.17,0,0,1,.37.95,1.64,1.64,0,0,1-.54,1.31,2.27,2.27,0,0,1-1.52.47h-.87l-.4,2.05h-.69Zm.59.57-.37,1.92h.87a1.25,1.25,0,0,0,.9-.3,1.13,1.13,0,0,0,.31-.86.73.73,0,0,0-.21-.56.85.85,0,0,0-.6-.2Z"/><path id="DejaVuSans-Oblique-4c-3" data-name="DejaVuSans-Oblique-4c" class="cls-16" d="M16.3,57.34H17l-.87,4.53H18.6l-.11.58H15.31Z"/></g></g><g id="xtick_10" data-name="xtick 10"><g id="line2d_16" data-name="line2d 16"><g class="cls-3"><path class="cls-15" d="M78.14,77.66,25.05,93.24"/></g></g><g id="text_18" data-name="text 18"><path id="DejaVuSans-Oblique-3b7" class="cls-16" d="M8.91,96.63l-1,5.38H7l1-5.35a1.67,1.67,0,0,0-.08-1.17.88.88,0,0,0-.83-.38,1.8,1.8,0,0,0-1.24.46,2.25,2.25,0,0,0-.66,1.27l-.6,3.09h-.9l1.06-5.47h.9l-.16.85a2.8,2.8,0,0,1,.9-.74,2.36,2.36,0,0,1,1.06-.24,1.44,1.44,0,0,1,1.31.58A2.45,2.45,0,0,1,8.91,96.63Z"/><path id="DejaVuSans-Oblique-4f-4" data-name="DejaVuSans-Oblique-4f" class="cls-16" d="M12.65,96.93a1.77,1.77,0,0,0-1,.28,2.32,2.32,0,0,0-.76.84,3.37,3.37,0,0,0-.31.76,3.22,3.22,0,0,0-.11.81,1.64,1.64,0,0,0,.34,1.1,1.22,1.22,0,0,0,1,.39,1.85,1.85,0,0,0,1-.28,2.28,2.28,0,0,0,.76-.83,3.73,3.73,0,0,0,.31-.78,2.8,2.8,0,0,0,.11-.8,1.59,1.59,0,0,0-.34-1.1A1.21,1.21,0,0,0,12.65,96.93Zm-.9,4.74a2,2,0,0,1-1.47-.56,2.1,2.1,0,0,1-.54-1.53A3.35,3.35,0,0,1,10,98.45a3.6,3.6,0,0,1,.58-1,3.07,3.07,0,0,1,1-.79,2.72,2.72,0,0,1,1.18-.26,2,2,0,0,1,1.48.55,2.07,2.07,0,0,1,.54,1.51,3.35,3.35,0,0,1-.21,1.16,3.16,3.16,0,0,1-.59,1,3,3,0,0,1-1,.8A2.66,2.66,0,0,1,11.75,101.67Z"/><path id="DejaVuSans-Oblique-41-4" data-name="DejaVuSans-Oblique-41" class="cls-16" d="M17.54,96.46h.79l.94,5.11h-.72l-.21-1.31H16l-.72,1.31h-.73Zm.25.68-1.43,2.54h1.88Z"/></g></g><g id="xtick_11" data-name="xtick 11"><g id="line2d_17" data-name="line2d 17"><g class="cls-3"><path class="cls-15" d="M78.14,77.66,41.91,119.47"/></g></g><g id="text_19" data-name="text 19"><path id="DejaVuSans-Oblique-3b7-2" data-name="DejaVuSans-Oblique-3b7" class="cls-16" d="M31.12,129.49l-1,5.38h-.9l1-5.35a1.67,1.67,0,0,0-.08-1.17.88.88,0,0,0-.83-.38,1.8,1.8,0,0,0-1.24.46,2.2,2.2,0,0,0-.66,1.27l-.6,3.09h-.9L27,127.32h.9l-.16.85a2.83,2.83,0,0,1,.9-.74,2.33,2.33,0,0,1,1.06-.24,1.44,1.44,0,0,1,1.31.58A2.4,2.4,0,0,1,31.12,129.49Z"/><path id="DejaVuSans-Oblique-4c-4" data-name="DejaVuSans-Oblique-4c" class="cls-16" d="M32.85,129.33h.7l-.88,4.53h2.49l-.12.57H31.87Z"/><path id="DejaVuSans-Oblique-50-4" data-name="DejaVuSans-Oblique-50" class="cls-16" d="M36.76,129.33h1.6a1.54,1.54,0,0,1,1.06.32,1.21,1.21,0,0,1,.36.95,1.64,1.64,0,0,1-.54,1.31,2.24,2.24,0,0,1-1.51.47h-.87l-.4,2.05h-.7Zm.58.56L37,131.81h.87a1.25,1.25,0,0,0,.9-.3,1.14,1.14,0,0,0,.32-.86.74.74,0,0,0-.22-.56.85.85,0,0,0-.6-.2Z"/></g></g><g id="xtick_12" data-name="xtick 12"><g id="line2d_18" data-name="line2d 18"><g class="cls-3"><path class="cls-15" d="M78.14,77.66l-7.88,54.76"/></g></g><g id="text_20" data-name="text 20"><path id="DejaVuSans-Oblique-3c3" class="cls-16" d="M68.54,144.25a1.64,1.64,0,0,0-1.25.54,2.88,2.88,0,0,0-.7,1.49,2.28,2.28,0,0,0,.11,1.55,1.1,1.1,0,0,0,1,.56,1.63,1.63,0,0,0,1.24-.57,3,3,0,0,0,.73-1.54,2.26,2.26,0,0,0-.14-1.49A1,1,0,0,0,68.54,144.25Zm.14-.71h3l-.17.9h-1a2.85,2.85,0,0,1,.18,1.84,3.78,3.78,0,0,1-1.08,2.1,2.78,2.78,0,0,1-2,.77,1.89,1.89,0,0,1-1.7-.77,2.72,2.72,0,0,1-.25-2.1,3.77,3.77,0,0,1,1.07-2.11A2.79,2.79,0,0,1,68.68,143.54Z"/></g></g><g id="xtick_13" data-name="xtick 13"><g id="line2d_19" data-name="line2d 19"><g class="cls-3"><path class="cls-15" d="M78.14,77.66l23,50.32"/></g></g><g id="text_21" data-name="text 21"><path id="DejaVuSans-Oblique-3c3-2" data-name="DejaVuSans-Oblique-3c3" class="cls-16" d="M101.9,138.69a1.62,1.62,0,0,0-1.24.54,2.89,2.89,0,0,0-.71,1.49,2.27,2.27,0,0,0,.12,1.55,1.08,1.08,0,0,0,1,.56,1.65,1.65,0,0,0,1.25-.57,3.08,3.08,0,0,0,.72-1.54,2.27,2.27,0,0,0-.13-1.49A1.06,1.06,0,0,0,101.9,138.69Zm.15-.71h3l-.18.9h-1a2.86,2.86,0,0,1,.17,1.84,3.72,3.72,0,0,1-1.08,2.11,2.8,2.8,0,0,1-2,.76,1.88,1.88,0,0,1-1.69-.76,2.75,2.75,0,0,1-.26-2.11,3.78,3.78,0,0,1,1.08-2.11A2.79,2.79,0,0,1,102.05,138Z"/><path id="DejaVuSans-Oblique-4f-5" data-name="DejaVuSans-Oblique-4f" class="cls-16" d="M108,140.46a1.85,1.85,0,0,0-1,.27,2.5,2.5,0,0,0-.76.84,3,3,0,0,0-.31.76,3.24,3.24,0,0,0-.11.82,1.57,1.57,0,0,0,.34,1.09,1.21,1.21,0,0,0,1,.39,1.77,1.77,0,0,0,1-.28,2.18,2.18,0,0,0,.75-.83,3.06,3.06,0,0,0,.32-.77,3.22,3.22,0,0,0,.11-.81,1.61,1.61,0,0,0-.34-1.1A1.24,1.24,0,0,0,108,140.46Zm-.9,4.73a1.94,1.94,0,0,1-1.48-.56,2.09,2.09,0,0,1-.53-1.52,3.27,3.27,0,0,1,.21-1.13,3.35,3.35,0,0,1,.58-1,2.84,2.84,0,0,1,1-.79,2.58,2.58,0,0,1,1.18-.26,2,2,0,0,1,1.47.55A2.06,2.06,0,0,1,110,142a3.29,3.29,0,0,1-.2,1.16,3.41,3.41,0,0,1-.59,1,2.94,2.94,0,0,1-1,.79A2.72,2.72,0,0,1,107.07,145.19Z"/><path id="DejaVuSans-Oblique-41-5" data-name="DejaVuSans-Oblique-41" class="cls-16" d="M112.86,140h.79l.94,5.1h-.72l-.21-1.31h-2.3l-.72,1.31h-.73Zm.25.68-1.43,2.54h1.87Z"/></g></g><g id="xtick_14" data-name="xtick 14"><g id="line2d_20" data-name="line2d 20"><g class="cls-3"><path class="cls-15" d="M78.14,77.66l46.54,29.91"/></g></g><g id="text_22" data-name="text 22"><path id="DejaVuSans-Oblique-3c3-3" data-name="DejaVuSans-Oblique-3c3" class="cls-16" d="M132.53,113.11a1.64,1.64,0,0,0-1.25.54,3,3,0,0,0-.71,1.49,2.28,2.28,0,0,0,.12,1.55,1.09,1.09,0,0,0,1,.56,1.65,1.65,0,0,0,1.25-.57,2.92,2.92,0,0,0,.72-1.54,2.27,2.27,0,0,0-.13-1.49A1.06,1.06,0,0,0,132.53,113.11Zm.14-.71h3l-.18.9h-1a2.92,2.92,0,0,1,.18,1.84,3.81,3.81,0,0,1-1.08,2.1,2.8,2.8,0,0,1-2,.77,1.87,1.87,0,0,1-1.69-.77,2.68,2.68,0,0,1-.25-2.1A3.77,3.77,0,0,1,130.7,113,2.79,2.79,0,0,1,132.67,112.4Z"/><path id="DejaVuSans-Oblique-4c-5" data-name="DejaVuSans-Oblique-4c" class="cls-16" d="M136.57,114.41h.7l-.88,4.53h2.49l-.12.57h-3.17Z"/><path id="DejaVuSans-Oblique-50-5" data-name="DejaVuSans-Oblique-50" class="cls-16" d="M140.48,114.41h1.6a1.6,1.6,0,0,1,1.06.32,1.23,1.23,0,0,1,.36,1A1.64,1.64,0,0,1,143,117a2.24,2.24,0,0,1-1.51.47h-.87l-.4,2.05h-.69Zm.58.56-.37,1.92h.87a1.25,1.25,0,0,0,.9-.3,1.14,1.14,0,0,0,.32-.86.72.72,0,0,0-.22-.56.85.85,0,0,0-.6-.2Z"/></g></g></g><g id="matplotlib.axis_4" data-name="matplotlib.axis 4"><g id="ytick_6" data-name="ytick 6"><g id="line2d_21" data-name="line2d 21"><g class="cls-3"><path class="cls-17" d="M78.35,77.66a.28.28,0,0,0,0-.09l0-.07-.07,0-.08,0-.08,0-.07,0a.15.15,0,0,0,0,.07.29.29,0,0,0,0,.09.31.31,0,0,0,0,.08.12.12,0,0,0,0,.07.18.18,0,0,0,.07,0h.16a.26.26,0,0,0,.12-.12.25.25,0,0,0,0-.08"/></g></g></g></g></g></svg>