<svg id="Layer_1" data-name="Layer 1" xmlns="http://www.w3.org/2000/svg" xmlns:xlink="http://www.w3.org/1999/xlink" viewBox="0 0 226.54 158.49"><defs><style>.cls-1,.cls-8,.cls-9{fill:none;}.cls-2{fill:#fff;}.cls-3{clip-path:url(#clip-path);}.cls-4,.cls-5{fill:#818181;}.cls-4{fill-opacity:0.8;stroke-opacity:0.8;}.cls-4,.cls-8{stroke:#818181;}.cls-4,.cls-6,.cls-8{stroke-linejoin:round;}.cls-5{fill-opacity:0.15;}.cls-6,.cls-7{fill:#010101;}.cls-6,.cls-9{stroke:#010101;stroke-width:0.8px;}.cls-8,.cls-9{stroke-linecap:square;}.cls-8{stroke-width:2.25px;}</style><clipPath id="clip-path"><rect class="cls-1" x="41.04" y="16.86" width="180.93" height="110.65"/></clipPath></defs><g id="axes_1" data-name="axes 1"><g id="patch_2" data-name="patch 2"><path class="cls-2" d="M41,127.52H222V16.86H41Z"/></g><g id="PathCollection_1" data-name="PathCollection 1"><g class="cls-3"><path id="m0367d51749" class="cls-4" d="M70.06,68.74a1.62,1.62,0,0,0,1.12-.46A1.58,1.58,0,0,0,68.94,66a1.58,1.58,0,0,0,1.12,2.7Z"/><path id="m0367d51749-2" data-name="m0367d51749" class="cls-4" d="M66.78,119a1.57,1.57,0,0,0,1.12-.47,1.54,1.54,0,0,0,.47-1.11,1.59,1.59,0,0,0-3.17,0,1.54,1.54,0,0,0,.47,1.11A1.56,1.56,0,0,0,66.78,119Z"/><path id="m0367d51749-3" data-name="m0367d51749" class="cls-4" d="M103.09,43.59a1.56,1.56,0,0,0,1.12-.46,1.59,1.59,0,0,0,0-2.24,1.6,1.6,0,0,0-1.12-.46,1.58,1.58,0,0,0-1.11,2.7A1.53,1.53,0,0,0,103.09,43.59Z"/><path id="m0367d51749-4" data-name="m0367d51749" class="cls-4" d="M65.32,78.8a1.62,1.62,0,0,0,1.12-.46A1.58,1.58,0,0,0,64.2,76.1a1.58,1.58,0,0,0,1.12,2.7Z"/><path id="m0367d51749-5" data-name="m0367d51749" class="cls-4" d="M131.46,73.77a1.58,1.58,0,0,0,1.12-2.7,1.58,1.58,0,0,0-2.24,2.24A1.62,1.62,0,0,0,131.46,73.77Z"/><path id="m0367d51749-6" data-name="m0367d51749" class="cls-4" d="M206,78.8a1.62,1.62,0,0,0,1.12-.46,1.58,1.58,0,0,0-2.24-2.24A1.58,1.58,0,0,0,206,78.8Z"/><path id="m0367d51749-7" data-name="m0367d51749" class="cls-4" d="M141.72,83.83a1.58,1.58,0,0,0,1.12-2.7,1.58,1.58,0,0,0-2.24,2.24A1.62,1.62,0,0,0,141.72,83.83Z"/><path id="m0367d51749-8" data-name="m0367d51749" class="cls-4" d="M58.51,78.8a1.58,1.58,0,0,0,1.12-2.7,1.59,1.59,0,0,0-2.24,0,1.58,1.58,0,0,0,1.12,2.7Z"/><path id="m0367d51749-9" data-name="m0367d51749" class="cls-4" d="M82,93.89a1.58,1.58,0,0,0,1.12-2.7A1.56,1.56,0,0,0,82,90.73a1.53,1.53,0,0,0-1.11.46A1.58,1.58,0,0,0,82,93.89Z"/><path id="m0367d51749-10" data-name="m0367d51749" class="cls-4" d="M51,93.89a1.58,1.58,0,0,0,1.12-2.7,1.58,1.58,0,0,0-2.24,2.24A1.62,1.62,0,0,0,51,93.89Z"/><path id="m0367d51749-11" data-name="m0367d51749" class="cls-4" d="M128.63,88.86a1.58,1.58,0,0,0,1.12-2.7,1.58,1.58,0,0,0-2.24,2.24A1.62,1.62,0,0,0,128.63,88.86Z"/><path id="m0367d51749-12" data-name="m0367d51749" class="cls-4" d="M213.74,28.5a1.56,1.56,0,0,0,1.12-.46,1.59,1.59,0,1,0-2.23,0A1.55,1.55,0,0,0,213.74,28.5Z"/><path id="m0367d51749-13" data-name="m0367d51749" class="cls-4" d="M94.22,93.89a1.58,1.58,0,0,0,1.12-2.7,1.59,1.59,0,0,0-2.24,0,1.58,1.58,0,0,0,1.12,2.7Z"/><path id="m0367d51749-14" data-name="m0367d51749" class="cls-4" d="M49.42,23.47A1.57,1.57,0,0,0,50.54,23a1.58,1.58,0,0,0-2.24-2.24,1.58,1.58,0,0,0,1.12,2.7Z"/><path id="m0367d51749-15" data-name="m0367d51749" class="cls-4" d="M93.82,104a1.58,1.58,0,0,0,1.12-2.7,1.58,1.58,0,0,0-2.24,2.24A1.62,1.62,0,0,0,93.82,104Z"/><path id="m0367d51749-16" data-name="m0367d51749" class="cls-4" d="M86.3,124.07a1.61,1.61,0,0,0,1.58-1.58,1.57,1.57,0,0,0-.47-1.12,1.54,1.54,0,0,0-1.11-.47,1.58,1.58,0,0,0-1.12.47,1.56,1.56,0,0,0-.46,1.12,1.53,1.53,0,0,0,.46,1.11A1.58,1.58,0,0,0,86.3,124.07Z"/><path id="m0367d51749-17" data-name="m0367d51749" class="cls-4" d="M59.6,104a1.58,1.58,0,0,0,1.12-2.7,1.59,1.59,0,0,0-2.24,0A1.58,1.58,0,0,0,59.6,104Z"/><path id="m0367d51749-18" data-name="m0367d51749" class="cls-4" d="M49.27,109a1.59,1.59,0,0,0,1.58-1.58,1.62,1.62,0,0,0-.46-1.12,1.58,1.58,0,0,0-2.7,1.12,1.53,1.53,0,0,0,.46,1.11A1.58,1.58,0,0,0,49.27,109Z"/><path id="m0367d51749-19" data-name="m0367d51749" class="cls-4" d="M92.08,98.92a1.58,1.58,0,0,0,1.12-2.7A1.58,1.58,0,0,0,91,98.46,1.62,1.62,0,0,0,92.08,98.92Z"/><path id="m0367d51749-20" data-name="m0367d51749" class="cls-4" d="M63.44,78.8a1.62,1.62,0,0,0,1.12-.46,1.58,1.58,0,0,0-2.24-2.24,1.58,1.58,0,0,0,1.12,2.7Z"/><path id="m0367d51749-21" data-name="m0367d51749" class="cls-4" d="M111.08,48.62a1.53,1.53,0,0,0,1.11-.46,1.58,1.58,0,0,0-1.11-2.7,1.62,1.62,0,0,0-1.12.46,1.58,1.58,0,0,0,1.12,2.7Z"/><path id="m0367d51749-22" data-name="m0367d51749" class="cls-4" d="M93,48.62a1.58,1.58,0,0,0,1.12-2.7A1.62,1.62,0,0,0,93,45.46a1.58,1.58,0,0,0-1.11,2.7A1.53,1.53,0,0,0,93,48.62Z"/><path id="m0367d51749-23" data-name="m0367d51749" class="cls-4" d="M158.7,43.59a1.57,1.57,0,0,0,1.12-.46,1.58,1.58,0,0,0-2.24-2.24,1.58,1.58,0,0,0,1.12,2.7Z"/><path id="m0367d51749-24" data-name="m0367d51749" class="cls-4" d="M69.88,88.86A1.58,1.58,0,0,0,71,86.16a1.58,1.58,0,0,0-2.24,2.24A1.62,1.62,0,0,0,69.88,88.86Z"/><path id="m0367d51749-25" data-name="m0367d51749" class="cls-4" d="M85.62,98.92a1.58,1.58,0,0,0,1.12-2.7,1.58,1.58,0,0,0-2.23,0,1.58,1.58,0,0,0,1.11,2.7Z"/><path id="m0367d51749-26" data-name="m0367d51749" class="cls-4" d="M87.34,78.8a1.58,1.58,0,0,0,1.12-2.7,1.59,1.59,0,0,0-2.24,0,1.58,1.58,0,0,0,1.12,2.7Z"/><path id="m0367d51749-27" data-name="m0367d51749" class="cls-4" d="M89.06,73.77a1.58,1.58,0,0,0,1.11-2.7,1.58,1.58,0,0,0-2.23,0,1.58,1.58,0,0,0,1.12,2.7Z"/><path id="m0367d51749-28" data-name="m0367d51749" class="cls-4" d="M63.81,104a1.58,1.58,0,0,0,1.11-2.7,1.58,1.58,0,0,0-2.23,0,1.58,1.58,0,0,0,1.12,2.7Z"/><path id="m0367d51749-29" data-name="m0367d51749" class="cls-4" d="M55.22,88.86a1.62,1.62,0,0,0,1.12-.46,1.58,1.58,0,0,0-2.24-2.24,1.58,1.58,0,0,0,1.12,2.7Z"/><path id="m0367d51749-30" data-name="m0367d51749" class="cls-4" d="M51.26,88.86a1.58,1.58,0,0,0,1.12-2.7,1.56,1.56,0,0,0-1.12-.46,1.53,1.53,0,0,0-1.11.46,1.58,1.58,0,0,0,1.11,2.7Z"/><path id="m0367d51749-31" data-name="m0367d51749" class="cls-4" d="M130.29,68.74a1.58,1.58,0,0,0,1.12-2.7,1.58,1.58,0,0,0-2.24,2.24A1.62,1.62,0,0,0,130.29,68.74Z"/></g></g><g id="PolyCollection_1" data-name="PolyCollection 1"><g class="cls-3"><path class="cls-5" d="M49.27,76.68v25.21l1.66-.57,1.66-.71,1.66-.91,1.66-.64,1.66-.57,1.67-.7,1.66-.54,1.66-.7,1.66-.7,1.66-.64,1.66-.62,1.66-.54,1.67-.73,1.66-.54,1.66-.5,1.66-.4,1.66-.46L79.17,91l1.66-.49,1.66-.71,1.67-.52,1.66-.5,1.66-.43,1.66-.49,1.66-.5,1.66-.4,1.66-.46,1.67-.42,1.66-.34,1.66-.32,1.66-.25,1.66-.19,1.66-.18,1.66-.43,1.67-.24,1.66-.26,1.66-.29,1.66-.16,1.66-.16,1.66-.16,1.66-.27,1.67-.42,1.66-.14,1.66-.2,1.66-.21,1.66-.29,1.66-.24L129,81l1.67,0h1.66l1.66,0,1.66-.11,1.66-.06,1.66-.15,1.66-.12,1.66-.15,1.67-.17,1.66-.17,1.66-.16,1.66-.17,1.66-.16,1.66-.18,1.66-.17L155.6,79l1.66-.17,1.66-.18,1.66-.13,1.66-.11,1.66,0,1.66-.17h1.67l1.66-.15,1.66-.08,1.66-.07,1.66-.11,1.66,0,1.66-.07h1.67l1.66,0h1.66l1.66-.08,1.66,0,1.66,0,1.66,0,1.67,0,1.66,0,1.66,0,1.66,0,1.66,0,1.66,0,1.66,0,1.66,0,1.67,0,1.66,0,1.66,0,1.66,0,1.66,0,1.66,0,1.66,0V26.57h0l-1.66.66-1.66.67-1.66.66-1.66.57-1.66.57-1.66.61-1.67.73-1.66.75-1.66.76-1.66.68-1.66.72-1.66.74-1.66.74-1.66.74-1.67.74-1.66.74-1.66.74-1.66.74-1.66.67-1.66.67-1.66.69-1.67.76-1.66.68-1.66.74-1.66.74-1.66.72-1.66.56-1.66.57-1.67.59-1.66.62-1.66.57-1.66.65-1.66.7-1.66.69-1.66.71-1.67.76-1.66.7-1.66.77-1.66.73-1.66.68-1.66.65-1.66.63L142.3,56l-1.66.65-1.66.64-1.66.66-1.66.66-1.66.66-1.66.47-1.66.48-1.67.49-1.66.58-1.66.61-1.66.77-1.66.49-1.66.52-1.66.57-1.67.47-1.66.5-1.66.49-1.66.46-1.66.52-1.66.52-1.66.49-1.67.45-1.66.33-1.66.51-1.66.3-1.66.35L97.45,70l-1.66.33-1.67.33L92.46,71l-1.66.35-1.66.4L87.48,72l-1.66.33-1.66.44-1.67.43-1.66.12-1.66.33-1.66,0-1.66.24-1.66.42-1.66.26-1.66.15-1.67.15-1.66.19-1.66.06-1.66.21-1.66.25-1.66,0-1.66,0-1.67.06H55.91l-1.66.17-1.66.29-1.66.29Z"/></g></g><g id="matplotlib.axis_1" data-name="matplotlib.axis 1"><g id="xtick_1" data-name="xtick 1"><g id="line2d_1" data-name="line2d 1"><path id="m4c5949c2dc" class="cls-6" d="M48.65,127.52V131"/></g><g id="text_1" data-name="text 1"><path id="DejaVuSans-30" class="cls-7" d="M43.87,135.47a1.23,1.23,0,0,0-1.14.75,5.09,5.09,0,0,0-.38,2.26,5,5,0,0,0,.38,2.24,1.23,1.23,0,0,0,1.14.75,1.22,1.22,0,0,0,1.15-.75,5,5,0,0,0,.39-2.24,5.06,5.06,0,0,0-.39-2.26A1.22,1.22,0,0,0,43.87,135.47Zm0-.78a2.14,2.14,0,0,1,1.88,1,6.51,6.51,0,0,1,0,5.63,2.3,2.3,0,0,1-3.75,0,6.51,6.51,0,0,1,0-5.63A2.13,2.13,0,0,1,43.87,134.69Z"/><path id="DejaVuSans-2e" class="cls-7" d="M48.13,140.87h1v1.24h-1Z"/><path id="DejaVuSans-30-2" data-name="DejaVuSans-30" class="cls-7" d="M53.42,135.47a1.23,1.23,0,0,0-1.15.75,5.23,5.23,0,0,0-.38,2.26,5.16,5.16,0,0,0,.38,2.24,1.26,1.26,0,0,0,2.3,0,5.16,5.16,0,0,0,.38-2.24,5.23,5.23,0,0,0-.38-2.26A1.23,1.23,0,0,0,53.42,135.47Zm0-.78a2.13,2.13,0,0,1,1.87,1,6.42,6.42,0,0,1,0,5.63,2.3,2.3,0,0,1-3.75,0,6.51,6.51,0,0,1,0-5.63A2.14,2.14,0,0,1,53.42,134.69Z"/></g></g><g id="xtick_2" data-name="xtick 2"><g id="line2d_2" data-name="line2d 2"><path id="m4c5949c2dc-2" data-name="m4c5949c2dc" class="cls-6" d="M92.57,127.52V131"/></g><g id="text_2" data-name="text 2"><path id="DejaVuSans-30-3" data-name="DejaVuSans-30" class="cls-7" d="M87.8,135.47a1.23,1.23,0,0,0-1.15.75,5.23,5.23,0,0,0-.38,2.26,5.16,5.16,0,0,0,.38,2.24,1.26,1.26,0,0,0,2.3,0,5.16,5.16,0,0,0,.38-2.24,5.23,5.23,0,0,0-.38-2.26A1.23,1.23,0,0,0,87.8,135.47Zm0-.78a2.13,2.13,0,0,1,1.87,1,6.42,6.42,0,0,1,0,5.63,2.29,2.29,0,0,1-3.74,0,6.42,6.42,0,0,1,0-5.63A2.12,2.12,0,0,1,87.8,134.69Z"/><path id="DejaVuSans-2e-2" data-name="DejaVuSans-2e" class="cls-7" d="M92.05,140.87h1v1.24h-1Z"/><path id="DejaVuSans-32" class="cls-7" d="M96.08,141.28h3.44v.83H94.89v-.83l1.53-1.56c.65-.65,1.06-1.07,1.22-1.26a4,4,0,0,0,.66-.9,1.52,1.52,0,0,0,.19-.72,1.19,1.19,0,0,0-.41-1,1.49,1.49,0,0,0-1.06-.37,3.52,3.52,0,0,0-1,.16,6,6,0,0,0-1.1.49v-1q.6-.22,1.11-.36a4.33,4.33,0,0,1,1-.12,2.71,2.71,0,0,1,1.81.57,1.87,1.87,0,0,1,.67,1.51,2,2,0,0,1-.17.85,3.79,3.79,0,0,1-.61.95c-.08.1-.34.37-.78.82Z"/></g></g><g id="xtick_3" data-name="xtick 3"><g id="line2d_3" data-name="line2d 3"><path id="m4c5949c2dc-3" data-name="m4c5949c2dc" class="cls-6" d="M136.49,127.52V131"/></g><g id="text_3" data-name="text 3"><path id="DejaVuSans-30-4" data-name="DejaVuSans-30" class="cls-7" d="M131.72,135.47a1.23,1.23,0,0,0-1.15.75,5.23,5.23,0,0,0-.38,2.26,5.16,5.16,0,0,0,.38,2.24,1.26,1.26,0,0,0,2.3,0,5,5,0,0,0,.38-2.24,5.09,5.09,0,0,0-.38-2.26A1.23,1.23,0,0,0,131.72,135.47Zm0-.78a2.12,2.12,0,0,1,1.87,1,6.42,6.42,0,0,1,0,5.63,2.29,2.29,0,0,1-3.74,0,6.42,6.42,0,0,1,0-5.63A2.12,2.12,0,0,1,131.72,134.69Z"/><path id="DejaVuSans-2e-3" data-name="DejaVuSans-2e" class="cls-7" d="M136,140.87h1v1.24h-1Z"/><path id="DejaVuSans-34" class="cls-7" d="M141.86,135.68l-2.49,3.89h2.49Zm-.26-.86h1.24v4.75h1v.83h-1v1.71h-1V140.4h-3.29v-1Z"/></g></g><g id="xtick_4" data-name="xtick 4"><g id="line2d_4" data-name="line2d 4"><path id="m4c5949c2dc-4" data-name="m4c5949c2dc" class="cls-6" d="M180.42,127.52V131"/></g><g id="text_4" data-name="text 4"><path id="DejaVuSans-30-5" data-name="DejaVuSans-30" class="cls-7" d="M175.64,135.47a1.21,1.21,0,0,0-1.14.75,5.06,5.06,0,0,0-.39,2.26,5,5,0,0,0,.39,2.24,1.21,1.21,0,0,0,1.14.75,1.22,1.22,0,0,0,1.15-.75,5,5,0,0,0,.39-2.24,5.06,5.06,0,0,0-.39-2.26A1.22,1.22,0,0,0,175.64,135.47Zm0-.78a2.15,2.15,0,0,1,1.88,1,6.51,6.51,0,0,1,0,5.63,2.3,2.3,0,0,1-3.75,0,6.42,6.42,0,0,1,0-5.63A2.13,2.13,0,0,1,175.64,134.69Z"/><path id="DejaVuSans-2e-4" data-name="DejaVuSans-2e" class="cls-7" d="M179.89,140.87h1v1.24h-1Z"/><path id="DejaVuSans-36" class="cls-7" d="M185.31,138.08a1.33,1.33,0,0,0-1.06.45,1.84,1.84,0,0,0-.38,1.24,1.87,1.87,0,0,0,.38,1.25,1.46,1.46,0,0,0,2.11,0,1.87,1.87,0,0,0,.39-1.25,1.84,1.84,0,0,0-.39-1.24A1.32,1.32,0,0,0,185.31,138.08Zm1.95-3.1v.9a3.91,3.91,0,0,0-.75-.26,2.76,2.76,0,0,0-.75-.1,1.79,1.79,0,0,0-1.49.66,3.56,3.56,0,0,0-.59,2,2,2,0,0,1,1.68-.87,2.29,2.29,0,0,1,1.74.66,2.5,2.5,0,0,1,.64,1.81,2.47,2.47,0,0,1-.67,1.81,2.36,2.36,0,0,1-1.76.68,2.23,2.23,0,0,1-1.94-1,5,5,0,0,1-.67-2.81,4.34,4.34,0,0,1,.82-2.76,2.67,2.67,0,0,1,2.21-1,4,4,0,0,1,.75.08A5.05,5.05,0,0,1,187.26,135Z"/></g></g><g id="text_5" data-name="text 5"><path id="DejaVuSans-394" class="cls-7" d="M124.32,149.4l-2,5.49h4ZM121,155.71l2.79-7.29h1.12l2.77,7.29Z"/><path id="DejaVuSans-Oblique-46" class="cls-7" d="M131.06,148.42h4.18l-.16.83h-3.2l-.42,2.15h2.89l-.16.83H131.3l-.68,3.48h-1Z"/><path id="DejaVuSans-Oblique-43" class="cls-7" d="M142.07,149l-.2,1a3.21,3.21,0,0,0-1-.7,2.87,2.87,0,0,0-1.14-.23,2.77,2.77,0,0,0-1.47.4,3.44,3.44,0,0,0-1.09,1.22,5.7,5.7,0,0,0-.45,1.12,4.77,4.77,0,0,0-.15,1.18,2,2,0,0,0,.52,1.52,2,2,0,0,0,1.49.52,4.09,4.09,0,0,0,1.31-.21,4.76,4.76,0,0,0,1.21-.65l-.23,1.16a6.15,6.15,0,0,1-1.17.38,6,6,0,0,1-1.19.13,3.07,3.07,0,0,1-2.19-.76,2.85,2.85,0,0,1-.79-2.13,5,5,0,0,1,.3-1.7,5.23,5.23,0,0,1,.87-1.54,3.85,3.85,0,0,1,1.35-1.09,4.31,4.31,0,0,1,1.78-.35,3.85,3.85,0,0,1,1.19.18A3.28,3.28,0,0,1,142.07,149Z"/></g></g><g id="matplotlib.axis_2" data-name="matplotlib.axis 2"><g id="ytick_1" data-name="ytick 1"><g id="line2d_5" data-name="line2d 5"><path id="m1bd61c0329" class="cls-6" d="M41,127.52h-3.5"/></g><g id="text_6" data-name="text 6"><path id="DejaVuSans-2212" class="cls-7" d="M20.36,127.76h6.26v.83H20.36Z"/><path id="DejaVuSans-35" class="cls-7" d="M28.76,124h3.87v.84h-3v1.78a3.89,3.89,0,0,1,.43-.11,3.11,3.11,0,0,1,.43,0,2.75,2.75,0,0,1,1.94.66,2.39,2.39,0,0,1,.71,1.82,2.36,2.36,0,0,1-.73,1.83,3,3,0,0,1-2.07.65,6.07,6.07,0,0,1-.94-.08,6.64,6.64,0,0,1-1-.24v-1a3.87,3.87,0,0,0,1.9.48,1.92,1.92,0,0,0,1.34-.45,1.53,1.53,0,0,0,.49-1.2,1.55,1.55,0,0,0-.49-1.21,1.92,1.92,0,0,0-1.34-.44,3.53,3.53,0,0,0-.79.08,3.82,3.82,0,0,0-.8.28Z"/></g></g><g id="ytick_2" data-name="ytick 2"><g id="line2d_6" data-name="line2d 6"><path id="m1bd61c0329-2" data-name="m1bd61c0329" class="cls-6" d="M41,102.37h-3.5"/></g><g id="text_7" data-name="text 7"><path id="DejaVuSans-30-6" data-name="DejaVuSans-30" class="cls-7" d="M30.86,99.53a1.23,1.23,0,0,0-1.15.75,6.85,6.85,0,0,0,0,4.5,1.26,1.26,0,0,0,2.3,0,6.85,6.85,0,0,0,0-4.5A1.23,1.23,0,0,0,30.86,99.53Zm0-.79a2.12,2.12,0,0,1,1.87,1,6.42,6.42,0,0,1,0,5.63,2.29,2.29,0,0,1-3.74,0,6.42,6.42,0,0,1,0-5.63A2.12,2.12,0,0,1,30.86,98.74Z"/></g></g><g id="ytick_3" data-name="ytick 3"><g id="line2d_7" data-name="line2d 7"><path id="m1bd61c0329-3" data-name="m1bd61c0329" class="cls-6" d="M41,77.22h-3.5"/></g><g id="text_8" data-name="text 8"><path id="DejaVuSans-35-2" data-name="DejaVuSans-35" class="cls-7" d="M28.76,73.73h3.87v.83h-3v1.78a3.77,3.77,0,0,1,.43-.1,2.15,2.15,0,0,1,.43,0,2.71,2.71,0,0,1,1.94.67,2.37,2.37,0,0,1,.71,1.81,2.33,2.33,0,0,1-.73,1.83,3,3,0,0,1-2.07.65,5.94,5.94,0,0,1-.93-.08,7.8,7.8,0,0,1-1-.23v-1a4.61,4.61,0,0,0,.91.35,4,4,0,0,0,1,.12,2,2,0,0,0,1.34-.44,1.74,1.74,0,0,0,0-2.42A2,2,0,0,0,30.35,77a3.55,3.55,0,0,0-.79.09,3.77,3.77,0,0,0-.8.27Z"/></g></g><g id="ytick_4" data-name="ytick 4"><g id="line2d_8" data-name="line2d 8"><path id="m1bd61c0329-4" data-name="m1bd61c0329" class="cls-6" d="M41,52.07h-3.5"/></g><g id="text_9" data-name="text 9"><path id="DejaVuSans-31" class="cls-7" d="M22.56,55h1.61V49.48l-1.75.35v-.9l1.74-.35h1V55h1.61v.83h-4.2Z"/><path id="DejaVuSans-30-7" data-name="DejaVuSans-30" class="cls-7" d="M30.86,49.23a1.23,1.23,0,0,0-1.15.75,5.21,5.21,0,0,0-.38,2.25,5.21,5.21,0,0,0,.38,2.25,1.26,1.26,0,0,0,2.3,0,5.07,5.07,0,0,0,.38-2.25A5.07,5.07,0,0,0,32,50,1.23,1.23,0,0,0,30.86,49.23Zm0-.78a2.1,2.1,0,0,1,1.87,1,5.05,5.05,0,0,1,.65,2.81A5.05,5.05,0,0,1,32.73,55,2.29,2.29,0,0,1,29,55a5.05,5.05,0,0,1-.65-2.81A5.05,5.05,0,0,1,29,49.42,2.1,2.1,0,0,1,30.86,48.45Z"/></g></g><g id="ytick_5" data-name="ytick 5"><g id="line2d_9" data-name="line2d 9"><path id="m1bd61c0329-5" data-name="m1bd61c0329" class="cls-6" d="M41,26.92h-3.5"/></g><g id="text_10" data-name="text 10"><path id="DejaVuSans-31-2" data-name="DejaVuSans-31" class="cls-7" d="M22.56,29.89h1.61V24.33l-1.75.35v-.9l1.74-.35h1v6.46h1.61v.83h-4.2Z"/><path id="DejaVuSans-35-3" data-name="DejaVuSans-35" class="cls-7" d="M28.76,23.43h3.87v.83h-3v1.79a2.47,2.47,0,0,1,.43-.11,2.15,2.15,0,0,1,.43,0,2.75,2.75,0,0,1,1.94.67,2.39,2.39,0,0,1,.71,1.81,2.3,2.3,0,0,1-.73,1.83,3,3,0,0,1-2.07.65,5.91,5.91,0,0,1-.93-.07,7.89,7.89,0,0,1-1-.24v-1a3.63,3.63,0,0,0,.91.35,4,4,0,0,0,1,.12,2,2,0,0,0,1.34-.44,1.55,1.55,0,0,0,.49-1.21,1.51,1.51,0,0,0-.49-1.2,1.92,1.92,0,0,0-1.34-.45,3.55,3.55,0,0,0-.79.09,4.44,4.44,0,0,0-.8.27Z"/></g></g><g id="text_11" data-name="text 11"><path id="DejaVuSans-394-2" data-name="DejaVuSans-394" class="cls-7" d="M6.82,90.12l5.5,2v-4Zm6.32,3.34L5.85,90.68V89.56l7.29-2.78Z"/><path id="DejaVuSans-Oblique-59" class="cls-7" d="M5.85,84.45V83.39l3-1.37-3-2.6v-1.1l3.82,3.3,3.47.68v1l-3.47-.67Z"/><path id="DejaVuSans-Oblique-42" class="cls-7" d="M5.85,77.28V74.76a2.59,2.59,0,0,1,.38-1.54,1.37,1.37,0,0,1,1.15-.5,1.79,1.79,0,0,1,1.21.43,1.78,1.78,0,0,1,.62,1.15,1.5,1.5,0,0,1,.53-.91,1.62,1.62,0,0,1,1-.3,2.08,2.08,0,0,1,1.73.81,3.47,3.47,0,0,1,.64,2.22V78.7ZM9.66,77l2.67.52V76a2,2,0,0,0-.41-1.38,1.43,1.43,0,0,0-1.15-.48,1,1,0,0,0-.84.32,1.57,1.57,0,0,0-.27,1Zm-3-.58,2.2.43V75.42a1.94,1.94,0,0,0-.34-1.23,1.11,1.11,0,0,0-.95-.44.83.83,0,0,0-.69.29,1.7,1.7,0,0,0-.22,1Z"/><path id="DejaVuSans-Oblique-4f" class="cls-7" d="M6.52,67.55A2.57,2.57,0,0,0,6.92,69a3.29,3.29,0,0,0,1.19,1.07,4.48,4.48,0,0,0,1.09.45,4.65,4.65,0,0,0,1.17.16,2.31,2.31,0,0,0,1.56-.49,1.71,1.71,0,0,0,.55-1.37,2.64,2.64,0,0,0-.39-1.43A3.2,3.2,0,0,0,10.9,66.3a5,5,0,0,0-1.1-.46,4.62,4.62,0,0,0-1.16-.15,2.31,2.31,0,0,0-1.56.48A1.76,1.76,0,0,0,6.52,67.55Zm6.77,1.27a2.83,2.83,0,0,1-.8,2.12,3,3,0,0,1-2.18.77,4.72,4.72,0,0,1-1.62-.3,5.28,5.28,0,0,1-1.47-.83A4.38,4.38,0,0,1,6.09,69.2a3.9,3.9,0,0,1-.37-1.68,2.78,2.78,0,0,1,.79-2.11,2.92,2.92,0,0,1,2.15-.77,4.9,4.9,0,0,1,3.12,1.13,4.29,4.29,0,0,1,1.14,1.38A3.82,3.82,0,0,1,13.29,68.82Z"/><path id="DejaVuSans-Oblique-43-2" data-name="DejaVuSans-Oblique-43" class="cls-7" d="M6.42,57.29l1,.2a3.21,3.21,0,0,0-.7,1,2.87,2.87,0,0,0-.23,1.14,2.73,2.73,0,0,0,.4,1.46,3.35,3.35,0,0,0,1.22,1.09,4.53,4.53,0,0,0,1.12.45,4.79,4.79,0,0,0,1.18.16A2.09,2.09,0,0,0,12,62.26a2,2,0,0,0,.52-1.5,4.07,4.07,0,0,0-.21-1.3,5.15,5.15,0,0,0-.65-1.22l1.16.23a6.48,6.48,0,0,1,.38,1.18,5.94,5.94,0,0,1,.13,1.19A3,3,0,0,1,12.52,63a2.81,2.81,0,0,1-2.12.78,5.24,5.24,0,0,1-3.24-1.16,3.8,3.8,0,0,1-1.09-1.36,4.28,4.28,0,0,1-.35-1.78,4.16,4.16,0,0,1,.17-1.18A3.53,3.53,0,0,1,6.42,57.29Z"/><path id="DejaVuSans-Oblique-53" class="cls-7" d="M6.09,51.22l1,.19a5.26,5.26,0,0,0-.39,1,3.57,3.57,0,0,0-.14.94,2.31,2.31,0,0,0,.39,1.41,1.2,1.2,0,0,0,1,.52.7.7,0,0,0,.54-.19,2.67,2.67,0,0,0,.41-1L9,53.48a3,3,0,0,1,.66-1.39,1.52,1.52,0,0,1,1.11-.39,2.19,2.19,0,0,1,1.8.87,3.56,3.56,0,0,1,.7,2.28A5.81,5.81,0,0,1,13.17,56a6.5,6.5,0,0,1-.35,1.17l-1-.2a4.74,4.74,0,0,0,.5-1.08,3.49,3.49,0,0,0,.17-1.09,2.4,2.4,0,0,0-.41-1.48A1.26,1.26,0,0,0,11,52.79a.89.89,0,0,0-.66.22,2.13,2.13,0,0,0-.41,1l-.16.59a3.2,3.2,0,0,1-.6,1.38,1.26,1.26,0,0,1-1,.37,2.21,2.21,0,0,1-1.78-.84,3.24,3.24,0,0,1-.7-2.18,5.07,5.07,0,0,1,.1-1A6.52,6.52,0,0,1,6.09,51.22Z"/></g></g><g id="line2d_10" data-name="line2d 10"><g class="cls-3"><path class="cls-8" d="M49.27,89.51l1.66-.39,1.66-.4,1.66-.39,1.66-.39,1.66-.4,1.67-.39,1.66-.39,1.66-.4L64.22,86l1.66-.4,1.66-.39,1.66-.39,1.67-.4L72.53,84l1.66-.39,1.66-.4,1.66-.39,1.66-.4L80.83,82l1.66-.39,1.67-.4,1.66-.39,1.66-.4,1.66-.39,1.66-.39,1.66-.4,1.66-.39,1.67-.39,1.66-.4,1.66-.39,1.66-.4,1.66-.39,1.66-.39,1.66-.4,1.67-.39,1.66-.39,1.66-.4,1.66-.39,1.66-.4,1.66-.39,1.66-.39,1.67-.4,1.66-.39,1.66-.4,1.66-.39,1.66-.39,1.66-.4,1.66-.39,1.67-.39,1.66-.4,1.66-.39,1.66-.4,1.66-.39,1.66-.39,1.66-.4,1.66-.39,1.67-.39,1.66-.4,1.66-.39,1.66-.4,1.66-.39,1.66-.39,1.66-.4,1.67-.39,1.66-.4,1.66-.39,1.66-.39,1.66-.4,1.66-.39,1.66-.39,1.67-.4,1.66-.39,1.66-.4,1.66-.39,1.66-.39,1.66-.4,1.66-.39,1.67-.39,1.66-.4,1.66-.39,1.66-.4,1.66-.39,1.66-.39,1.66-.4,1.67-.39,1.66-.4,1.66-.39,1.66-.39,1.66-.4,1.66-.39,1.66-.39,1.66-.4,1.67-.39,1.66-.4,1.66-.39,1.66-.39,1.66-.4,1.66-.39,1.66-.39"/></g></g><g id="patch_3" data-name="patch 3"><path class="cls-9" d="M41,127.52V16.86"/></g><g id="patch_4" data-name="patch 4"><path class="cls-9" d="M41,127.52H222"/></g><g id="text_12" data-name="text 12"><path id="DejaVuSans-6e" class="cls-7" d="M77.86,7.56v3.3H77V7.59a1.87,1.87,0,0,0-.3-1.16A1.07,1.07,0,0,0,75.75,6a1.48,1.48,0,0,0-1.15.47,1.81,1.81,0,0,0-.42,1.26v3.09h-.9V5.39h.9v.85a2.19,2.19,0,0,1,.76-.73,2,2,0,0,1,1-.25,1.75,1.75,0,0,1,1.43.59A2.62,2.62,0,0,1,77.86,7.56Z"/><path id="DejaVuSans-3d" class="cls-7" d="M79.77,6.32H86v.82H79.77Zm0,2H86v.83H79.77Z"/><path id="DejaVuSans-33" class="cls-7" d="M91.15,6.93a1.87,1.87,0,0,1,1.1.63,1.78,1.78,0,0,1,.4,1.18,2,2,0,0,1-.74,1.67A3.29,3.29,0,0,1,89.8,11a5.26,5.26,0,0,1-1-.09,7.14,7.14,0,0,1-1-.27v-1a3.26,3.26,0,0,0,.9.36,4.25,4.25,0,0,0,1,.12,2.33,2.33,0,0,0,1.41-.36,1.25,1.25,0,0,0,.49-1.07,1.2,1.2,0,0,0-.45-1A1.91,1.91,0,0,0,90,7.37h-.85V6.56H90a1.84,1.84,0,0,0,1.11-.29,1,1,0,0,0,.39-.84,1,1,0,0,0-.4-.86A1.84,1.84,0,0,0,90,4.27a4.59,4.59,0,0,0-.87.09,8.69,8.69,0,0,0-1,.27V3.75a10.68,10.68,0,0,1,1.05-.23,6.26,6.26,0,0,1,.93-.08A2.83,2.83,0,0,1,91.83,4a1.67,1.67,0,0,1,.65,1.38,1.54,1.54,0,0,1-.35,1A1.82,1.82,0,0,1,91.15,6.93Z"/><path id="DejaVuSans-31-3" data-name="DejaVuSans-31" class="cls-7" d="M94.69,10H96.3V4.47l-1.75.35v-.9l1.74-.35h1V10h1.61v.83h-4.2Z"/><path id="DejaVuSans-72" class="cls-7" d="M110.28,6.23A1.2,1.2,0,0,0,110,6.1a2.34,2.34,0,0,0-.39,0,1.43,1.43,0,0,0-1.17.5A2.18,2.18,0,0,0,108,8v2.88h-.9V5.39h.9v.85a2,2,0,0,1,.74-.74,2.32,2.32,0,0,1,1.1-.24l.21,0,.25,0Z"/><path id="DejaVuSans-3d-2" data-name="DejaVuSans-3d" class="cls-7" d="M111.34,6.32h6.26v.82h-6.26Zm0,2h6.26v.83h-6.26Z"/><path id="DejaVuSans-30-8" data-name="DejaVuSans-30" class="cls-7" d="M121.84,4.22a1.23,1.23,0,0,0-1.15.75,5.23,5.23,0,0,0-.38,2.26,5.19,5.19,0,0,0,.38,2.24,1.26,1.26,0,0,0,2.3,0,5,5,0,0,0,.38-2.24A5.09,5.09,0,0,0,123,5,1.23,1.23,0,0,0,121.84,4.22Zm0-.78a2.1,2.1,0,0,1,1.87,1,5.09,5.09,0,0,1,.65,2.82,5.1,5.1,0,0,1-.65,2.81A2.3,2.3,0,0,1,120,10a5.1,5.1,0,0,1-.65-2.81A5.09,5.09,0,0,1,120,4.41,2.1,2.1,0,0,1,121.84,3.44Z"/><path id="DejaVuSans-2e-5" data-name="DejaVuSans-2e" class="cls-7" d="M126.09,9.62h1v1.24h-1Z"/><path id="DejaVuSans-34-2" data-name="DejaVuSans-34" class="cls-7" d="M132,4.43l-2.49,3.89H132Zm-.26-.86H133V8.32h1v.82h-1v1.72h-1V9.14h-3.29v-1Z"/><path id="DejaVuSans-31-4" data-name="DejaVuSans-31" class="cls-7" d="M135.81,10h1.61V4.47l-1.76.35v-.9l1.75-.35h1V10H140v.83h-4.19Z"/><path id="DejaVuSans-70" class="cls-7" d="M149.1,10v2.9h-.91V5.39h.91v.83a1.82,1.82,0,0,1,.71-.72,2.09,2.09,0,0,1,1-.24,2,2,0,0,1,1.62.79,3.24,3.24,0,0,1,.63,2.08,3.22,3.22,0,0,1-.63,2.08,1.94,1.94,0,0,1-1.62.79,2.09,2.09,0,0,1-1-.23A1.79,1.79,0,0,1,149.1,10Zm3.05-1.91a2.6,2.6,0,0,0-.4-1.55,1.4,1.4,0,0,0-2.25,0,2.6,2.6,0,0,0-.4,1.55,2.65,2.65,0,0,0,.4,1.56,1.41,1.41,0,0,0,2.25,0A2.65,2.65,0,0,0,152.15,8.13Z"/><path id="DejaVuSans-3d-3" data-name="DejaVuSans-3d" class="cls-7" d="M154.69,6.32H161v.82h-6.26Zm0,2H161v.83h-6.26Z"/><path id="DejaVuSans-30-9" data-name="DejaVuSans-30" class="cls-7" d="M165.19,4.22A1.23,1.23,0,0,0,164,5a5.23,5.23,0,0,0-.38,2.26A5.19,5.19,0,0,0,164,9.47a1.26,1.26,0,0,0,2.3,0,5,5,0,0,0,.38-2.24A5.09,5.09,0,0,0,166.34,5,1.23,1.23,0,0,0,165.19,4.22Zm0-.78a2.1,2.1,0,0,1,1.87,1,5.09,5.09,0,0,1,.65,2.82,5.1,5.1,0,0,1-.65,2.81,2.3,2.3,0,0,1-3.74,0,5.1,5.1,0,0,1-.65-2.81,5.09,5.09,0,0,1,.65-2.82A2.1,2.1,0,0,1,165.19,3.44Z"/><path id="DejaVuSans-2e-6" data-name="DejaVuSans-2e" class="cls-7" d="M169.44,9.62h1v1.24h-1Z"/><path id="DejaVuSans-30-10" data-name="DejaVuSans-30" class="cls-7" d="M174.73,4.22a1.23,1.23,0,0,0-1.15.75,5.23,5.23,0,0,0-.38,2.26,5.19,5.19,0,0,0,.38,2.24,1.26,1.26,0,0,0,2.3,0,5,5,0,0,0,.38-2.24A5.09,5.09,0,0,0,175.88,5,1.23,1.23,0,0,0,174.73,4.22Zm0-.78a2.1,2.1,0,0,1,1.87,1,5.09,5.09,0,0,1,.65,2.82A5.1,5.1,0,0,1,176.6,10a2.3,2.3,0,0,1-3.74,0,5.1,5.1,0,0,1-.65-2.81,5.09,5.09,0,0,1,.65-2.82A2.1,2.1,0,0,1,174.73,3.44Z"/><path id="DejaVuSans-32-2" data-name="DejaVuSans-32" class="cls-7" d="M179.83,10h3.45v.83h-4.63V10l1.53-1.56c.64-.65,1-1.07,1.22-1.26a4.77,4.77,0,0,0,.66-.9,1.69,1.69,0,0,0,.19-.73,1.21,1.21,0,0,0-.41-.94,1.51,1.51,0,0,0-1.06-.37,3.18,3.18,0,0,0-1,.16,5.74,5.74,0,0,0-1.1.49v-1a7.12,7.12,0,0,1,1.11-.36,4.19,4.19,0,0,1,.95-.12,2.7,2.7,0,0,1,1.8.57,1.88,1.88,0,0,1,.68,1.51,2.22,2.22,0,0,1-.17.85,3.87,3.87,0,0,1-.62,1c-.08.1-.34.37-.77.82Z"/><path id="DejaVuSans-33-2" data-name="DejaVuSans-33" class="cls-7" d="M188.33,6.93a1.89,1.89,0,0,1,1.11.63,1.83,1.83,0,0,1,.4,1.18,2,2,0,0,1-.74,1.67A3.29,3.29,0,0,1,187,11a5.26,5.26,0,0,1-1-.09,6.79,6.79,0,0,1-1-.27v-1a3.26,3.26,0,0,0,.9.36,4.19,4.19,0,0,0,1,.12,2.33,2.33,0,0,0,1.41-.36,1.28,1.28,0,0,0,.49-1.07,1.19,1.19,0,0,0-.46-1,1.9,1.9,0,0,0-1.25-.37h-.85V6.56h.89a1.86,1.86,0,0,0,1.11-.29,1,1,0,0,0,.39-.84,1,1,0,0,0-.4-.86,1.89,1.89,0,0,0-1.14-.3,4.59,4.59,0,0,0-.87.09,8.69,8.69,0,0,0-1,.27V3.75a9.56,9.56,0,0,1,1.05-.23,6.26,6.26,0,0,1,.93-.08A2.8,2.8,0,0,1,189,4a1.65,1.65,0,0,1,.66,1.38,1.54,1.54,0,0,1-.35,1A1.81,1.81,0,0,1,188.33,6.93Z"/></g></g></svg>