<svg id="Layer_1" data-name="Layer 1" xmlns="http://www.w3.org/2000/svg" xmlns:xlink="http://www.w3.org/1999/xlink" viewBox="0 0 158.5 149.83"><defs><style>.cls-1,.cls-15,.cls-17{fill:none;}.cls-2{fill:#fff;}.cls-3{clip-path:url(#clip-path);}.cls-10,.cls-11,.cls-12,.cls-13,.cls-14,.cls-4,.cls-5,.cls-6,.cls-7,.cls-8,.cls-9{fill:#818181;stroke:#010101;isolation:isolate;}.cls-4{opacity:0.22;}.cls-12,.cls-5,.cls-7{stroke-dasharray:3.7 1.6;}.cls-5{opacity:0.91;}.cls-6{opacity:0.45;}.cls-7{opacity:0.57;}.cls-8{opacity:0.24;}.cls-9{opacity:0.63;}.cls-10{opacity:0.21;}.cls-11{opacity:0.25;}.cls-12{opacity:0.25;}.cls-13{opacity:0.34;}.cls-14{opacity:0.34;}.cls-15,.cls-17{stroke:#b0b1b1;stroke-linejoin:round;}.cls-15{stroke-width:0.5px;stroke-dasharray:1.85 0.8;}.cls-16{fill:#010101;}.cls-17{stroke-linecap:square;stroke-width:0.8px;}</style><clipPath id="clip-path"><path class="cls-1" d="M133.1,75.69a55.34,55.34,0,1,0-4.21,21.17,55.38,55.38,0,0,0,4.21-21.17m-55.32,0Z"/></clipPath></defs><g id="axes_2" data-name="axes 2"><g id="patch_5" data-name="patch 5"><path class="cls-2" d="M133.1,75.69a55.34,55.34,0,1,0-4.21,21.17,55.38,55.38,0,0,0,4.21-21.17m-55.32,0Z"/></g><g id="patch_6" data-name="patch 6"><g class="cls-3"><path class="cls-4" d="M77.78,75.69h0l1.1-.29a1,1,0,0,1,0,.29.9.9,0,0,1,0,.28Z"/></g></g><g id="patch_7" data-name="patch 7"><g class="cls-3"><path class="cls-5" d="M77.78,75.69h0l35.9-38.57a52.5,52.5,0,0,1,14.09,21.93Z"/></g></g><g id="patch_8" data-name="patch 8"><g class="cls-3"><path class="cls-6" d="M77.78,75.69h0l3.3-18.29a18.44,18.44,0,0,1,8.36,3.82Z"/></g></g><g id="patch_9" data-name="patch 9"><g class="cls-3"><path class="cls-7" d="M77.78,75.69h0L67.28,50.36a27.41,27.41,0,0,1,13.43-1.93Z"/></g></g><g id="patch_10" data-name="patch 10"><g class="cls-3"><path class="cls-8" d="M77.78,75.69h0l-2.24-1.56a2.74,2.74,0,0,1,.45-.51,2.79,2.79,0,0,1,.57-.37Z"/></g></g><g id="patch_11" data-name="patch 11"><g class="cls-3"><path class="cls-9" d="M77.78,75.69h0L45.31,74.53a32.84,32.84,0,0,1,1.29-8,32.44,32.44,0,0,1,3.24-7.42Z"/></g></g><g id="patch_12" data-name="patch 12"><g class="cls-3"><path class="cls-10" d="M77.78,75.69h0l-.66.39A1.42,1.42,0,0,1,77,75.9l0-.19Z"/></g></g><g id="patch_13" data-name="patch 13"><g class="cls-3"><path class="cls-11" d="M77.78,75.69h0L76.2,78.85a3.73,3.73,0,0,1-.73-.49,3.33,3.33,0,0,1-.59-.66Z"/></g></g><g id="patch_14" data-name="patch 14"><g class="cls-3"><path class="cls-12" d="M77.78,75.69h0l.41,3.8a3.43,3.43,0,0,1-1,0,3.81,3.81,0,0,1-.92-.25Z"/></g></g><g id="patch_15" data-name="patch 15"><g class="cls-3"><path class="cls-13" d="M77.78,75.69h0L84.49,84a10.59,10.59,0,0,1-2.27,1.4,10.39,10.39,0,0,1-2.54.79Z"/></g></g><g id="patch_16" data-name="patch 16"><g class="cls-3"><path class="cls-14" d="M77.78,75.69h0l9.76,3.25a10,10,0,0,1-1.11,2.31,10.28,10.28,0,0,1-1.64,2Z"/></g></g><g id="patch_17" data-name="patch 17"><g class="cls-3"><path class="cls-4" d="M77.78,75.69h0l1.1-.29a1,1,0,0,1,0,.29.9.9,0,0,1,0,.28Z"/></g></g><g id="matplotlib.axis_3" data-name="matplotlib.axis 3"><g id="xtick_5" data-name="xtick 5"><g id="line2d_11" data-name="line2d 11"><g class="cls-3"><path class="cls-15" d="M77.78,75.69H133.1"/></g></g><g id="text_13" data-name="text 13"><path id="DejaVuSans-Oblique-43" class="cls-16" d="M145.7,71.64l-.2,1a3.05,3.05,0,0,0-1-.7,2.7,2.7,0,0,0-1.14-.23,2.65,2.65,0,0,0-1.46.4,3.2,3.2,0,0,0-1.09,1.22,4.78,4.78,0,0,0-.61,2.3,2.1,2.1,0,0,0,.52,1.52,2,2,0,0,0,1.5.52,3.82,3.82,0,0,0,1.3-.22,4.32,4.32,0,0,0,1.21-.65L144.52,78a6.44,6.44,0,0,1-1.18.37,5.29,5.29,0,0,1-1.19.13,3,3,0,0,1-2.19-.76,2.84,2.84,0,0,1-.79-2.12,5.12,5.12,0,0,1,1.17-3.24,3.69,3.69,0,0,1,1.36-1.09,4.13,4.13,0,0,1,1.78-.35,3.83,3.83,0,0,1,1.18.17A3.75,3.75,0,0,1,145.7,71.64Z"/><path id="DejaVuSans-Oblique-4f" class="cls-16" d="M148.93,75.37a1.85,1.85,0,0,0-1,.28,2.32,2.32,0,0,0-.76.84,3.37,3.37,0,0,0-.31.76,3.22,3.22,0,0,0-.11.81,1.64,1.64,0,0,0,.34,1.1,1.21,1.21,0,0,0,1,.39,1.85,1.85,0,0,0,1-.28,2.17,2.17,0,0,0,.75-.83,3.2,3.2,0,0,0,.43-1.58,1.61,1.61,0,0,0-.34-1.1A1.21,1.21,0,0,0,148.93,75.37Zm-.9,4.74a2,2,0,0,1-1.48-.56A2.13,2.13,0,0,1,146,78a3.27,3.27,0,0,1,.21-1.13,3.35,3.35,0,0,1,.58-1,2.82,2.82,0,0,1,1-.79,2.59,2.59,0,0,1,1.18-.27,2,2,0,0,1,1.48.56,2,2,0,0,1,.54,1.5,3.35,3.35,0,0,1-.21,1.16,3.53,3.53,0,0,1-.59,1,2.94,2.94,0,0,1-1,.79A2.69,2.69,0,0,1,148,80.11Z"/><path id="DejaVuSans-Oblique-4c" class="cls-16" d="M152.42,74.91h.7l-.88,4.52h2.49l-.12.58h-3.18Z"/></g></g><g id="xtick_6" data-name="xtick 6"><g id="line2d_12" data-name="line2d 12"><g class="cls-3"><path class="cls-15" d="M77.78,75.69l46.54-29.91"/></g></g><g id="text_14" data-name="text 14"><path id="DejaVuSans-Oblique-43-2" data-name="DejaVuSans-Oblique-43" class="cls-16" d="M134.25,34.16l-.2,1a3.2,3.2,0,0,0-1-.7,2.9,2.9,0,0,0-2.6.17,3.28,3.28,0,0,0-1.09,1.22,4.46,4.46,0,0,0-.45,1.11,4.85,4.85,0,0,0-.15,1.19,2.1,2.1,0,0,0,.51,1.52,2.07,2.07,0,0,0,1.5.52,3.78,3.78,0,0,0,1.3-.22,4.37,4.37,0,0,0,1.22-.65l-.23,1.17a6.59,6.59,0,0,1-1.17.37,5.42,5.42,0,0,1-1.19.13,3,3,0,0,1-2.19-.76,2.81,2.81,0,0,1-.79-2.12,5,5,0,0,1,.3-1.71,5.24,5.24,0,0,1,.86-1.53,3.67,3.67,0,0,1,1.36-1.09,4.13,4.13,0,0,1,1.78-.35,3.89,3.89,0,0,1,1.19.17A3.5,3.5,0,0,1,134.25,34.16Z"/><path id="DejaVuSans-Oblique-4f-2" data-name="DejaVuSans-Oblique-4f" class="cls-16" d="M137.47,37.89a1.8,1.8,0,0,0-1,.28,2.22,2.22,0,0,0-.75.84,3.4,3.4,0,0,0-.32.76,3.21,3.21,0,0,0-.1.81,1.59,1.59,0,0,0,.34,1.1,1.19,1.19,0,0,0,1,.39,1.88,1.88,0,0,0,1-.28,2.34,2.34,0,0,0,.75-.83,3.69,3.69,0,0,0,.32-.77,3.22,3.22,0,0,0,.11-.81,1.61,1.61,0,0,0-.35-1.1A1.19,1.19,0,0,0,137.47,37.89Zm-.89,4.74a2,2,0,0,1-1.48-.56,2.09,2.09,0,0,1-.54-1.52,3.36,3.36,0,0,1,.21-1.14,3.65,3.65,0,0,1,.58-1,2.9,2.9,0,0,1,1-.8,2.68,2.68,0,0,1,1.17-.26,2,2,0,0,1,1.48.56,2,2,0,0,1,.54,1.5,3.5,3.5,0,0,1-.79,2.18,2.88,2.88,0,0,1-1,.8A2.64,2.64,0,0,1,136.58,42.63Z"/><path id="DejaVuSans-Oblique-41" class="cls-16" d="M142.37,37.42h.78l.95,5.11h-.72l-.22-1.31h-2.29l-.72,1.31h-.73Zm.25.69-1.43,2.53h1.87Z"/></g></g><g id="xtick_7" data-name="xtick 7"><g id="line2d_13" data-name="line2d 13"><g class="cls-3"><path class="cls-15" d="M77.78,75.69l23-50.33"/></g></g><g id="text_15" data-name="text 15"><path id="DejaVuSans-Oblique-43-3" data-name="DejaVuSans-Oblique-43" class="cls-16" d="M105.83,8.58l-.2,1a3.41,3.41,0,0,0-1-.71,2.85,2.85,0,0,0-1.13-.23,2.66,2.66,0,0,0-1.47.41,3.2,3.2,0,0,0-1.09,1.22,4.46,4.46,0,0,0-.45,1.11,4.85,4.85,0,0,0-.15,1.19,2.1,2.1,0,0,0,.51,1.52,2.05,2.05,0,0,0,1.5.52,3.78,3.78,0,0,0,1.3-.22,4.52,4.52,0,0,0,1.22-.65L104.64,15a6.44,6.44,0,0,1-1.18.37,5.27,5.27,0,0,1-1.18.13,3,3,0,0,1-2.2-.76,2.84,2.84,0,0,1-.78-2.12,5.18,5.18,0,0,1,1.16-3.24,3.67,3.67,0,0,1,1.36-1.09,4.13,4.13,0,0,1,1.78-.36,3.79,3.79,0,0,1,1.18.18A3.55,3.55,0,0,1,105.83,8.58Z"/><path id="DejaVuSans-Oblique-4c-2" data-name="DejaVuSans-Oblique-4c" class="cls-16" d="M107,11.84h.69l-.88,4.53h2.49l-.11.58h-3.18Z"/><path id="DejaVuSans-Oblique-50" class="cls-16" d="M110.94,11.84h1.6a1.53,1.53,0,0,1,1.06.33,1.22,1.22,0,0,1,.37.95,1.64,1.64,0,0,1-.54,1.31,2.27,2.27,0,0,1-1.52.47H111l-.4,2H110Zm.58.57-.37,1.92H112a1.25,1.25,0,0,0,.9-.3,1.14,1.14,0,0,0,.32-.86.73.73,0,0,0-.21-.56.89.89,0,0,0-.6-.2Z"/></g></g><g id="xtick_8" data-name="xtick 8"><g id="line2d_14" data-name="line2d 14"><g class="cls-3"><path class="cls-15" d="M77.78,75.69,69.9,20.92"/></g></g><g id="text_16" data-name="text 16"><path id="DejaVuSans-Oblique-43-4" data-name="DejaVuSans-Oblique-43" class="cls-16" d="M66.06,3l-.2,1a3.05,3.05,0,0,0-1-.7,2.92,2.92,0,0,0-2.61.17,3.28,3.28,0,0,0-1.09,1.22,5.38,5.38,0,0,0-.45,1.11,4.85,4.85,0,0,0-.15,1.19,2.06,2.06,0,0,0,.52,1.52,2,2,0,0,0,1.49.52,3.83,3.83,0,0,0,1.31-.22,4.46,4.46,0,0,0,1.21-.65l-.23,1.17a6.34,6.34,0,0,1-1.17.37,5.36,5.36,0,0,1-1.19.13,3,3,0,0,1-2.19-.76A2.81,2.81,0,0,1,59.53,7a5,5,0,0,1,.3-1.71,5.24,5.24,0,0,1,.86-1.53,3.67,3.67,0,0,1,1.36-1.09,4.16,4.16,0,0,1,1.78-.35A3.89,3.89,0,0,1,65,2.5,3.5,3.5,0,0,1,66.06,3Z"/><path id="DejaVuSans-Oblique-41-2" data-name="DejaVuSans-Oblique-41" class="cls-16" d="M68.67,6.28h.78l1,5.11h-.72l-.21-1.31h-2.3l-.72,1.31h-.73Zm.25.69L67.49,9.5h1.87Z"/><path id="DejaVuSans-Oblique-4f-3" data-name="DejaVuSans-Oblique-4f" class="cls-16" d="M74.08,6.75a1.81,1.81,0,0,0-1,.28,2.22,2.22,0,0,0-.75.84,3.4,3.4,0,0,0-.32.76,3.21,3.21,0,0,0-.1.81,1.59,1.59,0,0,0,.34,1.1,1.2,1.2,0,0,0,1,.39,1.88,1.88,0,0,0,1-.28A2.34,2.34,0,0,0,75,9.82a3.69,3.69,0,0,0,.32-.77,3.29,3.29,0,0,0,.11-.81A1.61,1.61,0,0,0,75,7.14,1.18,1.18,0,0,0,74.08,6.75Zm-.9,4.74a2,2,0,0,1-1.48-.56,2.09,2.09,0,0,1-.54-1.52,3.36,3.36,0,0,1,.21-1.14,3.65,3.65,0,0,1,.58-1,2.9,2.9,0,0,1,1-.8,2.72,2.72,0,0,1,1.18-.26,2,2,0,0,1,1.47.56,2,2,0,0,1,.54,1.5,3.35,3.35,0,0,1-.79,2.18,2.79,2.79,0,0,1-1,.8A2.64,2.64,0,0,1,73.18,11.49Z"/></g></g><g id="xtick_9" data-name="xtick 9"><g id="line2d_15" data-name="line2d 15"><g class="cls-3"><path class="cls-15" d="M77.78,75.69,41.55,33.87"/></g></g><g id="text_17" data-name="text 17"><path id="DejaVuSans-Oblique-43-5" data-name="DejaVuSans-Oblique-43" class="cls-16" d="M31.18,19.25l-.2,1a3.41,3.41,0,0,0-1-.71,2.85,2.85,0,0,0-1.13-.23,2.74,2.74,0,0,0-1.47.4A3.44,3.44,0,0,0,26.29,21a4.69,4.69,0,0,0-.45,1.12,4.77,4.77,0,0,0-.15,1.18,2.08,2.08,0,0,0,.51,1.52,2,2,0,0,0,1.5.53A4,4,0,0,0,29,25.1a4.65,4.65,0,0,0,1.22-.65L30,25.61a6.64,6.64,0,0,1-1.17.38,6.1,6.1,0,0,1-1.19.13,3,3,0,0,1-2.19-.76,2.81,2.81,0,0,1-.79-2.12,5,5,0,0,1,.3-1.71A5.43,5.43,0,0,1,25.81,20a3.88,3.88,0,0,1,1.36-1.09A4.28,4.28,0,0,1,29,18.55a3.79,3.79,0,0,1,1.18.18A3.44,3.44,0,0,1,31.18,19.25Z"/><path id="DejaVuSans-Oblique-41-3" data-name="DejaVuSans-Oblique-41" class="cls-16" d="M33.79,22.51h.78l1,5.11H34.8l-.22-1.31H32.29l-.72,1.31h-.73Zm.25.68-1.43,2.54h1.87Z"/><path id="DejaVuSans-Oblique-50-2" data-name="DejaVuSans-Oblique-50" class="cls-16" d="M37.18,22.51h1.6a1.53,1.53,0,0,1,1.06.33,1.17,1.17,0,0,1,.37.95,1.65,1.65,0,0,1-.54,1.31,2.26,2.26,0,0,1-1.52.46h-.87l-.4,2.06h-.69Zm.58.57L37.39,25h.87a1.25,1.25,0,0,0,.9-.3,1.14,1.14,0,0,0,.32-.86.73.73,0,0,0-.21-.56.89.89,0,0,0-.6-.2Z"/></g></g><g id="xtick_10" data-name="xtick 10"><g id="line2d_16" data-name="line2d 16"><g class="cls-3"><path class="cls-15" d="M77.78,75.69,24.69,60.1"/></g></g><g id="text_18" data-name="text 18"><path id="DejaVuSans-Oblique-43-6" data-name="DejaVuSans-Oblique-43" class="cls-16" d="M10.51,52.11l-.2,1a3.29,3.29,0,0,0-1-.71,2.81,2.81,0,0,0-1.13-.22,2.66,2.66,0,0,0-1.47.4,3.28,3.28,0,0,0-1.09,1.22,4.63,4.63,0,0,0-.6,2.3,2.1,2.1,0,0,0,.51,1.52,2.07,2.07,0,0,0,1.5.52A3.78,3.78,0,0,0,8.33,58a4.37,4.37,0,0,0,1.22-.65l-.23,1.17a6.59,6.59,0,0,1-1.17.37A5.42,5.42,0,0,1,7,59a3,3,0,0,1-2.19-.76A2.81,2.81,0,0,1,4,56.1a5,5,0,0,1,.3-1.71,5.24,5.24,0,0,1,.86-1.53A3.67,3.67,0,0,1,6.5,51.77a4.13,4.13,0,0,1,1.78-.35,3.89,3.89,0,0,1,1.19.17A3.5,3.5,0,0,1,10.51,52.11Z"/><path id="DejaVuSans-Oblique-50-3" data-name="DejaVuSans-Oblique-50" class="cls-16" d="M11.72,55.37h1.6a1.51,1.51,0,0,1,1.06.33,1.19,1.19,0,0,1,.37.95A1.64,1.64,0,0,1,14.21,58a2.27,2.27,0,0,1-1.52.47h-.87l-.4,2h-.69Zm.59.57-.37,1.92h.86a1.26,1.26,0,0,0,.91-.3A1.13,1.13,0,0,0,14,56.7a.73.73,0,0,0-.21-.56.85.85,0,0,0-.6-.2Z"/><path id="DejaVuSans-Oblique-4c-3" data-name="DejaVuSans-Oblique-4c" class="cls-16" d="M15.94,55.37h.69l-.87,4.53h2.48l-.11.58H15Z"/></g></g><g id="xtick_11" data-name="xtick 11"><g id="line2d_17" data-name="line2d 17"><g class="cls-3"><path class="cls-15" d="M77.78,75.69,24.69,91.27"/></g></g><g id="text_19" data-name="text 19"><path id="DejaVuSans-Oblique-3b7" class="cls-16" d="M8.55,94.66,7.5,100H6.6l1-5.35a1.67,1.67,0,0,0-.08-1.17.88.88,0,0,0-.83-.38,1.8,1.8,0,0,0-1.24.46,2.25,2.25,0,0,0-.66,1.27L4.23,98h-.9l1.06-5.47h.9l-.16.85A2.8,2.8,0,0,1,6,92.6a2.33,2.33,0,0,1,1.06-.24,1.44,1.44,0,0,1,1.31.58A2.45,2.45,0,0,1,8.55,94.66Z"/><path id="DejaVuSans-Oblique-4f-4" data-name="DejaVuSans-Oblique-4f" class="cls-16" d="M12.29,95a1.77,1.77,0,0,0-1,.28,2.32,2.32,0,0,0-.76.84,3.37,3.37,0,0,0-.31.76,3.22,3.22,0,0,0-.11.81,1.64,1.64,0,0,0,.34,1.1,1.22,1.22,0,0,0,1,.39,1.85,1.85,0,0,0,1-.28,2.28,2.28,0,0,0,.76-.83,3.65,3.65,0,0,0,.31-.77,2.82,2.82,0,0,0,.11-.81,1.61,1.61,0,0,0-.34-1.1A1.21,1.21,0,0,0,12.29,95Zm-.9,4.74a2,2,0,0,1-1.47-.56,2.09,2.09,0,0,1-.54-1.52,3.36,3.36,0,0,1,.21-1.14,3.42,3.42,0,0,1,.58-1,3,3,0,0,1,1-.8,2.72,2.72,0,0,1,1.18-.26,2,2,0,0,1,1.48.56,2,2,0,0,1,.54,1.5,3.43,3.43,0,0,1-.8,2.18,2.85,2.85,0,0,1-1,.8A2.66,2.66,0,0,1,11.39,99.7Z"/><path id="DejaVuSans-Oblique-41-4" data-name="DejaVuSans-Oblique-41" class="cls-16" d="M17.18,94.49H18l.94,5.11h-.72L18,98.29h-2.3L15,99.6h-.73Zm.25.69L16,97.71h1.88Z"/></g></g><g id="xtick_12" data-name="xtick 12"><g id="line2d_18" data-name="line2d 18"><g class="cls-3"><path class="cls-15" d="M77.78,75.69,41.55,117.5"/></g></g><g id="text_20" data-name="text 20"><path id="DejaVuSans-Oblique-3b7-2" data-name="DejaVuSans-Oblique-3b7" class="cls-16" d="M30.76,127.52l-1,5.38h-.9l1-5.35a1.63,1.63,0,0,0-.08-1.16A.87.87,0,0,0,29,126a1.83,1.83,0,0,0-1.24.46,2.2,2.2,0,0,0-.66,1.27l-.6,3.09h-.9l1.06-5.47h.9l-.16.85a2.83,2.83,0,0,1,.9-.74,2.33,2.33,0,0,1,1.06-.24,1.44,1.44,0,0,1,1.31.58A2.4,2.4,0,0,1,30.76,127.52Z"/><path id="DejaVuSans-Oblique-4c-4" data-name="DejaVuSans-Oblique-4c" class="cls-16" d="M32.49,127.36h.7l-.88,4.53H34.8l-.12.57H31.5Z"/><path id="DejaVuSans-Oblique-50-4" data-name="DejaVuSans-Oblique-50" class="cls-16" d="M36.4,127.36H38a1.6,1.6,0,0,1,1.06.32,1.23,1.23,0,0,1,.36.95,1.64,1.64,0,0,1-.54,1.31,2.24,2.24,0,0,1-1.51.47H36.5l-.4,2.05h-.7Zm.58.56-.37,1.92h.87a1.25,1.25,0,0,0,.9-.3,1.14,1.14,0,0,0,.32-.86.75.75,0,0,0-.22-.56.85.85,0,0,0-.6-.2Z"/></g></g><g id="xtick_13" data-name="xtick 13"><g id="line2d_19" data-name="line2d 19"><g class="cls-3"><path class="cls-15" d="M77.78,75.69,69.9,130.45"/></g></g><g id="text_21" data-name="text 21"><path id="DejaVuSans-Oblique-3c3" class="cls-16" d="M68.18,142.28a1.64,1.64,0,0,0-1.25.54,2.88,2.88,0,0,0-.7,1.49,2.28,2.28,0,0,0,.11,1.55,1.1,1.1,0,0,0,1,.56,1.63,1.63,0,0,0,1.24-.57,3,3,0,0,0,.73-1.54,2.27,2.27,0,0,0-.14-1.49A1.06,1.06,0,0,0,68.18,142.28Zm.14-.71h3l-.17.9h-1a2.85,2.85,0,0,1,.18,1.84,3.84,3.84,0,0,1-1.08,2.11,2.81,2.81,0,0,1-2,.76,1.9,1.9,0,0,1-1.7-.76,2.75,2.75,0,0,1-.25-2.11,3.77,3.77,0,0,1,1.07-2.11A2.79,2.79,0,0,1,68.32,141.57Z"/></g></g><g id="xtick_14" data-name="xtick 14"><g id="line2d_20" data-name="line2d 20"><g class="cls-3"><path class="cls-15" d="M77.78,75.69l23,50.32"/></g></g><g id="text_22" data-name="text 22"><path id="DejaVuSans-Oblique-3c3-2" data-name="DejaVuSans-Oblique-3c3" class="cls-16" d="M101.54,136.73a1.61,1.61,0,0,0-1.24.53,2.89,2.89,0,0,0-.71,1.49,2.27,2.27,0,0,0,.12,1.55,1.08,1.08,0,0,0,1,.56,1.67,1.67,0,0,0,1.25-.56,3.15,3.15,0,0,0,.72-1.55,2.27,2.27,0,0,0-.13-1.49A1.06,1.06,0,0,0,101.54,136.73Zm.14-.72h3l-.18.9h-1a2.86,2.86,0,0,1,.17,1.84,3.72,3.72,0,0,1-1.08,2.11,2.8,2.8,0,0,1-2,.76,1.88,1.88,0,0,1-1.69-.76,2.75,2.75,0,0,1-.26-2.11,3.78,3.78,0,0,1,1.08-2.11A2.78,2.78,0,0,1,101.68,136Z"/><path id="DejaVuSans-Oblique-4f-5" data-name="DejaVuSans-Oblique-4f" class="cls-16" d="M107.61,138.49a1.85,1.85,0,0,0-1,.27,2.4,2.4,0,0,0-.76.84,3,3,0,0,0-.31.76,3.24,3.24,0,0,0-.11.82,1.57,1.57,0,0,0,.34,1.09,1.21,1.21,0,0,0,1,.39,1.77,1.77,0,0,0,1-.28,2.26,2.26,0,0,0,.75-.83,3.06,3.06,0,0,0,.32-.77,3.22,3.22,0,0,0,.11-.81,1.57,1.57,0,0,0-.34-1.09A1.21,1.21,0,0,0,107.61,138.49Zm-.9,4.73a1.94,1.94,0,0,1-1.48-.56,2.09,2.09,0,0,1-.54-1.52,3.27,3.27,0,0,1,.21-1.13,3.82,3.82,0,0,1,.58-1,3,3,0,0,1,1-.79,2.58,2.58,0,0,1,1.18-.26,2,2,0,0,1,1.47.55,2.06,2.06,0,0,1,.54,1.5,3.29,3.29,0,0,1-.2,1.16,3.41,3.41,0,0,1-.59,1,2.94,2.94,0,0,1-1,.79A2.58,2.58,0,0,1,106.71,143.22Z"/><path id="DejaVuSans-Oblique-41-5" data-name="DejaVuSans-Oblique-41" class="cls-16" d="M112.5,138h.78l1,5.1h-.72l-.21-1.31H111l-.72,1.31h-.73Zm.25.68-1.43,2.54h1.87Z"/></g></g><g id="xtick_15" data-name="xtick 15"><g id="line2d_21" data-name="line2d 21"><g class="cls-3"><path class="cls-15" d="M77.78,75.69l46.54,29.91"/></g></g><g id="text_23" data-name="text 23"><path id="DejaVuSans-Oblique-3c3-3" data-name="DejaVuSans-Oblique-3c3" class="cls-16" d="M132.17,111.14a1.64,1.64,0,0,0-1.25.54,3,3,0,0,0-.71,1.49,2.27,2.27,0,0,0,.12,1.55,1.09,1.09,0,0,0,1,.56,1.65,1.65,0,0,0,1.25-.57,2.92,2.92,0,0,0,.72-1.54,2.27,2.27,0,0,0-.13-1.49A1.06,1.06,0,0,0,132.17,111.14Zm.14-.71h3l-.18.9h-1a2.86,2.86,0,0,1,.17,1.84,3.77,3.77,0,0,1-1.07,2.11,2.84,2.84,0,0,1-2,.76,1.88,1.88,0,0,1-1.69-.76,2.71,2.71,0,0,1-.25-2.11,3.77,3.77,0,0,1,1.07-2.11A2.79,2.79,0,0,1,132.31,110.43Z"/><path id="DejaVuSans-Oblique-4c-5" data-name="DejaVuSans-Oblique-4c" class="cls-16" d="M136.21,112.44h.7L136,117h2.49l-.12.57h-3.18Z"/><path id="DejaVuSans-Oblique-50-5" data-name="DejaVuSans-Oblique-50" class="cls-16" d="M140.12,112.44h1.6a1.6,1.6,0,0,1,1.06.32,1.23,1.23,0,0,1,.36.95,1.64,1.64,0,0,1-.54,1.31,2.24,2.24,0,0,1-1.51.47h-.87l-.4,2.05h-.7Zm.58.57-.37,1.91h.87a1.25,1.25,0,0,0,.9-.3,1.14,1.14,0,0,0,.32-.86.75.75,0,0,0-.22-.56.85.85,0,0,0-.6-.19Z"/></g></g></g><g id="matplotlib.axis_4" data-name="matplotlib.axis 4"><g id="ytick_6" data-name="ytick 6"><g id="line2d_22" data-name="line2d 22"><g class="cls-3"><path class="cls-17" d="M115.14,75.69A37.33,37.33,0,1,0,112.3,90a37.3,37.3,0,0,0,2.84-14.3"/></g></g></g></g></g></svg>