<?xml version="1.0" encoding="utf-8"?>
<!-- Generator: Adobe Illustrator 26.0.3, SVG Export Plug-In . SVG Version: 6.00 Build 0)  -->
<svg version="1.1" id="Layer_1" xmlns="http://www.w3.org/2000/svg" xmlns:xlink="http://www.w3.org/1999/xlink" x="0px" y="0px"
	 viewBox="0 0 127.8 179.9" style="enable-background:new 0 0 127.8 179.9;" xml:space="preserve">
<style type="text/css">
	.st0{fill:none;}
	.st1{fill:#FFFFFF;}
	
		.st2{opacity:0.6;clip-path:url(#SVGID_00000025410177849981820480000007069255206643611288_);fill:#3274A1;stroke:#3F3F3F;enable-background:new    ;}
	
		.st3{opacity:0.6;clip-path:url(#SVGID_00000007401985179211372460000000974440999300983686_);fill:#E1812C;stroke:#3F3F3F;enable-background:new    ;}
	.st4{stroke:#000000;stroke-width:0.8;stroke-linejoin:round;}
	
		.st5{clip-path:url(#SVGID_00000145054753985997888840000012141672159304090541_);fill:none;stroke:#3F3F3F;stroke-linecap:square;stroke-linejoin:round;}
	
		.st6{clip-path:url(#SVGID_00000155842472067457370840000000411459549781196420_);fill:none;stroke:#3F3F3F;stroke-linecap:square;stroke-linejoin:round;}
	
		.st7{clip-path:url(#SVGID_00000133521983152427867430000001665802254100270779_);fill:none;stroke:#3F3F3F;stroke-linecap:square;stroke-linejoin:round;}
	
		.st8{clip-path:url(#SVGID_00000013882364360460368780000010422012384161242509_);fill:none;stroke:#3F3F3F;stroke-linecap:square;stroke-linejoin:round;}
	.st9{clip-path:url(#SVGID_00000134942205629765664290000010991232436695624881_);}
	.st10{fill:#3F3F3F;stroke:#3F3F3F;}
	
		.st11{clip-path:url(#SVGID_00000018929307585367918690000016458991234279434639_);fill:none;stroke:#3F3F3F;stroke-linecap:square;stroke-linejoin:round;}
	
		.st12{clip-path:url(#SVGID_00000165222322682836841830000015069210104129552268_);fill:none;stroke:#3F3F3F;stroke-linecap:square;stroke-linejoin:round;}
	
		.st13{clip-path:url(#SVGID_00000054236686916843208200000007990548875526545072_);fill:none;stroke:#3F3F3F;stroke-linecap:square;stroke-linejoin:round;}
	
		.st14{clip-path:url(#SVGID_00000072973054157874434620000007540914208002791092_);fill:none;stroke:#3F3F3F;stroke-linecap:square;stroke-linejoin:round;}
	.st15{clip-path:url(#SVGID_00000044166086640367956400000011345938084293952437_);}
	
		.st16{clip-path:url(#SVGID_00000106114054602293509540000000037937919497628578_);fill:none;stroke:#3F3F3F;stroke-linecap:square;stroke-linejoin:round;}
	
		.st17{clip-path:url(#SVGID_00000142870127872835924410000009509944807668899215_);fill:none;stroke:#3F3F3F;stroke-linecap:square;stroke-linejoin:round;}
	.st18{fill:none;stroke:#000000;stroke-width:0.8;stroke-linecap:square;}
</style>
<g id="figure_1">
	<g id="patch_1">
		<path class="st0" d="M48.8,148.9h72V4.9h-72V148.9z"/>
	</g>
	<g id="axes_1">
		<g id="patch_2">
			<path class="st1" d="M57.8,130.9h55.8V22.2H57.8V130.9z"/>
		</g>
		<g id="patch_3">
			<g>
				<defs>
					<rect id="SVGID_1_" x="57.8" y="22.2" width="55.8" height="108.7"/>
				</defs>
				<clipPath id="SVGID_00000133497718207542950960000002791052080831462528_">
					<use xlink:href="#SVGID_1_"  style="overflow:visible;"/>
				</clipPath>
				
					<path style="opacity:0.6;clip-path:url(#SVGID_00000133497718207542950960000002791052080831462528_);fill:#3274A1;stroke:#3F3F3F;enable-background:new    ;" d="
					M63.4,114.4h16.7v-5.6H63.4V114.4z"/>
			</g>
		</g>
		<g id="patch_4">
			<g>
				<defs>
					<rect id="SVGID_00000022536404513863893130000012713794333518998664_" x="57.8" y="22.2" width="55.8" height="108.7"/>
				</defs>
				<clipPath id="SVGID_00000156573956573904187840000010883471919364418199_">
					<use xlink:href="#SVGID_00000022536404513863893130000012713794333518998664_"  style="overflow:visible;"/>
				</clipPath>
				
					<path style="opacity:0.6;clip-path:url(#SVGID_00000156573956573904187840000010883471919364418199_);fill:#E1812C;stroke:#3F3F3F;enable-background:new    ;" d="
					M91.3,57.5H108V48H91.3V57.5z"/>
			</g>
		</g>
		<g id="matplotlib.axis_1">
			<g id="xtick_1">
				<g id="line2d_1">
					<g>
						<g>
							<path id="mee3a48155f" class="st4" d="M71.8,130.9v3.5"/>
						</g>
					</g>
				</g>
				<g id="text_1">
					<g transform="translate(11.95432 153.870284)rotate(-30)scale(0.1 -0.1)">
						<g>
							<path id="DejaVuSans-4e" d="M408.2-213.4l13.3,0l32.3-61l0,61l9.6,0l0-72.9l-13.3,0l-32.3,61l0-61l-9.6,0L408.2-213.4z"/>
						</g>
						<g>
							<path id="DejaVuSans-3d" d="M515.6-240.9l62.6,0l0-8.2l-62.6,0V-240.9z M515.6-260.8l62.6,0l0-8.3l-62.6,0L515.6-260.8z"/>
						</g>
						<g>
							<path id="DejaVuSans-34" d="M658.3-222l-24.9-38.9l24.9,0L658.3-222z M655.8-213.4l12.4,0l0-47.5h10.4v-8.2h-10.4v-17.2
								l-9.8,0l0,17.2l-32.9,0v9.5L655.8-213.4z"/>
						</g>
					</g>
				</g>
			</g>
			<g id="xtick_2">
				<g id="line2d_2">
					<g>
						<g>
							<path id="mee3a48155f_00000103250807898414001550000001813230029571091642_" class="st4" d="M99.7,130.9v3.5"/>
						</g>
					</g>
				</g>
				<g id="text_2">
					<g transform="translate(39.85432 153.870284)rotate(-30)scale(0.1 -0.1)">
						<g>
							<path id="DejaVuSans-4e_00000170983272876939417680000004056253274087564699_" d="M408.2-213.4l13.3,0l32.3-61l0,61l9.6,0
								l0-72.9l-13.3,0l-32.3,61l0-61l-9.6,0L408.2-213.4z"/>
						</g>
						<g>
							<path id="DejaVuSans-3d_00000178179000074253094410000011755216583452345019_" d="M515.6-240.9l62.6,0l0-8.2l-62.6,0
								L515.6-240.9z M515.6-260.8l62.6,0v-8.3l-62.6,0L515.6-260.8z"/>
						</g>
						<g>
							<path id="DejaVuSans-36" d="M653.6-245.9c-4.4,0-7.9-1.5-10.5-4.5c-2.6-3-3.9-7.2-3.9-12.4c0-5.2,1.3-9.4,3.9-12.4
								c2.6-3,6.1-4.6,10.5-4.6s7.9,1.5,10.5,4.6c2.6,3.1,3.9,7.2,3.9,12.4c0,5.3-1.3,9.4-3.9,12.4
								C661.5-247.4,658-245.9,653.6-245.9z M673.1-215l0-9c-2.5,1.2-5,2.1-7.5,2.7c-2.5,0.6-5,0.9-7.5,0.9
								c-6.5,0-11.5-2.2-14.9-6.6c-3.4-4.4-5.4-11-5.9-19.9c1.9,2.8,4.3,5,7.2,6.5c2.9,1.5,6.1,2.3,9.6,2.3c7.3,0,13.1-2.2,17.4-6.7
								c4.2-4.4,6.4-10.5,6.4-18.1c0-7.5-2.2-13.5-6.6-18c-4.4-4.5-10.3-6.8-17.7-6.8c-8.4,0-14.9,3.2-19.3,9.7
								c-4.5,6.5-6.7,15.8-6.7,28.1c0,11.5,2.7,20.7,8.2,27.6c5.5,6.9,12.8,10.3,22,10.3c2.5,0,5-0.2,7.5-0.7
								C667.8-213.3,670.4-214,673.1-215z"/>
						</g>
					</g>
				</g>
			</g>
			<g id="text_3">
				<g transform="translate(21.330469 167.269783)scale(0.1 -0.1)">
					<g>
						<path id="DejaVuSans-6d" d="M540.2-4.6c2.2,4,4.9,7,8.1,8.9s6.8,2.9,11,2.9c5.7,0,10.1-2,13.2-6c3.1-4,4.6-9.6,4.6-17v-33h-9
							V-16c0,5.2-0.9,9.1-2.8,11.7c-1.9,2.5-4.7,3.8-8.5,3.8c-4.7,0-8.3-1.5-11-4.6c-2.7-3.1-4-7.3-4-12.6v-30.9h-9V-16
							c0,5.3-0.9,9.2-2.8,11.7c-1.9,2.5-4.7,3.8-8.6,3.8c-4.6,0-8.2-1.6-11-4.7c-2.7-3.1-4-7.3-4-12.6v-30.9h-9V5.9h9v-8.5
							c2.1,3.4,4.5,5.8,7.4,7.4c2.9,1.6,6.3,2.4,10.2,2.4c4,0,7.4-1,10.1-3C536.8,2.2,538.8-0.7,540.2-4.6z"/>
					</g>
					<g>
						<path id="DejaVuSans-6f" d="M616.2-0.3c-4.8,0-8.6-1.9-11.4-5.6c-2.8-3.8-4.2-8.9-4.2-15.5s1.4-11.7,4.2-15.5
							c2.8-3.8,6.6-5.6,11.5-5.6c4.8,0,8.6,1.9,11.4,5.7c2.8,3.8,4.2,8.9,4.2,15.4c0,6.5-1.4,11.6-4.2,15.4
							C624.8-2.2,621-0.3,616.2-0.3z M616.2,7.3c7.8,0,13.9-2.5,18.4-7.6c4.5-5.1,6.7-12.1,6.7-21.1c0-8.9-2.2-16-6.7-21.1
							c-4.5-5.1-10.6-7.6-18.4-7.6c-7.8,0-14,2.5-18.4,7.6c-4.4,5.1-6.7,12.1-6.7,21.1c0,9,2.2,16,6.7,21.1
							C602.2,4.7,608.3,7.3,616.2,7.3z"/>
					</g>
					<g>
						<path id="DejaVuSans-64" d="M692.2-2.3v29.6h9v-76h-9v8.2c-1.9-3.2-4.3-5.7-7.2-7.2c-2.9-1.6-6.3-2.4-10.4-2.4
							c-6.6,0-12,2.6-16.1,7.9c-4.1,5.3-6.2,12.2-6.2,20.8s2.1,15.5,6.2,20.8c4.2,5.3,9.5,7.9,16.1,7.9c4,0,7.5-0.8,10.4-2.4
							C687.9,3.3,690.3,0.9,692.2-2.3z M661.5-21.4c0-6.6,1.4-11.8,4.1-15.5s6.5-5.6,11.2-5.6s8.5,1.9,11.2,5.6
							c2.7,3.8,4.1,8.9,4.1,15.5S690.8-9.7,688-5.9c-2.7,3.8-6.5,5.6-11.2,5.6s-8.5-1.9-11.2-5.6S661.5-14.8,661.5-21.4z"/>
					</g>
					<g>
						<path id="DejaVuSans-65" d="M766.4-19.1v-4.4h-41.3c0.4-6.2,2.3-10.9,5.6-14.1c3.3-3.2,8-4.9,13.9-4.9c3.4,0,6.8,0.4,10,1.3
							c3.2,0.8,6.5,2.1,9.7,3.8V-46c-3.2-1.4-6.5-2.4-9.9-3.1c-3.4-0.7-6.8-1.1-10.3-1.1c-8.7,0-15.6,2.5-20.7,7.6
							c-5.1,5.1-7.6,12-7.6,20.6c0,8.9,2.4,16,7.2,21.3c4.8,5.3,11.4,7.9,19.6,7.9c7.4,0,13.2-2.4,17.5-7.1
							C764.3-4.6,766.4-11,766.4-19.1z M757.4-16.5c-0.1,4.9-1.4,8.8-4.1,11.8c-2.7,2.9-6.2,4.4-10.7,4.4c-5,0-9-1.4-12-4.2
							c-3-2.8-4.7-6.8-5.2-12L757.4-16.5z"/>
					</g>
					<g>
						<path id="DejaVuSans-6c" d="M781.2,27.2h9v-76h-9V27.2z"/>
					</g>
				</g>
			</g>
		</g>
		<g id="matplotlib.axis_2">
			<g id="ytick_1">
				<g id="line2d_3">
					<g>
						<g>
							<path id="m9b517c9a95" class="st4" d="M57.8,113.1h-3.5"/>
						</g>
					</g>
				</g>
				<g id="text_4">
					<g transform="translate(-26.628125 112.025736)scale(0.1 -0.1)">
						<g>
							<path id="DejaVuSans-30" d="M519.9,17.7c-5.1,0-8.9-2.5-11.5-7.5c-2.6-5-3.8-12.5-3.8-22.5c0-10,1.3-17.5,3.8-22.5
								c2.6-5,6.4-7.5,11.5-7.5c5.1,0,8.9,2.5,11.5,7.5c2.6,5,3.8,12.5,3.8,22.5c0,10-1.3,17.5-3.8,22.5
								C528.9,15.2,525.1,17.7,519.9,17.7z M519.9,25.5c8.2,0,14.4-3.2,18.7-9.7c4.3-6.5,6.5-15.8,6.5-28.1
								c0-12.3-2.2-21.6-6.5-28.1c-4.3-6.5-10.6-9.7-18.7-9.7c-8.2,0-14.4,3.2-18.7,9.7c-4.3,6.5-6.5,15.8-6.5,28.1
								c0,12.3,2.2,21.7,6.5,28.1C505.5,22.2,511.8,25.5,519.9,25.5z"/>
						</g>
						<g>
							<path id="DejaVuSans-2e" d="M562.5-36.3h10.3v-12.4h-10.3V-36.3z"/>
						</g>
						<g>
							<path id="DejaVuSans-30_00000029724943568456158950000005667726986828898236_" d="M615.3,17.7c-5.1,0-8.9-2.5-11.5-7.5
								c-2.6-5-3.8-12.5-3.8-22.5c0-10,1.3-17.5,3.8-22.5c2.6-5,6.4-7.5,11.5-7.5c5.1,0,8.9,2.5,11.5,7.5c2.6,5,3.8,12.5,3.8,22.5
								c0,10-1.3,17.5-3.8,22.5C624.3,15.2,620.5,17.7,615.3,17.7z M615.3,25.5c8.2,0,14.4-3.2,18.7-9.7c4.3-6.5,6.5-15.8,6.5-28.1
								c0-12.3-2.2-21.6-6.5-28.1c-4.3-6.5-10.6-9.7-18.7-9.7c-8.2,0-14.4,3.2-18.7,9.7c-4.3,6.5-6.5,15.8-6.5,28.1
								c0,12.3,2.2,21.7,6.5,28.1C600.9,22.2,607.2,25.5,615.3,25.5z"/>
						</g>
						<g>
							<path id="DejaVuSans-32" d="M666.4-40.4h34.4v-8.3h-46.3v8.3c3.7,3.9,8.8,9.1,15.3,15.6c6.5,6.5,10.5,10.7,12.2,12.6
								c3.2,3.5,5.4,6.5,6.6,9c1.3,2.5,1.9,4.9,1.9,7.2c0,3.9-1.4,7-4.1,9.5c-2.7,2.4-6.3,3.7-10.6,3.7c-3.1,0-6.4-0.5-9.8-1.6
								c-3.4-1.1-7.1-2.7-11-4.9v10c4,1.6,7.7,2.8,11.1,3.6c3.5,0.8,6.6,1.2,9.5,1.2c7.6,0,13.6-1.9,18.1-5.7
								c4.5-3.8,6.7-8.8,6.7-15.1c0-3-0.6-5.8-1.7-8.5c-1.1-2.7-3.2-5.8-6.1-9.5c-0.8-0.9-3.4-3.7-7.8-8.2
								C680.5-26,674.3-32.3,666.4-40.4z"/>
						</g>
						<g>
							<path id="DejaVuSans-35" d="M721.6,24.2h38.7v-8.3h-29.7V-2c1.4,0.5,2.9,0.9,4.3,1.1c1.4,0.2,2.9,0.4,4.3,0.4
								c8.1,0,14.6-2.2,19.3-6.7c4.8-4.5,7.1-10.5,7.1-18.1c0-7.8-2.4-13.9-7.3-18.3c-4.9-4.3-11.8-6.5-20.7-6.5
								c-3.1,0-6.2,0.3-9.4,0.8c-3.2,0.5-6.4,1.3-9.8,2.3v9.9c2.9-1.6,6-2.8,9.1-3.6s6.4-1.2,9.9-1.2c5.6,0,10.1,1.5,13.4,4.4
								c3.3,3,4.9,7,4.9,12.1c0,5.1-1.6,9.1-4.9,12c-3.3,3-7.7,4.5-13.4,4.5c-2.6,0-5.3-0.3-7.9-0.9c-2.6-0.6-5.3-1.5-8-2.7V24.2z"
								/>
						</g>
					</g>
				</g>
			</g>
			<g id="ytick_2">
				<g id="line2d_4">
					<g>
						<g>
							<path id="m9b517c9a95_00000027579466609722065600000004692898148951949224_" class="st4" d="M57.8,86.3h-3.5"/>
						</g>
					</g>
				</g>
				<g id="text_5">
					<g transform="translate(-26.628125 85.175329)scale(0.1 -0.1)">
						<g>
							<path id="DejaVuSans-30_00000111869487999465298800000006117049669779836558_" d="M519.9,17.7c-5.1,0-8.9-2.5-11.5-7.5
								c-2.6-5-3.8-12.5-3.8-22.5c0-10,1.3-17.5,3.8-22.5c2.6-5,6.4-7.5,11.5-7.5c5.1,0,8.9,2.5,11.5,7.5c2.6,5,3.8,12.5,3.8,22.5
								c0,10-1.3,17.5-3.8,22.5C528.9,15.2,525.1,17.7,519.9,17.7z M519.9,25.5c8.2,0,14.4-3.2,18.7-9.7c4.3-6.5,6.5-15.8,6.5-28.1
								c0-12.3-2.2-21.6-6.5-28.1c-4.3-6.5-10.6-9.7-18.7-9.7c-8.2,0-14.4,3.2-18.7,9.7c-4.3,6.5-6.5,15.8-6.5,28.1
								c0,12.3,2.2,21.7,6.5,28.1C505.5,22.2,511.8,25.5,519.9,25.5z"/>
						</g>
						<g>
							<path id="DejaVuSans-2e_00000141421522220453561690000017173280028840183973_" d="M562.5-36.3h10.3v-12.4h-10.3V-36.3z"/>
						</g>
						<g>
							<path id="DejaVuSans-30_00000125563967317923574260000008094849612000245415_" d="M615.3,17.7c-5.1,0-8.9-2.5-11.5-7.5
								c-2.6-5-3.8-12.5-3.8-22.5c0-10,1.3-17.5,3.8-22.5c2.6-5,6.4-7.5,11.5-7.5c5.1,0,8.9,2.5,11.5,7.5c2.6,5,3.8,12.5,3.8,22.5
								c0,10-1.3,17.5-3.8,22.5C624.3,15.2,620.5,17.7,615.3,17.7z M615.3,25.5c8.2,0,14.4-3.2,18.7-9.7c4.3-6.5,6.5-15.8,6.5-28.1
								c0-12.3-2.2-21.6-6.5-28.1c-4.3-6.5-10.6-9.7-18.7-9.7c-8.2,0-14.4,3.2-18.7,9.7c-4.3,6.5-6.5,15.8-6.5,28.1
								c0,12.3,2.2,21.7,6.5,28.1C600.9,22.2,607.2,25.5,615.3,25.5z"/>
						</g>
						<g>
							<path id="DejaVuSans-35_00000051359091269500920260000014010803814704423585_" d="M658,24.2h38.7v-8.3H667V-2
								c1.4,0.5,2.9,0.9,4.3,1.1c1.4,0.2,2.9,0.4,4.3,0.4c8.1,0,14.6-2.2,19.3-6.7c4.8-4.5,7.1-10.5,7.1-18.1
								c0-7.8-2.4-13.9-7.3-18.3c-4.9-4.3-11.8-6.5-20.7-6.5c-3.1,0-6.2,0.3-9.4,0.8c-3.2,0.5-6.4,1.3-9.8,2.3v9.9
								c2.9-1.6,6-2.8,9.1-3.6s6.4-1.2,9.9-1.2c5.6,0,10.1,1.5,13.4,4.4c3.3,3,4.9,7,4.9,12.1c0,5.1-1.6,9.1-4.9,12
								c-3.3,3-7.7,4.5-13.4,4.5c-2.6,0-5.3-0.3-7.9-0.9c-2.6-0.6-5.3-1.5-8-2.7V24.2z"/>
						</g>
						<g>
							<path id="DejaVuSans-30_00000138533662446632994850000011813084119788425863_" d="M742.6,17.7c-5.1,0-8.9-2.5-11.5-7.5
								c-2.6-5-3.8-12.5-3.8-22.5c0-10,1.3-17.5,3.8-22.5c2.6-5,6.4-7.5,11.5-7.5c5.1,0,8.9,2.5,11.5,7.5c2.6,5,3.8,12.5,3.8,22.5
								c0,10-1.3,17.5-3.8,22.5C751.5,15.2,747.7,17.7,742.6,17.7z M742.6,25.5c8.2,0,14.4-3.2,18.7-9.7c4.3-6.5,6.5-15.8,6.5-28.1
								c0-12.3-2.2-21.6-6.5-28.1c-4.3-6.5-10.6-9.7-18.7-9.7c-8.2,0-14.4,3.2-18.7,9.7c-4.3,6.5-6.5,15.8-6.5,28.1
								c0,12.3,2.2,21.7,6.5,28.1C728.2,22.2,734.4,25.5,742.6,25.5z"/>
						</g>
					</g>
				</g>
			</g>
			<g id="ytick_3">
				<g id="line2d_5">
					<g>
						<g>
							<path id="m9b517c9a95_00000041990224414861139820000001566576367930261664_" class="st4" d="M57.8,59.4h-3.5"/>
						</g>
					</g>
				</g>
				<g id="text_6">
					<g transform="translate(-26.628125 58.324921)scale(0.1 -0.1)">
						<g>
							<path id="DejaVuSans-30_00000076578033566912319070000013911917590696715960_" d="M519.9,17.7c-5.1,0-8.9-2.5-11.5-7.5
								c-2.6-5-3.8-12.5-3.8-22.5c0-10,1.3-17.5,3.8-22.5c2.6-5,6.4-7.5,11.5-7.5c5.1,0,8.9,2.5,11.5,7.5c2.6,5,3.8,12.5,3.8,22.5
								c0,10-1.3,17.5-3.8,22.5C528.9,15.2,525.1,17.7,519.9,17.7z M519.9,25.5c8.2,0,14.4-3.2,18.7-9.7c4.3-6.5,6.5-15.8,6.5-28.1
								c0-12.3-2.2-21.6-6.5-28.1c-4.3-6.5-10.6-9.7-18.7-9.7c-8.2,0-14.4,3.2-18.7,9.7c-4.3,6.5-6.5,15.8-6.5,28.1
								c0,12.3,2.2,21.7,6.5,28.1C505.5,22.2,511.8,25.5,519.9,25.5z"/>
						</g>
						<g>
							<path id="DejaVuSans-2e_00000166646124744102698010000009354365759738033046_" d="M562.5-36.3h10.3v-12.4h-10.3V-36.3z"/>
						</g>
						<g>
							<path id="DejaVuSans-30_00000016055723788414535100000009349229296223898812_" d="M615.3,17.7c-5.1,0-8.9-2.5-11.5-7.5
								c-2.6-5-3.8-12.5-3.8-22.5c0-10,1.3-17.5,3.8-22.5c2.6-5,6.4-7.5,11.5-7.5c5.1,0,8.9,2.5,11.5,7.5c2.6,5,3.8,12.5,3.8,22.5
								c0,10-1.3,17.5-3.8,22.5C624.3,15.2,620.5,17.7,615.3,17.7z M615.3,25.5c8.2,0,14.4-3.2,18.7-9.7c4.3-6.5,6.5-15.8,6.5-28.1
								c0-12.3-2.2-21.6-6.5-28.1c-4.3-6.5-10.6-9.7-18.7-9.7c-8.2,0-14.4,3.2-18.7,9.7c-4.3,6.5-6.5,15.8-6.5,28.1
								c0,12.3,2.2,21.7,6.5,28.1C600.9,22.2,607.2,25.5,615.3,25.5z"/>
						</g>
						<g>
							<path id="DejaVuSans-37" d="M655.4,24.2h46.9V20l-26.5-68.7h-10.3l24.9,64.6h-35V24.2z"/>
						</g>
						<g>
							<path id="DejaVuSans-35_00000018195417916136747000000011107550869873897144_" d="M721.6,24.2h38.7v-8.3h-29.7V-2
								c1.4,0.5,2.9,0.9,4.3,1.1c1.4,0.2,2.9,0.4,4.3,0.4c8.1,0,14.6-2.2,19.3-6.7c4.8-4.5,7.1-10.5,7.1-18.1
								c0-7.8-2.4-13.9-7.3-18.3c-4.9-4.3-11.8-6.5-20.7-6.5c-3.1,0-6.2,0.3-9.4,0.8c-3.2,0.5-6.4,1.3-9.8,2.3v9.9
								c2.9-1.6,6-2.8,9.1-3.6s6.4-1.2,9.9-1.2c5.6,0,10.1,1.5,13.4,4.4c3.3,3,4.9,7,4.9,12.1c0,5.1-1.6,9.1-4.9,12
								c-3.3,3-7.7,4.5-13.4,4.5c-2.6,0-5.3-0.3-7.9-0.9c-2.6-0.6-5.3-1.5-8-2.7V24.2z"/>
						</g>
					</g>
				</g>
			</g>
			<g id="ytick_4">
				<g id="line2d_6">
					<g>
						<g>
							<path id="m9b517c9a95_00000073714667671573034480000001860852319191345848_" class="st4" d="M57.8,32.5h-3.5"/>
						</g>
					</g>
				</g>
				<g id="text_7">
					<g transform="translate(-26.628125 31.474514)scale(0.1 -0.1)">
						<g>
							<path id="DejaVuSans-30_00000173119089861390577010000014047177567468869767_" d="M519.9,17.7c-5.1,0-8.9-2.5-11.5-7.5
								c-2.6-5-3.8-12.5-3.8-22.5c0-10,1.3-17.5,3.8-22.5c2.6-5,6.4-7.5,11.5-7.5c5.1,0,8.9,2.5,11.5,7.5c2.6,5,3.8,12.5,3.8,22.5
								c0,10-1.3,17.5-3.8,22.5C528.9,15.2,525.1,17.7,519.9,17.7z M519.9,25.5c8.2,0,14.4-3.2,18.7-9.7c4.3-6.5,6.5-15.8,6.5-28.1
								c0-12.3-2.2-21.6-6.5-28.1c-4.3-6.5-10.6-9.7-18.7-9.7c-8.2,0-14.4,3.2-18.7,9.7c-4.3,6.5-6.5,15.8-6.5,28.1
								c0,12.3,2.2,21.7,6.5,28.1C505.5,22.2,511.8,25.5,519.9,25.5z"/>
						</g>
						<g>
							<path id="DejaVuSans-2e_00000143618638776537650240000009994292394096443286_" d="M562.5-36.3h10.3v-12.4h-10.3V-36.3z"/>
						</g>
						<g>
							<path id="DejaVuSans-31" d="M596-40.4h16.1v55.6l-17.5-3.5v9l17.4,3.5h9.9v-64.6H638v-8.3h-42V-40.4z"/>
						</g>
						<g>
							<path id="DejaVuSans-30_00000057867684865894039310000009256016693624974755_" d="M679,17.7c-5.1,0-8.9-2.5-11.5-7.5
								c-2.6-5-3.8-12.5-3.8-22.5c0-10,1.3-17.5,3.8-22.5c2.6-5,6.4-7.5,11.5-7.5c5.1,0,8.9,2.5,11.5,7.5c2.6,5,3.8,12.5,3.8,22.5
								c0,10-1.3,17.5-3.8,22.5C687.9,15.2,684.1,17.7,679,17.7z M679,25.5c8.2,0,14.4-3.2,18.7-9.7c4.3-6.5,6.5-15.8,6.5-28.1
								c0-12.3-2.2-21.6-6.5-28.1c-4.3-6.5-10.6-9.7-18.7-9.7c-8.2,0-14.4,3.2-18.7,9.7c-4.3,6.5-6.5,15.8-6.5,28.1
								c0,12.3,2.2,21.7,6.5,28.1C664.6,22.2,670.8,25.5,679,25.5z"/>
						</g>
						<g>
							<path id="DejaVuSans-30_00000133488955048610877300000010862652607056819632_" d="M742.6,17.7c-5.1,0-8.9-2.5-11.5-7.5
								c-2.6-5-3.8-12.5-3.8-22.5c0-10,1.3-17.5,3.8-22.5c2.6-5,6.4-7.5,11.5-7.5c5.1,0,8.9,2.5,11.5,7.5c2.6,5,3.8,12.5,3.8,22.5
								c0,10-1.3,17.5-3.8,22.5C751.5,15.2,747.7,17.7,742.6,17.7z M742.6,25.5c8.2,0,14.4-3.2,18.7-9.7c4.3-6.5,6.5-15.8,6.5-28.1
								c0-12.3-2.2-21.6-6.5-28.1c-4.3-6.5-10.6-9.7-18.7-9.7c-8.2,0-14.4,3.2-18.7,9.7c-4.3,6.5-6.5,15.8-6.5,28.1
								c0,12.3,2.2,21.7,6.5,28.1C728.2,22.2,734.4,25.5,742.6,25.5z"/>
						</g>
					</g>
				</g>
			</g>
			<g id="text_8">
				<g transform="translate(-32.707813 83.742344)rotate(-90)scale(0.1 -0.1)">
					<g>
						<path id="DejaVuSans-65_00000069375694248679790220000010193669279461324721_" d="M7.5-458.6v-4.4h-41.3
							c0.4-6.2,2.3-10.9,5.6-14.1c3.3-3.2,8-4.9,13.9-4.9c3.4,0,6.8,0.4,10,1.3s6.5,2.1,9.7,3.8v-8.5c-3.2-1.4-6.5-2.4-9.9-3.1
							s-6.8-1.1-10.3-1.1c-8.7,0-15.6,2.5-20.7,7.6c-5.1,5.1-7.6,12-7.6,20.6c0,8.9,2.4,16,7.2,21.3c4.8,5.3,11.4,7.9,19.6,7.9
							c7.4,0,13.2-2.4,17.5-7.1C5.3-444,7.5-450.4,7.5-458.6z M-1.5-455.9c-0.1,4.9-1.4,8.8-4.1,11.8c-2.7,2.9-6.2,4.4-10.7,4.4
							c-5,0-9-1.4-12-4.2c-3-2.8-4.7-6.8-5.2-12L-1.5-455.9z"/>
					</g>
					<g>
						<path id="DejaVuSans-72" d="M53.9-441.9c-1,0.6-2.1,1-3.3,1.3c-1.2,0.3-2.5,0.4-3.9,0.4c-5.1,0-9-1.7-11.7-5
							c-2.7-3.3-4.1-8-4.1-14.2v-28.8h-9v54.7h9v-8.5c1.9,3.3,4.4,5.8,7.4,7.4c3,1.6,6.7,2.4,11,2.4c0.6,0,1.3,0,2-0.1
							c0.8-0.1,1.6-0.2,2.5-0.4L53.9-441.9z"/>
					</g>
					<g>
						<path id="DejaVuSans-72_00000082343655356199588370000014121149222468661394_" d="M93.3-441.9c-1,0.6-2.1,1-3.3,1.3
							c-1.2,0.3-2.5,0.4-3.9,0.4c-5.1,0-9-1.7-11.7-5c-2.7-3.3-4.1-8-4.1-14.2v-28.8h-9v54.7h9v-8.5c1.9,3.3,4.4,5.8,7.4,7.4
							c3,1.6,6.7,2.4,11,2.4c0.6,0,1.3,0,2-0.1c0.8-0.1,1.6-0.2,2.5-0.4L93.3-441.9z"/>
					</g>
					<g>
						<path id="DejaVuSans-6f_00000085949167302144906090000003071213861824896942_" d="M121.6-439.8c-4.8,0-8.6-1.9-11.4-5.6
							c-2.8-3.8-4.2-8.9-4.2-15.5c0-6.5,1.4-11.7,4.2-15.5c2.8-3.8,6.6-5.6,11.5-5.6c4.8,0,8.6,1.9,11.4,5.7
							c2.8,3.8,4.2,8.9,4.2,15.4c0,6.5-1.4,11.6-4.2,15.4C130.2-441.7,126.4-439.8,121.6-439.8z M121.6-432.2
							c7.8,0,13.9-2.5,18.4-7.6c4.5-5.1,6.7-12.1,6.7-21.1c0-8.9-2.2-16-6.7-21.1c-4.5-5.1-10.6-7.6-18.4-7.6
							c-7.8,0-14,2.5-18.4,7.6c-4.4,5.1-6.7,12.1-6.7,21.1c0,9,2.2,16,6.7,21.1C107.6-434.7,113.8-432.2,121.6-432.2z"/>
					</g>
					<g>
						<path id="DejaVuSans-72_00000060734359445787192820000007797915773014928824_" d="M193.3-441.9c-1,0.6-2.1,1-3.3,1.3
							c-1.2,0.3-2.5,0.4-3.9,0.4c-5.1,0-9-1.7-11.7-5c-2.7-3.3-4.1-8-4.1-14.2v-28.8h-9v54.7h9v-8.5c1.9,3.3,4.4,5.8,7.4,7.4
							c3,1.6,6.7,2.4,11,2.4c0.6,0,1.3,0,2-0.1c0.8-0.1,1.6-0.2,2.5-0.4L193.3-441.9z"/>
					</g>
				</g>
			</g>
		</g>
		<g id="line2d_7">
			<g>
				<defs>
					<rect id="SVGID_00000002361651211148671880000006451865201674920127_" x="57.8" y="22.2" width="55.8" height="108.7"/>
				</defs>
				<clipPath id="SVGID_00000167398128354092569390000014347460829163876484_">
					<use xlink:href="#SVGID_00000002361651211148671880000006451865201674920127_"  style="overflow:visible;"/>
				</clipPath>
				
					<path style="clip-path:url(#SVGID_00000167398128354092569390000014347460829163876484_);fill:none;stroke:#3F3F3F;stroke-linecap:square;stroke-linejoin:round;" d="
					M71.8,114.4v8.1"/>
			</g>
		</g>
		<g id="line2d_8">
			<g>
				<defs>
					<rect id="SVGID_00000039833188297482269410000003904135310645094533_" x="57.8" y="22.2" width="55.8" height="108.7"/>
				</defs>
				<clipPath id="SVGID_00000005244606895751985710000012946868837927637431_">
					<use xlink:href="#SVGID_00000039833188297482269410000003904135310645094533_"  style="overflow:visible;"/>
				</clipPath>
				
					<path style="clip-path:url(#SVGID_00000005244606895751985710000012946868837927637431_);fill:none;stroke:#3F3F3F;stroke-linecap:square;stroke-linejoin:round;" d="
					M71.8,108.7v-8"/>
			</g>
		</g>
		<g id="line2d_9">
			<g>
				<defs>
					<rect id="SVGID_00000054234208368964236880000002959025163864815776_" x="57.8" y="22.2" width="55.8" height="108.7"/>
				</defs>
				<clipPath id="SVGID_00000027588599100218528200000013249609771487448192_">
					<use xlink:href="#SVGID_00000054234208368964236880000002959025163864815776_"  style="overflow:visible;"/>
				</clipPath>
				
					<path style="clip-path:url(#SVGID_00000027588599100218528200000013249609771487448192_);fill:none;stroke:#3F3F3F;stroke-linecap:square;stroke-linejoin:round;" d="
					M67.6,122.5H76"/>
			</g>
		</g>
		<g id="line2d_10">
			<g>
				<defs>
					<rect id="SVGID_00000101105097901686347390000003904868463899643534_" x="57.8" y="22.2" width="55.8" height="108.7"/>
				</defs>
				<clipPath id="SVGID_00000024720017924279508860000017026388334412795836_">
					<use xlink:href="#SVGID_00000101105097901686347390000003904868463899643534_"  style="overflow:visible;"/>
				</clipPath>
				
					<path style="clip-path:url(#SVGID_00000024720017924279508860000017026388334412795836_);fill:none;stroke:#3F3F3F;stroke-linecap:square;stroke-linejoin:round;" d="
					M67.6,100.7H76"/>
			</g>
		</g>
		<g id="line2d_11">
			<g>
				<defs>
					<rect id="SVGID_00000166667138022628125840000006863364899092052627_" x="57.8" y="22.2" width="55.8" height="108.7"/>
				</defs>
				<clipPath id="SVGID_00000112627439947742692980000003300286742114816947_">
					<use xlink:href="#SVGID_00000166667138022628125840000006863364899092052627_"  style="overflow:visible;"/>
				</clipPath>
				<g style="clip-path:url(#SVGID_00000112627439947742692980000003300286742114816947_);">
					<g>
						<path id="m094bb6eb22" class="st10" d="M71.8,128.1l1.3-2.1l-1.3-2.1l-1.3,2.1L71.8,128.1z"/>
					</g>
				</g>
			</g>
		</g>
		<g id="line2d_12">
			<g>
				<defs>
					<rect id="SVGID_00000050622195325241279910000016027743307258101679_" x="57.8" y="22.2" width="55.8" height="108.7"/>
				</defs>
				<clipPath id="SVGID_00000034053150972471837080000002873729385880991145_">
					<use xlink:href="#SVGID_00000050622195325241279910000016027743307258101679_"  style="overflow:visible;"/>
				</clipPath>
				
					<path style="clip-path:url(#SVGID_00000034053150972471837080000002873729385880991145_);fill:none;stroke:#3F3F3F;stroke-linecap:square;stroke-linejoin:round;" d="
					M99.7,57.5v9.9"/>
			</g>
		</g>
		<g id="line2d_13">
			<g>
				<defs>
					<rect id="SVGID_00000048468783765004178810000017140360094879253413_" x="57.8" y="22.2" width="55.8" height="108.7"/>
				</defs>
				<clipPath id="SVGID_00000085221038403361587490000005376900343568599191_">
					<use xlink:href="#SVGID_00000048468783765004178810000017140360094879253413_"  style="overflow:visible;"/>
				</clipPath>
				
					<path style="clip-path:url(#SVGID_00000085221038403361587490000005376900343568599191_);fill:none;stroke:#3F3F3F;stroke-linecap:square;stroke-linejoin:round;" d="
					M99.7,48v-9.6"/>
			</g>
		</g>
		<g id="line2d_14">
			<g>
				<defs>
					<rect id="SVGID_00000172422807434436517730000014723129540788225179_" x="57.8" y="22.2" width="55.8" height="108.7"/>
				</defs>
				<clipPath id="SVGID_00000034784941533686654570000007742652364580193155_">
					<use xlink:href="#SVGID_00000172422807434436517730000014723129540788225179_"  style="overflow:visible;"/>
				</clipPath>
				
					<path style="clip-path:url(#SVGID_00000034784941533686654570000007742652364580193155_);fill:none;stroke:#3F3F3F;stroke-linecap:square;stroke-linejoin:round;" d="
					M95.5,67.4h8.4"/>
			</g>
		</g>
		<g id="line2d_15">
			<g>
				<defs>
					<rect id="SVGID_00000130629017609103739140000000180528533225082799_" x="57.8" y="22.2" width="55.8" height="108.7"/>
				</defs>
				<clipPath id="SVGID_00000031915552857645289770000015985381226729414830_">
					<use xlink:href="#SVGID_00000130629017609103739140000000180528533225082799_"  style="overflow:visible;"/>
				</clipPath>
				
					<path style="clip-path:url(#SVGID_00000031915552857645289770000015985381226729414830_);fill:none;stroke:#3F3F3F;stroke-linecap:square;stroke-linejoin:round;" d="
					M95.5,38.4h8.4"/>
			</g>
		</g>
		<g id="line2d_16">
			<g>
				<defs>
					<rect id="SVGID_00000129911105236959498430000004176527153587315331_" x="57.8" y="22.2" width="55.8" height="108.7"/>
				</defs>
				<clipPath id="SVGID_00000072985331541166479620000000122761179244383134_">
					<use xlink:href="#SVGID_00000129911105236959498430000004176527153587315331_"  style="overflow:visible;"/>
				</clipPath>
				<g style="clip-path:url(#SVGID_00000072985331541166479620000000122761179244383134_);">
					<g>
						<path id="m094bb6eb22_00000042711147086014468430000015460490423839850900_" class="st10" d="M99.7,76.1l1.3-2.1l-1.3-2.1
							L98.4,74L99.7,76.1z"/>
					</g>
					<g>
						<path id="m094bb6eb22_00000002370971369441278790000009363728271741865122_" class="st10" d="M99.7,29.2l1.3-2.1L99.7,25
							l-1.3,2.1L99.7,29.2z"/>
					</g>
				</g>
			</g>
		</g>
		<g id="line2d_17">
			<g>
				<defs>
					<rect id="SVGID_00000052064821766815489640000011867010121314204843_" x="57.8" y="22.2" width="55.8" height="108.7"/>
				</defs>
				<clipPath id="SVGID_00000147928866504010328800000016723757163967225738_">
					<use xlink:href="#SVGID_00000052064821766815489640000011867010121314204843_"  style="overflow:visible;"/>
				</clipPath>
				
					<path style="clip-path:url(#SVGID_00000147928866504010328800000016723757163967225738_);fill:none;stroke:#3F3F3F;stroke-linecap:square;stroke-linejoin:round;" d="
					M63.4,111.4h16.7"/>
			</g>
		</g>
		<g id="line2d_18">
			<g>
				<defs>
					<rect id="SVGID_00000057141704465685760950000009245971358947896995_" x="57.8" y="22.2" width="55.8" height="108.7"/>
				</defs>
				<clipPath id="SVGID_00000181793310631647743190000009478524326348350908_">
					<use xlink:href="#SVGID_00000057141704465685760950000009245971358947896995_"  style="overflow:visible;"/>
				</clipPath>
				
					<path style="clip-path:url(#SVGID_00000181793310631647743190000009478524326348350908_);fill:none;stroke:#3F3F3F;stroke-linecap:square;stroke-linejoin:round;" d="
					M91.3,56H108"/>
			</g>
		</g>
		<g id="patch_5">
			<path class="st18" d="M57.8,130.9V22.2"/>
		</g>
		<g id="patch_6">
			<path class="st18" d="M57.8,130.9h55.8"/>
		</g>
	</g>
</g>
</svg>
