<?xml version="1.0" encoding="utf-8"?>
<!-- Generator: Adobe Illustrator 26.0.3, SVG Export Plug-In . SVG Version: 6.00 Build 0)  -->
<svg version="1.1" id="Layer_1" xmlns="http://www.w3.org/2000/svg" xmlns:xlink="http://www.w3.org/1999/xlink" x="0px" y="0px"
	 viewBox="0 0 186.6 142.3" style="enable-background:new 0 0 186.6 142.3;" xml:space="preserve">
<style type="text/css">
	.st0{opacity:0.5;fill:#1D76BB;}
	.st1{opacity:0.5;fill:#38B34A;}
	.st2{fill:none;stroke:#231F20;stroke-miterlimit:10;}
	.st3{fill:#FFFFFF;stroke:#231F20;stroke-miterlimit:10;}
	.st4{fill:#231F20;}
	.st5{font-family:'ArialMT';}
	.st6{font-size:11.8551px;}
	.st7{fill:#010101;}
	.st8{fill:none;stroke:#231F20;stroke-width:0.25;stroke-linecap:square;stroke-linejoin:round;}
</style>
<g>
	<circle class="st0" cx="140.8" cy="29.2" r="9.4"/>
	<circle class="st1" cx="140.8" cy="114.5" r="9.4"/>
	<path class="st2" d="M122.1,84.4c0,10.7,4.6,19.8,11.7,24.5"/>
	<rect x="108.5" y="68.9" class="st3" width="26.5" height="14.6"/>
	<g>
		<g>
			<path class="st2" d="M148.4,34.6c2.1,2.1,11.9,10.2,12.3,32c0.2,12.4-4.8,27.7-8.2,34"/>
			<g>
				<polygon class="st4" points="151.6,98.4 152.7,100.1 154.7,100.4 150.8,103.1 				"/>
			</g>
		</g>
	</g>
	<g>
		<g>
			<path class="st2" d="M113.4,68.9c-0.4-7.9,4.4-24.2,13.1-32.1"/>
			<g>
				<polygon class="st4" points="129.3,34.6 126.7,39.3 126.4,37 124.2,36.1 				"/>
			</g>
		</g>
	</g>
	<g>
		<g>
			<path class="st2" d="M131,69.4c0-6.7-0.9-12.6,5.4-26.1"/>
			<g>
				<path class="st4" d="M138.1,44.1c0.4-0.9,0-2.1-0.9-2.5s-2.1,0-2.5,0.9c-0.4,0.9,0,2.1,0.9,2.5C136.5,45.4,137.6,45,138.1,44.1z
					"/>
			</g>
		</g>
	</g>
	<text transform="matrix(1 0 0 1 107.5261 13.8794)" class="st4 st5 st6">Frontal cortex</text>
	<text transform="matrix(1 0 0 1 117.6911 137.4419)" class="st4 st5 st6">Striatum</text>
	<text transform="matrix(1 0 0 1 137.1804 33.3755)" class="st4 st5 st6">1</text>
	<text transform="matrix(1 0 0 1 137.1804 118.3794)" class="st4 st5 st6">2</text>
	<g id="text_70_00000173876323149269385520000013775838615048625303_">
		<g transform="translate(198.828889 345.72)scale(0.12 -0.12)">
			<g>
				<path id="DejaVuSans-3b7_00000073721667483725486110000010402178639711023792_" class="st7" d="M-855,2374.7v-44.3h-7.4v44.1
					c0,4.3-0.8,7.4-2.5,9.6c-1.7,2.1-4.2,3.2-7.5,3.2c-4,0-7.1-1.3-9.5-3.8c-2.3-2.5-3.5-6-3.5-10.4v-25.4h-7.4v45h7.4v-7
					c1.8,2.7,3.9,4.7,6.2,6.1c2.4,1.3,5.2,2,8.3,2c5.2,0,9.1-1.6,11.7-4.8C-856.4,2385.6-855,2380.9-855,2374.7z"/>
			</g>
		</g>
	</g>
	<g id="text_87_00000037653131570299065880000004351147464500923800_">
		<g transform="translate(540.851946 345.72)scale(0.12 -0.12)">
			<g transform="translate(0 0.3125)">
				<path id="DejaVuSans-3c3_00000026161376557382399510000014011296653769584277_" class="st7" d="M-3675.9,2489.1
					c-4.1,0-7.2-1.5-9.4-4.4c-2.3-3.1-3.5-7.2-3.5-12.3c0-5.4,1.1-9.6,3.4-12.7c2.3-3.1,5.4-4.6,9.4-4.6c3.9,0,7.1,1.6,9.4,4.7
					c2.3,3.1,3.5,7.3,3.5,12.7c0,4.9-1.1,9-3.4,12.3C-3668.7,2487.7-3671.8,2489.1-3675.9,2489.1z M-3675.9,2495h24.6v-7.4h-8.3
					c2.9-4.2,4.4-9.2,4.4-15.2c0-7.4-1.8-13.1-5.5-17.3c-3.7-4.2-8.7-6.3-15.2-6.3c-6.5,0-11.5,2.1-15.2,6.3
					c-3.7,4.2-5.5,10-5.5,17.3c0,7.4,1.8,13.2,5.5,17.4C-3688.1,2493.3-3683,2495-3675.9,2495z"/>
			</g>
		</g>
	</g>
	<g id="text_19_00000039109227889447826190000012868202306202482359_">
		<g transform="translate(313.916575 115.910923)scale(0.12 -0.12)">
			<g transform="translate(0 0.78125)">
				<path id="DejaVuSans-43_00000127764799913694886190000008916972376427908241_" class="st7" d="M-1842,363v-8.6
					c-2.7,2.5-5.7,4.4-8.7,5.7c-3.1,1.3-6.4,1.9-9.9,1.9c-6.9,0-12.1-2.1-15.8-6.3s-5.5-10.3-5.5-18.2c0-7.9,1.8-14,5.5-18.2
					s8.9-6.3,15.8-6.3c3.5,0,6.8,0.6,9.9,1.9s6,3.2,8.7,5.7v-8.5c-2.8-1.9-5.8-3.4-9-4.3c-3.2-1-6.5-1.4-10.1-1.4
					c-9.1,0-16.3,2.8-21.5,8.3c-5.2,5.6-7.8,13.2-7.8,22.8c0,9.6,2.6,17.2,7.8,22.8c5.2,5.6,12.4,8.3,21.5,8.3c3.6,0,7-0.5,10.1-1.4
					C-1847.8,366.3-1844.8,364.9-1842,363z"/>
			</g>
			<g transform="translate(70.78125 -15.625)scale(0.7)">
				<path id="DejaVuSans-31_00000160907027218130997910000016330560101425276090_" class="st7" d="M-1829.6,298.9h9.3v32.1l-10.1-2
					v5.2l10,2h5.7v-37.2h9.3v-4.8h-24.2V298.9z"/>
			</g>
			<g transform="translate(115.317383 -15.625)scale(0.7)">
				<path id="DejaVuSans-32_00000102510595164078931280000015358913325481104013_" class="st7" d="M-1789.1,298.9h19.8v-4.8h-26.7
					v4.8c2.2,2.2,5.1,5.2,8.8,9c3.7,3.8,6.1,6.2,7,7.3c1.8,2,3.1,3.8,3.8,5.2c0.7,1.4,1.1,2.8,1.1,4.2c0,2.2-0.8,4.1-2.4,5.5
					c-1.6,1.4-3.6,2.1-6.1,2.1c-1.8,0-3.7-0.3-5.6-0.9c-2-0.6-4.1-1.6-6.3-2.8v5.7c2.3,0.9,4.4,1.6,6.4,2.1c2,0.5,3.8,0.7,5.5,0.7
					c4.4,0,7.8-1.1,10.4-3.3c2.6-2.2,3.9-5.1,3.9-8.7c0-1.7-0.3-3.4-1-4.9c-0.6-1.5-1.8-3.4-3.5-5.5c-0.5-0.5-2-2.1-4.5-4.7
					C-1780.9,307.2-1784.5,303.5-1789.1,298.9z"/>
			</g>
		</g>
	</g>
	<g id="text_30_00000097487806228284239620000016994615301772945293_">
		<g transform="translate(541.931946 115.910923)scale(0.12 -0.12)">
			<g transform="translate(0 0.78125)">
				<path id="DejaVuSans-43_00000048485709762508845580000002850854379287381155_" class="st7" d="M-3115.7,226.6v-8.6
					c-2.7,2.5-5.7,4.4-8.7,5.7c-3.1,1.3-6.4,1.9-9.9,1.9c-6.9,0-12.1-2.1-15.8-6.3c-3.6-4.2-5.5-10.3-5.5-18.2
					c0-7.9,1.8-14,5.5-18.2c3.6-4.2,8.9-6.3,15.8-6.3c3.5,0,6.8,0.6,9.9,1.9c3.1,1.3,6,3.2,8.7,5.7v-8.5c-2.8-1.9-5.8-3.4-9-4.3
					c-3.2-1-6.5-1.4-10.1-1.4c-9.1,0-16.3,2.8-21.5,8.3c-5.2,5.6-7.8,13.2-7.8,22.8c0,9.6,2.6,17.3,7.8,22.8
					c5.2,5.6,12.4,8.3,21.5,8.3c3.6,0,7-0.5,10.1-1.4C-3121.5,230-3118.5,228.5-3115.7,226.6z"/>
			</g>
			<g transform="translate(70.78125 -15.625)scale(0.7)">
				<path id="DejaVuSans-32_00000081644523232672456440000012161905231504002963_" class="st7" d="M-3099.4,162.5h19.8v-4.8h-26.7
					v4.8c2.2,2.2,5.1,5.2,8.8,9c3.7,3.8,6.1,6.2,7,7.3c1.8,2,3.1,3.8,3.8,5.2c0.7,1.4,1.1,2.8,1.1,4.2c0,2.2-0.8,4.1-2.4,5.5
					c-1.6,1.4-3.6,2.1-6.1,2.1c-1.8,0-3.7-0.3-5.6-0.9c-2-0.6-4.1-1.6-6.3-2.8v5.7c2.3,0.9,4.4,1.6,6.4,2.1c2,0.5,3.8,0.7,5.5,0.7
					c4.4,0,7.8-1.1,10.4-3.3c2.6-2.2,3.9-5.1,3.9-8.7c0-1.7-0.3-3.4-1-4.9c-0.6-1.5-1.8-3.4-3.5-5.5c-0.5-0.5-2-2.1-4.5-4.7
					C-3091.3,170.8-3094.8,167.2-3099.4,162.5z"/>
			</g>
			<g transform="translate(115.317383 -15.625)scale(0.7)">
				<path id="DejaVuSans-31_00000062875396455681738890000008397180249626188165_" class="st7" d="M-3066.6,162.5h9.3v32.1l-10.1-2
					v5.2l10,2h5.7v-37.2h9.3v-4.8h-24.2V162.5z"/>
			</g>
		</g>
	</g>
	<g id="y7Haxx.tif">
		
			<image style="overflow:visible;" width="624" height="452" id="Layer_0_00000160880451992884843740000011019429769689329838_" xlink:href="25D67A32048D80AD.png"  transform="matrix(0.1443 0 0 0.1443 0 4.6172)">
		</image>
	</g>
	<g id="NJtYGs.tif">
		
			<image style="overflow:visible;" width="676" height="476" id="Layer_0_00000179606635033945756820000012590243494924475282_" xlink:href="25D67A32048D80AF.png"  transform="matrix(0.1295 0 0 0.1295 1.2332 80.6685)">
		</image>
	</g>
	<g transform="translate(70.78125 -15.625)scale(0.7)">
		<path id="DejaVuSans-31_00000059293986592358459350000003682861217842914214_" class="st7" d="M98,67.3h1.1v-3.8l-1.2,0.2v-0.6
			l1.2-0.2h0.7v4.5h1.1v0.6H98V67.3z"/>
	</g>
	<g transform="translate(115.317383 -15.625)scale(0.7)">
		<path id="DejaVuSans-32_00000152968607704038642360000012406249226342890685_" class="st7" d="M102.9,67.3h2.4v0.6h-3.2v-0.6
			c0.3-0.3,0.6-0.6,1.1-1.1c0.4-0.5,0.7-0.7,0.8-0.9c0.2-0.2,0.4-0.5,0.5-0.6c0.1-0.2,0.1-0.3,0.1-0.5c0-0.3-0.1-0.5-0.3-0.7
			c-0.2-0.2-0.4-0.3-0.7-0.3c-0.2,0-0.4,0-0.7,0.1c-0.2,0.1-0.5,0.2-0.8,0.3v-0.7c0.3-0.1,0.5-0.2,0.8-0.2c0.2-0.1,0.5-0.1,0.7-0.1
			c0.5,0,0.9,0.1,1.2,0.4c0.3,0.3,0.5,0.6,0.5,1c0,0.2,0,0.4-0.1,0.6c-0.1,0.2-0.2,0.4-0.4,0.7c-0.1,0.1-0.2,0.3-0.5,0.6
			C103.9,66.3,103.5,66.7,102.9,67.3z"/>
	</g>
	<g transform="translate(70.78125 -15.625)scale(0.7)">
		<path id="DejaVuSans-31_00000010301085688487357550000001783756836435504559_" class="st7" d="M103.6,53.7h1.1v-3.8l-1.2,0.2v-0.6
			l1.2-0.2h0.7v4.5h1.1v0.6h-2.9V53.7z"/>
	</g>
	<g transform="translate(115.317383 -15.625)scale(0.7)">
		<path id="DejaVuSans-32_00000147211279008765551930000017184260933165053611_" class="st7" d="M108.5,53.7h2.4v0.6h-3.2v-0.6
			c0.3-0.3,0.6-0.6,1.1-1.1c0.4-0.5,0.7-0.7,0.8-0.9c0.2-0.2,0.4-0.5,0.5-0.6c0.1-0.2,0.1-0.3,0.1-0.5c0-0.3-0.1-0.5-0.3-0.7
			c-0.2-0.2-0.4-0.3-0.7-0.3c-0.2,0-0.4,0-0.7,0.1c-0.2,0.1-0.5,0.2-0.8,0.3v-0.7c0.3-0.1,0.5-0.2,0.8-0.2c0.2-0.1,0.5-0.1,0.7-0.1
			c0.5,0,0.9,0.1,1.2,0.4c0.3,0.3,0.5,0.6,0.5,1c0,0.2,0,0.4-0.1,0.6c-0.1,0.2-0.2,0.4-0.4,0.7c-0.1,0.1-0.2,0.3-0.5,0.6
			C109.4,52.7,109,53.2,108.5,53.7z"/>
	</g>
	<path class="st8" d="M108.7,77.2l0.1-0.1l0.1-0.1l0.1-0.6l0.1,0.8l0.1-1.4l0.1-0.1l0.1-2.1l0.1,5.1l0.1-5.1l0.1,2.3l0.1-3.6
		l0.1,3.8l0.1-2.6l0.1,3.4l0.1-1.7l0.1,3l0.1-0.6l0.1-2.4l0.1,3.1l0.1,0.7l0.1-2.1l0.1-3.6l0.1,1.6l0.1,2.9l0.1-1.9l0.1-0.8l0.1,5.6
		l0.1-5.6l0.1,2.6l0.1-3.5l0.1,1.7l0.1-4.2l0.1,9.3l0.1,0.8l0.1,0.1l0.1-5.2l0.1,1.7l0.1-1l0.1-3.4l0.1,2.6l0.1-0.8l0.1,2l0.1-4.1
		l0.1,3.3l0.1,1.2L113,76l0.1,3.3l0.1-1.1l0.1-3.4l0.1,0l0.1,0.6l0.1,0.3l0.1,6l0.1-9.8l0.1-0.7L114,74l0.1,1.8l0.1,3.5l0.2-8
		l0.1,7.3l0.1-4.2l0.1,4.2l0.1-4.3l0.1-1.5l0.1,5.6L115,77l0.1-0.2l0.1-3.9l0.2,3.1l0.1-1.7l0.1,2.4l0.1-2.6l0.1,3.6l0.1-1.9
		l0.1,0.9l0.1-2.6l0.1,0.2l0.1,4.7l0.2-6.5l0.2,4.2l0.1-0.5l0.1,5.9l0.1-7l0.1-0.9l0.1,3.4l0.2,0.9l0.1-5l0.1-1l0.2,8.4l0.1-6.2
		l0.1-0.7l0.2,1.9l0.1-5.3l0.1,3.7l0.1-0.4l0.1,1.2l0.1,2.3l0.1-0.4l0.1,0.1l0.1,4.9l0.1-11.2L119,77l0.1-4.8l0.1,7.5l0.1-5.5l0.1,2
		l0.1-2.7l0.2,4.7l0.1,3.9l0.1-6.2l0.1-0.8l0.1,2.1l0.1-2.8l0.1,4.3l0.1-5.6l0.1,1.9l0.1,1.2l0.1-5.3l0.1,4.9l0.1,1.5l0.1-4.1
		l0.1,2.4l0.1-2.9l0.1,3.9l0.1-5.9l0.1,11l0.2-6l0.1-0.9l0.1,0.5l0.1,2.4l0.1-1.2l0.1-0.6l0.1-2.8l0.1,4l0.1-1.2l0.1,3.3l0.1-7.5
		l0.1-0.1l0.2,3.2l0.1-0.7l0.1,2.8l0.1,0.2l0.1-1.8l0.1,0.7l0.1-1.9l0.1,5l0.1-4.1l0.1,3.6l0.1-4.4l0.1-1.4l0.1,1.7l0.1,0l0.1,0.9
		l0.1-0.1l0.1,3.7l0.1-3.7l0.1,3.3l0.1-7.1l0.1,9.6l0.1-7.7l0.1,4.3l0.1-4.7l0.3,5.9l0.1-4.8l0.1,1.7l0.1-0.8l0.1,1l0.1,3.2l0.1-4
		l0.1,0.6l0.1,4.7l0.1-1.8l0.1-1.2l0.2-3.3l0.1,4.9l0.1-0.8l0.1-3.3l0.1,0.1l0.1-2.8l0.1,6l0.1-1.6l0.1,2.3l0.1-0.4l0.1-4.2l0.1,4
		l0.1-5.6l0.1,5.3l0.1-4.2l0.1,6.2l0.1-5.9l0.1,3.4l0.2-2.8l0.1-2.9l0.1,5.4l0.1-2.6l0.1,0.6l0.1,3.7l0.1,0.4l0.1-7.1l0.1,4.4
		l0.2-1.8l0.1,1.3l0.1,0.5l0.1,2.1l0.1-1.1l0.1-0.7l0.1,0.6l0.1,0.1l0.2-2.9l0.1,2.7l0.1-3.4l0.1,5.6l0.1-1l0.1,1.3l0.1,0.8l0.1-9.5
		l0.1,3.4l0.1,0L131,73l0.1,3.5l0.1-1.1l0.1,3.1l0.1-1.6l0.1-4.3l0.1,0.7l0.1,0.9l0.1,3.3l0.1-1.7l0.1,6.4l0.1-4.4l0.1-3.3l0.1,1
		l0.1-1.6l0.1,0.6l0.1,0.2l0.1-1.2l0.1,3.3l0.1,0.9l0.1,0.3l0.1-5.4l0.1-0.6l0.1,4.9l0.2-2l0.1-1.5l0.2,3.5l0.1,0.1l0.1-3.5L134,77
		l0.1-0.8l0.1-1.8l0.1,4.2l0.2,2.8"/>
</g>
</svg>
