<?xml version="1.0" encoding="utf-8"?>
<!-- Generator: Adobe Illustrator 26.0.3, SVG Export Plug-In . SVG Version: 6.00 Build 0)  -->
<svg version="1.1" id="Layer_1" xmlns="http://www.w3.org/2000/svg" xmlns:xlink="http://www.w3.org/1999/xlink" x="0px" y="0px"
	 viewBox="0 0 169.4 161.2" style="enable-background:new 0 0 169.4 161.2;" xml:space="preserve">
<style type="text/css">
	.st0{fill:#FFFFFF;}
	
		.st1{opacity:0.2612;clip-path:url(#SVGID_00000096035689369948476290000007930964594994925195_);fill:#D9A528;stroke:#010101;enable-background:new    ;}
	
		.st2{opacity:0.3739;clip-path:url(#SVGID_00000115473569531423425020000015578693959789314721_);fill:#D9A528;stroke:#010101;stroke-dasharray:3.7,1.6;enable-background:new    ;}
	
		.st3{opacity:0.2923;clip-path:url(#SVGID_00000122709911280466940390000003619688469153937060_);fill:#D9A528;stroke:#010101;enable-background:new    ;}
	
		.st4{opacity:0.251;clip-path:url(#SVGID_00000181804664785135578000000015947186117691101580_);fill:#D9A528;stroke:#010101;stroke-dasharray:3.7,1.6;enable-background:new    ;}
	
		.st5{opacity:0.2688;clip-path:url(#SVGID_00000005260268003791937700000016700238848293125047_);fill:#D9A528;stroke:#010101;stroke-dasharray:3.7,1.6;enable-background:new    ;}
	
		.st6{opacity:0.3191;clip-path:url(#SVGID_00000174565225932530992080000010553817130521031304_);fill:#D9A528;stroke:#010101;enable-background:new    ;}
	
		.st7{opacity:0.226;clip-path:url(#SVGID_00000160149718816505664440000009811248028080156080_);fill:#D9A528;stroke:#010101;enable-background:new    ;}
	
		.st8{opacity:0.2199;clip-path:url(#SVGID_00000072959620344468567130000009799014961078347667_);fill:#D9A528;stroke:#010101;enable-background:new    ;}
	
		.st9{opacity:0.217;clip-path:url(#SVGID_00000013155631208041400550000012771911473320875191_);fill:#D9A528;stroke:#010101;stroke-dasharray:3.7,1.6;enable-background:new    ;}
	
		.st10{opacity:0.2795;clip-path:url(#SVGID_00000006697846967498135850000012995166464988533170_);fill:#D9A528;stroke:#010101;enable-background:new    ;}
	
		.st11{opacity:0.2055;clip-path:url(#SVGID_00000163066532227161773890000005715715499229217215_);fill:#D9A528;stroke:#010101;stroke-dasharray:3.7,1.6;enable-background:new    ;}
	
		.st12{opacity:0.2612;clip-path:url(#SVGID_00000036233519518972746250000009916881270021057973_);fill:#D9A528;stroke:#010101;enable-background:new    ;}
	
		.st13{clip-path:url(#SVGID_00000093168069107978056610000002293988636215068827_);fill:none;stroke:#B0B1B1;stroke-width:0.5;stroke-linejoin:round;stroke-dasharray:1.85,0.8;}
	.st14{fill:#010101;}
	
		.st15{clip-path:url(#SVGID_00000014594940860592342730000001977753237357957781_);fill:none;stroke:#B0B1B1;stroke-width:0.5;stroke-linejoin:round;stroke-dasharray:1.85,0.8;}
	
		.st16{clip-path:url(#SVGID_00000108295032538129606170000014177984955604586127_);fill:none;stroke:#B0B1B1;stroke-width:0.5;stroke-linejoin:round;stroke-dasharray:1.85,0.8;}
	
		.st17{clip-path:url(#SVGID_00000057137362910629208120000006111707312141563565_);fill:none;stroke:#B0B1B1;stroke-width:0.5;stroke-linejoin:round;stroke-dasharray:1.85,0.8;}
	
		.st18{clip-path:url(#SVGID_00000148631065613444281880000005754595122830094976_);fill:none;stroke:#B0B1B1;stroke-width:0.5;stroke-linejoin:round;stroke-dasharray:1.85,0.8;}
	
		.st19{clip-path:url(#SVGID_00000154388255291797773530000002185935359508182183_);fill:none;stroke:#B0B1B1;stroke-width:0.5;stroke-linejoin:round;stroke-dasharray:1.85,0.8;}
	
		.st20{clip-path:url(#SVGID_00000027587421414596012070000017136538370743187903_);fill:none;stroke:#B0B1B1;stroke-width:0.5;stroke-linejoin:round;stroke-dasharray:1.85,0.8;}
	
		.st21{clip-path:url(#SVGID_00000049194700958993148750000003117751585881970051_);fill:none;stroke:#B0B1B1;stroke-width:0.5;stroke-linejoin:round;stroke-dasharray:1.85,0.8;}
	
		.st22{clip-path:url(#SVGID_00000075877954494210974240000001367113629241537669_);fill:none;stroke:#B0B1B1;stroke-width:0.5;stroke-linejoin:round;stroke-dasharray:1.85,0.8;}
	
		.st23{clip-path:url(#SVGID_00000158746499377406549250000008020262041881927054_);fill:none;stroke:#B0B1B1;stroke-width:0.5;stroke-linejoin:round;stroke-dasharray:1.85,0.8;}
	
		.st24{clip-path:url(#SVGID_00000114047836773008533500000011686596128448409756_);fill:none;stroke:#B0B1B1;stroke-width:0.5;stroke-linejoin:round;stroke-dasharray:1.85,0.8;}
	
		.st25{clip-path:url(#SVGID_00000088815000274059832310000008768541073773207429_);fill:none;stroke:#B0B1B1;stroke-width:0.8;stroke-linecap:square;stroke-linejoin:round;}
</style>
<g id="axes_2">
	<g id="patch_5">
		<path class="st0" d="M137.8,79.8c0-7.3-1.4-14.5-4.2-21.2c-2.8-6.7-6.9-12.8-12-17.9c-5.1-5.1-11.2-9.2-17.9-12
			c-6.7-2.8-13.9-4.2-21.2-4.2c-7.3,0-14.5,1.4-21.2,4.2c-6.7,2.8-12.8,6.9-17.9,12s-9.2,11.2-12,17.9c-2.8,6.7-4.2,13.9-4.2,21.2
			s1.4,14.5,4.2,21.2c2.8,6.7,6.9,12.8,12,17.9c5.1,5.1,11.2,9.2,17.9,12c6.7,2.8,13.9,4.2,21.2,4.2c7.3,0,14.5-1.4,21.2-4.2
			c6.7-2.8,12.8-6.9,17.9-12c5.1-5.1,9.2-11.2,12-17.9C136.4,94.2,137.8,87,137.8,79.8 M82.5,79.8L82.5,79.8L82.5,79.8L82.5,79.8
			L82.5,79.8L82.5,79.8L82.5,79.8L82.5,79.8L82.5,79.8L82.5,79.8L82.5,79.8L82.5,79.8L82.5,79.8L82.5,79.8L82.5,79.8L82.5,79.8
			L82.5,79.8z"/>
	</g>
	<g id="patch_6">
		<g>
			<defs>
				<path id="SVGID_1_" d="M137.8,79.8c0-7.3-1.4-14.5-4.2-21.2c-2.8-6.7-6.9-12.8-12-17.9c-5.1-5.1-11.2-9.2-17.9-12
					c-6.7-2.8-13.9-4.2-21.2-4.2c-7.3,0-14.5,1.4-21.2,4.2c-6.7,2.8-12.8,6.9-17.9,12s-9.2,11.2-12,17.9c-2.8,6.7-4.2,13.9-4.2,21.2
					s1.4,14.5,4.2,21.2c2.8,6.7,6.9,12.8,12,17.9c5.1,5.1,11.2,9.2,17.9,12c6.7,2.8,13.9,4.2,21.2,4.2c7.3,0,14.5-1.4,21.2-4.2
					c6.7-2.8,12.8-6.9,17.9-12c5.1-5.1,9.2-11.2,12-17.9C136.4,94.2,137.8,87,137.8,79.8 M82.5,79.8L82.5,79.8L82.5,79.8L82.5,79.8
					L82.5,79.8L82.5,79.8L82.5,79.8L82.5,79.8L82.5,79.8L82.5,79.8L82.5,79.8L82.5,79.8L82.5,79.8L82.5,79.8L82.5,79.8L82.5,79.8
					L82.5,79.8z"/>
			</defs>
			<clipPath id="SVGID_00000101805529926163607630000004518598592989307069_">
				<use xlink:href="#SVGID_1_"  style="overflow:visible;"/>
			</clipPath>
			
				<path style="opacity:0.2612;clip-path:url(#SVGID_00000101805529926163607630000004518598592989307069_);fill:#D9A528;stroke:#010101;enable-background:new    ;" d="
				M82.5,79.8L82.5,79.8L82.5,79.8l18-4.6c0.4,1.5,0.6,3,0.6,4.6c0,1.5-0.2,3.1-0.6,4.6L82.5,79.8z"/>
		</g>
	</g>
	<g id="patch_7">
		<g>
			<defs>
				<path id="SVGID_00000152257170373195182030000013470209195194729366_" d="M137.8,79.8c0-7.3-1.4-14.5-4.2-21.2
					c-2.8-6.7-6.9-12.8-12-17.9c-5.1-5.1-11.2-9.2-17.9-12c-6.7-2.8-13.9-4.2-21.2-4.2c-7.3,0-14.5,1.4-21.2,4.2
					c-6.7,2.8-12.8,6.9-17.9,12s-9.2,11.2-12,17.9c-2.8,6.7-4.2,13.9-4.2,21.2s1.4,14.5,4.2,21.2c2.8,6.7,6.9,12.8,12,17.9
					c5.1,5.1,11.2,9.2,17.9,12c6.7,2.8,13.9,4.2,21.2,4.2c7.3,0,14.5-1.4,21.2-4.2c6.7-2.8,12.8-6.9,17.9-12
					c5.1-5.1,9.2-11.2,12-17.9C136.4,94.2,137.8,87,137.8,79.8 M82.5,79.8L82.5,79.8L82.5,79.8L82.5,79.8L82.5,79.8L82.5,79.8
					L82.5,79.8L82.5,79.8L82.5,79.8L82.5,79.8L82.5,79.8L82.5,79.8L82.5,79.8L82.5,79.8L82.5,79.8L82.5,79.8L82.5,79.8z"/>
			</defs>
			<clipPath id="SVGID_00000152981324768008527320000007611866325982332043_">
				<use xlink:href="#SVGID_00000152257170373195182030000013470209195194729366_"  style="overflow:visible;"/>
			</clipPath>
			
				<path style="opacity:0.3739;clip-path:url(#SVGID_00000152981324768008527320000007611866325982332043_);fill:#D9A528;stroke:#010101;stroke-dasharray:3.7,1.6;enable-background:new    ;" d="
				M82.5,79.8L82.5,79.8L82.5,79.8l35.9-38.6c3.2,3,6,6.4,8.4,10.1c2.4,3.7,4.3,7.7,5.7,11.9L82.5,79.8z"/>
		</g>
	</g>
	<g id="patch_8">
		<g>
			<defs>
				<path id="SVGID_00000164510993370942103870000006509278830733401779_" d="M137.8,79.8c0-7.3-1.4-14.5-4.2-21.2
					c-2.8-6.7-6.9-12.8-12-17.9c-5.1-5.1-11.2-9.2-17.9-12c-6.7-2.8-13.9-4.2-21.2-4.2c-7.3,0-14.5,1.4-21.2,4.2
					c-6.7,2.8-12.8,6.9-17.9,12s-9.2,11.2-12,17.9c-2.8,6.7-4.2,13.9-4.2,21.2s1.4,14.5,4.2,21.2c2.8,6.7,6.9,12.8,12,17.9
					c5.1,5.1,11.2,9.2,17.9,12c6.7,2.8,13.9,4.2,21.2,4.2c7.3,0,14.5-1.4,21.2-4.2c6.7-2.8,12.8-6.9,17.9-12
					c5.1-5.1,9.2-11.2,12-17.9C136.4,94.2,137.8,87,137.8,79.8 M82.5,79.8L82.5,79.8L82.5,79.8L82.5,79.8L82.5,79.8L82.5,79.8
					L82.5,79.8L82.5,79.8L82.5,79.8L82.5,79.8L82.5,79.8L82.5,79.8L82.5,79.8L82.5,79.8L82.5,79.8L82.5,79.8L82.5,79.8z"/>
			</defs>
			<clipPath id="SVGID_00000044900873836349422800000001124860608791362488_">
				<use xlink:href="#SVGID_00000164510993370942103870000006509278830733401779_"  style="overflow:visible;"/>
			</clipPath>
			
				<path style="opacity:0.2923;clip-path:url(#SVGID_00000044900873836349422800000001124860608791362488_);fill:#D9A528;stroke:#010101;enable-background:new    ;" d="
				M82.5,79.8L82.5,79.8L82.5,79.8l5-27.5c2.3,0.4,4.5,1.1,6.7,2.1c2.1,1,4.1,2.2,5.9,3.7L82.5,79.8z"/>
		</g>
	</g>
	<g id="patch_9">
		<g>
			<defs>
				<path id="SVGID_00000098206080341596737100000012118632310214348162_" d="M137.8,79.8c0-7.3-1.4-14.5-4.2-21.2
					c-2.8-6.7-6.9-12.8-12-17.9c-5.1-5.1-11.2-9.2-17.9-12c-6.7-2.8-13.9-4.2-21.2-4.2c-7.3,0-14.5,1.4-21.2,4.2
					c-6.7,2.8-12.8,6.9-17.9,12s-9.2,11.2-12,17.9c-2.8,6.7-4.2,13.9-4.2,21.2s1.4,14.5,4.2,21.2c2.8,6.7,6.9,12.8,12,17.9
					c5.1,5.1,11.2,9.2,17.9,12c6.7,2.8,13.9,4.2,21.2,4.2c7.3,0,14.5-1.4,21.2-4.2c6.7-2.8,12.8-6.9,17.9-12
					c5.1-5.1,9.2-11.2,12-17.9C136.4,94.2,137.8,87,137.8,79.8 M82.5,79.8L82.5,79.8L82.5,79.8L82.5,79.8L82.5,79.8L82.5,79.8
					L82.5,79.8L82.5,79.8L82.5,79.8L82.5,79.8L82.5,79.8L82.5,79.8L82.5,79.8L82.5,79.8L82.5,79.8L82.5,79.8L82.5,79.8z"/>
			</defs>
			<clipPath id="SVGID_00000018943272190488664060000006495335031838096827_">
				<use xlink:href="#SVGID_00000098206080341596737100000012118632310214348162_"  style="overflow:visible;"/>
			</clipPath>
			
				<path style="opacity:0.251;clip-path:url(#SVGID_00000018943272190488664060000006495335031838096827_);fill:#D9A528;stroke:#010101;stroke-dasharray:3.7,1.6;enable-background:new    ;" d="
				M82.5,79.8L82.5,79.8L82.5,79.8l-5.9-14.3c1.2-0.5,2.4-0.8,3.7-1s2.6-0.2,3.9-0.1L82.5,79.8z"/>
		</g>
	</g>
	<g id="patch_10">
		<g>
			<defs>
				<path id="SVGID_00000178166025670301651170000001615860072946536126_" d="M137.8,79.8c0-7.3-1.4-14.5-4.2-21.2
					c-2.8-6.7-6.9-12.8-12-17.9c-5.1-5.1-11.2-9.2-17.9-12c-6.7-2.8-13.9-4.2-21.2-4.2c-7.3,0-14.5,1.4-21.2,4.2
					c-6.7,2.8-12.8,6.9-17.9,12s-9.2,11.2-12,17.9c-2.8,6.7-4.2,13.9-4.2,21.2s1.4,14.5,4.2,21.2c2.8,6.7,6.9,12.8,12,17.9
					c5.1,5.1,11.2,9.2,17.9,12c6.7,2.8,13.9,4.2,21.2,4.2c7.3,0,14.5-1.4,21.2-4.2c6.7-2.8,12.8-6.9,17.9-12
					c5.1-5.1,9.2-11.2,12-17.9C136.4,94.2,137.8,87,137.8,79.8 M82.5,79.8L82.5,79.8L82.5,79.8L82.5,79.8L82.5,79.8L82.5,79.8
					L82.5,79.8L82.5,79.8L82.5,79.8L82.5,79.8L82.5,79.8L82.5,79.8L82.5,79.8L82.5,79.8L82.5,79.8L82.5,79.8L82.5,79.8z"/>
			</defs>
			<clipPath id="SVGID_00000104679663173558333860000000122198124402159530_">
				<use xlink:href="#SVGID_00000178166025670301651170000001615860072946536126_"  style="overflow:visible;"/>
			</clipPath>
			
				<path style="opacity:0.2688;clip-path:url(#SVGID_00000104679663173558333860000000122198124402159530_);fill:#D9A528;stroke:#010101;stroke-dasharray:3.7,1.6;enable-background:new    ;" d="
				M82.5,79.8L82.5,79.8L82.5,79.8L65.4,67.9c1-1.4,2.2-2.7,3.5-3.9c1.3-1.1,2.8-2.1,4.3-2.9L82.5,79.8z"/>
		</g>
	</g>
	<g id="patch_11">
		<g>
			<defs>
				<path id="SVGID_00000173850932002410185930000009199116072368064151_" d="M137.8,79.8c0-7.3-1.4-14.5-4.2-21.2
					c-2.8-6.7-6.9-12.8-12-17.9c-5.1-5.1-11.2-9.2-17.9-12c-6.7-2.8-13.9-4.2-21.2-4.2c-7.3,0-14.5,1.4-21.2,4.2
					c-6.7,2.8-12.8,6.9-17.9,12s-9.2,11.2-12,17.9c-2.8,6.7-4.2,13.9-4.2,21.2s1.4,14.5,4.2,21.2c2.8,6.7,6.9,12.8,12,17.9
					c5.1,5.1,11.2,9.2,17.9,12c6.7,2.8,13.9,4.2,21.2,4.2c7.3,0,14.5-1.4,21.2-4.2c6.7-2.8,12.8-6.9,17.9-12
					c5.1-5.1,9.2-11.2,12-17.9C136.4,94.2,137.8,87,137.8,79.8 M82.5,79.8L82.5,79.8L82.5,79.8L82.5,79.8L82.5,79.8L82.5,79.8
					L82.5,79.8L82.5,79.8L82.5,79.8L82.5,79.8L82.5,79.8L82.5,79.8L82.5,79.8L82.5,79.8L82.5,79.8L82.5,79.8L82.5,79.8z"/>
			</defs>
			<clipPath id="SVGID_00000057870178882744894720000001211832048611187086_">
				<use xlink:href="#SVGID_00000173850932002410185930000009199116072368064151_"  style="overflow:visible;"/>
			</clipPath>
			
				<path style="opacity:0.3191;clip-path:url(#SVGID_00000057870178882744894720000001211832048611187086_);fill:#D9A528;stroke:#010101;enable-background:new    ;" d="
				M82.5,79.8L82.5,79.8L82.5,79.8l-36.1-1.3c0.1-3,0.6-6,1.4-8.9c0.8-2.9,2.1-5.7,3.6-8.3L82.5,79.8z"/>
		</g>
	</g>
	<g id="patch_12">
		<g>
			<defs>
				<path id="SVGID_00000148632624112713086900000012225190650311570309_" d="M137.8,79.8c0-7.3-1.4-14.5-4.2-21.2
					c-2.8-6.7-6.9-12.8-12-17.9c-5.1-5.1-11.2-9.2-17.9-12c-6.7-2.8-13.9-4.2-21.2-4.2c-7.3,0-14.5,1.4-21.2,4.2
					c-6.7,2.8-12.8,6.9-17.9,12s-9.2,11.2-12,17.9c-2.8,6.7-4.2,13.9-4.2,21.2s1.4,14.5,4.2,21.2c2.8,6.7,6.9,12.8,12,17.9
					c5.1,5.1,11.2,9.2,17.9,12c6.7,2.8,13.9,4.2,21.2,4.2c7.3,0,14.5-1.4,21.2-4.2c6.7-2.8,12.8-6.9,17.9-12
					c5.1-5.1,9.2-11.2,12-17.9C136.4,94.2,137.8,87,137.8,79.8 M82.5,79.8L82.5,79.8L82.5,79.8L82.5,79.8L82.5,79.8L82.5,79.8
					L82.5,79.8L82.5,79.8L82.5,79.8L82.5,79.8L82.5,79.8L82.5,79.8L82.5,79.8L82.5,79.8L82.5,79.8L82.5,79.8L82.5,79.8z"/>
			</defs>
			<clipPath id="SVGID_00000036222362238960092010000001317762266679814837_">
				<use xlink:href="#SVGID_00000148632624112713086900000012225190650311570309_"  style="overflow:visible;"/>
			</clipPath>
			
				<path style="opacity:0.226;clip-path:url(#SVGID_00000036222362238960092010000001317762266679814837_);fill:#D9A528;stroke:#010101;enable-background:new    ;" d="
				M82.5,79.8L82.5,79.8L82.5,79.8l-6.8,4c-0.3-0.6-0.6-1.2-0.8-1.8c-0.2-0.6-0.3-1.3-0.3-1.9L82.5,79.8z"/>
		</g>
	</g>
	<g id="patch_13">
		<g>
			<defs>
				<path id="SVGID_00000183952913069608799130000015563082951619441850_" d="M137.8,79.8c0-7.3-1.4-14.5-4.2-21.2
					c-2.8-6.7-6.9-12.8-12-17.9c-5.1-5.1-11.2-9.2-17.9-12c-6.7-2.8-13.9-4.2-21.2-4.2c-7.3,0-14.5,1.4-21.2,4.2
					c-6.7,2.8-12.8,6.9-17.9,12s-9.2,11.2-12,17.9c-2.8,6.7-4.2,13.9-4.2,21.2s1.4,14.5,4.2,21.2c2.8,6.7,6.9,12.8,12,17.9
					c5.1,5.1,11.2,9.2,17.9,12c6.7,2.8,13.9,4.2,21.2,4.2c7.3,0,14.5-1.4,21.2-4.2c6.7-2.8,12.8-6.9,17.9-12
					c5.1-5.1,9.2-11.2,12-17.9C136.4,94.2,137.8,87,137.8,79.8 M82.5,79.8L82.5,79.8L82.5,79.8L82.5,79.8L82.5,79.8L82.5,79.8
					L82.5,79.8L82.5,79.8L82.5,79.8L82.5,79.8L82.5,79.8L82.5,79.8L82.5,79.8L82.5,79.8L82.5,79.8L82.5,79.8L82.5,79.8z"/>
			</defs>
			<clipPath id="SVGID_00000098197276687394829700000015456938663631965113_">
				<use xlink:href="#SVGID_00000183952913069608799130000015563082951619441850_"  style="overflow:visible;"/>
			</clipPath>
			
				<path style="opacity:0.2199;clip-path:url(#SVGID_00000098197276687394829700000015456938663631965113_);fill:#D9A528;stroke:#010101;enable-background:new    ;" d="
				M82.5,79.8L82.5,79.8L82.5,79.8l-2.7,5.4c-0.4-0.2-0.9-0.5-1.2-0.8c-0.4-0.3-0.7-0.7-1-1.1L82.5,79.8z"/>
		</g>
	</g>
	<g id="patch_14">
		<g>
			<defs>
				<path id="SVGID_00000049211358391140758520000008986837812370733996_" d="M137.8,79.8c0-7.3-1.4-14.5-4.2-21.2
					c-2.8-6.7-6.9-12.8-12-17.9c-5.1-5.1-11.2-9.2-17.9-12c-6.7-2.8-13.9-4.2-21.2-4.2c-7.3,0-14.5,1.4-21.2,4.2
					c-6.7,2.8-12.8,6.9-17.9,12s-9.2,11.2-12,17.9c-2.8,6.7-4.2,13.9-4.2,21.2s1.4,14.5,4.2,21.2c2.8,6.7,6.9,12.8,12,17.9
					c5.1,5.1,11.2,9.2,17.9,12c6.7,2.8,13.9,4.2,21.2,4.2c7.3,0,14.5-1.4,21.2-4.2c6.7-2.8,12.8-6.9,17.9-12
					c5.1-5.1,9.2-11.2,12-17.9C136.4,94.2,137.8,87,137.8,79.8 M82.5,79.8L82.5,79.8L82.5,79.8L82.5,79.8L82.5,79.8L82.5,79.8
					L82.5,79.8L82.5,79.8L82.5,79.8L82.5,79.8L82.5,79.8L82.5,79.8L82.5,79.8L82.5,79.8L82.5,79.8L82.5,79.8L82.5,79.8z"/>
			</defs>
			<clipPath id="SVGID_00000080892904116099833660000008880384609775005581_">
				<use xlink:href="#SVGID_00000049211358391140758520000008986837812370733996_"  style="overflow:visible;"/>
			</clipPath>
			
				<path style="opacity:0.217;clip-path:url(#SVGID_00000080892904116099833660000008880384609775005581_);fill:#D9A528;stroke:#010101;stroke-dasharray:3.7,1.6;enable-background:new    ;" d="
				M82.5,79.8L82.5,79.8L82.5,79.8l0.6,5.1c-0.4,0-0.9,0-1.3,0c-0.4-0.1-0.8-0.2-1.2-0.3L82.5,79.8z"/>
		</g>
	</g>
	<g id="patch_15">
		<g>
			<defs>
				<path id="SVGID_00000134967785999828263680000000648827790707672972_" d="M137.8,79.8c0-7.3-1.4-14.5-4.2-21.2
					c-2.8-6.7-6.9-12.8-12-17.9c-5.1-5.1-11.2-9.2-17.9-12c-6.7-2.8-13.9-4.2-21.2-4.2c-7.3,0-14.5,1.4-21.2,4.2
					c-6.7,2.8-12.8,6.9-17.9,12s-9.2,11.2-12,17.9c-2.8,6.7-4.2,13.9-4.2,21.2s1.4,14.5,4.2,21.2c2.8,6.7,6.9,12.8,12,17.9
					c5.1,5.1,11.2,9.2,17.9,12c6.7,2.8,13.9,4.2,21.2,4.2c7.3,0,14.5-1.4,21.2-4.2c6.7-2.8,12.8-6.9,17.9-12
					c5.1-5.1,9.2-11.2,12-17.9C136.4,94.2,137.8,87,137.8,79.8 M82.5,79.8L82.5,79.8L82.5,79.8L82.5,79.8L82.5,79.8L82.5,79.8
					L82.5,79.8L82.5,79.8L82.5,79.8L82.5,79.8L82.5,79.8L82.5,79.8L82.5,79.8L82.5,79.8L82.5,79.8L82.5,79.8L82.5,79.8z"/>
			</defs>
			<clipPath id="SVGID_00000096054310809226316590000014985499367117295519_">
				<use xlink:href="#SVGID_00000134967785999828263680000000648827790707672972_"  style="overflow:visible;"/>
			</clipPath>
			
				<path style="opacity:0.2795;clip-path:url(#SVGID_00000096054310809226316590000014985499367117295519_);fill:#D9A528;stroke:#010101;enable-background:new    ;" d="
				M82.5,79.8L82.5,79.8L82.5,79.8l15.1,18.8c-1.6,1.3-3.3,2.3-5.1,3.2c-1.8,0.8-3.8,1.4-5.7,1.8L82.5,79.8z"/>
		</g>
	</g>
	<g id="patch_16">
		<g>
			<defs>
				<path id="SVGID_00000016056457992251375700000009152312238246508219_" d="M137.8,79.8c0-7.3-1.4-14.5-4.2-21.2
					c-2.8-6.7-6.9-12.8-12-17.9c-5.1-5.1-11.2-9.2-17.9-12c-6.7-2.8-13.9-4.2-21.2-4.2c-7.3,0-14.5,1.4-21.2,4.2
					c-6.7,2.8-12.8,6.9-17.9,12s-9.2,11.2-12,17.9c-2.8,6.7-4.2,13.9-4.2,21.2s1.4,14.5,4.2,21.2c2.8,6.7,6.9,12.8,12,17.9
					c5.1,5.1,11.2,9.2,17.9,12c6.7,2.8,13.9,4.2,21.2,4.2c7.3,0,14.5-1.4,21.2-4.2c6.7-2.8,12.8-6.9,17.9-12
					c5.1-5.1,9.2-11.2,12-17.9C136.4,94.2,137.8,87,137.8,79.8 M82.5,79.8L82.5,79.8L82.5,79.8L82.5,79.8L82.5,79.8L82.5,79.8
					L82.5,79.8L82.5,79.8L82.5,79.8L82.5,79.8L82.5,79.8L82.5,79.8L82.5,79.8L82.5,79.8L82.5,79.8L82.5,79.8L82.5,79.8z"/>
			</defs>
			<clipPath id="SVGID_00000049220884006856445490000017588595692005160611_">
				<use xlink:href="#SVGID_00000016056457992251375700000009152312238246508219_"  style="overflow:visible;"/>
			</clipPath>
			
				<path style="opacity:0.2055;clip-path:url(#SVGID_00000049220884006856445490000017588595692005160611_);fill:#D9A528;stroke:#010101;stroke-dasharray:3.7,1.6;enable-background:new    ;" d="
				M82.5,79.8L82.5,79.8L82.5,79.8l1.6,0.5c0,0.1-0.1,0.3-0.2,0.4c-0.1,0.1-0.2,0.2-0.3,0.3L82.5,79.8z"/>
		</g>
	</g>
	<g id="patch_17">
		<g>
			<defs>
				<path id="SVGID_00000090282282941987093130000008354043918530900405_" d="M137.8,79.8c0-7.3-1.4-14.5-4.2-21.2
					c-2.8-6.7-6.9-12.8-12-17.9c-5.1-5.1-11.2-9.2-17.9-12c-6.7-2.8-13.9-4.2-21.2-4.2c-7.3,0-14.5,1.4-21.2,4.2
					c-6.7,2.8-12.8,6.9-17.9,12s-9.2,11.2-12,17.9c-2.8,6.7-4.2,13.9-4.2,21.2s1.4,14.5,4.2,21.2c2.8,6.7,6.9,12.8,12,17.9
					c5.1,5.1,11.2,9.2,17.9,12c6.7,2.8,13.9,4.2,21.2,4.2c7.3,0,14.5-1.4,21.2-4.2c6.7-2.8,12.8-6.9,17.9-12
					c5.1-5.1,9.2-11.2,12-17.9C136.4,94.2,137.8,87,137.8,79.8 M82.5,79.8L82.5,79.8L82.5,79.8L82.5,79.8L82.5,79.8L82.5,79.8
					L82.5,79.8L82.5,79.8L82.5,79.8L82.5,79.8L82.5,79.8L82.5,79.8L82.5,79.8L82.5,79.8L82.5,79.8L82.5,79.8L82.5,79.8z"/>
			</defs>
			<clipPath id="SVGID_00000130630291301027553470000011456008811851351682_">
				<use xlink:href="#SVGID_00000090282282941987093130000008354043918530900405_"  style="overflow:visible;"/>
			</clipPath>
			
				<path style="opacity:0.2612;clip-path:url(#SVGID_00000130630291301027553470000011456008811851351682_);fill:#D9A528;stroke:#010101;enable-background:new    ;" d="
				M82.5,79.8L82.5,79.8L82.5,79.8l18-4.6c0.4,1.5,0.6,3,0.6,4.6c0,1.5-0.2,3.1-0.6,4.6L82.5,79.8z"/>
		</g>
	</g>
	<g id="matplotlib.axis_3">
		<g id="xtick_4">
			<g id="line2d_10">
				<g>
					<defs>
						<path id="SVGID_00000075149477850512346640000012250010372581717660_" d="M137.8,79.8c0-7.3-1.4-14.5-4.2-21.2
							c-2.8-6.7-6.9-12.8-12-17.9c-5.1-5.1-11.2-9.2-17.9-12c-6.7-2.8-13.9-4.2-21.2-4.2c-7.3,0-14.5,1.4-21.2,4.2
							c-6.7,2.8-12.8,6.9-17.9,12s-9.2,11.2-12,17.9c-2.8,6.7-4.2,13.9-4.2,21.2s1.4,14.5,4.2,21.2c2.8,6.7,6.9,12.8,12,17.9
							c5.1,5.1,11.2,9.2,17.9,12c6.7,2.8,13.9,4.2,21.2,4.2c7.3,0,14.5-1.4,21.2-4.2c6.7-2.8,12.8-6.9,17.9-12
							c5.1-5.1,9.2-11.2,12-17.9C136.4,94.2,137.8,87,137.8,79.8 M82.5,79.8L82.5,79.8L82.5,79.8L82.5,79.8L82.5,79.8L82.5,79.8
							L82.5,79.8L82.5,79.8L82.5,79.8L82.5,79.8L82.5,79.8L82.5,79.8L82.5,79.8L82.5,79.8L82.5,79.8L82.5,79.8L82.5,79.8z"/>
					</defs>
					<clipPath id="SVGID_00000130617614402816692410000007102137020530718138_">
						<use xlink:href="#SVGID_00000075149477850512346640000012250010372581717660_"  style="overflow:visible;"/>
					</clipPath>
					
						<path style="clip-path:url(#SVGID_00000130617614402816692410000007102137020530718138_);fill:none;stroke:#B0B1B1;stroke-width:0.5;stroke-linejoin:round;stroke-dasharray:1.85,0.8;" d="
						M82.5,79.8h55.3"/>
				</g>
			</g>
			<g id="text_12">
				<g transform="translate(391.663952 89.080018)scale(0.1 -0.1)">
					<g transform="translate(0 0.78125)">
						<path id="DejaVuSans-43_00000070082147808296093230000005813856415201147806_" class="st14" d="M-2417.9,133.7v-10.4
							c-3.3,3.1-6.9,5.4-10.6,6.9c-3.8,1.5-7.8,2.3-12,2.3c-8.3,0-14.7-2.5-19.1-7.6c-4.4-5.1-6.6-12.5-6.6-22.1
							c0-9.6,2.2-17,6.6-22c4.4-5.1,10.8-7.6,19.1-7.6c4.2,0,8.2,0.8,12,2.3c3.8,1.5,7.3,3.8,10.6,6.9V72c-3.4-2.3-7.1-4.1-11-5.3
							c-3.9-1.2-7.9-1.8-12.2-1.8c-11,0-19.7,3.4-26.1,10.1c-6.3,6.8-9.5,16-9.5,27.7c0,11.7,3.2,21,9.5,27.7
							c6.4,6.8,15.1,10.1,26.1,10.1c4.4,0,8.5-0.6,12.3-1.7C-2424.9,137.7-2421.3,136-2417.9,133.7z"/>
					</g>
					<g transform="translate(70.78125 -15.625)scale(0.7)">
						<path id="DejaVuSans-4f_00000044895538739196661050000010496541030153888142_" class="st14" d="M-2383.9,96.3
							c-5,0-9-1.9-12-5.6c-2.9-3.7-4.4-8.8-4.4-15.3c0-6.4,1.5-11.5,4.4-15.2c3-3.7,6.9-5.6,12-5.6c5,0,9,1.9,11.9,5.6
							c2.9,3.7,4.4,8.8,4.4,15.2c0,6.5-1.5,11.5-4.4,15.3C-2374.9,94.5-2378.9,96.3-2383.9,96.3z M-2383.9,101.9
							c7.2,0,12.9-2.4,17.2-7.2c4.3-4.8,6.4-11.2,6.4-19.3c0-8-2.1-14.5-6.4-19.3c-4.3-4.8-10-7.2-17.2-7.2
							c-7.2,0-12.9,2.4-17.2,7.2c-4.3,4.8-6.4,11.2-6.4,19.3s2.1,14.5,6.4,19.3C-2396.8,99.5-2391.1,101.9-2383.9,101.9z"/>
					</g>
					<g transform="translate(125.878906 -15.625)scale(0.7)">
						<path id="DejaVuSans-4c" class="st14" d="M-2349.5,101h6.9V55.8h24.8V50h-31.8V101z"/>
					</g>
				</g>
			</g>
		</g>
		<g id="xtick_5">
			<g id="line2d_11">
				<g>
					<defs>
						<path id="SVGID_00000042730428695173234070000017860800022915864495_" d="M137.8,79.8c0-7.3-1.4-14.5-4.2-21.2
							c-2.8-6.7-6.9-12.8-12-17.9c-5.1-5.1-11.2-9.2-17.9-12c-6.7-2.8-13.9-4.2-21.2-4.2c-7.3,0-14.5,1.4-21.2,4.2
							c-6.7,2.8-12.8,6.9-17.9,12s-9.2,11.2-12,17.9c-2.8,6.7-4.2,13.9-4.2,21.2s1.4,14.5,4.2,21.2c2.8,6.7,6.9,12.8,12,17.9
							c5.1,5.1,11.2,9.2,17.9,12c6.7,2.8,13.9,4.2,21.2,4.2c7.3,0,14.5-1.4,21.2-4.2c6.7-2.8,12.8-6.9,17.9-12
							c5.1-5.1,9.2-11.2,12-17.9C136.4,94.2,137.8,87,137.8,79.8 M82.5,79.8L82.5,79.8L82.5,79.8L82.5,79.8L82.5,79.8L82.5,79.8
							L82.5,79.8L82.5,79.8L82.5,79.8L82.5,79.8L82.5,79.8L82.5,79.8L82.5,79.8L82.5,79.8L82.5,79.8L82.5,79.8L82.5,79.8z"/>
					</defs>
					<clipPath id="SVGID_00000095308346516308420270000017860185880699322785_">
						<use xlink:href="#SVGID_00000042730428695173234070000017860800022915864495_"  style="overflow:visible;"/>
					</clipPath>
					
						<path style="clip-path:url(#SVGID_00000095308346516308420270000017860185880699322785_);fill:none;stroke:#B0B1B1;stroke-width:0.5;stroke-linejoin:round;stroke-dasharray:1.85,0.8;" d="
						M82.5,79.8l46.5-29.9"/>
				</g>
			</g>
			<g id="text_13">
				<g transform="translate(380.208623 51.599308)scale(0.1 -0.1)">
					<g transform="translate(0 0.78125)">
						<path id="DejaVuSans-43_00000145771432305584497480000015925493564930702751_" class="st14" d="M-2417.9,133.7v-10.4
							c-3.3,3.1-6.9,5.4-10.6,6.9c-3.8,1.5-7.8,2.3-12,2.3c-8.3,0-14.7-2.5-19.1-7.6c-4.4-5.1-6.6-12.5-6.6-22.1
							c0-9.6,2.2-17,6.6-22c4.4-5.1,10.8-7.6,19.1-7.6c4.2,0,8.2,0.8,12,2.3c3.8,1.5,7.3,3.8,10.6,6.9V72c-3.4-2.3-7.1-4.1-11-5.3
							c-3.9-1.2-7.9-1.8-12.2-1.8c-11,0-19.7,3.4-26.1,10.1c-6.3,6.8-9.5,16-9.5,27.7c0,11.7,3.2,21,9.5,27.7
							c6.4,6.8,15.1,10.1,26.1,10.1c4.4,0,8.5-0.6,12.3-1.7C-2424.9,137.7-2421.3,136-2417.9,133.7z"/>
					</g>
					<g transform="translate(70.78125 -15.625)scale(0.7)">
						<path id="DejaVuSans-4f_00000101102753309079051730000009794841246312206465_" class="st14" d="M-2383.9,96.3
							c-5,0-9-1.9-12-5.6c-2.9-3.7-4.4-8.8-4.4-15.3c0-6.4,1.5-11.5,4.4-15.2c3-3.7,6.9-5.6,12-5.6c5,0,9,1.9,11.9,5.6
							c2.9,3.7,4.4,8.8,4.4,15.2c0,6.5-1.5,11.5-4.4,15.3C-2374.9,94.5-2378.9,96.3-2383.9,96.3z M-2383.9,101.9
							c7.2,0,12.9-2.4,17.2-7.2c4.3-4.8,6.4-11.2,6.4-19.3c0-8-2.1-14.5-6.4-19.3c-4.3-4.8-10-7.2-17.2-7.2
							c-7.2,0-12.9,2.4-17.2,7.2c-4.3,4.8-6.4,11.2-6.4,19.3s2.1,14.5,6.4,19.3C-2396.8,99.5-2391.1,101.9-2383.9,101.9z"/>
					</g>
					<g transform="translate(125.878906 -15.625)scale(0.7)">
						<path id="DejaVuSans-41" class="st14" d="M-2332.5,94.2l-9.4-25.4h18.8L-2332.5,94.2z M-2336.4,101h7.8l19.4-51h-7.2
							l-4.6,13.1h-23l-4.6-13.1h-7.3L-2336.4,101z"/>
					</g>
				</g>
			</g>
		</g>
		<g id="xtick_6">
			<g id="line2d_12">
				<g>
					<defs>
						<path id="SVGID_00000178199313383999952880000018000479448337766843_" d="M137.8,79.8c0-7.3-1.4-14.5-4.2-21.2
							c-2.8-6.7-6.9-12.8-12-17.9c-5.1-5.1-11.2-9.2-17.9-12c-6.7-2.8-13.9-4.2-21.2-4.2c-7.3,0-14.5,1.4-21.2,4.2
							c-6.7,2.8-12.8,6.9-17.9,12s-9.2,11.2-12,17.9c-2.8,6.7-4.2,13.9-4.2,21.2s1.4,14.5,4.2,21.2c2.8,6.7,6.9,12.8,12,17.9
							c5.1,5.1,11.2,9.2,17.9,12c6.7,2.8,13.9,4.2,21.2,4.2c7.3,0,14.5-1.4,21.2-4.2c6.7-2.8,12.8-6.9,17.9-12
							c5.1-5.1,9.2-11.2,12-17.9C136.4,94.2,137.8,87,137.8,79.8 M82.5,79.8L82.5,79.8L82.5,79.8L82.5,79.8L82.5,79.8L82.5,79.8
							L82.5,79.8L82.5,79.8L82.5,79.8L82.5,79.8L82.5,79.8L82.5,79.8L82.5,79.8L82.5,79.8L82.5,79.8L82.5,79.8L82.5,79.8z"/>
					</defs>
					<clipPath id="SVGID_00000159432693031521054020000006593379288458518920_">
						<use xlink:href="#SVGID_00000178199313383999952880000018000479448337766843_"  style="overflow:visible;"/>
					</clipPath>
					
						<path style="clip-path:url(#SVGID_00000159432693031521054020000006593379288458518920_);fill:none;stroke:#B0B1B1;stroke-width:0.5;stroke-linejoin:round;stroke-dasharray:1.85,0.8;" d="
						M82.5,79.8l23-50.3"/>
				</g>
			</g>
			<g id="text_14">
				<g transform="translate(351.786749 26.018458)scale(0.1 -0.1)">
					<g transform="translate(0 0.78125)">
						<path id="DejaVuSans-43_00000040541350744734990550000000768480309724413101_" class="st14" d="M-2417.9,133.7v-10.4
							c-3.3,3.1-6.9,5.4-10.6,6.9c-3.8,1.5-7.8,2.3-12,2.3c-8.3,0-14.7-2.5-19.1-7.6c-4.4-5.1-6.6-12.5-6.6-22.1
							c0-9.6,2.2-17,6.6-22c4.4-5.1,10.8-7.6,19.1-7.6c4.2,0,8.2,0.8,12,2.3c3.8,1.5,7.3,3.8,10.6,6.9V72c-3.4-2.3-7.1-4.1-11-5.3
							c-3.9-1.2-7.9-1.8-12.2-1.8c-11,0-19.7,3.4-26.1,10.1c-6.3,6.8-9.5,16-9.5,27.7c0,11.7,3.2,21,9.5,27.7
							c6.4,6.8,15.1,10.1,26.1,10.1c4.4,0,8.5-0.6,12.3-1.7C-2424.9,137.7-2421.3,136-2417.9,133.7z"/>
					</g>
					<g transform="translate(70.78125 -15.625)scale(0.7)">
						<path id="DejaVuSans-4c_00000132050808955929286510000013114602740101462444_" class="st14" d="M-2404.6,101h6.9V55.8h24.8V50
							h-31.8V101z"/>
					</g>
					<g transform="translate(109.780273 -15.625)scale(0.7)">
						<path id="DejaVuSans-50" class="st14" d="M-2358.7,95.4V76.2h8.7c3.2,0,5.7,0.8,7.4,2.5c1.8,1.7,2.6,4,2.6,7.1
							c0,3.1-0.9,5.4-2.6,7.1c-1.8,1.7-4.2,2.5-7.4,2.5H-2358.7z M-2365.6,101h15.6c5.7,0,10-1.3,13-3.9c2.9-2.6,4.4-6.4,4.4-11.4
							c0-5-1.5-8.8-4.4-11.4c-2.9-2.6-7.2-3.9-13-3.9h-8.7V50h-6.9V101z"/>
					</g>
				</g>
			</g>
		</g>
		<g id="xtick_7">
			<g id="line2d_13">
				<g>
					<defs>
						<path id="SVGID_00000141454331712643514380000012883914240523352235_" d="M137.8,79.8c0-7.3-1.4-14.5-4.2-21.2
							c-2.8-6.7-6.9-12.8-12-17.9c-5.1-5.1-11.2-9.2-17.9-12c-6.7-2.8-13.9-4.2-21.2-4.2c-7.3,0-14.5,1.4-21.2,4.2
							c-6.7,2.8-12.8,6.9-17.9,12s-9.2,11.2-12,17.9c-2.8,6.7-4.2,13.9-4.2,21.2s1.4,14.5,4.2,21.2c2.8,6.7,6.9,12.8,12,17.9
							c5.1,5.1,11.2,9.2,17.9,12c6.7,2.8,13.9,4.2,21.2,4.2c7.3,0,14.5-1.4,21.2-4.2c6.7-2.8,12.8-6.9,17.9-12
							c5.1-5.1,9.2-11.2,12-17.9C136.4,94.2,137.8,87,137.8,79.8 M82.5,79.8L82.5,79.8L82.5,79.8L82.5,79.8L82.5,79.8L82.5,79.8
							L82.5,79.8L82.5,79.8L82.5,79.8L82.5,79.8L82.5,79.8L82.5,79.8L82.5,79.8L82.5,79.8L82.5,79.8L82.5,79.8L82.5,79.8z"/>
					</defs>
					<clipPath id="SVGID_00000117641637681649238440000005153243077455839658_">
						<use xlink:href="#SVGID_00000141454331712643514380000012883914240523352235_"  style="overflow:visible;"/>
					</clipPath>
					
						<path style="clip-path:url(#SVGID_00000117641637681649238440000005153243077455839658_);fill:none;stroke:#B0B1B1;stroke-width:0.5;stroke-linejoin:round;stroke-dasharray:1.85,0.8;" d="
						M82.5,79.8L74.6,25"/>
				</g>
			</g>
			<g id="text_15">
				<g transform="translate(312.021317 20.459208)scale(0.1 -0.1)">
					<g transform="translate(0 0.78125)">
						<path id="DejaVuSans-43_00000096027867106357646120000003421130362868953017_" class="st14" d="M-2417.9,133.7v-10.4
							c-3.3,3.1-6.9,5.4-10.6,6.9c-3.8,1.5-7.8,2.3-12,2.3c-8.3,0-14.7-2.5-19.1-7.6c-4.4-5.1-6.6-12.5-6.6-22.1
							c0-9.6,2.2-17,6.6-22c4.4-5.1,10.8-7.6,19.1-7.6c4.2,0,8.2,0.8,12,2.3c3.8,1.5,7.3,3.8,10.6,6.9V72c-3.4-2.3-7.1-4.1-11-5.3
							c-3.9-1.2-7.9-1.8-12.2-1.8c-11,0-19.7,3.4-26.1,10.1c-6.3,6.8-9.5,16-9.5,27.7c0,11.7,3.2,21,9.5,27.7
							c6.4,6.8,15.1,10.1,26.1,10.1c4.4,0,8.5-0.6,12.3-1.7C-2424.9,137.7-2421.3,136-2417.9,133.7z"/>
					</g>
					<g transform="translate(70.78125 -15.625)scale(0.7)">
						<path id="DejaVuSans-41_00000183246304844841562730000008279021986881399969_" class="st14" d="M-2387.6,94.2l-9.4-25.4h18.8
							L-2387.6,94.2z M-2391.5,101h7.8l19.4-51h-7.2l-4.6,13.1h-23l-4.6-13.1h-7.3L-2391.5,101z"/>
					</g>
					<g transform="translate(118.666992 -15.625)scale(0.7)">
						<path id="DejaVuSans-4f_00000145024143797610029470000010977119026694004927_" class="st14" d="M-2336,96.3c-5,0-9-1.9-12-5.6
							c-2.9-3.7-4.4-8.8-4.4-15.3c0-6.4,1.5-11.5,4.4-15.2c3-3.7,6.9-5.6,12-5.6c5,0,9,1.9,11.9,5.6c2.9,3.7,4.4,8.8,4.4,15.2
							c0,6.5-1.5,11.5-4.4,15.3C-2327,94.5-2331,96.3-2336,96.3z M-2336,101.9c7.2,0,12.9-2.4,17.2-7.2c4.3-4.8,6.4-11.2,6.4-19.3
							c0-8-2.1-14.5-6.4-19.3c-4.3-4.8-10-7.2-17.2-7.2c-7.2,0-12.9,2.4-17.2,7.2c-4.3,4.8-6.4,11.2-6.4,19.3s2.1,14.5,6.4,19.3
							C-2348.9,99.5-2343.2,101.9-2336,101.9z"/>
					</g>
				</g>
			</g>
		</g>
		<g id="xtick_8">
			<g id="line2d_14">
				<g>
					<defs>
						<path id="SVGID_00000005267765938472435980000008358127330721010340_" d="M137.8,79.8c0-7.3-1.4-14.5-4.2-21.2
							c-2.8-6.7-6.9-12.8-12-17.9c-5.1-5.1-11.2-9.2-17.9-12c-6.7-2.8-13.9-4.2-21.2-4.2c-7.3,0-14.5,1.4-21.2,4.2
							c-6.7,2.8-12.8,6.9-17.9,12s-9.2,11.2-12,17.9c-2.8,6.7-4.2,13.9-4.2,21.2s1.4,14.5,4.2,21.2c2.8,6.7,6.9,12.8,12,17.9
							c5.1,5.1,11.2,9.2,17.9,12c6.7,2.8,13.9,4.2,21.2,4.2c7.3,0,14.5-1.4,21.2-4.2c6.7-2.8,12.8-6.9,17.9-12
							c5.1-5.1,9.2-11.2,12-17.9C136.4,94.2,137.8,87,137.8,79.8 M82.5,79.8L82.5,79.8L82.5,79.8L82.5,79.8L82.5,79.8L82.5,79.8
							L82.5,79.8L82.5,79.8L82.5,79.8L82.5,79.8L82.5,79.8L82.5,79.8L82.5,79.8L82.5,79.8L82.5,79.8L82.5,79.8L82.5,79.8z"/>
					</defs>
					<clipPath id="SVGID_00000136402093567473926390000015636585707944459402_">
						<use xlink:href="#SVGID_00000005267765938472435980000008358127330721010340_"  style="overflow:visible;"/>
					</clipPath>
					
						<path style="clip-path:url(#SVGID_00000136402093567473926390000015636585707944459402_);fill:none;stroke:#B0B1B1;stroke-width:0.5;stroke-linejoin:round;stroke-dasharray:1.85,0.8;" d="
						M82.5,79.8L46.3,37.9"/>
				</g>
			</g>
			<g id="text_16">
				<g transform="translate(277.138328 36.686581)scale(0.1 -0.1)">
					<g transform="translate(0 0.78125)">
						<path id="DejaVuSans-43_00000157277951307294917320000005387095610560382384_" class="st14" d="M-2417.9,133.7v-10.4
							c-3.3,3.1-6.9,5.4-10.6,6.9c-3.8,1.5-7.8,2.3-12,2.3c-8.3,0-14.7-2.5-19.1-7.6c-4.4-5.1-6.6-12.5-6.6-22.1
							c0-9.6,2.2-17,6.6-22c4.4-5.1,10.8-7.6,19.1-7.6c4.2,0,8.2,0.8,12,2.3c3.8,1.5,7.3,3.8,10.6,6.9V72c-3.4-2.3-7.1-4.1-11-5.3
							c-3.9-1.2-7.9-1.8-12.2-1.8c-11,0-19.7,3.4-26.1,10.1c-6.3,6.8-9.5,16-9.5,27.7c0,11.7,3.2,21,9.5,27.7
							c6.4,6.8,15.1,10.1,26.1,10.1c4.4,0,8.5-0.6,12.3-1.7C-2424.9,137.7-2421.3,136-2417.9,133.7z"/>
					</g>
					<g transform="translate(70.78125 -15.625)scale(0.7)">
						<path id="DejaVuSans-41_00000012456291753286808290000011174332806374420890_" class="st14" d="M-2387.6,94.2l-9.4-25.4h18.8
							L-2387.6,94.2z M-2391.5,101h7.8l19.4-51h-7.2l-4.6,13.1h-23l-4.6-13.1h-7.3L-2391.5,101z"/>
					</g>
					<g transform="translate(118.666992 -15.625)scale(0.7)">
						<path id="DejaVuSans-50_00000173860672938488717370000006980498635672639922_" class="st14" d="M-2349.8,95.4V76.2h8.7
							c3.2,0,5.7,0.8,7.4,2.5c1.8,1.7,2.6,4,2.6,7.1c0,3.1-0.9,5.4-2.6,7.1c-1.8,1.7-4.2,2.5-7.4,2.5H-2349.8z M-2356.7,101h15.6
							c5.7,0,10-1.3,13-3.9c2.9-2.6,4.4-6.4,4.4-11.4c0-5-1.5-8.8-4.4-11.4c-2.9-2.6-7.2-3.9-13-3.9h-8.7V50h-6.9V101z"/>
					</g>
				</g>
			</g>
		</g>
		<g id="xtick_9">
			<g id="line2d_15">
				<g>
					<defs>
						<path id="SVGID_00000163055329812929698190000001019180170490571962_" d="M137.8,79.8c0-7.3-1.4-14.5-4.2-21.2
							c-2.8-6.7-6.9-12.8-12-17.9c-5.1-5.1-11.2-9.2-17.9-12c-6.7-2.8-13.9-4.2-21.2-4.2c-7.3,0-14.5,1.4-21.2,4.2
							c-6.7,2.8-12.8,6.9-17.9,12s-9.2,11.2-12,17.9c-2.8,6.7-4.2,13.9-4.2,21.2s1.4,14.5,4.2,21.2c2.8,6.7,6.9,12.8,12,17.9
							c5.1,5.1,11.2,9.2,17.9,12c6.7,2.8,13.9,4.2,21.2,4.2c7.3,0,14.5-1.4,21.2-4.2c6.7-2.8,12.8-6.9,17.9-12
							c5.1-5.1,9.2-11.2,12-17.9C136.4,94.2,137.8,87,137.8,79.8 M82.5,79.8L82.5,79.8L82.5,79.8L82.5,79.8L82.5,79.8L82.5,79.8
							L82.5,79.8L82.5,79.8L82.5,79.8L82.5,79.8L82.5,79.8L82.5,79.8L82.5,79.8L82.5,79.8L82.5,79.8L82.5,79.8L82.5,79.8z"/>
					</defs>
					<clipPath id="SVGID_00000146473409627803972120000015337091944534194612_">
						<use xlink:href="#SVGID_00000163055329812929698190000001019180170490571962_"  style="overflow:visible;"/>
					</clipPath>
					
						<path style="clip-path:url(#SVGID_00000146473409627803972120000015337091944534194612_);fill:none;stroke:#B0B1B1;stroke-width:0.5;stroke-linejoin:round;stroke-dasharray:1.85,0.8;" d="
						M82.5,79.8L29.4,64.2"/>
				</g>
			</g>
			<g id="text_17">
				<g transform="translate(256.469256 69.548499)scale(0.1 -0.1)">
					<g transform="translate(0 0.78125)">
						<path id="DejaVuSans-43_00000173858682170883472390000015366469381502976133_" class="st14" d="M-2417.9,133.7v-10.4
							c-3.3,3.1-6.9,5.4-10.6,6.9c-3.8,1.5-7.8,2.3-12,2.3c-8.3,0-14.7-2.5-19.1-7.6c-4.4-5.1-6.6-12.5-6.6-22.1
							c0-9.6,2.2-17,6.6-22c4.4-5.1,10.8-7.6,19.1-7.6c4.2,0,8.2,0.8,12,2.3c3.8,1.5,7.3,3.8,10.6,6.9V72c-3.4-2.3-7.1-4.1-11-5.3
							c-3.9-1.2-7.9-1.8-12.2-1.8c-11,0-19.7,3.4-26.1,10.1c-6.3,6.8-9.5,16-9.5,27.7c0,11.7,3.2,21,9.5,27.7
							c6.4,6.8,15.1,10.1,26.1,10.1c4.4,0,8.5-0.6,12.3-1.7C-2424.9,137.7-2421.3,136-2417.9,133.7z"/>
					</g>
					<g transform="translate(70.78125 -15.625)scale(0.7)">
						<path id="DejaVuSans-50_00000122685774645770173230000012081280847491712412_" class="st14" d="M-2397.7,95.4V76.2h8.7
							c3.2,0,5.7,0.8,7.4,2.5c1.8,1.7,2.6,4,2.6,7.1c0,3.1-0.9,5.4-2.6,7.1c-1.8,1.7-4.2,2.5-7.4,2.5H-2397.7z M-2404.6,101h15.6
							c5.7,0,10-1.3,13-3.9c2.9-2.6,4.4-6.4,4.4-11.4c0-5-1.5-8.8-4.4-11.4c-2.9-2.6-7.2-3.9-13-3.9h-8.7V50h-6.9V101z"/>
					</g>
					<g transform="translate(112.993164 -15.625)scale(0.7)">
						<path id="DejaVuSans-4c_00000105408491545874804530000000563231731558158989_" class="st14" d="M-2362.4,101h6.9V55.8h24.8V50
							h-31.8V101z"/>
					</g>
				</g>
			</g>
		</g>
		<g id="xtick_10">
			<g id="line2d_16">
				<g>
					<defs>
						<path id="SVGID_00000064320023764020174310000005977549768018641309_" d="M137.8,79.8c0-7.3-1.4-14.5-4.2-21.2
							c-2.8-6.7-6.9-12.8-12-17.9c-5.1-5.1-11.2-9.2-17.9-12c-6.7-2.8-13.9-4.2-21.2-4.2c-7.3,0-14.5,1.4-21.2,4.2
							c-6.7,2.8-12.8,6.9-17.9,12s-9.2,11.2-12,17.9c-2.8,6.7-4.2,13.9-4.2,21.2s1.4,14.5,4.2,21.2c2.8,6.7,6.9,12.8,12,17.9
							c5.1,5.1,11.2,9.2,17.9,12c6.7,2.8,13.9,4.2,21.2,4.2c7.3,0,14.5-1.4,21.2-4.2c6.7-2.8,12.8-6.9,17.9-12
							c5.1-5.1,9.2-11.2,12-17.9C136.4,94.2,137.8,87,137.8,79.8 M82.5,79.8L82.5,79.8L82.5,79.8L82.5,79.8L82.5,79.8L82.5,79.8
							L82.5,79.8L82.5,79.8L82.5,79.8L82.5,79.8L82.5,79.8L82.5,79.8L82.5,79.8L82.5,79.8L82.5,79.8L82.5,79.8L82.5,79.8z"/>
					</defs>
					<clipPath id="SVGID_00000118356458302919798040000009473449505951971994_">
						<use xlink:href="#SVGID_00000064320023764020174310000005977549768018641309_"  style="overflow:visible;"/>
					</clipPath>
					
						<path style="clip-path:url(#SVGID_00000118356458302919798040000009473449505951971994_);fill:none;stroke:#B0B1B1;stroke-width:0.5;stroke-linejoin:round;stroke-dasharray:1.85,0.8;" d="
						M82.5,79.8L29.4,95.3"/>
				</g>
			</g>
			<g id="text_18">
				<g transform="translate(255.669256 108.591224)scale(0.1 -0.1)">
					<g>
						<path id="DejaVuSans-3b7" class="st14" d="M-2427.4,98.6V44.8h-9v53.5c0,5.2-1,9-3,11.6c-2,2.6-5,3.9-9.1,3.9
							c-4.9,0-8.7-1.5-11.5-4.6c-2.8-3.1-4.2-7.3-4.2-12.6V65.6h-9v54.7h9v-8.5c2.2,3.3,4.7,5.8,7.6,7.4c2.9,1.6,6.3,2.4,10.1,2.4
							c6.3,0,11-1.9,14.2-5.8C-2429,111.9-2427.4,106.2-2427.4,98.6z"/>
					</g>
					<g transform="translate(64.335938 -16.40625)scale(0.7)">
						<path id="DejaVuSans-4f_00000176000858916263480320000000761152808504651924_" class="st14" d="M-2390.4,95.6
							c-5,0-9-1.9-12-5.6c-2.9-3.7-4.4-8.8-4.4-15.3c0-6.4,1.5-11.5,4.4-15.2c3-3.7,6.9-5.6,12-5.6c5,0,9,1.9,11.9,5.6
							c2.9,3.7,4.4,8.8,4.4,15.2c0,6.5-1.5,11.5-4.4,15.3C-2381.4,93.7-2385.3,95.6-2390.4,95.6z M-2390.4,101.2
							c7.2,0,12.9-2.4,17.2-7.2c4.3-4.8,6.4-11.2,6.4-19.3c0-8-2.1-14.5-6.4-19.3c-4.3-4.8-10-7.2-17.2-7.2
							c-7.2,0-12.9,2.4-17.2,7.2c-4.3,4.8-6.4,11.2-6.4,19.3s2.1,14.5,6.4,19.3C-2403.3,98.8-2397.5,101.2-2390.4,101.2z"/>
					</g>
					<g transform="translate(119.433594 -16.40625)scale(0.7)">
						<path id="DejaVuSans-41_00000091699592944512981190000009330825313236677284_" class="st14" d="M-2338.9,93.4l-9.4-25.4h18.8
							L-2338.9,93.4z M-2342.8,100.2h7.8l19.4-51h-7.2l-4.6,13.1h-23l-4.6-13.1h-7.3L-2342.8,100.2z"/>
					</g>
				</g>
			</g>
		</g>
		<g id="xtick_11">
			<g id="line2d_17">
				<g>
					<defs>
						<path id="SVGID_00000124131268969581281810000000994255661985652099_" d="M137.8,79.8c0-7.3-1.4-14.5-4.2-21.2
							c-2.8-6.7-6.9-12.8-12-17.9c-5.1-5.1-11.2-9.2-17.9-12c-6.7-2.8-13.9-4.2-21.2-4.2c-7.3,0-14.5,1.4-21.2,4.2
							c-6.7,2.8-12.8,6.9-17.9,12s-9.2,11.2-12,17.9c-2.8,6.7-4.2,13.9-4.2,21.2s1.4,14.5,4.2,21.2c2.8,6.7,6.9,12.8,12,17.9
							c5.1,5.1,11.2,9.2,17.9,12c6.7,2.8,13.9,4.2,21.2,4.2c7.3,0,14.5-1.4,21.2-4.2c6.7-2.8,12.8-6.9,17.9-12
							c5.1-5.1,9.2-11.2,12-17.9C136.4,94.2,137.8,87,137.8,79.8 M82.5,79.8L82.5,79.8L82.5,79.8L82.5,79.8L82.5,79.8L82.5,79.8
							L82.5,79.8L82.5,79.8L82.5,79.8L82.5,79.8L82.5,79.8L82.5,79.8L82.5,79.8L82.5,79.8L82.5,79.8L82.5,79.8L82.5,79.8z"/>
					</defs>
					<clipPath id="SVGID_00000033348490292861936210000016102581952348970133_">
						<use xlink:href="#SVGID_00000124131268969581281810000000994255661985652099_"  style="overflow:visible;"/>
					</clipPath>
					
						<path style="clip-path:url(#SVGID_00000033348490292861936210000016102581952348970133_);fill:none;stroke:#B0B1B1;stroke-width:0.5;stroke-linejoin:round;stroke-dasharray:1.85,0.8;" d="
						M82.5,79.8l-36.2,41.8"/>
				</g>
			</g>
			<g id="text_19">
				<g transform="translate(277.888328 141.453142)scale(0.1 -0.1)">
					<g>
						<path id="DejaVuSans-3b7_00000046311085668305493070000011384092038752588419_" class="st14" d="M-2427.4,98.6V44.8h-9v53.5
							c0,5.2-1,9-3,11.6c-2,2.6-5,3.9-9.1,3.9c-4.9,0-8.7-1.5-11.5-4.6c-2.8-3.1-4.2-7.3-4.2-12.6V65.6h-9v54.7h9v-8.5
							c2.2,3.3,4.7,5.8,7.6,7.4c2.9,1.6,6.3,2.4,10.1,2.4c6.3,0,11-1.9,14.2-5.8C-2429,111.9-2427.4,106.2-2427.4,98.6z"/>
					</g>
					<g transform="translate(64.335938 -16.40625)scale(0.7)">
						<path id="DejaVuSans-4c_00000044896298787099966630000016040695068269739679_" class="st14" d="M-2411.1,100.2h6.9V55h24.8
							v-5.8h-31.8V100.2z"/>
					</g>
					<g transform="translate(103.334961 -16.40625)scale(0.7)">
						<path id="DejaVuSans-50_00000077325412228024966980000001701825962043105447_" class="st14" d="M-2365.2,94.6V75.4h8.7
							c3.2,0,5.7,0.8,7.4,2.5c1.8,1.7,2.6,4,2.6,7.1c0,3.1-0.9,5.4-2.6,7.1c-1.8,1.7-4.2,2.5-7.4,2.5H-2365.2z M-2372.1,100.2h15.6
							c5.7,0,10-1.3,13-3.9c2.9-2.6,4.4-6.4,4.4-11.4c0-5-1.5-8.8-4.4-11.4c-2.9-2.6-7.2-3.9-13-3.9h-8.7V49.2h-6.9V100.2z"/>
					</g>
				</g>
			</g>
		</g>
		<g id="xtick_12">
			<g id="line2d_18">
				<g>
					<defs>
						<path id="SVGID_00000155118454102591108420000013497041768501533876_" d="M137.8,79.8c0-7.3-1.4-14.5-4.2-21.2
							c-2.8-6.7-6.9-12.8-12-17.9c-5.1-5.1-11.2-9.2-17.9-12c-6.7-2.8-13.9-4.2-21.2-4.2c-7.3,0-14.5,1.4-21.2,4.2
							c-6.7,2.8-12.8,6.9-17.9,12s-9.2,11.2-12,17.9c-2.8,6.7-4.2,13.9-4.2,21.2s1.4,14.5,4.2,21.2c2.8,6.7,6.9,12.8,12,17.9
							c5.1,5.1,11.2,9.2,17.9,12c6.7,2.8,13.9,4.2,21.2,4.2c7.3,0,14.5-1.4,21.2-4.2c6.7-2.8,12.8-6.9,17.9-12
							c5.1-5.1,9.2-11.2,12-17.9C136.4,94.2,137.8,87,137.8,79.8 M82.5,79.8L82.5,79.8L82.5,79.8L82.5,79.8L82.5,79.8L82.5,79.8
							L82.5,79.8L82.5,79.8L82.5,79.8L82.5,79.8L82.5,79.8L82.5,79.8L82.5,79.8L82.5,79.8L82.5,79.8L82.5,79.8L82.5,79.8z"/>
					</defs>
					<clipPath id="SVGID_00000072267992907162828630000010673608465222373524_">
						<use xlink:href="#SVGID_00000155118454102591108420000013497041768501533876_"  style="overflow:visible;"/>
					</clipPath>
					
						<path style="clip-path:url(#SVGID_00000072267992907162828630000010673608465222373524_);fill:none;stroke:#B0B1B1;stroke-width:0.5;stroke-linejoin:round;stroke-dasharray:1.85,0.8;" d="
						M82.5,79.8l-7.9,54.8"/>
				</g>
			</g>
			<g id="text_20">
				<g transform="translate(317.671317 157.700827)scale(0.1 -0.1)">
					<g transform="translate(0 0.3125)">
						<path id="DejaVuSans-3c3" class="st14" d="M-2451.7,113.5c-4.9,0-8.8-1.8-11.4-5.4c-2.8-3.7-4.2-8.7-4.2-14.9
							c0-6.5,1.4-11.7,4.2-15.5c2.8-3.8,6.6-5.6,11.5-5.6c4.8,0,8.6,1.9,11.4,5.7c2.8,3.8,4.2,8.9,4.2,15.4c0,6-1.4,10.9-4.2,14.9
							C-2442.9,111.7-2446.6,113.5-2451.7,113.5z M-2451.7,120.6h29.8v-9h-10.1c3.6-5.1,5.3-11.2,5.3-18.4c0-8.9-2.2-16-6.7-21
							c-4.5-5.1-10.6-7.7-18.4-7.7c-7.8,0-14,2.6-18.4,7.7c-4.5,5.1-6.7,12.1-6.7,21c0,9,2.2,16.1,6.7,21.1
							C-2466.4,118.5-2460.3,120.6-2451.7,120.6z"/>
					</g>
				</g>
			</g>
		</g>
		<g id="xtick_13">
			<g id="line2d_19">
				<g>
					<defs>
						<path id="SVGID_00000096039032701163726400000012836327754744572051_" d="M137.8,79.8c0-7.3-1.4-14.5-4.2-21.2
							c-2.8-6.7-6.9-12.8-12-17.9c-5.1-5.1-11.2-9.2-17.9-12c-6.7-2.8-13.9-4.2-21.2-4.2c-7.3,0-14.5,1.4-21.2,4.2
							c-6.7,2.8-12.8,6.9-17.9,12s-9.2,11.2-12,17.9c-2.8,6.7-4.2,13.9-4.2,21.2s1.4,14.5,4.2,21.2c2.8,6.7,6.9,12.8,12,17.9
							c5.1,5.1,11.2,9.2,17.9,12c6.7,2.8,13.9,4.2,21.2,4.2c7.3,0,14.5-1.4,21.2-4.2c6.7-2.8,12.8-6.9,17.9-12
							c5.1-5.1,9.2-11.2,12-17.9C136.4,94.2,137.8,87,137.8,79.8 M82.5,79.8L82.5,79.8L82.5,79.8L82.5,79.8L82.5,79.8L82.5,79.8
							L82.5,79.8L82.5,79.8L82.5,79.8L82.5,79.8L82.5,79.8L82.5,79.8L82.5,79.8L82.5,79.8L82.5,79.8L82.5,79.8L82.5,79.8z"/>
					</defs>
					<clipPath id="SVGID_00000054231107161954777660000015013665418016629381_">
						<use xlink:href="#SVGID_00000096039032701163726400000012836327754744572051_"  style="overflow:visible;"/>
					</clipPath>
					
						<path style="clip-path:url(#SVGID_00000054231107161954777660000015013665418016629381_);fill:none;stroke:#B0B1B1;stroke-width:0.5;stroke-linejoin:round;stroke-dasharray:1.85,0.8;" d="
						M82.5,79.8l23,50.3"/>
				</g>
			</g>
			<g id="text_21">
				<g transform="translate(350.986749 152.141577)scale(0.1 -0.1)">
					<g transform="translate(0 0.3125)">
						<path id="DejaVuSans-3c3_00000159446653697699528780000002872756440226916736_" class="st14" d="M-2451.7,113.5
							c-4.9,0-8.8-1.8-11.4-5.4c-2.8-3.7-4.2-8.7-4.2-14.9c0-6.5,1.4-11.7,4.2-15.5c2.8-3.8,6.6-5.6,11.5-5.6
							c4.8,0,8.6,1.9,11.4,5.7c2.8,3.8,4.2,8.9,4.2,15.4c0,6-1.4,10.9-4.2,14.9C-2442.9,111.7-2446.6,113.5-2451.7,113.5z
							 M-2451.7,120.6h29.8v-9h-10.1c3.6-5.1,5.3-11.2,5.3-18.4c0-8.9-2.2-16-6.7-21c-4.5-5.1-10.6-7.7-18.4-7.7
							c-7.8,0-14,2.6-18.4,7.7c-4.5,5.1-6.7,12.1-6.7,21c0,9,2.2,16.1,6.7,21.1C-2466.4,118.5-2460.3,120.6-2451.7,120.6z"/>
					</g>
					<g transform="translate(64.335938 -16.09375)scale(0.7)">
						<path id="DejaVuSans-4f_00000158724696536768510610000008980518238261327767_" class="st14" d="M-2390.4,95.9
							c-5,0-9-1.9-12-5.6c-2.9-3.7-4.4-8.8-4.4-15.3c0-6.4,1.5-11.5,4.4-15.2c3-3.7,6.9-5.6,12-5.6c5,0,9,1.9,11.9,5.6
							c2.9,3.7,4.4,8.8,4.4,15.2c0,6.5-1.5,11.5-4.4,15.3C-2381.4,94-2385.3,95.9-2390.4,95.9z M-2390.4,101.5
							c7.2,0,12.9-2.4,17.2-7.2c4.3-4.8,6.4-11.2,6.4-19.3c0-8-2.1-14.5-6.4-19.3c-4.3-4.8-10-7.2-17.2-7.2
							c-7.2,0-12.9,2.4-17.2,7.2c-4.3,4.8-6.4,11.2-6.4,19.3s2.1,14.5,6.4,19.3C-2403.3,99.1-2397.5,101.5-2390.4,101.5z"/>
					</g>
					<g transform="translate(119.433594 -16.09375)scale(0.7)">
						<path id="DejaVuSans-41_00000157285745988380747860000016818419755084239292_" class="st14" d="M-2338.9,93.8l-9.4-25.4h18.8
							L-2338.9,93.8z M-2342.8,100.6h7.8l19.4-51h-7.2l-4.6,13.1h-23l-4.6-13.1h-7.3L-2342.8,100.6z"/>
					</g>
				</g>
			</g>
		</g>
		<g id="xtick_14">
			<g id="line2d_20">
				<g>
					<defs>
						<path id="SVGID_00000041290193184462119020000014561765908221540485_" d="M137.8,79.8c0-7.3-1.4-14.5-4.2-21.2
							c-2.8-6.7-6.9-12.8-12-17.9c-5.1-5.1-11.2-9.2-17.9-12c-6.7-2.8-13.9-4.2-21.2-4.2c-7.3,0-14.5,1.4-21.2,4.2
							c-6.7,2.8-12.8,6.9-17.9,12s-9.2,11.2-12,17.9c-2.8,6.7-4.2,13.9-4.2,21.2s1.4,14.5,4.2,21.2c2.8,6.7,6.9,12.8,12,17.9
							c5.1,5.1,11.2,9.2,17.9,12c6.7,2.8,13.9,4.2,21.2,4.2c7.3,0,14.5-1.4,21.2-4.2c6.7-2.8,12.8-6.9,17.9-12
							c5.1-5.1,9.2-11.2,12-17.9C136.4,94.2,137.8,87,137.8,79.8 M82.5,79.8L82.5,79.8L82.5,79.8L82.5,79.8L82.5,79.8L82.5,79.8
							L82.5,79.8L82.5,79.8L82.5,79.8L82.5,79.8L82.5,79.8L82.5,79.8L82.5,79.8L82.5,79.8L82.5,79.8L82.5,79.8L82.5,79.8z"/>
					</defs>
					<clipPath id="SVGID_00000060015640117179248790000007124365471542568326_">
						<use xlink:href="#SVGID_00000041290193184462119020000014561765908221540485_"  style="overflow:visible;"/>
					</clipPath>
					
						<path style="clip-path:url(#SVGID_00000060015640117179248790000007124365471542568326_);fill:none;stroke:#B0B1B1;stroke-width:0.5;stroke-linejoin:round;stroke-dasharray:1.85,0.8;" d="
						M82.5,79.8l46.5,29.9"/>
				</g>
			</g>
			<g id="text_22">
				<g transform="translate(381.608623 126.560728)scale(0.1 -0.1)">
					<g transform="translate(0 0.3125)">
						<path id="DejaVuSans-3c3_00000052797039358092818390000009660414270051303592_" class="st14" d="M-2451.7,113.5
							c-4.9,0-8.8-1.8-11.4-5.4c-2.8-3.7-4.2-8.7-4.2-14.9c0-6.5,1.4-11.7,4.2-15.5c2.8-3.8,6.6-5.6,11.5-5.6
							c4.8,0,8.6,1.9,11.4,5.7c2.8,3.8,4.2,8.9,4.2,15.4c0,6-1.4,10.9-4.2,14.9C-2442.9,111.7-2446.6,113.5-2451.7,113.5z
							 M-2451.7,120.6h29.8v-9h-10.1c3.6-5.1,5.3-11.2,5.3-18.4c0-8.9-2.2-16-6.7-21c-4.5-5.1-10.6-7.7-18.4-7.7
							c-7.8,0-14,2.6-18.4,7.7c-4.5,5.1-6.7,12.1-6.7,21c0,9,2.2,16.1,6.7,21.1C-2466.4,118.5-2460.3,120.6-2451.7,120.6z"/>
					</g>
					<g transform="translate(64.335938 -16.09375)scale(0.7)">
						<path id="DejaVuSans-4c_00000031912920833145892860000001263414927106507189_" class="st14" d="M-2411.1,100.6h6.9V55.3h24.8
							v-5.8h-31.8V100.6z"/>
					</g>
					<g transform="translate(103.334961 -16.09375)scale(0.7)">
						<path id="DejaVuSans-50_00000181767860372965153250000017505306787236912301_" class="st14" d="M-2365.2,94.9V75.7h8.7
							c3.2,0,5.7,0.8,7.4,2.5c1.8,1.7,2.6,4,2.6,7.1c0,3.1-0.9,5.4-2.6,7.1c-1.8,1.7-4.2,2.5-7.4,2.5H-2365.2z M-2372.1,100.6h15.6
							c5.7,0,10-1.3,13-3.9c2.9-2.6,4.4-6.4,4.4-11.4c0-5-1.5-8.8-4.4-11.4c-2.9-2.6-7.2-3.9-13-3.9h-8.7V49.5h-6.9V100.6z"/>
					</g>
				</g>
			</g>
		</g>
	</g>
	<g id="matplotlib.axis_4">
		<g id="ytick_6">
			<g id="line2d_21">
				<g>
					<defs>
						<path id="SVGID_00000169540849501232287490000015007075160804659865_" d="M137.8,79.8c0-7.3-1.4-14.5-4.2-21.2
							c-2.8-6.7-6.9-12.8-12-17.9c-5.1-5.1-11.2-9.2-17.9-12c-6.7-2.8-13.9-4.2-21.2-4.2c-7.3,0-14.5,1.4-21.2,4.2
							c-6.7,2.8-12.8,6.9-17.9,12s-9.2,11.2-12,17.9c-2.8,6.7-4.2,13.9-4.2,21.2s1.4,14.5,4.2,21.2c2.8,6.7,6.9,12.8,12,17.9
							c5.1,5.1,11.2,9.2,17.9,12c6.7,2.8,13.9,4.2,21.2,4.2c7.3,0,14.5-1.4,21.2-4.2c6.7-2.8,12.8-6.9,17.9-12
							c5.1-5.1,9.2-11.2,12-17.9C136.4,94.2,137.8,87,137.8,79.8 M82.5,79.8L82.5,79.8L82.5,79.8L82.5,79.8L82.5,79.8L82.5,79.8
							L82.5,79.8L82.5,79.8L82.5,79.8L82.5,79.8L82.5,79.8L82.5,79.8L82.5,79.8L82.5,79.8L82.5,79.8L82.5,79.8L82.5,79.8z"/>
					</defs>
					<clipPath id="SVGID_00000007409735336404973940000011968615297451500165_">
						<use xlink:href="#SVGID_00000169540849501232287490000015007075160804659865_"  style="overflow:visible;"/>
					</clipPath>
					
						<path style="clip-path:url(#SVGID_00000007409735336404973940000011968615297451500165_);fill:none;stroke:#B0B1B1;stroke-width:0.8;stroke-linecap:square;stroke-linejoin:round;" d="
						M85.5,79.8c0-0.4-0.1-0.8-0.2-1.2c-0.2-0.4-0.4-0.7-0.7-1s-0.6-0.5-1-0.7s-0.8-0.2-1.2-0.2c-0.4,0-0.8,0.1-1.2,0.2
						s-0.7,0.4-1,0.7s-0.5,0.6-0.7,1c-0.2,0.4-0.2,0.8-0.2,1.2c0,0.4,0.1,0.8,0.2,1.2c0.2,0.4,0.4,0.7,0.7,1c0.3,0.3,0.6,0.5,1,0.7
						s0.8,0.2,1.2,0.2c0.4,0,0.8-0.1,1.2-0.2s0.7-0.4,1-0.7c0.3-0.3,0.5-0.6,0.7-1C85.5,80.6,85.5,80.2,85.5,79.8"/>
				</g>
			</g>
		</g>
	</g>
</g>
</svg>
