<svg id="Layer_1" data-name="Layer 1" xmlns="http://www.w3.org/2000/svg" xmlns:xlink="http://www.w3.org/1999/xlink" viewBox="0 0 422.47 170.79"><defs><style>.cls-1,.cls-8,.cls-9{fill:none;}.cls-2{fill:#fff;}.cls-3{clip-path:url(#clip-path);}.cls-4,.cls-5{fill:#818181;}.cls-4,.cls-5,.cls-8{stroke:#818181;}.cls-4,.cls-6,.cls-8{stroke-linejoin:round;}.cls-4{stroke-width:0.1px;}.cls-5{isolation:isolate;opacity:0.2;}.cls-6,.cls-7{fill:#010101;}.cls-6,.cls-9{stroke:#010101;stroke-width:0.8px;}.cls-8,.cls-9{stroke-linecap:square;}.cls-8{stroke-width:0.3px;}.cls-10{clip-path:url(#clip-path-96);}.cls-11{clip-path:url(#clip-path-191);}</style><clipPath id="clip-path"><rect class="cls-1" x="42.44" y="22.37" width="114.52" height="110.65"/></clipPath><clipPath id="clip-path-96"><rect class="cls-1" x="171.5" y="22.37" width="114.52" height="110.65"/></clipPath><clipPath id="clip-path-191"><rect class="cls-1" x="300.57" y="22.37" width="114.52" height="110.65"/></clipPath></defs><g id="axes_3" data-name="axes 3"><g id="patch_18" data-name="patch 18"><path class="cls-2" d="M42.44,133H157V22.37H42.44Z"/></g><g id="PathCollection_2" data-name="PathCollection 2"><g class="cls-3"><path id="C0_0_3a4158b006" data-name="C0 0 3a4158b006" class="cls-4" d="M66.52,58.65a1.23,1.23,0,0,0,1.22-1.23,1.24,1.24,0,0,0-.36-.87,1.24,1.24,0,0,0-1.73,0,1.24,1.24,0,0,0-.36.87,1.23,1.23,0,0,0,1.23,1.23Z"/></g><g class="cls-3"><path id="C0_0_3a4158b006-2" data-name="C0 0 3a4158b006" class="cls-4" d="M127.31,39.09a1.26,1.26,0,0,0,.87-.35,1.24,1.24,0,0,0,.36-.87,1.23,1.23,0,1,0-2.45,0,1.21,1.21,0,0,0,1.22,1.22Z"/></g></g><g id="PathCollection_3" data-name="PathCollection 3"><g class="cls-3"><path id="C1_0_df4b8a5c0d" data-name="C1 0 df4b8a5c0d" class="cls-4" d="M66.52,35.64a1.23,1.23,0,1,0-.87-.36A1.22,1.22,0,0,0,66.52,35.64Z"/></g><g class="cls-3"><path id="C1_0_df4b8a5c0d-2" data-name="C1 0 df4b8a5c0d" class="cls-4" d="M127.31,105.64a1.23,1.23,0,1,0-.86-.36A1.23,1.23,0,0,0,127.31,105.64Z"/></g></g><g id="PathCollection_4" data-name="PathCollection 4"><g class="cls-3"><path id="C2_0_3c071ad275" data-name="C2 0 3c071ad275" class="cls-4" d="M66.52,95.55a1.22,1.22,0,0,0,.86-.36,1.2,1.2,0,0,0,.36-.86,1.23,1.23,0,1,0-2.45,0,1.2,1.2,0,0,0,.36.86A1.23,1.23,0,0,0,66.52,95.55Z"/></g><g class="cls-3"><path id="C2_0_3c071ad275-2" data-name="C2 0 3c071ad275" class="cls-4" d="M127.31,48.61a1.23,1.23,0,1,0-.86-.36A1.23,1.23,0,0,0,127.31,48.61Z"/></g></g><g id="PathCollection_5" data-name="PathCollection 5"><g class="cls-3"><path id="C3_0_96487e92bf" data-name="C3 0 96487e92bf" class="cls-4" d="M66.52,44.79a1.23,1.23,0,1,0-.87-.36A1.22,1.22,0,0,0,66.52,44.79Z"/></g><g class="cls-3"><path id="C3_0_96487e92bf-2" data-name="C3 0 96487e92bf" class="cls-4" d="M127.31,110.52a1.23,1.23,0,1,0-.86-.36A1.23,1.23,0,0,0,127.31,110.52Z"/></g></g><g id="PathCollection_6" data-name="PathCollection 6"><g class="cls-3"><path id="C4_0_1a2951cd03" data-name="C4 0 1a2951cd03" class="cls-4" d="M66.52,83.91a1.23,1.23,0,1,0-.87-.36A1.22,1.22,0,0,0,66.52,83.91Z"/></g><g class="cls-3"><path id="C4_0_1a2951cd03-2" data-name="C4 0 1a2951cd03" class="cls-4" d="M127.31,47.38a1.23,1.23,0,1,0-.86-.36A1.23,1.23,0,0,0,127.31,47.38Z"/></g></g><g id="PathCollection_7" data-name="PathCollection 7"><g class="cls-3"><path id="C5_0_65cd6f346f" data-name="C5 0 65cd6f346f" class="cls-4" d="M66.52,50a1.23,1.23,0,1,0-.87-.36A1.22,1.22,0,0,0,66.52,50Z"/></g><g class="cls-3"><path id="C5_0_65cd6f346f-2" data-name="C5 0 65cd6f346f" class="cls-4" d="M127.31,115.68a1.23,1.23,0,1,0-.86-.36A1.23,1.23,0,0,0,127.31,115.68Z"/></g></g><g id="PathCollection_8" data-name="PathCollection 8"><g class="cls-3"><path id="C6_0_8367668c72" data-name="C6 0 8367668c72" class="cls-4" d="M66.52,45.06a1.23,1.23,0,1,0-.87-.36A1.22,1.22,0,0,0,66.52,45.06Z"/></g><g class="cls-3"><path id="C6_0_8367668c72-2" data-name="C6 0 8367668c72" class="cls-4" d="M127.31,115.22a1.23,1.23,0,0,0,1.23-1.23,1.24,1.24,0,0,0-.36-.87,1.24,1.24,0,0,0-1.73,0,1.24,1.24,0,0,0-.36.87,1.23,1.23,0,0,0,1.22,1.23Z"/></g></g><g id="PathCollection_9" data-name="PathCollection 9"><g class="cls-3"><path id="C7_0_0974880edf" data-name="C7 0 0974880edf" class="cls-4" d="M66.52,44.9a1.23,1.23,0,1,0-.87-.36A1.22,1.22,0,0,0,66.52,44.9Z"/></g><g class="cls-3"><path id="C7_0_0974880edf-2" data-name="C7 0 0974880edf" class="cls-4" d="M127.31,63.11a1.23,1.23,0,0,0,.87-.36,1.2,1.2,0,0,0,.36-.86,1.23,1.23,0,1,0-2.45,0,1.2,1.2,0,0,0,.36.86A1.22,1.22,0,0,0,127.31,63.11Z"/></g></g><g id="PathCollection_10" data-name="PathCollection 10"><g class="cls-3"><path id="C8_0_15bf394944" data-name="C8 0 15bf394944" class="cls-4" d="M66.52,70.14a1.23,1.23,0,1,0-.87-.36A1.22,1.22,0,0,0,66.52,70.14Z"/></g><g class="cls-3"><path id="C8_0_15bf394944-2" data-name="C8 0 15bf394944" class="cls-4" d="M127.31,117.39a1.23,1.23,0,1,0-.86-.36A1.23,1.23,0,0,0,127.31,117.39Z"/></g></g><g id="PathCollection_11" data-name="PathCollection 11"><g class="cls-3"><path id="C9_0_699906cbb6" data-name="C9 0 699906cbb6" class="cls-4" d="M66.52,44a1.23,1.23,0,1,0-.87-.36A1.22,1.22,0,0,0,66.52,44Z"/></g><g class="cls-3"><path id="C9_0_699906cbb6-2" data-name="C9 0 699906cbb6" class="cls-4" d="M127.31,46.24a1.23,1.23,0,1,0-.86-.36A1.23,1.23,0,0,0,127.31,46.24Z"/></g></g><g id="PathCollection_12" data-name="PathCollection 12"><g class="cls-3"><path id="Ca_0_ac0ba1ecaf" data-name="Ca 0 ac0ba1ecaf" class="cls-4" d="M66.52,29.56a1.23,1.23,0,1,0-.87-.36A1.22,1.22,0,0,0,66.52,29.56Z"/></g><g class="cls-3"><path id="Ca_0_ac0ba1ecaf-2" data-name="Ca 0 ac0ba1ecaf" class="cls-4" d="M127.31,58.3a1.23,1.23,0,1,0-.86-.36A1.23,1.23,0,0,0,127.31,58.3Z"/></g></g><g id="PathCollection_13" data-name="PathCollection 13"><g class="cls-3"><path id="Cb_0_0005e513fa" data-name="Cb 0 0005e513fa" class="cls-4" d="M66.52,43.08a1.23,1.23,0,1,0-.87-.36A1.22,1.22,0,0,0,66.52,43.08Z"/></g><g class="cls-3"><path id="Cb_0_0005e513fa-2" data-name="Cb 0 0005e513fa" class="cls-4" d="M127.31,39.82a1.23,1.23,0,0,0,1.23-1.23,1.24,1.24,0,0,0-.36-.87,1.24,1.24,0,0,0-1.73,0,1.24,1.24,0,0,0-.36.87,1.23,1.23,0,0,0,1.22,1.23Z"/></g></g><g id="PathCollection_14" data-name="PathCollection 14"><g class="cls-3"><path id="Cc_0_fc067db8f0" data-name="Cc 0 fc067db8f0" class="cls-4" d="M66.52,45.41a1.23,1.23,0,1,0-.87-.36A1.22,1.22,0,0,0,66.52,45.41Z"/></g><g class="cls-3"><path id="Cc_0_fc067db8f0-2" data-name="Cc 0 fc067db8f0" class="cls-4" d="M127.31,40.15a1.23,1.23,0,1,0-.86-.36A1.23,1.23,0,0,0,127.31,40.15Z"/></g></g><g id="PathCollection_15" data-name="PathCollection 15"><g class="cls-3"><path id="Cd_0_ada59ed6c7" data-name="Cd 0 ada59ed6c7" class="cls-4" d="M66.52,47.2A1.23,1.23,0,0,0,67.74,46a1.21,1.21,0,0,0-1.22-1.22,1.26,1.26,0,0,0-.87.35,1.24,1.24,0,0,0-.36.87,1.23,1.23,0,0,0,1.23,1.23Z"/></g><g class="cls-3"><path id="Cd_0_ada59ed6c7-2" data-name="Cd 0 ada59ed6c7" class="cls-4" d="M127.31,35.16a1.23,1.23,0,1,0-.86-.36A1.23,1.23,0,0,0,127.31,35.16Z"/></g></g><g id="PathCollection_16" data-name="PathCollection 16"><g class="cls-3"><path id="Ce_0_386b9bc5b6" data-name="Ce 0 386b9bc5b6" class="cls-4" d="M66.52,40.14a1.21,1.21,0,0,0,.86-.35,1.23,1.23,0,0,0,0-1.74,1.24,1.24,0,0,0-1.73,0,1.23,1.23,0,0,0,0,1.74A1.22,1.22,0,0,0,66.52,40.14Z"/></g><g class="cls-3"><path id="Ce_0_386b9bc5b6-2" data-name="Ce 0 386b9bc5b6" class="cls-4" d="M127.31,114.78a1.23,1.23,0,1,0-.86-.36A1.23,1.23,0,0,0,127.31,114.78Z"/></g></g><g id="PathCollection_17" data-name="PathCollection 17"><g class="cls-3"><path id="Cf_0_0118898f7b" data-name="Cf 0 0118898f7b" class="cls-4" d="M66.52,71.9a1.23,1.23,0,1,0-.87-.36A1.22,1.22,0,0,0,66.52,71.9Z"/></g><g class="cls-3"><path id="Cf_0_0118898f7b-2" data-name="Cf 0 0118898f7b" class="cls-4" d="M127.31,106.75a1.23,1.23,0,1,0-.86-.36A1.23,1.23,0,0,0,127.31,106.75Z"/></g></g><g id="PathCollection_18" data-name="PathCollection 18"><g class="cls-3"><path id="C10_0_d387f75bff" data-name="C10 0 d387f75bff" class="cls-4" d="M66.52,80.39a1.23,1.23,0,1,0-.87-.36A1.22,1.22,0,0,0,66.52,80.39Z"/></g><g class="cls-3"><path id="C10_0_d387f75bff-2" data-name="C10 0 d387f75bff" class="cls-4" d="M127.31,93.86a1.23,1.23,0,1,0-.86-.36A1.23,1.23,0,0,0,127.31,93.86Z"/></g></g><g id="PathCollection_19" data-name="PathCollection 19"><g class="cls-3"><path id="C11_0_1d8e5bc902" data-name="C11 0 1d8e5bc902" class="cls-4" d="M66.52,58.72a1.21,1.21,0,0,0,1.22-1.22,1.23,1.23,0,1,0-2.45,0,1.24,1.24,0,0,0,.36.87A1.26,1.26,0,0,0,66.52,58.72Z"/></g><g class="cls-3"><path id="C11_0_1d8e5bc902-2" data-name="C11 0 1d8e5bc902" class="cls-4" d="M127.31,57.36a1.23,1.23,0,0,0,.87-.36,1.2,1.2,0,0,0,.36-.86,1.23,1.23,0,1,0-2.45,0,1.2,1.2,0,0,0,.36.86A1.22,1.22,0,0,0,127.31,57.36Z"/></g></g><g id="PathCollection_20" data-name="PathCollection 20"><g class="cls-3"><path id="C12_0_4d55480450" data-name="C12 0 4d55480450" class="cls-4" d="M66.52,61a1.22,1.22,0,0,0,.86-.36,1.2,1.2,0,0,0,.36-.86,1.23,1.23,0,1,0-2.45,0,1.2,1.2,0,0,0,.36.86A1.23,1.23,0,0,0,66.52,61Z"/></g><g class="cls-3"><path id="C12_0_4d55480450-2" data-name="C12 0 4d55480450" class="cls-4" d="M127.31,88a1.23,1.23,0,1,0-.86-.36A1.23,1.23,0,0,0,127.31,88Z"/></g></g><g id="PathCollection_21" data-name="PathCollection 21"><g class="cls-3"><path id="C13_0_b93a1f8cc8" data-name="C13 0 b93a1f8cc8" class="cls-4" d="M66.52,49.16a1.21,1.21,0,0,0,.86-.35,1.24,1.24,0,0,0,.36-.87,1.23,1.23,0,1,0-2.45,0,1.24,1.24,0,0,0,.36.87A1.22,1.22,0,0,0,66.52,49.16Z"/></g><g class="cls-3"><path id="C13_0_b93a1f8cc8-2" data-name="C13 0 b93a1f8cc8" class="cls-4" d="M127.31,101a1.23,1.23,0,0,0,1.23-1.23,1.2,1.2,0,0,0-.36-.86,1.22,1.22,0,0,0-1.73,0,1.2,1.2,0,0,0-.36.86,1.23,1.23,0,0,0,1.22,1.23Z"/></g></g><g id="PathCollection_22" data-name="PathCollection 22"><g class="cls-3"><path id="C14_0_38c98d050e" data-name="C14 0 38c98d050e" class="cls-4" d="M66.52,69a1.23,1.23,0,1,0-.87-.36A1.22,1.22,0,0,0,66.52,69Z"/></g><g class="cls-3"><path id="C14_0_38c98d050e-2" data-name="C14 0 38c98d050e" class="cls-4" d="M127.31,83.59a1.23,1.23,0,1,0-.86-.36A1.23,1.23,0,0,0,127.31,83.59Z"/></g></g><g id="PathCollection_23" data-name="PathCollection 23"><g class="cls-3"><path id="C15_0_edec8abad6" data-name="C15 0 edec8abad6" class="cls-4" d="M66.52,51.45a1.21,1.21,0,0,0,.86-.35,1.23,1.23,0,0,0,0-1.74,1.24,1.24,0,0,0-1.73,0,1.23,1.23,0,0,0,0,1.74A1.22,1.22,0,0,0,66.52,51.45Z"/></g><g class="cls-3"><path id="C15_0_edec8abad6-2" data-name="C15 0 edec8abad6" class="cls-4" d="M127.31,95.13a1.22,1.22,0,0,0,.87-.35,1.24,1.24,0,0,0,.36-.87,1.23,1.23,0,1,0-2.45,0,1.24,1.24,0,0,0,.36.87A1.21,1.21,0,0,0,127.31,95.13Z"/></g></g><g id="PathCollection_24" data-name="PathCollection 24"><g class="cls-3"><path id="C16_0_d75a32596d" data-name="C16 0 d75a32596d" class="cls-4" d="M66.52,36.58a1.23,1.23,0,1,0-.87-.36A1.22,1.22,0,0,0,66.52,36.58Z"/></g><g class="cls-3"><path id="C16_0_d75a32596d-2" data-name="C16 0 d75a32596d" class="cls-4" d="M127.31,113.45a1.23,1.23,0,1,0-.86-.36A1.23,1.23,0,0,0,127.31,113.45Z"/></g></g><g id="PathCollection_25" data-name="PathCollection 25"><g class="cls-3"><path id="C17_0_1b0fd8b2a0" data-name="C17 0 1b0fd8b2a0" class="cls-4" d="M66.52,41.48a1.23,1.23,0,1,0-.87-.36A1.22,1.22,0,0,0,66.52,41.48Z"/></g><g class="cls-3"><path id="C17_0_1b0fd8b2a0-2" data-name="C17 0 1b0fd8b2a0" class="cls-4" d="M127.31,93.58a1.23,1.23,0,1,0-.86-.36A1.23,1.23,0,0,0,127.31,93.58Z"/></g></g><g id="PathCollection_26" data-name="PathCollection 26"><g class="cls-3"><path id="C18_0_58f754e7c3" data-name="C18 0 58f754e7c3" class="cls-4" d="M66.52,45.89a1.23,1.23,0,1,0-.87-.36A1.22,1.22,0,0,0,66.52,45.89Z"/></g><g class="cls-3"><path id="C18_0_58f754e7c3-2" data-name="C18 0 58f754e7c3" class="cls-4" d="M127.31,50a1.23,1.23,0,1,0-.86-.36A1.23,1.23,0,0,0,127.31,50Z"/></g></g><g id="PathCollection_27" data-name="PathCollection 27"><g class="cls-3"><path id="C19_0_13cb340f61" data-name="C19 0 13cb340f61" class="cls-4" d="M66.52,54.59a1.22,1.22,0,0,0,.86-.36,1.2,1.2,0,0,0,.36-.86,1.23,1.23,0,1,0-2.45,0,1.2,1.2,0,0,0,.36.86A1.23,1.23,0,0,0,66.52,54.59Z"/></g><g class="cls-3"><path id="C19_0_13cb340f61-2" data-name="C19 0 13cb340f61" class="cls-4" d="M127.31,33.22a1.23,1.23,0,1,0-.86-.36A1.23,1.23,0,0,0,127.31,33.22Z"/></g></g><g id="PathCollection_28" data-name="PathCollection 28"><g class="cls-3"><path id="C1a_0_a56c32a5d7" data-name="C1a 0 a56c32a5d7" class="cls-4" d="M66.52,45.58a1.23,1.23,0,1,0-.87-.36A1.22,1.22,0,0,0,66.52,45.58Z"/></g><g class="cls-3"><path id="C1a_0_a56c32a5d7-2" data-name="C1a 0 a56c32a5d7" class="cls-4" d="M127.31,51.44a1.22,1.22,0,0,0,.87-.35,1.23,1.23,0,0,0,0-1.74,1.24,1.24,0,0,0-1.73,0,1.23,1.23,0,0,0,0,1.74A1.21,1.21,0,0,0,127.31,51.44Z"/></g></g><g id="PathCollection_29" data-name="PathCollection 29"><g class="cls-3"><path id="C1b_0_90464bdd28" data-name="C1b 0 90464bdd28" class="cls-4" d="M66.52,66.4a1.23,1.23,0,1,0-.87-.36A1.22,1.22,0,0,0,66.52,66.4Z"/></g><g class="cls-3"><path id="C1b_0_90464bdd28-2" data-name="C1b 0 90464bdd28" class="cls-4" d="M127.31,41.11a1.26,1.26,0,0,0,.87-.35,1.24,1.24,0,0,0,.36-.87,1.23,1.23,0,1,0-2.45,0,1.21,1.21,0,0,0,1.22,1.22Z"/></g></g><g id="PathCollection_30" data-name="PathCollection 30"><g class="cls-3"><path id="C1c_0_71590d5d25" data-name="C1c 0 71590d5d25" class="cls-4" d="M66.52,44.33a1.23,1.23,0,1,0-.87-.36A1.22,1.22,0,0,0,66.52,44.33Z"/></g><g class="cls-3"><path id="C1c_0_71590d5d25-2" data-name="C1c 0 71590d5d25" class="cls-4" d="M127.31,50.31a1.22,1.22,0,0,0,.87-.35,1.23,1.23,0,0,0,0-1.74,1.24,1.24,0,0,0-1.73,0,1.23,1.23,0,0,0,0,1.74A1.21,1.21,0,0,0,127.31,50.31Z"/></g></g><g id="PathCollection_31" data-name="PathCollection 31"><g class="cls-3"><path id="C1d_0_726a3937e1" data-name="C1d 0 726a3937e1" class="cls-4" d="M66.52,36.74a1.23,1.23,0,1,0-.87-.36A1.22,1.22,0,0,0,66.52,36.74Z"/></g><g class="cls-3"><path id="C1d_0_726a3937e1-2" data-name="C1d 0 726a3937e1" class="cls-4" d="M127.31,57.1a1.23,1.23,0,1,0-.86-.36A1.23,1.23,0,0,0,127.31,57.1Z"/></g></g><g id="PathCollection_32" data-name="PathCollection 32"><g class="cls-3"><path id="C1e_0_37cdcde39c" data-name="C1e 0 37cdcde39c" class="cls-4" d="M66.52,49.46a1.23,1.23,0,0,0,1.22-1.23A1.21,1.21,0,0,0,66.52,47a1.26,1.26,0,0,0-.87.35,1.24,1.24,0,0,0-.36.87,1.23,1.23,0,0,0,1.23,1.23Z"/></g><g class="cls-3"><path id="C1e_0_37cdcde39c-2" data-name="C1e 0 37cdcde39c" class="cls-4" d="M127.31,62.48a1.23,1.23,0,1,0-.86-.36A1.23,1.23,0,0,0,127.31,62.48Z"/></g></g><g id="patch_19" data-name="patch 19"><g class="cls-3"><path class="cls-5" d="M66.51,125v-9.67l0-1.07,0-1.07,0-1.08,0-1.07,0-1.07-.06-1.08-.06-1.07-.07-1.07L66,105.62l-.09-1.07-.1-1.07-.1-1.08-.11-1.07-.12-1.07-.12-1.08-.13-1.07L65.13,97,65,96l-.13-1.07-.14-1.07-.14-1.08-.14-1.07-.15-1.08-.15-1.07L64,88.45l-.16-1.08-.18-1.07-.18-1.07-.19-1.08-.2-1.07L62.87,82l-.22-1.08-.24-1.07-.24-1.07-.25-1.08-.26-1.07-.26-1.07-.28-1.08-.28-1.07-.28-1.07-.29-1.08L60,70.2l-.3-1.07-.32-1.08L59,67l-.35-1.07-.37-1.08-.4-1.07-.44-1.07L57,61.61l-.52-1.07-.58-1.08-.63-1.07-.68-1.07-.72-1.08-.76-1.07-.78-1.07L51.53,53,50.75,52,50,50.88l-.68-1.08-.59-1.07-.48-1.07-.36-1.08-.21-1.07-.05-1.07.11-1.08L48,42.29l.44-1.07.59-1.08.73-1.07L50.63,38l.94-1.08,1-1.07,1.07-1.07,1.08-1.08,1.1-1.07,1.07-1.07,1-1.08,1-1.07.94-1.08.86-1.07.8-1.07.72-1.08L62.9,24,63.47,23,64,21.89l.44-1.07.38-1.07.32-1.08Z"/></g></g><g id="patch_20" data-name="patch 20"><g class="cls-3"><path class="cls-5" d="M133.23,125l1-1.08,1.06-1.07,1.11-1.07,1.13-1.08,1.12-1.07,1.11-1.08,1.05-1.07,1-1.07.87-1.08.76-1.07.63-1.07.49-1.08.35-1.07.22-1.07.09-1.08,0-1.07L145,106.7l-.19-1.08-.25-1.07-.29-1.07L144,102.4l-.33-1.07-.34-1.07L143,99.18l-.34-1.07L142.32,97,142,96l-.35-1.07-.37-1.07-.4-1.08-.43-1.07L140,90.59l-.51-1.07-.54-1.07-.58-1.08-.6-1.07-.63-1.07-.64-1.08-.63-1.07L135.23,82l-.59-1.08-.53-1.07-.46-1.07-.38-1.08L133,76.64l-.17-1.07,0-1.08.08-1.07.22-1.07.35-1.08.49-1.07.62-1.07.75-1.08.86-1.07,1-1.07,1-1.08,1.09-1.07,1.15-1.07,1.16-1.08,1.17-1.07,1.15-1.08L145,58.39l1.08-1.07,1-1.08.93-1.07.86-1.07L149.6,53l.65-1.07.54-1.07.43-1.08.3-1.07.18-1.07.06-1.08-.08-1.07-.21-1.07-.34-1.08-.47-1.07-.59-1.07-.72-1.08-.84-1.07L147.57,38l-1-1.08-1.12-1.07-1.2-1.07L143,33.7l-1.28-1.07-1.29-1.07-1.28-1.08-1.26-1.07-1.23-1.08-1.16-1.07-1.09-1.07-1-1.08L132.44,24,131.6,23l-.74-1.08-.64-1.07-.56-1.07-.47-1.08Z"/></g></g><g id="matplotlib.axis_5" data-name="matplotlib.axis 5"><g id="xtick_16" data-name="xtick 16"><g id="line2d_23" data-name="line2d 23"><path id="m4c5949c2dc" class="cls-6" d="M66.52,133v3.5"/></g><g id="text_24" data-name="text 24"><path id="DejaVuSans-70" class="cls-7" d="M60.13,146.8v2.9h-.9v-7.55h.9V143a1.78,1.78,0,0,1,.72-.72,2.09,2.09,0,0,1,1-.24,1.94,1.94,0,0,1,1.62.79,3.8,3.8,0,0,1,0,4.16,1.94,1.94,0,0,1-1.62.79,2.09,2.09,0,0,1-1-.24A1.91,1.91,0,0,1,60.13,146.8Zm3.06-1.91a2.65,2.65,0,0,0-.41-1.56,1.4,1.4,0,0,0-2.24,0,2.65,2.65,0,0,0-.41,1.56,2.6,2.6,0,0,0,.41,1.55,1.39,1.39,0,0,0,2.24,0A2.6,2.6,0,0,0,63.19,144.89Z"/><path id="DejaVuSans-72" class="cls-7" d="M68.78,143a1.2,1.2,0,0,0-.33-.13,1.61,1.61,0,0,0-.39,0,1.42,1.42,0,0,0-1.17.49,2.21,2.21,0,0,0-.41,1.43v2.88h-.9v-5.47h.9V143a1.88,1.88,0,0,1,.74-.74,2.32,2.32,0,0,1,1.1-.24h.21l.25,0Z"/><path id="DejaVuSans-65" class="cls-7" d="M74.18,144.66v.44H70.05a2,2,0,0,0,.55,1.41A1.91,1.91,0,0,0,72,147a3.71,3.71,0,0,0,1-.13,4.15,4.15,0,0,0,1-.38v.85a5.25,5.25,0,0,1-1,.31,5,5,0,0,1-1,.11,2.62,2.62,0,0,1-2.84-2.82,3,3,0,0,1,.72-2.13,2.53,2.53,0,0,1,2-.79,2.23,2.23,0,0,1,1.74.71A2.76,2.76,0,0,1,74.18,144.66Zm-.9-.27a1.75,1.75,0,0,0-.41-1.17,1.4,1.4,0,0,0-1.07-.44,1.69,1.69,0,0,0-1.2.42,1.81,1.81,0,0,0-.53,1.2Z"/></g></g><g id="xtick_17" data-name="xtick 17"><g id="line2d_24" data-name="line2d 24"><path id="m4c5949c2dc-2" data-name="m4c5949c2dc" class="cls-6" d="M127.31,133v3.5"/></g><g id="text_25" data-name="text 25"><path id="DejaVuSans-70-2" data-name="DejaVuSans-70" class="cls-7" d="M118.32,146.8v2.9h-.9v-7.55h.9V143a1.78,1.78,0,0,1,.72-.72,2.09,2.09,0,0,1,1-.24,1.94,1.94,0,0,1,1.62.79,3.75,3.75,0,0,1,0,4.16,1.94,1.94,0,0,1-1.62.79,2.09,2.09,0,0,1-1-.24A1.91,1.91,0,0,1,118.32,146.8Zm3.06-1.91a2.58,2.58,0,0,0-.41-1.56,1.4,1.4,0,0,0-2.24,0,2.65,2.65,0,0,0-.41,1.56,2.6,2.6,0,0,0,.41,1.55,1.39,1.39,0,0,0,2.24,0A2.53,2.53,0,0,0,121.38,144.89Z"/><path id="DejaVuSans-6f" class="cls-7" d="M125.92,142.78a1.36,1.36,0,0,0-1.14.56,2.55,2.55,0,0,0-.42,1.55,2.51,2.51,0,0,0,.42,1.54,1.42,1.42,0,0,0,2.28,0,3,3,0,0,0,0-3.08A1.34,1.34,0,0,0,125.92,142.78Zm0-.76a2.31,2.31,0,0,1,1.84.76,3.66,3.66,0,0,1,0,4.22,2.61,2.61,0,0,1-3.68,0,3.66,3.66,0,0,1,0-4.22A2.31,2.31,0,0,1,125.92,142Z"/><path id="DejaVuSans-73" class="cls-7" d="M133.41,142.31v.85a3.43,3.43,0,0,0-.79-.29,3.47,3.47,0,0,0-.85-.1,2.07,2.07,0,0,0-1,.2.69.69,0,0,0-.33.62.58.58,0,0,0,.24.49,2.85,2.85,0,0,0,1,.34l.31.07a2.84,2.84,0,0,1,1.36.58,1.33,1.33,0,0,1,.4,1,1.43,1.43,0,0,1-.6,1.21,2.8,2.8,0,0,1-1.66.44,4.84,4.84,0,0,1-.91-.09,7.07,7.07,0,0,1-1-.25v-.93a5.26,5.26,0,0,0,1,.39,4,4,0,0,0,1,.13,1.9,1.9,0,0,0,1-.22.7.7,0,0,0,.34-.61.65.65,0,0,0-.25-.56,2.92,2.92,0,0,0-1.08-.38l-.31-.07a2.48,2.48,0,0,1-1.21-.54,1.34,1.34,0,0,1-.37-1,1.39,1.39,0,0,1,.55-1.19,2.49,2.49,0,0,1,1.55-.42,5.69,5.69,0,0,1,.94.07A4,4,0,0,1,133.41,142.31Z"/><path id="DejaVuSans-74" class="cls-7" d="M136,140.6v1.55h1.85v.7H136v3a1.38,1.38,0,0,0,.18.86,1.11,1.11,0,0,0,.75.19h.92v.75H137a2.07,2.07,0,0,1-1.44-.39,2,2,0,0,1-.39-1.41v-3h-.66v-.7h.66V140.6Z"/></g></g><g id="text_26" data-name="text 26"><path id="DejaVuSans-Oblique-43" class="cls-7" d="M97.48,154.65l-.24,1.25a4,4,0,0,0-1.19-.85,3.45,3.45,0,0,0-1.37-.27,3.25,3.25,0,0,0-1.76.48,4.09,4.09,0,0,0-1.31,1.46,5.76,5.76,0,0,0-.53,1.34,5.33,5.33,0,0,0-.19,1.42,2.48,2.48,0,0,0,.62,1.82,2.4,2.4,0,0,0,1.8.63,4.82,4.82,0,0,0,1.56-.26,5.31,5.31,0,0,0,1.46-.78l-.27,1.4a7.68,7.68,0,0,1-1.41.45,7,7,0,0,1-1.43.15,3.63,3.63,0,0,1-2.63-.91,3.37,3.37,0,0,1-.94-2.54,6,6,0,0,1,.36-2.05,6.22,6.22,0,0,1,1-1.85,4.54,4.54,0,0,1,1.63-1.3,5.44,5.44,0,0,1,3.56-.22A4.32,4.32,0,0,1,97.48,154.65Z"/><path id="DejaVuSans-Oblique-4f" class="cls-7" d="M101.35,159.13a2.21,2.21,0,0,0-1.2.33,2.82,2.82,0,0,0-.91,1,3.89,3.89,0,0,0-.5,1.89,1.87,1.87,0,0,0,.41,1.31,1.44,1.44,0,0,0,1.15.47,2.13,2.13,0,0,0,1.2-.34,2.72,2.72,0,0,0,.9-1,4.14,4.14,0,0,0,.38-.93,3.65,3.65,0,0,0,.13-1,1.92,1.92,0,0,0-.41-1.32A1.44,1.44,0,0,0,101.35,159.13Zm-1.07,5.68a2.34,2.34,0,0,1-1.78-.67,2.5,2.5,0,0,1-.64-1.83,4,4,0,0,1,.25-1.36,4.34,4.34,0,0,1,.69-1.23,3.66,3.66,0,0,1,1.16-.95,3.18,3.18,0,0,1,1.42-.31,2.36,2.36,0,0,1,1.77.66,2.48,2.48,0,0,1,.65,1.81,4.17,4.17,0,0,1-1,2.62,3.55,3.55,0,0,1-1.16.95A3.09,3.09,0,0,1,100.28,164.81Z"/><path id="DejaVuSans-Oblique-41" class="cls-7" d="M107.22,158.57h.94l1.14,6.12h-.87l-.25-1.57h-2.76l-.86,1.57h-.88Zm.3.81-1.71,3.05h2.24Z"/></g></g><g id="matplotlib.axis_6" data-name="matplotlib.axis 6"><g id="ytick_7" data-name="ytick 7"><g id="line2d_25" data-name="line2d 25"><path id="m1bd61c0329" class="cls-6" d="M42.44,106.89h-3.5"/></g><g id="text_27" data-name="text 27"><path id="DejaVuSans-30" class="cls-7" d="M22.71,104.05a1.23,1.23,0,0,0-1.14.75,6.85,6.85,0,0,0,0,4.5,1.23,1.23,0,0,0,1.14.75,1.22,1.22,0,0,0,1.15-.75,6.69,6.69,0,0,0,0-4.5A1.22,1.22,0,0,0,22.71,104.05Zm0-.78a2.11,2.11,0,0,1,1.88,1,6.42,6.42,0,0,1,0,5.63,2.31,2.31,0,0,1-3.75,0,6.51,6.51,0,0,1,0-5.63A2.11,2.11,0,0,1,22.71,103.27Z"/><path id="DejaVuSans-2e" class="cls-7" d="M27,109.45h1v1.24H27Z"/><path id="DejaVuSans-30-2" data-name="DejaVuSans-30" class="cls-7" d="M32.26,104.05a1.23,1.23,0,0,0-1.15.75,6.85,6.85,0,0,0,0,4.5,1.26,1.26,0,0,0,2.3,0,6.85,6.85,0,0,0,0-4.5A1.23,1.23,0,0,0,32.26,104.05Zm0-.78a2.11,2.11,0,0,1,1.87,1,6.42,6.42,0,0,1,0,5.63,2.31,2.31,0,0,1-3.75,0,6.51,6.51,0,0,1,0-5.63A2.12,2.12,0,0,1,32.26,103.27Z"/></g></g><g id="ytick_8" data-name="ytick 8"><g id="line2d_26" data-name="line2d 26"><path id="m1bd61c0329-2" data-name="m1bd61c0329" class="cls-6" d="M42.44,76.16h-3.5"/></g><g id="text_28" data-name="text 28"><path id="DejaVuSans-30-3" data-name="DejaVuSans-30" class="cls-7" d="M22.71,73.31a1.23,1.23,0,0,0-1.14.75,6.88,6.88,0,0,0,0,4.51,1.23,1.23,0,0,0,1.14.75,1.22,1.22,0,0,0,1.15-.75,6.71,6.71,0,0,0,0-4.51A1.22,1.22,0,0,0,22.71,73.31Zm0-.78a2.14,2.14,0,0,1,1.88,1,6.42,6.42,0,0,1,0,5.63,2.3,2.3,0,0,1-3.75,0,6.51,6.51,0,0,1,0-5.63A2.13,2.13,0,0,1,22.71,72.53Z"/><path id="DejaVuSans-2e-2" data-name="DejaVuSans-2e" class="cls-7" d="M27,78.71h1V80H27Z"/><path id="DejaVuSans-32" class="cls-7" d="M31,79.13h3.44V80H29.81v-.83q.56-.59,1.53-1.56c.65-.66,1.05-1.08,1.22-1.27a4.77,4.77,0,0,0,.66-.9,1.52,1.52,0,0,0,.19-.72,1.22,1.22,0,0,0-.41-1,1.54,1.54,0,0,0-1.06-.37,3.52,3.52,0,0,0-1,.16,6,6,0,0,0-1.1.49V73A7.87,7.87,0,0,1,31,72.66a3.79,3.79,0,0,1,1-.13,2.71,2.71,0,0,1,1.81.57,1.87,1.87,0,0,1,.67,1.51,2.27,2.27,0,0,1-.17.86,4,4,0,0,1-.61.94c-.08.1-.34.37-.78.82Z"/></g></g><g id="ytick_9" data-name="ytick 9"><g id="line2d_27" data-name="line2d 27"><path id="m1bd61c0329-3" data-name="m1bd61c0329" class="cls-6" d="M42.44,45.42h-3.5"/></g><g id="text_29" data-name="text 29"><path id="DejaVuSans-30-4" data-name="DejaVuSans-30" class="cls-7" d="M22.71,42.58a1.23,1.23,0,0,0-1.14.75,5.07,5.07,0,0,0-.38,2.25,5.07,5.07,0,0,0,.38,2.25,1.23,1.23,0,0,0,1.14.75,1.22,1.22,0,0,0,1.15-.75,5,5,0,0,0,.39-2.25,5,5,0,0,0-.39-2.25A1.22,1.22,0,0,0,22.71,42.58Zm0-.78a2.11,2.11,0,0,1,1.88,1,5.05,5.05,0,0,1,.65,2.81,5.05,5.05,0,0,1-.65,2.81,2.3,2.3,0,0,1-3.75,0,5.06,5.06,0,0,1-.64-2.81,5.06,5.06,0,0,1,.64-2.81A2.11,2.11,0,0,1,22.71,41.8Z"/><path id="DejaVuSans-2e-3" data-name="DejaVuSans-2e" class="cls-7" d="M27,48h1v1.24H27Z"/><path id="DejaVuSans-34" class="cls-7" d="M32.86,42.79l-2.49,3.89h2.49Zm-.26-.86h1.24v4.75h1v.82h-1v1.72h-1V47.5H29.57v-1Z"/></g></g><g id="text_30" data-name="text 30"><path id="DejaVuSans-76" class="cls-7" d="M8,91.05v-1l4.59-1.71L8,86.68v-1l5.47,2V89Z"/><path id="DejaVuSans-61" class="cls-7" d="M10.71,82A3.15,3.15,0,0,0,11,83.51a.9.9,0,0,0,.85.42,1,1,0,0,0,.76-.31,1.29,1.29,0,0,0,.28-.86,1.51,1.51,0,0,0-.53-1.2,2.13,2.13,0,0,0-1.41-.45h-.2Zm-.37-1.79h3.12v.9h-.83a2,2,0,0,1,.73.77A2.38,2.38,0,0,1,13.6,83a1.89,1.89,0,0,1-.47,1.34,1.68,1.68,0,0,1-1.27.49,1.65,1.65,0,0,1-1.39-.61A3.08,3.08,0,0,1,10,82.37V81.11H9.92a1.17,1.17,0,0,0-1,.41,1.71,1.71,0,0,0-.34,1.14,4,4,0,0,0,.11.92,3.87,3.87,0,0,0,.34.85H8.24a5.65,5.65,0,0,1-.29-1,4.84,4.84,0,0,1-.09-.91,2.33,2.33,0,0,1,.61-1.77A2.62,2.62,0,0,1,10.34,80.21Z"/><path id="DejaVuSans-6c" class="cls-7" d="M5.86,78.36v-.9h7.6v.9Z"/><path id="DejaVuSans-75" class="cls-7" d="M11.3,75.68H8v-.9h3.27a1.9,1.9,0,0,0,1.17-.3,1.1,1.1,0,0,0,.39-.91,1.47,1.47,0,0,0-.47-1.15A1.81,1.81,0,0,0,11.09,72H8v-.9h5.47V72h-.84a2.2,2.2,0,0,1,.74.75,2.07,2.07,0,0,1,.24,1A1.76,1.76,0,0,1,13,75.19,2.64,2.64,0,0,1,11.3,75.68ZM7.86,73.42Z"/><path id="DejaVuSans-65-2" data-name="DejaVuSans-65" class="cls-7" d="M10.5,64.57h.44V68.7a2.08,2.08,0,0,0,1.41-.56,1.93,1.93,0,0,0,.49-1.39,4.13,4.13,0,0,0-.51-2h.85a4.94,4.94,0,0,1,.31,1,5.07,5.07,0,0,1,.11,1,2.64,2.64,0,0,1-2.82,2.84,3,3,0,0,1-2.13-.73,2.5,2.5,0,0,1-.79-2,2.22,2.22,0,0,1,.71-1.75A2.74,2.74,0,0,1,10.5,64.57Zm-.27.9a1.65,1.65,0,0,0-1.17.41A1.35,1.35,0,0,0,8.62,67,1.69,1.69,0,0,0,9,68.15a1.85,1.85,0,0,0,1.2.52Z"/></g></g><g id="line2d_28" data-name="line2d 28"><g class="cls-3"><path class="cls-8" d="M66.52,57.42l60.79-19.55"/></g></g><g id="line2d_31" data-name="line2d 31"><g class="cls-3"><path class="cls-8" d="M66.52,34.41l60.79,70"/></g></g><g id="line2d_34" data-name="line2d 34"><g class="cls-3"><path class="cls-8" d="M66.52,94.33l60.79-46.95"/></g></g><g id="line2d_37" data-name="line2d 37"><g class="cls-3"><path class="cls-8" d="M66.52,43.57l60.79,65.72"/></g></g><g id="line2d_40" data-name="line2d 40"><g class="cls-3"><path class="cls-8" d="M66.52,82.68l60.79-36.52"/></g></g><g id="line2d_43" data-name="line2d 43"><g class="cls-3"><path class="cls-8" d="M66.52,48.77l60.79,65.69"/></g></g><g id="line2d_46" data-name="line2d 46"><g class="cls-3"><path class="cls-8" d="M66.52,43.83,127.31,114"/></g></g><g id="line2d_49" data-name="line2d 49"><g class="cls-3"><path class="cls-8" d="M66.52,43.68l60.79,18.21"/></g></g><g id="line2d_52" data-name="line2d 52"><g class="cls-3"><path class="cls-8" d="M66.52,68.92l60.79,47.24"/></g></g><g id="line2d_55" data-name="line2d 55"><g class="cls-3"><path class="cls-8" d="M66.52,42.75,127.31,45"/></g></g><g id="line2d_58" data-name="line2d 58"><g class="cls-3"><path class="cls-8" d="M66.52,28.33l60.79,28.75"/></g></g><g id="line2d_61" data-name="line2d 61"><g class="cls-3"><path class="cls-8" d="M66.52,41.85l60.79-3.26"/></g></g><g id="line2d_64" data-name="line2d 64"><g class="cls-3"><path class="cls-8" d="M66.52,44.18l60.79-5.25"/></g></g><g id="line2d_67" data-name="line2d 67"><g class="cls-3"><path class="cls-8" d="M66.52,46l60.79-12"/></g></g><g id="line2d_70" data-name="line2d 70"><g class="cls-3"><path class="cls-8" d="M66.52,38.92l60.79,74.63"/></g></g><g id="line2d_73" data-name="line2d 73"><g class="cls-3"><path class="cls-8" d="M66.52,70.68l60.79,34.84"/></g></g><g id="line2d_76" data-name="line2d 76"><g class="cls-3"><path class="cls-8" d="M66.52,79.16l60.79,13.48"/></g></g><g id="line2d_79" data-name="line2d 79"><g class="cls-3"><path class="cls-8" d="M66.52,57.5l60.79-1.36"/></g></g><g id="line2d_82" data-name="line2d 82"><g class="cls-3"><path class="cls-8" d="M66.52,59.74,127.31,86.8"/></g></g><g id="line2d_85" data-name="line2d 85"><g class="cls-3"><path class="cls-8" d="M66.52,47.94l60.79,51.85"/></g></g><g id="line2d_88" data-name="line2d 88"><g class="cls-3"><path class="cls-8" d="M66.52,67.8l60.79,14.57"/></g></g><g id="line2d_91" data-name="line2d 91"><g class="cls-3"><path class="cls-8" d="M66.52,50.23l60.79,43.68"/></g></g><g id="line2d_94" data-name="line2d 94"><g class="cls-3"><path class="cls-8" d="M66.52,35.35l60.79,76.88"/></g></g><g id="line2d_97" data-name="line2d 97"><g class="cls-3"><path class="cls-8" d="M66.52,40.25l60.79,52.1"/></g></g><g id="line2d_100" data-name="line2d 100"><g class="cls-3"><path class="cls-8" d="M66.52,44.67l60.79,4.09"/></g></g><g id="line2d_103" data-name="line2d 103"><g class="cls-3"><path class="cls-8" d="M66.52,53.37,127.31,32"/></g></g><g id="line2d_106" data-name="line2d 106"><g class="cls-3"><path class="cls-8" d="M66.52,44.35l60.79,5.87"/></g></g><g id="line2d_109" data-name="line2d 109"><g class="cls-3"><path class="cls-8" d="M66.52,65.18l60.79-25.29"/></g></g><g id="line2d_112" data-name="line2d 112"><g class="cls-3"><path class="cls-8" d="M66.52,43.1l60.79,6"/></g></g><g id="line2d_115" data-name="line2d 115"><g class="cls-3"><path class="cls-8" d="M66.52,35.51l60.79,20.37"/></g></g><g id="line2d_118" data-name="line2d 118"><g class="cls-3"><path class="cls-8" d="M66.52,48.23l60.79,13"/></g></g><g id="patch_21" data-name="patch 21"><path class="cls-9" d="M42.44,133V22.37"/></g><g id="patch_22" data-name="patch 22"><path class="cls-9" d="M42.44,133H157"/></g><g id="text_31" data-name="text 31"><path id="DejaVuSans-2a" class="cls-7" d="M99.28,7.84,96.83,9.17l2.45,1.33-.39.67-2.3-1.39v2.58h-.78V9.78l-2.29,1.39-.4-.67,2.45-1.33L93.12,7.84l.4-.67,2.29,1.38V6h.78V8.55l2.3-1.38Z"/><path id="DejaVuSans-2a-2" data-name="DejaVuSans-2a" class="cls-7" d="M106.28,7.84l-2.45,1.33,2.45,1.33-.39.67-2.3-1.39v2.58h-.78V9.78l-2.29,1.39-.4-.67,2.45-1.33-2.45-1.33.4-.67,2.29,1.38V6h.78V8.55l2.3-1.38Z"/></g></g><g id="axes_4" data-name="axes 4"><g id="patch_23" data-name="patch 23"><path class="cls-2" d="M171.5,133H286V22.37H171.5Z"/></g><g id="PathCollection_33" data-name="PathCollection 33"><g class="cls-10"><path id="C1f_0_aaf2dc827d" data-name="C1f 0 aaf2dc827d" class="cls-4" d="M194.42,55.6a1.23,1.23,0,1,0-.87-.36A1.22,1.22,0,0,0,194.42,55.6Z"/></g><g class="cls-10"><path id="C1f_0_aaf2dc827d-2" data-name="C1f 0 aaf2dc827d" class="cls-4" d="M256.6,72.6a1.23,1.23,0,1,0-.87-.36A1.22,1.22,0,0,0,256.6,72.6Z"/></g></g><g id="PathCollection_34" data-name="PathCollection 34"><g class="cls-10"><path id="C20_0_e544b60f84" data-name="C20 0 e544b60f84" class="cls-4" d="M194.42,67.48a1.22,1.22,0,0,0,.86-.36,1.2,1.2,0,0,0,.36-.86,1.23,1.23,0,1,0-2.45,0,1.2,1.2,0,0,0,.36.86A1.23,1.23,0,0,0,194.42,67.48Z"/></g><g class="cls-10"><path id="C20_0_e544b60f84-2" data-name="C20 0 e544b60f84" class="cls-4" d="M256.6,79.67a1.23,1.23,0,1,0-.87-.36A1.22,1.22,0,0,0,256.6,79.67Z"/></g></g><g id="PathCollection_35" data-name="PathCollection 35"><g class="cls-10"><path id="C21_0_ad9a21fa9d" data-name="C21 0 ad9a21fa9d" class="cls-4" d="M194.42,49.74a1.21,1.21,0,0,0,.86-.35,1.23,1.23,0,0,0,0-1.74,1.24,1.24,0,0,0-1.73,0,1.23,1.23,0,0,0,0,1.74A1.22,1.22,0,0,0,194.42,49.74Z"/></g><g class="cls-10"><path id="C21_0_ad9a21fa9d-2" data-name="C21 0 ad9a21fa9d" class="cls-4" d="M256.6,26.09a1.23,1.23,0,1,0-.87-.36A1.22,1.22,0,0,0,256.6,26.09Z"/></g></g><g id="PathCollection_36" data-name="PathCollection 36"><g class="cls-10"><path id="C22_0_f3664c9750" data-name="C22 0 f3664c9750" class="cls-4" d="M194.42,69.27a1.23,1.23,0,1,0-.87-.36A1.22,1.22,0,0,0,194.42,69.27Z"/></g><g class="cls-10"><path id="C22_0_f3664c9750-2" data-name="C22 0 f3664c9750" class="cls-4" d="M256.6,102a1.23,1.23,0,1,0-.87-.36A1.22,1.22,0,0,0,256.6,102Z"/></g></g><g id="PathCollection_37" data-name="PathCollection 37"><g class="cls-10"><path id="C23_0_4040a73017" data-name="C23 0 4040a73017" class="cls-4" d="M194.42,35.59a1.23,1.23,0,1,0-.87-.36A1.22,1.22,0,0,0,194.42,35.59Z"/></g><g class="cls-10"><path id="C23_0_4040a73017-2" data-name="C23 0 4040a73017" class="cls-4" d="M256.6,71.86a1.23,1.23,0,1,0-.87-.36A1.22,1.22,0,0,0,256.6,71.86Z"/></g></g><g id="PathCollection_38" data-name="PathCollection 38"><g class="cls-10"><path id="C24_0_921263b033" data-name="C24 0 921263b033" class="cls-4" d="M194.42,41.63a1.23,1.23,0,1,0-.87-.36A1.22,1.22,0,0,0,194.42,41.63Z"/></g><g class="cls-10"><path id="C24_0_921263b033-2" data-name="C24 0 921263b033" class="cls-4" d="M256.6,43.73a1.23,1.23,0,1,0-.87-.36A1.22,1.22,0,0,0,256.6,43.73Z"/></g></g><g id="PathCollection_39" data-name="PathCollection 39"><g class="cls-10"><path id="C25_0_2c2cb97737" data-name="C25 0 2c2cb97737" class="cls-4" d="M194.42,51.61a1.22,1.22,0,0,0,.86-.36,1.2,1.2,0,0,0,.36-.86,1.23,1.23,0,1,0-2.45,0,1.2,1.2,0,0,0,.36.86A1.23,1.23,0,0,0,194.42,51.61Z"/></g><g class="cls-10"><path id="C25_0_2c2cb97737-2" data-name="C25 0 2c2cb97737" class="cls-4" d="M256.6,107.17a1.23,1.23,0,1,0-.87-.36A1.22,1.22,0,0,0,256.6,107.17Z"/></g></g><g id="PathCollection_40" data-name="PathCollection 40"><g class="cls-10"><path id="C26_0_86ae2f1210" data-name="C26 0 86ae2f1210" class="cls-4" d="M194.42,76.82a1.23,1.23,0,1,0-.87-.36A1.22,1.22,0,0,0,194.42,76.82Z"/></g><g class="cls-10"><path id="C26_0_86ae2f1210-2" data-name="C26 0 86ae2f1210" class="cls-4" d="M256.6,69.4a1.23,1.23,0,1,0-.87-.36A1.22,1.22,0,0,0,256.6,69.4Z"/></g></g><g id="PathCollection_41" data-name="PathCollection 41"><g class="cls-10"><path id="C27_0_790117773a" data-name="C27 0 790117773a" class="cls-4" d="M194.42,82a1.23,1.23,0,0,0,1.22-1.23,1.24,1.24,0,0,0-.36-.87,1.24,1.24,0,0,0-1.73,0,1.24,1.24,0,0,0-.36.87A1.23,1.23,0,0,0,194.42,82Z"/></g><g class="cls-10"><path id="C27_0_790117773a-2" data-name="C27 0 790117773a" class="cls-4" d="M256.6,56.32a1.23,1.23,0,1,0-.87-.36A1.22,1.22,0,0,0,256.6,56.32Z"/></g></g><g id="PathCollection_42" data-name="PathCollection 42"><g class="cls-10"><path id="C28_0_962a6d888b" data-name="C28 0 962a6d888b" class="cls-4" d="M194.42,52.73a1.23,1.23,0,1,0-.87-.36A1.22,1.22,0,0,0,194.42,52.73Z"/></g><g class="cls-10"><path id="C28_0_962a6d888b-2" data-name="C28 0 962a6d888b" class="cls-4" d="M256.6,92.1a1.23,1.23,0,1,0-.87-.36A1.22,1.22,0,0,0,256.6,92.1Z"/></g></g><g id="PathCollection_43" data-name="PathCollection 43"><g class="cls-10"><path id="C29_0_141ca2279a" data-name="C29 0 141ca2279a" class="cls-4" d="M194.42,74.88a1.23,1.23,0,1,0-.87-.36A1.22,1.22,0,0,0,194.42,74.88Z"/></g><g class="cls-10"><path id="C29_0_141ca2279a-2" data-name="C29 0 141ca2279a" class="cls-4" d="M256.6,43.71a1.21,1.21,0,0,0,.86-.35,1.24,1.24,0,0,0,.36-.87,1.23,1.23,0,1,0-2.45,0,1.24,1.24,0,0,0,.36.87A1.22,1.22,0,0,0,256.6,43.71Z"/></g></g><g id="PathCollection_44" data-name="PathCollection 44"><g class="cls-10"><path id="C2a_0_8be636d30c" data-name="C2a 0 8be636d30c" class="cls-4" d="M194.42,35.19a1.23,1.23,0,1,0-.87-.36A1.22,1.22,0,0,0,194.42,35.19Z"/></g><g class="cls-10"><path id="C2a_0_8be636d30c-2" data-name="C2a 0 8be636d30c" class="cls-4" d="M256.6,68.64a1.23,1.23,0,1,0-.87-.36A1.22,1.22,0,0,0,256.6,68.64Z"/></g></g><g id="PathCollection_45" data-name="PathCollection 45"><g class="cls-10"><path id="C2b_0_f3fb1b7cce" data-name="C2b 0 f3fb1b7cce" class="cls-4" d="M194.42,39.17a1.21,1.21,0,0,0,.86-.35,1.23,1.23,0,0,0,0-1.74,1.24,1.24,0,0,0-1.73,0,1.23,1.23,0,0,0,0,1.74A1.22,1.22,0,0,0,194.42,39.17Z"/></g><g class="cls-10"><path id="C2b_0_f3fb1b7cce-2" data-name="C2b 0 f3fb1b7cce" class="cls-4" d="M256.6,63.14a1.23,1.23,0,1,0-.87-.36A1.22,1.22,0,0,0,256.6,63.14Z"/></g></g><g id="PathCollection_46" data-name="PathCollection 46"><g class="cls-10"><path id="C2c_0_17feb62492" data-name="C2c 0 17feb62492" class="cls-4" d="M194.42,65.08a1.23,1.23,0,1,0-.87-.36A1.22,1.22,0,0,0,194.42,65.08Z"/></g><g class="cls-10"><path id="C2c_0_17feb62492-2" data-name="C2c 0 17feb62492" class="cls-4" d="M256.6,103.49a1.23,1.23,0,1,0-.87-.36A1.22,1.22,0,0,0,256.6,103.49Z"/></g></g><g id="PathCollection_47" data-name="PathCollection 47"><g class="cls-10"><path id="C2d_0_5c7d38320f" data-name="C2d 0 5c7d38320f" class="cls-4" d="M194.42,43.53a1.23,1.23,0,1,0-.87-.36A1.22,1.22,0,0,0,194.42,43.53Z"/></g><g class="cls-10"><path id="C2d_0_5c7d38320f-2" data-name="C2d 0 5c7d38320f" class="cls-4" d="M256.6,84.3a1.22,1.22,0,0,0,.86-.36,1.2,1.2,0,0,0,.36-.86,1.23,1.23,0,1,0-2.45,0,1.2,1.2,0,0,0,.36.86A1.23,1.23,0,0,0,256.6,84.3Z"/></g></g><g id="PathCollection_48" data-name="PathCollection 48"><g class="cls-10"><path id="C2e_0_c28ed5b8ef" data-name="C2e 0 c28ed5b8ef" class="cls-4" d="M194.42,53.69a1.23,1.23,0,1,0-.87-.36A1.22,1.22,0,0,0,194.42,53.69Z"/></g><g class="cls-10"><path id="C2e_0_c28ed5b8ef-2" data-name="C2e 0 c28ed5b8ef" class="cls-4" d="M256.6,99.53a1.23,1.23,0,1,0-.87-.36A1.22,1.22,0,0,0,256.6,99.53Z"/></g></g><g id="PathCollection_49" data-name="PathCollection 49"><g class="cls-10"><path id="C2f_0_4ff603dc58" data-name="C2f 0 4ff603dc58" class="cls-4" d="M194.42,59.68a1.21,1.21,0,0,0,1.22-1.22,1.23,1.23,0,1,0-2.45,0,1.24,1.24,0,0,0,.36.87A1.26,1.26,0,0,0,194.42,59.68Z"/></g><g class="cls-10"><path id="C2f_0_4ff603dc58-2" data-name="C2f 0 4ff603dc58" class="cls-4" d="M256.6,88.74a1.23,1.23,0,1,0-.87-.36A1.22,1.22,0,0,0,256.6,88.74Z"/></g></g><g id="PathCollection_50" data-name="PathCollection 50"><g class="cls-10"><path id="C30_0_0813912909" data-name="C30 0 0813912909" class="cls-4" d="M194.42,67.33a1.23,1.23,0,1,0-.87-.36A1.22,1.22,0,0,0,194.42,67.33Z"/></g><g class="cls-10"><path id="C30_0_0813912909-2" data-name="C30 0 0813912909" class="cls-4" d="M256.6,33a1.23,1.23,0,1,0-.87-.36A1.22,1.22,0,0,0,256.6,33Z"/></g></g><g id="PathCollection_51" data-name="PathCollection 51"><g class="cls-10"><path id="C31_0_849015b35c" data-name="C31 0 849015b35c" class="cls-4" d="M194.42,51.1a1.21,1.21,0,0,0,1.22-1.22,1.23,1.23,0,1,0-2.45,0,1.24,1.24,0,0,0,.36.87A1.26,1.26,0,0,0,194.42,51.1Z"/></g><g class="cls-10"><path id="C31_0_849015b35c-2" data-name="C31 0 849015b35c" class="cls-4" d="M256.6,37.86a1.23,1.23,0,1,0-.87-.36A1.22,1.22,0,0,0,256.6,37.86Z"/></g></g><g id="PathCollection_52" data-name="PathCollection 52"><g class="cls-10"><path id="C32_0_84a9aa1672" data-name="C32 0 84a9aa1672" class="cls-4" d="M194.42,51.2a1.23,1.23,0,1,0-.87-.36A1.22,1.22,0,0,0,194.42,51.2Z"/></g><g class="cls-10"><path id="C32_0_84a9aa1672-2" data-name="C32 0 84a9aa1672" class="cls-4" d="M256.6,57.16a1.23,1.23,0,1,0-.87-.36A1.22,1.22,0,0,0,256.6,57.16Z"/></g></g><g id="PathCollection_53" data-name="PathCollection 53"><g class="cls-10"><path id="C33_0_a71b0e6886" data-name="C33 0 a71b0e6886" class="cls-4" d="M194.42,45.23a1.23,1.23,0,1,0-.87-.36A1.22,1.22,0,0,0,194.42,45.23Z"/></g><g class="cls-10"><path id="C33_0_a71b0e6886-2" data-name="C33 0 a71b0e6886" class="cls-4" d="M256.6,73.38a1.23,1.23,0,1,0-.87-.36A1.22,1.22,0,0,0,256.6,73.38Z"/></g></g><g id="PathCollection_54" data-name="PathCollection 54"><g class="cls-10"><path id="C34_0_15513a7529" data-name="C34 0 15513a7529" class="cls-4" d="M194.42,51.65a1.23,1.23,0,0,0,1.22-1.23,1.2,1.2,0,0,0-.36-.86,1.22,1.22,0,0,0-1.73,0,1.2,1.2,0,0,0-.36.86,1.23,1.23,0,0,0,1.23,1.23Z"/></g><g class="cls-10"><path id="C34_0_15513a7529-2" data-name="C34 0 15513a7529" class="cls-4" d="M256.6,63.56a1.23,1.23,0,1,0-.87-.36A1.22,1.22,0,0,0,256.6,63.56Z"/></g></g><g id="PathCollection_55" data-name="PathCollection 55"><g class="cls-10"><path id="C35_0_3ac25f611a" data-name="C35 0 3ac25f611a" class="cls-4" d="M194.42,59.23a1.23,1.23,0,1,0-.87-.36A1.22,1.22,0,0,0,194.42,59.23Z"/></g><g class="cls-10"><path id="C35_0_3ac25f611a-2" data-name="C35 0 3ac25f611a" class="cls-4" d="M256.6,65.5a1.21,1.21,0,0,0,.86-.35,1.24,1.24,0,0,0,.36-.87,1.23,1.23,0,1,0-2.45,0,1.24,1.24,0,0,0,.36.87A1.22,1.22,0,0,0,256.6,65.5Z"/></g></g><g id="PathCollection_56" data-name="PathCollection 56"><g class="cls-10"><path id="C36_0_a572a71e80" data-name="C36 0 a572a71e80" class="cls-4" d="M194.42,65.41a1.23,1.23,0,1,0-.87-.36A1.22,1.22,0,0,0,194.42,65.41Z"/></g><g class="cls-10"><path id="C36_0_a572a71e80-2" data-name="C36 0 a572a71e80" class="cls-4" d="M256.6,44.05a1.23,1.23,0,1,0-.87-.36A1.22,1.22,0,0,0,256.6,44.05Z"/></g></g><g id="PathCollection_57" data-name="PathCollection 57"><g class="cls-10"><path id="C37_0_7b122f572e" data-name="C37 0 7b122f572e" class="cls-4" d="M194.42,42.6a1.23,1.23,0,1,0-.87-.36A1.22,1.22,0,0,0,194.42,42.6Z"/></g><g class="cls-10"><path id="C37_0_7b122f572e-2" data-name="C37 0 7b122f572e" class="cls-4" d="M256.6,61.12a1.23,1.23,0,1,0-.87-.36A1.22,1.22,0,0,0,256.6,61.12Z"/></g></g><g id="PathCollection_58" data-name="PathCollection 58"><g class="cls-10"><path id="C38_0_1b3798f4b8" data-name="C38 0 1b3798f4b8" class="cls-4" d="M194.42,48.92a1.21,1.21,0,0,0,1.22-1.22,1.23,1.23,0,1,0-2.45,0,1.24,1.24,0,0,0,.36.87A1.26,1.26,0,0,0,194.42,48.92Z"/></g><g class="cls-10"><path id="C38_0_1b3798f4b8-2" data-name="C38 0 1b3798f4b8" class="cls-4" d="M256.6,75.66a1.23,1.23,0,1,0-.87-.36A1.22,1.22,0,0,0,256.6,75.66Z"/></g></g><g id="PathCollection_59" data-name="PathCollection 59"><g class="cls-10"><path id="C39_0_87da364221" data-name="C39 0 87da364221" class="cls-4" d="M194.42,61.16a1.23,1.23,0,1,0-.87-.36A1.22,1.22,0,0,0,194.42,61.16Z"/></g><g class="cls-10"><path id="C39_0_87da364221-2" data-name="C39 0 87da364221" class="cls-4" d="M256.6,64.84a1.23,1.23,0,1,0-.87-.36A1.22,1.22,0,0,0,256.6,64.84Z"/></g></g><g id="PathCollection_60" data-name="PathCollection 60"><g class="cls-10"><path id="C3a_0_588f86702f" data-name="C3a 0 588f86702f" class="cls-4" d="M194.42,50.47a1.23,1.23,0,0,0,1.22-1.23,1.2,1.2,0,0,0-.36-.86,1.22,1.22,0,0,0-1.73,0,1.2,1.2,0,0,0-.36.86,1.23,1.23,0,0,0,1.23,1.23Z"/></g><g class="cls-10"><path id="C3a_0_588f86702f-2" data-name="C3a 0 588f86702f" class="cls-4" d="M256.6,54.07a1.23,1.23,0,1,0-.87-.36A1.22,1.22,0,0,0,256.6,54.07Z"/></g></g><g id="PathCollection_61" data-name="PathCollection 61"><g class="cls-10"><path id="C3b_0_003800d6a2" data-name="C3b 0 003800d6a2" class="cls-4" d="M194.42,83.16a1.23,1.23,0,0,0,1.22-1.23,1.24,1.24,0,0,0-.36-.87,1.24,1.24,0,0,0-1.73,0,1.24,1.24,0,0,0-.36.87,1.23,1.23,0,0,0,1.23,1.23Z"/></g><g class="cls-10"><path id="C3b_0_003800d6a2-2" data-name="C3b 0 003800d6a2" class="cls-4" d="M256.6,34.42a1.23,1.23,0,1,0-.87-.36A1.22,1.22,0,0,0,256.6,34.42Z"/></g></g><g id="PathCollection_62" data-name="PathCollection 62"><g class="cls-10"><path id="C3c_0_c940c6e6b4" data-name="C3c 0 c940c6e6b4" class="cls-4" d="M194.42,48.46a1.23,1.23,0,1,0-.87-.36A1.22,1.22,0,0,0,194.42,48.46Z"/></g><g class="cls-10"><path id="C3c_0_c940c6e6b4-2" data-name="C3c 0 c940c6e6b4" class="cls-4" d="M256.6,72.12a1.23,1.23,0,1,0-.87-.36A1.22,1.22,0,0,0,256.6,72.12Z"/></g></g><g id="PathCollection_63" data-name="PathCollection 63"><g class="cls-10"><path id="C3d_0_f47eef8392" data-name="C3d 0 f47eef8392" class="cls-4" d="M194.42,70.79a1.23,1.23,0,1,0-.87-.36A1.22,1.22,0,0,0,194.42,70.79Z"/></g><g class="cls-10"><path id="C3d_0_f47eef8392-2" data-name="C3d 0 f47eef8392" class="cls-4" d="M256.6,61.68a1.21,1.21,0,0,0,1.22-1.22,1.23,1.23,0,1,0-2.45,0,1.24,1.24,0,0,0,.36.87A1.26,1.26,0,0,0,256.6,61.68Z"/></g></g><g id="patch_24" data-name="patch 24"><g class="cls-10"><path class="cls-5" d="M194.42,114.06v-8.92l0-1,0-1,0-1,0-1-.05-1-.05-1-.07-1-.09-1-.1-1-.13-1-.15-1-.18-1-.2-1-.23-1-.27-1-.28-1-.32-1-.34-1-.37-1-.38-1-.41-1-.42-1-.43-1-.45-1-.45-1-.47-1-.46-1-.47-1-.47-1-.48-1-.47-1-.47-1-.46-1-.46-1-.45-1-.44-1-.44-1-.43-1-.42-1-.42-1-.41-1-.42-1-.42-1-.43-1-.44-1-.44-1-.44-1-.43-1-.42-1-.4-1-.36-1-.31-1-.24-1-.17-1-.08-1v-1l.12-1,.22-1,.33-1,.43-1,.52-1,.6-1,.67-1,.74-1,.78-1,.82-1,.84-1,.85-1,.86-1,.85-1,.83-1,.81-1,.77-1,.75-1,.7-1,.65-1,.61-1,.56-1,.51-1,.46-1,.4-1,.36-1,.3-1,.27-1,.22-1,.18-1,.16-1,.12-1,.1-1,.08-1Z"/></g></g><g id="patch_25" data-name="patch 25"><g class="cls-10"><path class="cls-5" d="M259.26,114.06l.46-1,.5-1,.53-1,.54-1,.56-1,.55-1,.54-1,.52-1,.48-1,.43-1,.38-1,.32-1,.26-1,.21-1,.15-1,.1-1,.06-1,0-1,0-1v-2l0-1,.05-1,.09-1,.13-1,.19-1,.24-1,.31-1,.38-1,.46-1,.54-1,.61-1,.69-1,.77-1,.83-1,.88-1,.92-1,1-1,1-1,.95-1,.92-1,.86-1,.8-1,.7-1,.59-1,.47-1,.34-1,.19-1,.05-1-.1-1-.24-1-.38-1-.51-1-.61-1-.72-1-.79-1-.84-1-.88-1-.89-1-.88-1-.84-1-.8-1-.73-1-.66-1-.57-1-.49-1-.41-1-.32-1-.26-1-.2-1-.15-1-.13-1-.11-1-.11-1-.12-1-.15-1-.18-1-.21-1-.26-1-.3-1-.35-1-.39-1-.43-1-.47-1-.49-1-.52-1-.53-1-.55-1-.55-1-.54-1-.54-1-.52-1-.5-1-.48-1-.44-1-.42-1-.38-1-.35-1-.31-1Z"/></g></g><g id="matplotlib.axis_7" data-name="matplotlib.axis 7"><g id="xtick_18" data-name="xtick 18"><g id="line2d_121" data-name="line2d 121"><path id="m4c5949c2dc-3" data-name="m4c5949c2dc" class="cls-6" d="M194.42,133v3.5"/></g><g id="text_32" data-name="text 32"><path id="DejaVuSans-70-3" data-name="DejaVuSans-70" class="cls-7" d="M188,146.8v2.9h-.91v-7.55H188V143a1.76,1.76,0,0,1,.71-.72,2.09,2.09,0,0,1,1-.24,1.94,1.94,0,0,1,1.62.79,3.75,3.75,0,0,1,0,4.16,1.94,1.94,0,0,1-1.62.79,2.09,2.09,0,0,1-1-.24A1.89,1.89,0,0,1,188,146.8Zm3.05-1.91a2.65,2.65,0,0,0-.4-1.56,1.41,1.41,0,0,0-2.25,0,2.65,2.65,0,0,0-.4,1.56,2.6,2.6,0,0,0,.4,1.55,1.4,1.4,0,0,0,2.25,0A2.6,2.6,0,0,0,191.09,144.89Z"/><path id="DejaVuSans-72-2" data-name="DejaVuSans-72" class="cls-7" d="M196.68,143a1.2,1.2,0,0,0-.33-.13,1.61,1.61,0,0,0-.39,0,1.42,1.42,0,0,0-1.17.49,2.21,2.21,0,0,0-.41,1.43v2.88h-.9v-5.47h.9V143a1.88,1.88,0,0,1,.74-.74,2.34,2.34,0,0,1,1.11-.24h.2l.25,0Z"/><path id="DejaVuSans-65-3" data-name="DejaVuSans-65" class="cls-7" d="M202.08,144.66v.44H198a2,2,0,0,0,.56,1.41,1.87,1.87,0,0,0,1.39.49,3.66,3.66,0,0,0,1-.13,4.15,4.15,0,0,0,1-.38v.85a4.94,4.94,0,0,1-1,.31,5.07,5.07,0,0,1-1,.11,2.62,2.62,0,0,1-2.84-2.82,3,3,0,0,1,.73-2.13,2.5,2.5,0,0,1,1.95-.79,2.25,2.25,0,0,1,1.75.71A2.81,2.81,0,0,1,202.08,144.66Zm-.9-.27a1.7,1.7,0,0,0-.41-1.17,1.4,1.4,0,0,0-1.07-.44,1.69,1.69,0,0,0-1.2.42,1.8,1.8,0,0,0-.52,1.2Z"/></g></g><g id="xtick_19" data-name="xtick 19"><g id="line2d_122" data-name="line2d 122"><path id="m4c5949c2dc-4" data-name="m4c5949c2dc" class="cls-6" d="M256.6,133v3.5"/></g><g id="text_33" data-name="text 33"><path id="DejaVuSans-70-4" data-name="DejaVuSans-70" class="cls-7" d="M247.61,146.8v2.9h-.9v-7.55h.9V143a1.78,1.78,0,0,1,.72-.72,2.06,2.06,0,0,1,1-.24,2,2,0,0,1,1.62.79,3.8,3.8,0,0,1,0,4.16,2,2,0,0,1-1.62.79,2.06,2.06,0,0,1-1-.24A1.91,1.91,0,0,1,247.61,146.8Zm3.06-1.91a2.65,2.65,0,0,0-.41-1.56,1.4,1.4,0,0,0-2.24,0,2.65,2.65,0,0,0-.41,1.56,2.6,2.6,0,0,0,.41,1.55,1.39,1.39,0,0,0,2.24,0A2.6,2.6,0,0,0,250.67,144.89Z"/><path id="DejaVuSans-6f-2" data-name="DejaVuSans-6f" class="cls-7" d="M255.21,142.78a1.36,1.36,0,0,0-1.14.56,2.55,2.55,0,0,0-.42,1.55,2.51,2.51,0,0,0,.41,1.54,1.44,1.44,0,0,0,2.29,0,3,3,0,0,0,0-3.08A1.34,1.34,0,0,0,255.21,142.78Zm0-.76a2.32,2.32,0,0,1,1.84.76,3.66,3.66,0,0,1,0,4.22,2.62,2.62,0,0,1-3.69,0,3.7,3.7,0,0,1,0-4.22A2.33,2.33,0,0,1,255.21,142Z"/><path id="DejaVuSans-73-2" data-name="DejaVuSans-73" class="cls-7" d="M262.69,142.31v.85a3.12,3.12,0,0,0-.79-.29,3.36,3.36,0,0,0-.85-.1,2,2,0,0,0-1,.2.69.69,0,0,0-.33.62.59.59,0,0,0,.23.49,2.84,2.84,0,0,0,1,.34l.3.07a2.79,2.79,0,0,1,1.36.58,1.34,1.34,0,0,1,.41,1,1.42,1.42,0,0,1-.61,1.21,2.76,2.76,0,0,1-1.65.44,4.94,4.94,0,0,1-.92-.09,7,7,0,0,1-1-.25v-.93a5.26,5.26,0,0,0,1,.39,4,4,0,0,0,1,.13,1.86,1.86,0,0,0,1-.22.74.74,0,0,0,.1-1.17,3.08,3.08,0,0,0-1.08-.38l-.32-.07a2.44,2.44,0,0,1-1.2-.54,1.34,1.34,0,0,1-.37-1,1.41,1.41,0,0,1,.54-1.19A2.54,2.54,0,0,1,261,142a5.49,5.49,0,0,1,.93.07A3.68,3.68,0,0,1,262.69,142.31Z"/><path id="DejaVuSans-74-2" data-name="DejaVuSans-74" class="cls-7" d="M265.31,140.6v1.55h1.85v.7h-1.85v3a1.38,1.38,0,0,0,.18.86,1.08,1.08,0,0,0,.74.19h.93v.75h-.93a2,2,0,0,1-1.43-.39,2,2,0,0,1-.4-1.41v-3h-.66v-.7h.66V140.6Z"/></g></g><g id="text_34" data-name="text 34"><path id="DejaVuSans-Oblique-43-2" data-name="DejaVuSans-Oblique-43" class="cls-7" d="M226.54,154.65l-.24,1.25a3.91,3.91,0,0,0-1.19-.85,3.4,3.4,0,0,0-1.36-.27,3.2,3.2,0,0,0-1.76.48,4,4,0,0,0-1.31,1.46,5.38,5.38,0,0,0-.54,1.34,5.76,5.76,0,0,0-.18,1.42,2.47,2.47,0,0,0,.61,1.82,2.44,2.44,0,0,0,1.8.63,4.82,4.82,0,0,0,1.56-.26,5.31,5.31,0,0,0,1.46-.78l-.27,1.4a7.68,7.68,0,0,1-1.41.45,7,7,0,0,1-1.43.15,3.64,3.64,0,0,1-2.63-.91,3.37,3.37,0,0,1-.94-2.54,6,6,0,0,1,.36-2.05,6.22,6.22,0,0,1,1-1.85,4.48,4.48,0,0,1,1.64-1.3,5.42,5.42,0,0,1,3.55-.22A4.2,4.2,0,0,1,226.54,154.65Z"/><path id="DejaVuSans-Oblique-41-2" data-name="DejaVuSans-Oblique-41" class="cls-7" d="M229.68,158.57h.94l1.13,6.12h-.86l-.26-1.57h-2.75l-.87,1.57h-.87Zm.3.81-1.72,3.05h2.25Z"/><path id="DejaVuSans-Oblique-4f-2" data-name="DejaVuSans-Oblique-4f" class="cls-7" d="M236.16,159.13a2.21,2.21,0,0,0-1.2.33,2.82,2.82,0,0,0-.91,1,3.89,3.89,0,0,0-.5,1.89,1.87,1.87,0,0,0,.41,1.31,1.44,1.44,0,0,0,1.15.47,2.13,2.13,0,0,0,1.2-.34,2.72,2.72,0,0,0,.9-1,4.14,4.14,0,0,0,.38-.93,3.65,3.65,0,0,0,.13-1,1.92,1.92,0,0,0-.41-1.32A1.44,1.44,0,0,0,236.16,159.13Zm-1.07,5.68a2.34,2.34,0,0,1-1.78-.67,2.5,2.5,0,0,1-.64-1.83,4,4,0,0,1,.25-1.36,4.34,4.34,0,0,1,.69-1.23,3.66,3.66,0,0,1,1.16-.95,3.18,3.18,0,0,1,1.42-.31,2.36,2.36,0,0,1,1.77.66,2.48,2.48,0,0,1,.65,1.81,4.17,4.17,0,0,1-1,2.62,3.55,3.55,0,0,1-1.16.95A3.09,3.09,0,0,1,235.09,164.81Z"/></g></g><g id="line2d_123" data-name="line2d 123"><g class="cls-10"><path class="cls-8" d="M194.42,54.37l62.18,17"/></g></g><g id="line2d_126" data-name="line2d 126"><g class="cls-10"><path class="cls-8" d="M194.42,66.26,256.6,78.45"/></g></g><g id="line2d_129" data-name="line2d 129"><g class="cls-10"><path class="cls-8" d="M194.42,48.52,256.6,24.86"/></g></g><g id="line2d_132" data-name="line2d 132"><g class="cls-10"><path class="cls-8" d="M194.42,68.05l62.18,32.76"/></g></g><g id="line2d_135" data-name="line2d 135"><g class="cls-10"><path class="cls-8" d="M194.42,34.36,256.6,70.63"/></g></g><g id="line2d_138" data-name="line2d 138"><g class="cls-10"><path class="cls-8" d="M194.42,40.4l62.18,2.11"/></g></g><g id="line2d_141" data-name="line2d 141"><g class="cls-10"><path class="cls-8" d="M194.42,50.39,256.6,106"/></g></g><g id="line2d_144" data-name="line2d 144"><g class="cls-10"><path class="cls-8" d="M194.42,75.59l62.18-7.42"/></g></g><g id="line2d_147" data-name="line2d 147"><g class="cls-10"><path class="cls-8" d="M194.42,80.74,256.6,55.1"/></g></g><g id="line2d_150" data-name="line2d 150"><g class="cls-10"><path class="cls-8" d="M194.42,51.51,256.6,90.87"/></g></g><g id="line2d_153" data-name="line2d 153"><g class="cls-10"><path class="cls-8" d="M194.42,73.65,256.6,42.49"/></g></g><g id="line2d_156" data-name="line2d 156"><g class="cls-10"><path class="cls-8" d="M194.42,34,256.6,67.41"/></g></g><g id="line2d_159" data-name="line2d 159"><g class="cls-10"><path class="cls-8" d="M194.42,38l62.18,24"/></g></g><g id="line2d_162" data-name="line2d 162"><g class="cls-10"><path class="cls-8" d="M194.42,63.86l62.18,38.4"/></g></g><g id="line2d_165" data-name="line2d 165"><g class="cls-10"><path class="cls-8" d="M194.42,42.3,256.6,83.08"/></g></g><g id="line2d_168" data-name="line2d 168"><g class="cls-10"><path class="cls-8" d="M194.42,52.46,256.6,98.3"/></g></g><g id="line2d_171" data-name="line2d 171"><g class="cls-10"><path class="cls-8" d="M194.42,58.46,256.6,87.51"/></g></g><g id="line2d_174" data-name="line2d 174"><g class="cls-10"><path class="cls-8" d="M194.42,66.1,256.6,31.81"/></g></g><g id="line2d_177" data-name="line2d 177"><g class="cls-10"><path class="cls-8" d="M194.42,49.88,256.6,36.64"/></g></g><g id="line2d_180" data-name="line2d 180"><g class="cls-10"><path class="cls-8" d="M194.42,50l62.18,6"/></g></g><g id="line2d_183" data-name="line2d 183"><g class="cls-10"><path class="cls-8" d="M194.42,44,256.6,72.16"/></g></g><g id="line2d_186" data-name="line2d 186"><g class="cls-10"><path class="cls-8" d="M194.42,50.42,256.6,62.33"/></g></g><g id="line2d_189" data-name="line2d 189"><g class="cls-10"><path class="cls-8" d="M194.42,58l62.18,6.28"/></g></g><g id="line2d_192" data-name="line2d 192"><g class="cls-10"><path class="cls-8" d="M194.42,64.18,256.6,42.82"/></g></g><g id="line2d_195" data-name="line2d 195"><g class="cls-10"><path class="cls-8" d="M194.42,41.37,256.6,59.89"/></g></g><g id="line2d_198" data-name="line2d 198"><g class="cls-10"><path class="cls-8" d="M194.42,47.7,256.6,74.43"/></g></g><g id="line2d_201" data-name="line2d 201"><g class="cls-10"><path class="cls-8" d="M194.42,59.93l62.18,3.68"/></g></g><g id="line2d_204" data-name="line2d 204"><g class="cls-10"><path class="cls-8" d="M194.42,49.24l62.18,3.61"/></g></g><g id="line2d_207" data-name="line2d 207"><g class="cls-10"><path class="cls-8" d="M194.42,81.93,256.6,33.19"/></g></g><g id="line2d_210" data-name="line2d 210"><g class="cls-10"><path class="cls-8" d="M194.42,47.23,256.6,70.89"/></g></g><g id="line2d_213" data-name="line2d 213"><g class="cls-10"><path class="cls-8" d="M194.42,69.57l62.18-9.11"/></g></g><g id="patch_26" data-name="patch 26"><path class="cls-9" d="M171.5,133H286"/></g><g id="text_35" data-name="text 35"><path id="DejaVuSans-2a-3" data-name="DejaVuSans-2a" class="cls-7" d="M231.85,7.84l-2.46,1.33,2.46,1.33-.4.67-2.3-1.39v2.58h-.77V9.78l-2.3,1.39-.4-.67,2.46-1.33-2.46-1.33.4-.67,2.3,1.38V6h.77V8.55l2.3-1.38Z"/></g></g><g id="axes_5" data-name="axes 5"><g id="patch_27" data-name="patch 27"><path class="cls-2" d="M300.57,133H415.09V22.37H300.57Z"/></g><g id="PathCollection_64" data-name="PathCollection 64"><g class="cls-11"><path id="C3e_0_fa5b7bee39" data-name="C3e 0 fa5b7bee39" class="cls-4" d="M323.68,83.58a1.23,1.23,0,1,0-.87-.36A1.22,1.22,0,0,0,323.68,83.58Z"/></g><g class="cls-11"><path id="C3e_0_fa5b7bee39-2" data-name="C3e 0 fa5b7bee39" class="cls-4" d="M388.14,85.21a1.23,1.23,0,1,0-.87-.36A1.22,1.22,0,0,0,388.14,85.21Z"/></g></g><g id="PathCollection_65" data-name="PathCollection 65"><g class="cls-11"><path id="C3f_0_75ce67bf3c" data-name="C3f 0 75ce67bf3c" class="cls-4" d="M323.68,100a1.23,1.23,0,1,0-.87-.36A1.22,1.22,0,0,0,323.68,100Z"/></g><g class="cls-11"><path id="C3f_0_75ce67bf3c-2" data-name="C3f 0 75ce67bf3c" class="cls-4" d="M388.14,36.43a1.21,1.21,0,0,0,.86-.35,1.23,1.23,0,0,0,0-1.74,1.24,1.24,0,0,0-1.73,0,1.23,1.23,0,0,0,0,1.74A1.22,1.22,0,0,0,388.14,36.43Z"/></g></g><g id="PathCollection_66" data-name="PathCollection 66"><g class="cls-11"><path id="C40_0_d6456a230e" data-name="C40 0 d6456a230e" class="cls-4" d="M323.68,79.81a1.23,1.23,0,1,0-.87-.36A1.22,1.22,0,0,0,323.68,79.81Z"/></g><g class="cls-11"><path id="C40_0_d6456a230e-2" data-name="C40 0 d6456a230e" class="cls-4" d="M388.14,41.55a1.23,1.23,0,1,0-.87-.36A1.22,1.22,0,0,0,388.14,41.55Z"/></g></g><g id="PathCollection_67" data-name="PathCollection 67"><g class="cls-11"><path id="C41_0_b3b49472c7" data-name="C41 0 b3b49472c7" class="cls-4" d="M323.68,95.11a1.23,1.23,0,1,0-.87-.36A1.22,1.22,0,0,0,323.68,95.11Z"/></g><g class="cls-11"><path id="C41_0_b3b49472c7-2" data-name="C41 0 b3b49472c7" class="cls-4" d="M388.14,77.63a1.23,1.23,0,1,0-.87-.36A1.22,1.22,0,0,0,388.14,77.63Z"/></g></g><g id="PathCollection_68" data-name="PathCollection 68"><g class="cls-11"><path id="C42_0_26c1b0b7a8" data-name="C42 0 26c1b0b7a8" class="cls-4" d="M323.68,101.15a1.23,1.23,0,1,0-.87-.36A1.22,1.22,0,0,0,323.68,101.15Z"/></g><g class="cls-11"><path id="C42_0_26c1b0b7a8-2" data-name="C42 0 26c1b0b7a8" class="cls-4" d="M388.14,101.49a1.22,1.22,0,0,0,.86-.36,1.2,1.2,0,0,0,.36-.86,1.23,1.23,0,1,0-2.45,0,1.2,1.2,0,0,0,.36.86A1.23,1.23,0,0,0,388.14,101.49Z"/></g></g><g id="PathCollection_69" data-name="PathCollection 69"><g class="cls-11"><path id="C43_0_4c68e0824b" data-name="C43 0 4c68e0824b" class="cls-4" d="M323.68,96.69a1.23,1.23,0,0,0,1.22-1.23,1.21,1.21,0,0,0-1.22-1.22,1.26,1.26,0,0,0-.87.35,1.24,1.24,0,0,0-.36.87,1.23,1.23,0,0,0,1.23,1.23Z"/></g><g class="cls-11"><path id="C43_0_4c68e0824b-2" data-name="C43 0 4c68e0824b" class="cls-4" d="M388.14,71.79a1.23,1.23,0,1,0-.87-.36A1.22,1.22,0,0,0,388.14,71.79Z"/></g></g><g id="PathCollection_70" data-name="PathCollection 70"><g class="cls-11"><path id="C44_0_247b93d9a6" data-name="C44 0 247b93d9a6" class="cls-4" d="M323.68,110.52a1.21,1.21,0,0,0,.86-.35,1.24,1.24,0,0,0,.36-.87,1.23,1.23,0,0,0-.36-.87,1.24,1.24,0,0,0-1.73,0,1.23,1.23,0,0,0-.36.87,1.24,1.24,0,0,0,.36.87A1.22,1.22,0,0,0,323.68,110.52Z"/></g><g class="cls-11"><path id="C44_0_247b93d9a6-2" data-name="C44 0 247b93d9a6" class="cls-4" d="M388.14,59.69a1.21,1.21,0,0,0,.86-.35,1.23,1.23,0,0,0,.36-.87,1.24,1.24,0,0,0-.36-.87,1.24,1.24,0,0,0-1.73,0,1.24,1.24,0,0,0-.36.87,1.21,1.21,0,0,0,1.23,1.22Z"/></g></g><g id="PathCollection_71" data-name="PathCollection 71"><g class="cls-11"><path id="C45_0_7e3515532e" data-name="C45 0 7e3515532e" class="cls-4" d="M323.68,85.69a1.23,1.23,0,1,0-.87-.36A1.22,1.22,0,0,0,323.68,85.69Z"/></g><g class="cls-11"><path id="C45_0_7e3515532e-2" data-name="C45 0 7e3515532e" class="cls-4" d="M388.14,97.18a1.23,1.23,0,1,0-.87-.36A1.22,1.22,0,0,0,388.14,97.18Z"/></g></g><g id="PathCollection_72" data-name="PathCollection 72"><g class="cls-11"><path id="C46_0_faa922c154" data-name="C46 0 faa922c154" class="cls-4" d="M323.68,88.63a1.23,1.23,0,1,0-.87-.36A1.22,1.22,0,0,0,323.68,88.63Z"/></g><g class="cls-11"><path id="C46_0_faa922c154-2" data-name="C46 0 faa922c154" class="cls-4" d="M388.14,43.85a1.23,1.23,0,1,0-.87-.36A1.22,1.22,0,0,0,388.14,43.85Z"/></g></g><g id="PathCollection_73" data-name="PathCollection 73"><g class="cls-11"><path id="C47_0_83211f69ea" data-name="C47 0 83211f69ea" class="cls-4" d="M323.68,98.14a1.23,1.23,0,1,0-.87-.36A1.22,1.22,0,0,0,323.68,98.14Z"/></g><g class="cls-11"><path id="C47_0_83211f69ea-2" data-name="C47 0 83211f69ea" class="cls-4" d="M388.14,90.14a1.21,1.21,0,0,0,1.22-1.22,1.23,1.23,0,1,0-2.45,0,1.24,1.24,0,0,0,.36.87A1.26,1.26,0,0,0,388.14,90.14Z"/></g></g><g id="PathCollection_74" data-name="PathCollection 74"><g class="cls-11"><path id="C48_0_bb4764c929" data-name="C48 0 bb4764c929" class="cls-4" d="M323.68,62.69a1.23,1.23,0,1,0-.87-.36A1.22,1.22,0,0,0,323.68,62.69Z"/></g><g class="cls-11"><path id="C48_0_bb4764c929-2" data-name="C48 0 bb4764c929" class="cls-4" d="M388.14,78.15a1.23,1.23,0,1,0-.87-.36A1.22,1.22,0,0,0,388.14,78.15Z"/></g></g><g id="PathCollection_75" data-name="PathCollection 75"><g class="cls-11"><path id="C49_0_f9e7de6cc1" data-name="C49 0 f9e7de6cc1" class="cls-4" d="M323.68,95.5a1.23,1.23,0,1,0-.87-.36A1.22,1.22,0,0,0,323.68,95.5Z"/></g><g class="cls-11"><path id="C49_0_f9e7de6cc1-2" data-name="C49 0 f9e7de6cc1" class="cls-4" d="M388.14,103.19a1.23,1.23,0,1,0-.87-.36A1.22,1.22,0,0,0,388.14,103.19Z"/></g></g><g id="PathCollection_76" data-name="PathCollection 76"><g class="cls-11"><path id="C4a_0_dad48309d2" data-name="C4a 0 dad48309d2" class="cls-4" d="M323.68,94.21a1.23,1.23,0,1,0-.87-.36A1.22,1.22,0,0,0,323.68,94.21Z"/></g><g class="cls-11"><path id="C4a_0_dad48309d2-2" data-name="C4a 0 dad48309d2" class="cls-4" d="M388.14,93.49a1.23,1.23,0,1,0-.87-.36A1.22,1.22,0,0,0,388.14,93.49Z"/></g></g><g id="PathCollection_77" data-name="PathCollection 77"><g class="cls-11"><path id="C4b_0_9d9f81c847" data-name="C4b 0 9d9f81c847" class="cls-4" d="M323.68,87a1.23,1.23,0,0,0,1.22-1.23,1.21,1.21,0,0,0-1.22-1.22,1.26,1.26,0,0,0-.87.35,1.24,1.24,0,0,0-.36.87A1.23,1.23,0,0,0,323.68,87Z"/></g><g class="cls-11"><path id="C4b_0_9d9f81c847-2" data-name="C4b 0 9d9f81c847" class="cls-4" d="M388.14,45.18a1.21,1.21,0,0,0,.86-.35,1.23,1.23,0,0,0,0-1.74,1.24,1.24,0,0,0-1.73,0,1.23,1.23,0,0,0,0,1.74A1.22,1.22,0,0,0,388.14,45.18Z"/></g></g><g id="PathCollection_78" data-name="PathCollection 78"><g class="cls-11"><path id="C4c_0_2cc55cd6f4" data-name="C4c 0 2cc55cd6f4" class="cls-4" d="M323.68,74.86a1.23,1.23,0,1,0-.87-.36A1.22,1.22,0,0,0,323.68,74.86Z"/></g><g class="cls-11"><path id="C4c_0_2cc55cd6f4-2" data-name="C4c 0 2cc55cd6f4" class="cls-4" d="M388.14,88a1.23,1.23,0,0,0,1.22-1.23,1.24,1.24,0,0,0-.36-.87,1.24,1.24,0,0,0-1.73,0,1.24,1.24,0,0,0-.36.87A1.23,1.23,0,0,0,388.14,88Z"/></g></g><g id="PathCollection_79" data-name="PathCollection 79"><g class="cls-11"><path id="C4d_0_3066ef05c2" data-name="C4d 0 3066ef05c2" class="cls-4" d="M323.68,78.61a1.21,1.21,0,0,0,.86-.35,1.24,1.24,0,0,0,.36-.87,1.23,1.23,0,1,0-2.45,0,1.24,1.24,0,0,0,.36.87A1.22,1.22,0,0,0,323.68,78.61Z"/></g><g class="cls-11"><path id="C4d_0_3066ef05c2-2" data-name="C4d 0 3066ef05c2" class="cls-4" d="M388.14,41.78a1.23,1.23,0,1,0-.87-.36A1.22,1.22,0,0,0,388.14,41.78Z"/></g></g><g id="PathCollection_80" data-name="PathCollection 80"><g class="cls-11"><path id="C4e_0_5a051b7d86" data-name="C4e 0 5a051b7d86" class="cls-4" d="M323.68,90.64a1.23,1.23,0,1,0-.87-.36A1.22,1.22,0,0,0,323.68,90.64Z"/></g><g class="cls-11"><path id="C4e_0_5a051b7d86-2" data-name="C4e 0 5a051b7d86" class="cls-4" d="M388.14,108.61a1.23,1.23,0,1,0-.87-.36A1.22,1.22,0,0,0,388.14,108.61Z"/></g></g><g id="PathCollection_81" data-name="PathCollection 81"><g class="cls-11"><path id="C4f_0_53a71e9e5e" data-name="C4f 0 53a71e9e5e" class="cls-4" d="M323.68,82.75a1.23,1.23,0,1,0-.87-.36A1.22,1.22,0,0,0,323.68,82.75Z"/></g><g class="cls-11"><path id="C4f_0_53a71e9e5e-2" data-name="C4f 0 53a71e9e5e" class="cls-4" d="M388.14,91.64a1.23,1.23,0,0,0,1.22-1.23,1.24,1.24,0,0,0-.36-.87,1.24,1.24,0,0,0-1.73,0,1.24,1.24,0,0,0-.36.87,1.23,1.23,0,0,0,1.23,1.23Z"/></g></g><g id="PathCollection_82" data-name="PathCollection 82"><g class="cls-11"><path id="C50_0_8d71def3b0" data-name="C50 0 8d71def3b0" class="cls-4" d="M323.68,108a1.23,1.23,0,1,0-.87-.36A1.22,1.22,0,0,0,323.68,108Z"/></g><g class="cls-11"><path id="C50_0_8d71def3b0-2" data-name="C50 0 8d71def3b0" class="cls-4" d="M388.14,103.12a1.23,1.23,0,1,0-.87-.36A1.22,1.22,0,0,0,388.14,103.12Z"/></g></g><g id="PathCollection_83" data-name="PathCollection 83"><g class="cls-11"><path id="C51_0_dafce77bd9" data-name="C51 0 dafce77bd9" class="cls-4" d="M323.68,87a1.23,1.23,0,1,0-.87-.36A1.22,1.22,0,0,0,323.68,87Z"/></g><g class="cls-11"><path id="C51_0_dafce77bd9-2" data-name="C51 0 dafce77bd9" class="cls-4" d="M388.14,95.65a1.23,1.23,0,1,0-.87-.36A1.22,1.22,0,0,0,388.14,95.65Z"/></g></g><g id="PathCollection_84" data-name="PathCollection 84"><g class="cls-11"><path id="C52_0_8a4647a85b" data-name="C52 0 8a4647a85b" class="cls-4" d="M323.68,109.63a1.23,1.23,0,1,0-.87-.36A1.22,1.22,0,0,0,323.68,109.63Z"/></g><g class="cls-11"><path id="C52_0_8a4647a85b-2" data-name="C52 0 8a4647a85b" class="cls-4" d="M388.14,85.64a1.23,1.23,0,0,0,1.22-1.23,1.2,1.2,0,0,0-.36-.86,1.22,1.22,0,0,0-1.73,0,1.2,1.2,0,0,0-.36.86,1.23,1.23,0,0,0,1.23,1.23Z"/></g></g><g id="PathCollection_85" data-name="PathCollection 85"><g class="cls-11"><path id="C53_0_d450f8161c" data-name="C53 0 d450f8161c" class="cls-4" d="M323.68,100.18a1.23,1.23,0,1,0-.87-.36A1.22,1.22,0,0,0,323.68,100.18Z"/></g><g class="cls-11"><path id="C53_0_d450f8161c-2" data-name="C53 0 d450f8161c" class="cls-4" d="M388.14,97.92a1.21,1.21,0,0,0,.86-.35,1.24,1.24,0,0,0,.36-.87,1.23,1.23,0,1,0-2.45,0,1.24,1.24,0,0,0,.36.87A1.22,1.22,0,0,0,388.14,97.92Z"/></g></g><g id="PathCollection_86" data-name="PathCollection 86"><g class="cls-11"><path id="C54_0_bf877bf8a7" data-name="C54 0 bf877bf8a7" class="cls-4" d="M323.68,88a1.21,1.21,0,0,0,.86-.35,1.23,1.23,0,0,0,0-1.74,1.24,1.24,0,0,0-1.73,0,1.23,1.23,0,0,0,0,1.74A1.22,1.22,0,0,0,323.68,88Z"/></g><g class="cls-11"><path id="C54_0_bf877bf8a7-2" data-name="C54 0 bf877bf8a7" class="cls-4" d="M388.14,88.77a1.23,1.23,0,0,0,1.22-1.23,1.24,1.24,0,0,0-.36-.87,1.24,1.24,0,0,0-1.73,0,1.24,1.24,0,0,0-.36.87,1.23,1.23,0,0,0,1.23,1.23Z"/></g></g><g id="PathCollection_87" data-name="PathCollection 87"><g class="cls-11"><path id="C55_0_3ce91c0e02" data-name="C55 0 3ce91c0e02" class="cls-4" d="M323.68,58.53a1.23,1.23,0,1,0-.87-.36A1.22,1.22,0,0,0,323.68,58.53Z"/></g><g class="cls-11"><path id="C55_0_3ce91c0e02-2" data-name="C55 0 3ce91c0e02" class="cls-4" d="M388.14,79.35a1.23,1.23,0,1,0-.87-.36A1.22,1.22,0,0,0,388.14,79.35Z"/></g></g><g id="PathCollection_88" data-name="PathCollection 88"><g class="cls-11"><path id="C56_0_952f47b8fc" data-name="C56 0 952f47b8fc" class="cls-4" d="M323.68,110.41a1.23,1.23,0,0,0,1.22-1.23,1.21,1.21,0,0,0-1.22-1.22,1.26,1.26,0,0,0-.87.35,1.24,1.24,0,0,0-.36.87,1.23,1.23,0,0,0,1.23,1.23Z"/></g><g class="cls-11"><path id="C56_0_952f47b8fc-2" data-name="C56 0 952f47b8fc" class="cls-4" d="M388.14,89.07a1.23,1.23,0,1,0-.87-.36A1.22,1.22,0,0,0,388.14,89.07Z"/></g></g><g id="PathCollection_89" data-name="PathCollection 89"><g class="cls-11"><path id="C57_0_fff852f99a" data-name="C57 0 fff852f99a" class="cls-4" d="M323.68,89.12a1.23,1.23,0,1,0-.87-.36A1.22,1.22,0,0,0,323.68,89.12Z"/></g><g class="cls-11"><path id="C57_0_fff852f99a-2" data-name="C57 0 fff852f99a" class="cls-4" d="M388.14,37.89a1.23,1.23,0,1,0-.87-.36A1.22,1.22,0,0,0,388.14,37.89Z"/></g></g><g id="PathCollection_90" data-name="PathCollection 90"><g class="cls-11"><path id="C58_0_5570bc768f" data-name="C58 0 5570bc768f" class="cls-4" d="M323.68,111.09a1.23,1.23,0,1,0-.87-.36A1.22,1.22,0,0,0,323.68,111.09Z"/></g><g class="cls-11"><path id="C58_0_5570bc768f-2" data-name="C58 0 5570bc768f" class="cls-4" d="M388.14,98.2a1.23,1.23,0,1,0-.87-.36A1.22,1.22,0,0,0,388.14,98.2Z"/></g></g><g id="PathCollection_91" data-name="PathCollection 91"><g class="cls-11"><path id="C59_0_540aef882e" data-name="C59 0 540aef882e" class="cls-4" d="M323.68,108.6a1.23,1.23,0,1,0-.87-.36A1.22,1.22,0,0,0,323.68,108.6Z"/></g><g class="cls-11"><path id="C59_0_540aef882e-2" data-name="C59 0 540aef882e" class="cls-4" d="M388.14,73.74a1.22,1.22,0,0,0,.86-.36,1.2,1.2,0,0,0,.36-.86,1.23,1.23,0,1,0-2.45,0,1.2,1.2,0,0,0,.36.86A1.23,1.23,0,0,0,388.14,73.74Z"/></g></g><g id="PathCollection_92" data-name="PathCollection 92"><g class="cls-11"><path id="C5a_0_1041ba5ce1" data-name="C5a 0 1041ba5ce1" class="cls-4" d="M323.68,77.67a1.21,1.21,0,0,0,.86-.35,1.23,1.23,0,0,0,0-1.74,1.24,1.24,0,0,0-1.73,0,1.23,1.23,0,0,0,0,1.74A1.22,1.22,0,0,0,323.68,77.67Z"/></g><g class="cls-11"><path id="C5a_0_1041ba5ce1-2" data-name="C5a 0 1041ba5ce1" class="cls-4" d="M388.14,104.81a1.21,1.21,0,0,0,1.22-1.22,1.23,1.23,0,1,0-2.45,0,1.24,1.24,0,0,0,.36.87A1.26,1.26,0,0,0,388.14,104.81Z"/></g></g><g id="PathCollection_93" data-name="PathCollection 93"><g class="cls-11"><path id="C5b_0_dda7c287e2" data-name="C5b 0 dda7c287e2" class="cls-4" d="M323.68,101.87a1.23,1.23,0,0,0,1.22-1.23,1.24,1.24,0,0,0-.36-.87,1.24,1.24,0,0,0-1.73,0,1.24,1.24,0,0,0-.36.87,1.23,1.23,0,0,0,1.23,1.23Z"/></g><g class="cls-11"><path id="C5b_0_dda7c287e2-2" data-name="C5b 0 dda7c287e2" class="cls-4" d="M388.14,76.94a1.23,1.23,0,1,0-.87-.36A1.22,1.22,0,0,0,388.14,76.94Z"/></g></g><g id="PathCollection_94" data-name="PathCollection 94"><g class="cls-11"><path id="C5c_0_a13496232e" data-name="C5c 0 a13496232e" class="cls-4" d="M323.68,90.56a1.23,1.23,0,1,0-.87-.36A1.22,1.22,0,0,0,323.68,90.56Z"/></g><g class="cls-11"><path id="C5c_0_a13496232e-2" data-name="C5c 0 a13496232e" class="cls-4" d="M388.14,78.86a1.23,1.23,0,1,0-.87-.36A1.22,1.22,0,0,0,388.14,78.86Z"/></g></g><g id="patch_28" data-name="patch 28"><g class="cls-11"><path class="cls-5" d="M319.84,117.33l-.62-.91-.66-.92-.69-.91-.72-.91-.72-.91-.73-.92-.71-.91-.7-.91-.67-.91-.64-.92-.61-.91-.58-.91-.54-.91-.52-.92-.48-.91-.47-.91-.45-.91-.43-.92-.41-.91-.4-.91-.38-.91-.36-.92-.34-.91-.31-.91-.27-.91-.24-.91-.19-.92-.14-.91-.07-.91,0-.91.06-.92.13-.91.2-.91.29-.91.36-.92.44-.91.51-.91.57-.91.64-.92.68-.91.73-.91.77-.91.78-.92.8-.91.8-.91.78-.91.77-.92.73-.91.7-.91.64-.91.6-.92.53-.91.48-.91.41-.91.36-.92.3-.91.25-.91.21-.91.17-.91.14-.92.13-.91.12-.91.11-.91.11-.92.12-.91.14-.91.14-.91.15-.92.16-.91.17-.91.17-.91.17-.92.17-.91.16-.91.15-.91.14-.92.13-.91.11-.91.1-.91.09-.92.07-.91.06-.91,0-.91,0-.92,0-.91,0-.91,0-.91V27Z"/></g></g><g id="patch_29" data-name="patch 29"><g class="cls-11"><path class="cls-5" d="M389.85,117.33l.41-.91.47-.92.55-.91.62-.91.7-.91.77-.92.83-.91.9-.91.95-.91,1-.92,1-.91,1.05-.91,1.06-.91,1-.92,1-.91,1-.91.94-.91.88-.92.83-.91.75-.91.67-.91.59-.92.52-.91.43-.91.36-.91.27-.91.2-.92.13-.91.06-.91V90l-.06-.92-.11-.91-.17-.91-.2-.91-.25-.92-.29-.91-.32-.91-.35-.91-.39-.92-.43-.91-.47-.91-.51-.91-.57-.92-.61-.91-.67-.91-.73-.91-.77-.92-.82-.91-.86-.91-.89-.91-.9-.92-.9-.91-.88-.91-.85-.91-.81-.92-.76-.91-.69-.91-.63-.91-.55-.91-.48-.92-.4-.91-.32-.91-.25-.91-.19-.92-.11-.91,0-.91,0-.91.09-.92.16-.91.22-.91.3-.91.35-.92.41-.91.46-.91.51-.91.53-.92.53-.91.54-.91.5-.91.47-.92.39-.91.32-.91.23-.91.12-.92v-.91l-.1-.91-.22-.91-.32-.92-.42-.91-.5-.91-.56-.91-.61-.92-.64-.91-.65-.91-.64-.91-.63-.91-.6-.92-.55-.91-.51-.91Z"/></g></g><g id="matplotlib.axis_9" data-name="matplotlib.axis 9"><g id="xtick_20" data-name="xtick 20"><g id="line2d_216" data-name="line2d 216"><path id="m4c5949c2dc-5" data-name="m4c5949c2dc" class="cls-6" d="M323.68,133v3.5"/></g><g id="text_36" data-name="text 36"><path id="DejaVuSans-70-5" data-name="DejaVuSans-70" class="cls-7" d="M317.29,146.8v2.9h-.9v-7.55h.9V143a1.78,1.78,0,0,1,.72-.72,2.09,2.09,0,0,1,1-.24,1.94,1.94,0,0,1,1.62.79,3.75,3.75,0,0,1,0,4.16,1.94,1.94,0,0,1-1.62.79,2.09,2.09,0,0,1-1-.24A1.91,1.91,0,0,1,317.29,146.8Zm3.06-1.91a2.58,2.58,0,0,0-.41-1.56,1.4,1.4,0,0,0-2.24,0,2.65,2.65,0,0,0-.41,1.56,2.6,2.6,0,0,0,.41,1.55,1.39,1.39,0,0,0,2.24,0A2.53,2.53,0,0,0,320.35,144.89Z"/><path id="DejaVuSans-72-3" data-name="DejaVuSans-72" class="cls-7" d="M325.94,143a1.2,1.2,0,0,0-.33-.13,1.61,1.61,0,0,0-.39,0,1.42,1.42,0,0,0-1.17.49,2.21,2.21,0,0,0-.41,1.43v2.88h-.9v-5.47h.9V143a1.88,1.88,0,0,1,.74-.74,2.32,2.32,0,0,1,1.1-.24h.21l.25,0Z"/><path id="DejaVuSans-65-4" data-name="DejaVuSans-65" class="cls-7" d="M331.34,144.66v.44h-4.13a2,2,0,0,0,.56,1.41,1.87,1.87,0,0,0,1.39.49,3.71,3.71,0,0,0,1-.13,4.15,4.15,0,0,0,1-.38v.85a4.94,4.94,0,0,1-1,.31,5.15,5.15,0,0,1-1,.11,2.62,2.62,0,0,1-2.84-2.82,3,3,0,0,1,.72-2.13,2.53,2.53,0,0,1,2-.79,2.25,2.25,0,0,1,1.75.71A2.81,2.81,0,0,1,331.34,144.66Zm-.9-.27a1.7,1.7,0,0,0-.41-1.17,1.4,1.4,0,0,0-1.07-.44,1.69,1.69,0,0,0-1.2.42,1.8,1.8,0,0,0-.52,1.2Z"/></g></g><g id="xtick_21" data-name="xtick 21"><g id="line2d_217" data-name="line2d 217"><path id="m4c5949c2dc-6" data-name="m4c5949c2dc" class="cls-6" d="M388.14,133v3.5"/></g><g id="text_37" data-name="text 37"><path id="DejaVuSans-70-6" data-name="DejaVuSans-70" class="cls-7" d="M379.15,146.8v2.9h-.9v-7.55h.9V143a1.82,1.82,0,0,1,.71-.72,2.13,2.13,0,0,1,1-.24,2,2,0,0,1,1.62.79,3.8,3.8,0,0,1,0,4.16,2,2,0,0,1-1.62.79,2.13,2.13,0,0,1-1-.24A2,2,0,0,1,379.15,146.8Zm3.06-1.91a2.65,2.65,0,0,0-.41-1.56,1.4,1.4,0,0,0-2.24,0,2.58,2.58,0,0,0-.41,1.56,2.53,2.53,0,0,0,.41,1.55,1.39,1.39,0,0,0,2.24,0A2.6,2.6,0,0,0,382.21,144.89Z"/><path id="DejaVuSans-6f-3" data-name="DejaVuSans-6f" class="cls-7" d="M386.75,142.78a1.36,1.36,0,0,0-1.15.56,2.55,2.55,0,0,0-.42,1.55,2.51,2.51,0,0,0,.42,1.54,1.35,1.35,0,0,0,1.15.57,1.32,1.32,0,0,0,1.13-.57,3,3,0,0,0,0-3.08A1.32,1.32,0,0,0,386.75,142.78Zm0-.76a2.32,2.32,0,0,1,1.84.76,3.66,3.66,0,0,1,0,4.22,2.62,2.62,0,0,1-3.69,0,3.7,3.7,0,0,1,0-4.22A2.33,2.33,0,0,1,386.75,142Z"/><path id="DejaVuSans-73-3" data-name="DejaVuSans-73" class="cls-7" d="M394.23,142.31v.85a3.26,3.26,0,0,0-.79-.29,3.41,3.41,0,0,0-.85-.1,2,2,0,0,0-1,.2.68.68,0,0,0-.34.62.58.58,0,0,0,.24.49,2.85,2.85,0,0,0,1,.34l.31.07a2.84,2.84,0,0,1,1.36.58,1.34,1.34,0,0,1,.41,1,1.44,1.44,0,0,1-.61,1.21,2.77,2.77,0,0,1-1.66.44,4.92,4.92,0,0,1-.91-.09,7,7,0,0,1-1-.25v-.93a5,5,0,0,0,1,.39,4,4,0,0,0,.95.13,1.87,1.87,0,0,0,1-.22.68.68,0,0,0,.34-.61.65.65,0,0,0-.25-.56,2.92,2.92,0,0,0-1.08-.38l-.31-.07a2.48,2.48,0,0,1-1.21-.54,1.38,1.38,0,0,1-.37-1,1.42,1.42,0,0,1,.55-1.19,2.51,2.51,0,0,1,1.55-.42,5.53,5.53,0,0,1,.94.07A4,4,0,0,1,394.23,142.31Z"/><path id="DejaVuSans-74-3" data-name="DejaVuSans-74" class="cls-7" d="M396.84,140.6v1.55h1.85v.7h-1.85v3a1.37,1.37,0,0,0,.19.86,1.08,1.08,0,0,0,.74.19h.92v.75h-.92a2,2,0,0,1-1.43-.39,1.93,1.93,0,0,1-.4-1.41v-3h-.66v-.7h.66V140.6Z"/></g></g><g id="text_38" data-name="text 38"><path id="DejaVuSans-Oblique-43-3" data-name="DejaVuSans-Oblique-43" class="cls-7" d="M356.93,154.65l-.24,1.25a4.07,4.07,0,0,0-1.2-.85,3.4,3.4,0,0,0-1.36-.27,3.23,3.23,0,0,0-1.76.48,4.09,4.09,0,0,0-1.31,1.46,6.26,6.26,0,0,0-.54,1.34,5.76,5.76,0,0,0-.18,1.42,2.48,2.48,0,0,0,.62,1.82,2.4,2.4,0,0,0,1.79.63,4.83,4.83,0,0,0,1.57-.26,5.46,5.46,0,0,0,1.46-.78l-.28,1.4a7.22,7.22,0,0,1-1.41.45,6.85,6.85,0,0,1-1.42.15A3.63,3.63,0,0,1,350,162a3.38,3.38,0,0,1-1-2.54,6,6,0,0,1,.36-2.05,6.25,6.25,0,0,1,1-1.85,4.45,4.45,0,0,1,1.63-1.3,5.06,5.06,0,0,1,2.13-.42,5.15,5.15,0,0,1,1.43.2A4.45,4.45,0,0,1,356.93,154.65Z"/><path id="DejaVuSans-Oblique-50" class="cls-7" d="M358.39,158.57h1.91a1.88,1.88,0,0,1,1.28.39,1.45,1.45,0,0,1,.44,1.14,2,2,0,0,1-.65,1.57,2.71,2.71,0,0,1-1.82.56h-1l-.48,2.46h-.84Zm.69.68-.44,2.3h1a1.5,1.5,0,0,0,1.08-.36,1.35,1.35,0,0,0,.38-1,.86.86,0,0,0-.25-.66,1,1,0,0,0-.72-.24Z"/><path id="DejaVuSans-Oblique-4c" class="cls-7" d="M363.44,158.57h.84l-1,5.43h3l-.14.69h-3.81Z"/></g></g><g id="line2d_218" data-name="line2d 218"><g class="cls-11"><path class="cls-8" d="M323.68,82.35,388.14,84"/></g></g><g id="line2d_221" data-name="line2d 221"><g class="cls-11"><path class="cls-8" d="M323.68,98.76l64.46-63.55"/></g></g><g id="line2d_224" data-name="line2d 224"><g class="cls-11"><path class="cls-8" d="M323.68,78.59l64.46-38.27"/></g></g><g id="line2d_227" data-name="line2d 227"><g class="cls-11"><path class="cls-8" d="M323.68,93.88,388.14,76.4"/></g></g><g id="line2d_230" data-name="line2d 230"><g class="cls-11"><path class="cls-8" d="M323.68,99.93l64.46.34"/></g></g><g id="line2d_233" data-name="line2d 233"><g class="cls-11"><path class="cls-8" d="M323.68,95.46l64.46-24.9"/></g></g><g id="line2d_236" data-name="line2d 236"><g class="cls-11"><path class="cls-8" d="M323.68,109.3l64.46-50.83"/></g></g><g id="line2d_239" data-name="line2d 239"><g class="cls-11"><path class="cls-8" d="M323.68,84.47,388.14,96"/></g></g><g id="line2d_242" data-name="line2d 242"><g class="cls-11"><path class="cls-8" d="M323.68,87.41l64.46-44.78"/></g></g><g id="line2d_245" data-name="line2d 245"><g class="cls-11"><path class="cls-8" d="M323.68,96.92l64.46-8"/></g></g><g id="line2d_248" data-name="line2d 248"><g class="cls-11"><path class="cls-8" d="M323.68,61.47l64.46,15.45"/></g></g><g id="line2d_251" data-name="line2d 251"><g class="cls-11"><path class="cls-8" d="M323.68,94.28,388.14,102"/></g></g><g id="line2d_254" data-name="line2d 254"><g class="cls-11"><path class="cls-8" d="M323.68,93l64.46-.73"/></g></g><g id="line2d_257" data-name="line2d 257"><g class="cls-11"><path class="cls-8" d="M323.68,85.78,388.14,44"/></g></g><g id="line2d_260" data-name="line2d 260"><g class="cls-11"><path class="cls-8" d="M323.68,73.63l64.46,13.12"/></g></g><g id="line2d_263" data-name="line2d 263"><g class="cls-11"><path class="cls-8" d="M323.68,77.39l64.46-36.84"/></g></g><g id="line2d_266" data-name="line2d 266"><g class="cls-11"><path class="cls-8" d="M323.68,89.42l64.46,18"/></g></g><g id="line2d_269" data-name="line2d 269"><g class="cls-11"><path class="cls-8" d="M323.68,81.52l64.46,8.89"/></g></g><g id="line2d_272" data-name="line2d 272"><g class="cls-11"><path class="cls-8" d="M323.68,106.72l64.46-4.83"/></g></g><g id="line2d_275" data-name="line2d 275"><g class="cls-11"><path class="cls-8" d="M323.68,85.82l64.46,8.61"/></g></g><g id="line2d_278" data-name="line2d 278"><g class="cls-11"><path class="cls-8" d="M323.68,108.4l64.46-24"/></g></g><g id="line2d_281" data-name="line2d 281"><g class="cls-11"><path class="cls-8" d="M323.68,99l64.46-2.25"/></g></g><g id="line2d_284" data-name="line2d 284"><g class="cls-11"><path class="cls-8" d="M323.68,86.82l64.46.72"/></g></g><g id="line2d_287" data-name="line2d 287"><g class="cls-11"><path class="cls-8" d="M323.68,57.3l64.46,20.82"/></g></g><g id="line2d_290" data-name="line2d 290"><g class="cls-11"><path class="cls-8" d="M323.68,109.18l64.46-21.33"/></g></g><g id="line2d_293" data-name="line2d 293"><g class="cls-11"><path class="cls-8" d="M323.68,87.9l64.46-51.23"/></g></g><g id="line2d_296" data-name="line2d 296"><g class="cls-11"><path class="cls-8" d="M323.68,109.86,388.14,97"/></g></g><g id="line2d_299" data-name="line2d 299"><g class="cls-11"><path class="cls-8" d="M323.68,107.37l64.46-34.85"/></g></g><g id="line2d_302" data-name="line2d 302"><g class="cls-11"><path class="cls-8" d="M323.68,76.45l64.46,27.14"/></g></g><g id="line2d_305" data-name="line2d 305"><g class="cls-11"><path class="cls-8" d="M323.68,100.64l64.46-24.92"/></g></g><g id="line2d_308" data-name="line2d 308"><g class="cls-11"><path class="cls-8" d="M323.68,89.33l64.46-11.69"/></g></g><g id="patch_30" data-name="patch 30"><path class="cls-9" d="M300.57,133H415.09"/></g><g id="text_39" data-name="text 39"><path id="DejaVuSans-2a-4" data-name="DejaVuSans-2a" class="cls-7" d="M360.91,7.84l-2.45,1.33,2.45,1.33-.4.67-2.29-1.39v2.58h-.78V9.78l-2.3,1.39-.39-.67,2.45-1.33-2.45-1.33.39-.67,2.3,1.38V6h.78V8.55l2.29-1.38Z"/></g></g></svg>