<?xml version="1.0" encoding="utf-8"?>
<!-- Generator: Adobe Illustrator 26.0.3, SVG Export Plug-In . SVG Version: 6.00 Build 0)  -->
<svg version="1.1" id="Layer_1" xmlns="http://www.w3.org/2000/svg" xmlns:xlink="http://www.w3.org/1999/xlink" x="0px" y="0px"
	 viewBox="0 0 226.4 167.7" style="enable-background:new 0 0 226.4 167.7;" xml:space="preserve">
<style type="text/css">
	.st0{fill:#FFFFFF;}
	.st1{clip-path:url(#SVGID_00000156554286111241292700000004252146732257941396_);}
	.st2{fill:#818181;fill-opacity:0.8;stroke:#818181;stroke-linejoin:round;stroke-opacity:0.8;}
	.st3{clip-path:url(#SVGID_00000114071935252372882440000003492774163309901476_);fill:#818181;fill-opacity:0.15;}
	.st4{fill:#010101;stroke:#010101;stroke-width:0.8;stroke-linejoin:round;}
	.st5{fill:#010101;}
	
		.st6{clip-path:url(#SVGID_00000090989844342169748990000016484057789845136314_);fill:none;stroke:#818181;stroke-width:2.25;stroke-linecap:square;stroke-linejoin:round;}
	.st7{fill:none;stroke:#010101;stroke-width:0.8;stroke-linecap:square;}
</style>
<g id="axes_1">
	<g id="patch_2">
		<path class="st0" d="M41,130.9H222V20.2H41V130.9z"/>
	</g>
	<g id="PathCollection_1">
		<g>
			<defs>
				<rect id="SVGID_1_" x="41" y="20.2" width="180.9" height="110.7"/>
			</defs>
			<clipPath id="SVGID_00000042014467070559725300000001945530173016796064_">
				<use xlink:href="#SVGID_1_"  style="overflow:visible;"/>
			</clipPath>
			<g style="clip-path:url(#SVGID_00000042014467070559725300000001945530173016796064_);">
				<g>
					<path id="m207b152e23" class="st2" d="M170.1,77.1c0.4,0,0.8-0.2,1.1-0.5c0.3-0.3,0.5-0.7,0.5-1.1c0-0.4-0.2-0.8-0.5-1.1
						c-0.3-0.3-0.7-0.5-1.1-0.5s-0.8,0.2-1.1,0.5c-0.3,0.3-0.5,0.7-0.5,1.1c0,0.4,0.2,0.8,0.5,1.1C169.3,77,169.7,77.1,170.1,77.1z"
						/>
				</g>
				<g>
					<path id="m207b152e23_00000100373776113674775920000010967340337193797538_" class="st2" d="M94.6,113.7c0.4,0,0.8-0.2,1.1-0.5
						c0.3-0.3,0.5-0.7,0.5-1.1c0-0.4-0.2-0.8-0.5-1.1c-0.3-0.3-0.7-0.5-1.1-0.5c-0.4,0-0.8,0.2-1.1,0.5c-0.3,0.3-0.5,0.7-0.5,1.1
						c0,0.4,0.2,0.8,0.5,1.1C93.8,113.6,94.2,113.7,94.6,113.7z"/>
				</g>
				<g>
					<path id="m207b152e23_00000096752935953423380290000001931943930567848880_" class="st2" d="M98.5,90.9c0.4,0,0.8-0.2,1.1-0.5
						c0.3-0.3,0.5-0.7,0.5-1.1c0-0.4-0.2-0.8-0.5-1.1c-0.3-0.3-0.7-0.5-1.1-0.5c-0.4,0-0.8,0.2-1.1,0.5c-0.3,0.3-0.5,0.7-0.5,1.1
						c0,0.4,0.2,0.8,0.5,1.1C97.7,90.7,98.1,90.9,98.5,90.9z"/>
				</g>
				<g>
					<path id="m207b152e23_00000089570385199526145170000015588473040767925946_" class="st2" d="M49.3,122.9c0.4,0,0.8-0.2,1.1-0.5
						c0.3-0.3,0.5-0.7,0.5-1.1c0-0.4-0.2-0.8-0.5-1.1c-0.3-0.3-0.7-0.5-1.1-0.5s-0.8,0.2-1.1,0.5c-0.3,0.3-0.5,0.7-0.5,1.1
						c0,0.4,0.2,0.8,0.5,1.1C48.4,122.7,48.8,122.9,49.3,122.9z"/>
				</g>
				<g>
					<path id="m207b152e23_00000011007934831715292340000006719712501736463029_" class="st2" d="M156.1,95.4c0.4,0,0.8-0.2,1.1-0.5
						c0.3-0.3,0.5-0.7,0.5-1.1c0-0.4-0.2-0.8-0.5-1.1c-0.3-0.3-0.7-0.5-1.1-0.5s-0.8,0.2-1.1,0.5c-0.3,0.3-0.5,0.7-0.5,1.1
						c0,0.4,0.2,0.8,0.5,1.1C155.2,95.3,155.6,95.4,156.1,95.4z"/>
				</g>
				<g>
					<path id="m207b152e23_00000157301349448030735310000015894906140921911721_" class="st2" d="M169.7,54.3c0.4,0,0.8-0.2,1.1-0.5
						c0.3-0.3,0.5-0.7,0.5-1.1s-0.2-0.8-0.5-1.1c-0.3-0.3-0.7-0.5-1.1-0.5s-0.8,0.2-1.1,0.5c-0.3,0.3-0.5,0.7-0.5,1.1
						s0.2,0.8,0.5,1.1C168.9,54.1,169.3,54.3,169.7,54.3z"/>
				</g>
				<g>
					<path id="m207b152e23_00000152979804023417735080000005073374871840951206_" class="st2" d="M120.3,100c0.4,0,0.8-0.2,1.1-0.5
						c0.3-0.3,0.5-0.7,0.5-1.1c0-0.4-0.2-0.8-0.5-1.1c-0.3-0.3-0.7-0.5-1.1-0.5c-0.4,0-0.8,0.2-1.1,0.5c-0.3,0.3-0.5,0.7-0.5,1.1
						c0,0.4,0.2,0.8,0.5,1.1C119.4,99.8,119.8,100,120.3,100z"/>
				</g>
				<g>
					<path id="m207b152e23_00000016779103507569989330000000213972861440071345_" class="st2" d="M136.3,86.3c0.4,0,0.8-0.2,1.1-0.5
						c0.3-0.3,0.5-0.7,0.5-1.1c0-0.4-0.2-0.8-0.5-1.1c-0.3-0.3-0.7-0.5-1.1-0.5s-0.8,0.2-1.1,0.5c-0.3,0.3-0.5,0.7-0.5,1.1
						c0,0.4,0.2,0.8,0.5,1.1C135.4,86.1,135.8,86.3,136.3,86.3z"/>
				</g>
				<g>
					<path id="m207b152e23_00000101081726463076189100000005704769931652038817_" class="st2" d="M148.5,77.1c0.4,0,0.8-0.2,1.1-0.5
						c0.3-0.3,0.5-0.7,0.5-1.1c0-0.4-0.2-0.8-0.5-1.1c-0.3-0.3-0.7-0.5-1.1-0.5s-0.8,0.2-1.1,0.5c-0.3,0.3-0.5,0.7-0.5,1.1
						c0,0.4,0.2,0.8,0.5,1.1C147.7,77,148.1,77.1,148.5,77.1z"/>
				</g>
				<g>
					<path id="m207b152e23_00000031927485619920065760000000066393942167595914_" class="st2" d="M188.8,81.7c0.4,0,0.8-0.2,1.1-0.5
						c0.3-0.3,0.5-0.7,0.5-1.1c0-0.4-0.2-0.8-0.5-1.1c-0.3-0.3-0.7-0.5-1.1-0.5s-0.8,0.2-1.1,0.5c-0.3,0.3-0.5,0.7-0.5,1.1
						c0,0.4,0.2,0.8,0.5,1.1C187.9,81.6,188.3,81.7,188.8,81.7z"/>
				</g>
				<g>
					<path id="m207b152e23_00000158747995215405298650000009708156079261856668_" class="st2" d="M60.7,122.9c0.4,0,0.8-0.2,1.1-0.5
						c0.3-0.3,0.5-0.7,0.5-1.1c0-0.4-0.2-0.8-0.5-1.1c-0.3-0.3-0.7-0.5-1.1-0.5s-0.8,0.2-1.1,0.5c-0.3,0.3-0.5,0.7-0.5,1.1
						c0,0.4,0.2,0.8,0.5,1.1C59.9,122.7,60.3,122.9,60.7,122.9z"/>
				</g>
				<g>
					<path id="m207b152e23_00000154399267475828672700000008722566917186698414_" class="st2" d="M178.5,86.3c0.4,0,0.8-0.2,1.1-0.5
						c0.3-0.3,0.5-0.7,0.5-1.1c0-0.4-0.2-0.8-0.5-1.1c-0.3-0.3-0.7-0.5-1.1-0.5s-0.8,0.2-1.1,0.5c-0.3,0.3-0.5,0.7-0.5,1.1
						c0,0.4,0.2,0.8,0.5,1.1C177.7,86.1,178.1,86.3,178.5,86.3z"/>
				</g>
				<g>
					<path id="m207b152e23_00000090973873805423867220000005827976312953461129_" class="st2" d="M188,86.3c0.4,0,0.8-0.2,1.1-0.5
						c0.3-0.3,0.5-0.7,0.5-1.1c0-0.4-0.2-0.8-0.5-1.1c-0.3-0.3-0.7-0.5-1.1-0.5s-0.8,0.2-1.1,0.5c-0.3,0.3-0.5,0.7-0.5,1.1
						c0,0.4,0.2,0.8,0.5,1.1C187.1,86.1,187.5,86.3,188,86.3z"/>
				</g>
				<g>
					<path id="m207b152e23_00000132792490051812295590000017390443133026964372_" class="st2" d="M82,68c0.4,0,0.8-0.2,1.1-0.5
						c0.3-0.3,0.5-0.7,0.5-1.1c0-0.4-0.2-0.8-0.5-1.1c-0.3-0.3-0.7-0.5-1.1-0.5c-0.4,0-0.8,0.2-1.1,0.5c-0.3,0.3-0.5,0.7-0.5,1.1
						c0,0.4,0.2,0.8,0.5,1.1C81.2,67.8,81.6,68,82,68z"/>
				</g>
				<g>
					<path id="m207b152e23_00000013192033386377520890000016116324834019420328_" class="st2" d="M116.1,45.1c0.4,0,0.8-0.2,1.1-0.5
						c0.3-0.3,0.5-0.7,0.5-1.1s-0.2-0.8-0.5-1.1c-0.3-0.3-0.7-0.5-1.1-0.5c-0.4,0-0.8,0.2-1.1,0.5c-0.3,0.3-0.5,0.7-0.5,1.1
						s0.2,0.8,0.5,1.1C115.3,45,115.7,45.1,116.1,45.1z"/>
				</g>
				<g>
					<path id="m207b152e23_00000019646975895900561490000005539011600331527100_" class="st2" d="M172.8,90.9c0.4,0,0.8-0.2,1.1-0.5
						c0.3-0.3,0.5-0.7,0.5-1.1c0-0.4-0.2-0.8-0.5-1.1c-0.3-0.3-0.7-0.5-1.1-0.5s-0.8,0.2-1.1,0.5c-0.3,0.3-0.5,0.7-0.5,1.1
						c0,0.4,0.2,0.8,0.5,1.1C172,90.7,172.4,90.9,172.8,90.9z"/>
				</g>
				<g>
					<path id="m207b152e23_00000105416155640864263740000005191213763108051348_" class="st2" d="M126.8,86.3c0.4,0,0.8-0.2,1.1-0.5
						c0.3-0.3,0.5-0.7,0.5-1.1c0-0.4-0.2-0.8-0.5-1.1c-0.3-0.3-0.7-0.5-1.1-0.5c-0.4,0-0.8,0.2-1.1,0.5c-0.3,0.3-0.5,0.7-0.5,1.1
						c0,0.4,0.2,0.8,0.5,1.1C126,86.1,126.4,86.3,126.8,86.3z"/>
				</g>
				<g>
					<path id="m207b152e23_00000152955071038838539300000017215626804769453221_" class="st2" d="M127.7,100c0.4,0,0.8-0.2,1.1-0.5
						c0.3-0.3,0.5-0.7,0.5-1.1c0-0.4-0.2-0.8-0.5-1.1c-0.3-0.3-0.7-0.5-1.1-0.5c-0.4,0-0.8,0.2-1.1,0.5c-0.3,0.3-0.5,0.7-0.5,1.1
						c0,0.4,0.2,0.8,0.5,1.1C126.9,99.8,127.3,100,127.7,100z"/>
				</g>
				<g>
					<path id="m207b152e23_00000174601625264672807300000006743202931901040782_" class="st2" d="M167,100c0.4,0,0.8-0.2,1.1-0.5
						c0.3-0.3,0.5-0.7,0.5-1.1c0-0.4-0.2-0.8-0.5-1.1c-0.3-0.3-0.7-0.5-1.1-0.5s-0.8,0.2-1.1,0.5c-0.3,0.3-0.5,0.7-0.5,1.1
						c0,0.4,0.2,0.8,0.5,1.1C166.2,99.8,166.6,100,167,100z"/>
				</g>
				<g>
					<path id="m207b152e23_00000034789374180792754580000012293479642924059550_" class="st2" d="M179.1,95.4c0.4,0,0.8-0.2,1.1-0.5
						c0.3-0.3,0.5-0.7,0.5-1.1c0-0.4-0.2-0.8-0.5-1.1c-0.3-0.3-0.7-0.5-1.1-0.5s-0.8,0.2-1.1,0.5c-0.3,0.3-0.5,0.7-0.5,1.1
						c0,0.4,0.2,0.8,0.5,1.1C178.3,95.3,178.7,95.4,179.1,95.4z"/>
				</g>
				<g>
					<path id="m207b152e23_00000145747011459188454120000018366660339945491891_" class="st2" d="M105.2,104.6
						c0.4,0,0.8-0.2,1.1-0.5c0.3-0.3,0.5-0.7,0.5-1.1c0-0.4-0.2-0.8-0.5-1.1c-0.3-0.3-0.7-0.5-1.1-0.5c-0.4,0-0.8,0.2-1.1,0.5
						c-0.3,0.3-0.5,0.7-0.5,1.1c0,0.4,0.2,0.8,0.5,1.1C104.4,104.4,104.8,104.6,105.2,104.6z"/>
				</g>
				<g>
					<path id="m207b152e23_00000058555137870504260580000005176537974746339718_" class="st2" d="M166.9,63.4c0.4,0,0.8-0.2,1.1-0.5
						c0.3-0.3,0.5-0.7,0.5-1.1s-0.2-0.8-0.5-1.1c-0.3-0.3-0.7-0.5-1.1-0.5s-0.8,0.2-1.1,0.5c-0.3,0.3-0.5,0.7-0.5,1.1
						s0.2,0.8,0.5,1.1C166.1,63.3,166.5,63.4,166.9,63.4z"/>
				</g>
				<g>
					<path id="m207b152e23_00000137128489568865389620000005907250598095365010_" class="st2" d="M141.9,109.2
						c0.4,0,0.8-0.2,1.1-0.5c0.3-0.3,0.5-0.7,0.5-1.1c0-0.4-0.2-0.8-0.5-1.1c-0.3-0.3-0.7-0.5-1.1-0.5s-0.8,0.2-1.1,0.5
						c-0.3,0.3-0.5,0.7-0.5,1.1c0,0.4,0.2,0.8,0.5,1.1C141.1,109,141.5,109.2,141.9,109.2z"/>
				</g>
				<g>
					<path id="m207b152e23_00000129898023026106120030000004112129832289046958_" class="st2" d="M203.7,40.6c0.4,0,0.8-0.2,1.1-0.5
						c0.3-0.3,0.5-0.7,0.5-1.1s-0.2-0.8-0.5-1.1c-0.3-0.3-0.7-0.5-1.1-0.5s-0.8,0.2-1.1,0.5c-0.3,0.3-0.5,0.7-0.5,1.1
						s0.2,0.8,0.5,1.1C202.9,40.4,203.3,40.6,203.7,40.6z"/>
				</g>
				<g>
					<path id="m207b152e23_00000073701901663484861600000000460435599833201075_" class="st2" d="M54.5,95.4c0.4,0,0.8-0.2,1.1-0.5
						c0.3-0.3,0.5-0.7,0.5-1.1c0-0.4-0.2-0.8-0.5-1.1c-0.3-0.3-0.7-0.5-1.1-0.5s-0.8,0.2-1.1,0.5c-0.3,0.3-0.5,0.7-0.5,1.1
						c0,0.4,0.2,0.8,0.5,1.1C53.7,95.3,54.1,95.4,54.5,95.4z"/>
				</g>
				<g>
					<path id="m207b152e23_00000152975928469847472980000005165027984006355858_" class="st2" d="M134.3,100c0.4,0,0.8-0.2,1.1-0.5
						c0.3-0.3,0.5-0.7,0.5-1.1c0-0.4-0.2-0.8-0.5-1.1c-0.3-0.3-0.7-0.5-1.1-0.5s-0.8,0.2-1.1,0.5c-0.3,0.3-0.5,0.7-0.5,1.1
						c0,0.4,0.2,0.8,0.5,1.1C133.4,99.8,133.9,100,134.3,100z"/>
				</g>
				<g>
					<path id="m207b152e23_00000181085361821135503230000005306541418498152068_" class="st2" d="M145.9,36c0.4,0,0.8-0.2,1.1-0.5
						c0.3-0.3,0.5-0.7,0.5-1.1s-0.2-0.8-0.5-1.1c-0.3-0.3-0.7-0.5-1.1-0.5s-0.8,0.2-1.1,0.5c-0.3,0.3-0.5,0.7-0.5,1.1
						s0.2,0.8,0.5,1.1C145,35.8,145.4,36,145.9,36z"/>
				</g>
				<g>
					<path id="m207b152e23_00000062150914208708445320000014508041377912835476_" class="st2" d="M106.6,109.2
						c0.4,0,0.8-0.2,1.1-0.5c0.3-0.3,0.5-0.7,0.5-1.1c0-0.4-0.2-0.8-0.5-1.1c-0.3-0.3-0.7-0.5-1.1-0.5c-0.4,0-0.8,0.2-1.1,0.5
						c-0.3,0.3-0.5,0.7-0.5,1.1c0,0.4,0.2,0.8,0.5,1.1C105.8,109,106.2,109.2,106.6,109.2z"/>
				</g>
				<g>
					<path id="m207b152e23_00000099627632918792737970000008076377359911718074_" class="st2" d="M139.7,127.4
						c0.4,0,0.8-0.2,1.1-0.5c0.3-0.3,0.5-0.7,0.5-1.1c0-0.4-0.2-0.8-0.5-1.1c-0.3-0.3-0.7-0.5-1.1-0.5s-0.8,0.2-1.1,0.5
						c-0.3,0.3-0.5,0.7-0.5,1.1c0,0.4,0.2,0.8,0.5,1.1C138.8,127.3,139.2,127.4,139.7,127.4z"/>
				</g>
				<g>
					<path id="m207b152e23_00000005976415864212374560000003861743599889615010_" class="st2" d="M152.9,109.2
						c0.4,0,0.8-0.2,1.1-0.5c0.3-0.3,0.5-0.7,0.5-1.1c0-0.4-0.2-0.8-0.5-1.1c-0.3-0.3-0.7-0.5-1.1-0.5s-0.8,0.2-1.1,0.5
						c-0.3,0.3-0.5,0.7-0.5,1.1c0,0.4,0.2,0.8,0.5,1.1C152.1,109,152.5,109.2,152.9,109.2z"/>
				</g>
				<g>
					<path id="m207b152e23_00000176729365575937669500000006471517708650705846_" class="st2" d="M146.4,113.7
						c0.4,0,0.8-0.2,1.1-0.5c0.3-0.3,0.5-0.7,0.5-1.1c0-0.4-0.2-0.8-0.5-1.1c-0.3-0.3-0.7-0.5-1.1-0.5s-0.8,0.2-1.1,0.5
						c-0.3,0.3-0.5,0.7-0.5,1.1c0,0.4,0.2,0.8,0.5,1.1C145.6,113.6,146,113.7,146.4,113.7z"/>
				</g>
				<g>
					<path id="m207b152e23_00000094620127712784675360000010297873447999467408_" class="st2" d="M114.3,104.6
						c0.4,0,0.8-0.2,1.1-0.5c0.3-0.3,0.5-0.7,0.5-1.1c0-0.4-0.2-0.8-0.5-1.1c-0.3-0.3-0.7-0.5-1.1-0.5c-0.4,0-0.8,0.2-1.1,0.5
						c-0.3,0.3-0.5,0.7-0.5,1.1c0,0.4,0.2,0.8,0.5,1.1C113.5,104.4,113.9,104.6,114.3,104.6z"/>
				</g>
				<g>
					<path id="m207b152e23_00000087385451766980170480000001056539912885717140_" class="st2" d="M111.2,86.3c0.4,0,0.8-0.2,1.1-0.5
						c0.3-0.3,0.5-0.7,0.5-1.1c0-0.4-0.2-0.8-0.5-1.1c-0.3-0.3-0.7-0.5-1.1-0.5c-0.4,0-0.8,0.2-1.1,0.5c-0.3,0.3-0.5,0.7-0.5,1.1
						c0,0.4,0.2,0.8,0.5,1.1C110.3,86.1,110.7,86.3,111.2,86.3z"/>
				</g>
				<g>
					<path id="m207b152e23_00000029040257082812141930000001871428403133685141_" class="st2" d="M144.8,58.9c0.4,0,0.8-0.2,1.1-0.5
						c0.3-0.3,0.5-0.7,0.5-1.1s-0.2-0.8-0.5-1.1c-0.3-0.3-0.7-0.5-1.1-0.5s-0.8,0.2-1.1,0.5c-0.3,0.3-0.5,0.7-0.5,1.1
						s0.2,0.8,0.5,1.1C144,58.7,144.4,58.9,144.8,58.9z"/>
				</g>
				<g>
					<path id="m207b152e23_00000137114109125424020500000014089272704913067147_" class="st2" d="M164.8,58.9c0.4,0,0.8-0.2,1.1-0.5
						c0.3-0.3,0.5-0.7,0.5-1.1s-0.2-0.8-0.5-1.1c-0.3-0.3-0.7-0.5-1.1-0.5s-0.8,0.2-1.1,0.5c-0.3,0.3-0.5,0.7-0.5,1.1
						s0.2,0.8,0.5,1.1C163.9,58.7,164.3,58.9,164.8,58.9z"/>
				</g>
				<g>
					<path id="m207b152e23_00000101813006474384183570000016724666127446796950_" class="st2" d="M187.1,54.3c0.4,0,0.8-0.2,1.1-0.5
						c0.3-0.3,0.5-0.7,0.5-1.1s-0.2-0.8-0.5-1.1c-0.3-0.3-0.7-0.5-1.1-0.5s-0.8,0.2-1.1,0.5c-0.3,0.3-0.5,0.7-0.5,1.1
						s0.2,0.8,0.5,1.1C186.3,54.1,186.7,54.3,187.1,54.3z"/>
				</g>
				<g>
					<path id="m207b152e23_00000066484235032200406330000016829188994368324789_" class="st2" d="M213.7,95.4c0.4,0,0.8-0.2,1.1-0.5
						c0.3-0.3,0.5-0.7,0.5-1.1c0-0.4-0.2-0.8-0.5-1.1c-0.3-0.3-0.7-0.5-1.1-0.5s-0.8,0.2-1.1,0.5c-0.3,0.3-0.5,0.7-0.5,1.1
						c0,0.4,0.2,0.8,0.5,1.1C212.9,95.3,213.3,95.4,213.7,95.4z"/>
				</g>
				<g>
					<path id="m207b152e23_00000034079599262105445440000009585695028876605580_" class="st2" d="M165,104.6c0.4,0,0.8-0.2,1.1-0.5
						c0.3-0.3,0.5-0.7,0.5-1.1c0-0.4-0.2-0.8-0.5-1.1c-0.3-0.3-0.7-0.5-1.1-0.5s-0.8,0.2-1.1,0.5c-0.3,0.3-0.5,0.7-0.5,1.1
						c0,0.4,0.2,0.8,0.5,1.1C164.2,104.4,164.6,104.6,165,104.6z"/>
				</g>
				<g>
					<path id="m207b152e23_00000091703140179352566600000011619149767773213857_" class="st2" d="M145.2,109.2
						c0.4,0,0.8-0.2,1.1-0.5c0.3-0.3,0.5-0.7,0.5-1.1c0-0.4-0.2-0.8-0.5-1.1c-0.3-0.3-0.7-0.5-1.1-0.5s-0.8,0.2-1.1,0.5
						c-0.3,0.3-0.5,0.7-0.5,1.1c0,0.4,0.2,0.8,0.5,1.1C144.4,109,144.8,109.2,145.2,109.2z"/>
				</g>
				<g>
					<path id="m207b152e23_00000088816766334945494370000007397130267479886235_" class="st2" d="M185.7,86.3c0.4,0,0.8-0.2,1.1-0.5
						c0.3-0.3,0.5-0.7,0.5-1.1c0-0.4-0.2-0.8-0.5-1.1c-0.3-0.3-0.7-0.5-1.1-0.5s-0.8,0.2-1.1,0.5c-0.3,0.3-0.5,0.7-0.5,1.1
						c0,0.4,0.2,0.8,0.5,1.1C184.9,86.1,185.3,86.3,185.7,86.3z"/>
				</g>
				<g>
					<path id="m207b152e23_00000118356645562752120810000010177640097653128633_" class="st2" d="M127,81.7c0.4,0,0.8-0.2,1.1-0.5
						c0.3-0.3,0.5-0.7,0.5-1.1c0-0.4-0.2-0.8-0.5-1.1c-0.3-0.3-0.7-0.5-1.1-0.5c-0.4,0-0.8,0.2-1.1,0.5c-0.3,0.3-0.5,0.7-0.5,1.1
						c0,0.4,0.2,0.8,0.5,1.1C126.2,81.6,126.6,81.7,127,81.7z"/>
				</g>
				<g>
					<path id="m207b152e23_00000070104252316640174750000013219482299685626506_" class="st2" d="M122.1,81.7c0.4,0,0.8-0.2,1.1-0.5
						c0.3-0.3,0.5-0.7,0.5-1.1c0-0.4-0.2-0.8-0.5-1.1c-0.3-0.3-0.7-0.5-1.1-0.5c-0.4,0-0.8,0.2-1.1,0.5c-0.3,0.3-0.5,0.7-0.5,1.1
						c0,0.4,0.2,0.8,0.5,1.1C121.3,81.6,121.7,81.7,122.1,81.7z"/>
				</g>
				<g>
					<path id="m207b152e23_00000045609626478140052910000007144590279288284861_" class="st2" d="M51.7,109.2c0.4,0,0.8-0.2,1.1-0.5
						c0.3-0.3,0.5-0.7,0.5-1.1c0-0.4-0.2-0.8-0.5-1.1c-0.3-0.3-0.7-0.5-1.1-0.5s-0.8,0.2-1.1,0.5c-0.3,0.3-0.5,0.7-0.5,1.1
						c0,0.4,0.2,0.8,0.5,1.1C50.9,109,51.3,109.2,51.7,109.2z"/>
				</g>
				<g>
					<path id="m207b152e23_00000087383529299089987800000015796128213963781051_" class="st2" d="M111.9,95.4c0.4,0,0.8-0.2,1.1-0.5
						c0.3-0.3,0.5-0.7,0.5-1.1c0-0.4-0.2-0.8-0.5-1.1c-0.3-0.3-0.7-0.5-1.1-0.5c-0.4,0-0.8,0.2-1.1,0.5c-0.3,0.3-0.5,0.7-0.5,1.1
						c0,0.4,0.2,0.8,0.5,1.1C111.1,95.3,111.5,95.4,111.9,95.4z"/>
				</g>
				<g>
					<path id="m207b152e23_00000054966052939088823360000008898356720276400270_" class="st2" d="M118.7,26.9c0.4,0,0.8-0.2,1.1-0.5
						c0.3-0.3,0.5-0.7,0.5-1.1s-0.2-0.8-0.5-1.1c-0.3-0.3-0.7-0.5-1.1-0.5c-0.4,0-0.8,0.2-1.1,0.5c-0.3,0.3-0.5,0.7-0.5,1.1
						s0.2,0.8,0.5,1.1C117.9,26.7,118.3,26.9,118.7,26.9z"/>
				</g>
				<g>
					<path id="m207b152e23_00000082363361253020693930000014057544296193104047_" class="st2" d="M118.7,100c0.4,0,0.8-0.2,1.1-0.5
						c0.3-0.3,0.5-0.7,0.5-1.1c0-0.4-0.2-0.8-0.5-1.1c-0.3-0.3-0.7-0.5-1.1-0.5c-0.4,0-0.8,0.2-1.1,0.5c-0.3,0.3-0.5,0.7-0.5,1.1
						c0,0.4,0.2,0.8,0.5,1.1C117.9,99.8,118.3,100,118.7,100z"/>
				</g>
				<g>
					<path id="m207b152e23_00000178883526431378856690000003223318757147700357_" class="st2" d="M145.4,95.4c0.4,0,0.8-0.2,1.1-0.5
						c0.3-0.3,0.5-0.7,0.5-1.1c0-0.4-0.2-0.8-0.5-1.1c-0.3-0.3-0.7-0.5-1.1-0.5s-0.8,0.2-1.1,0.5c-0.3,0.3-0.5,0.7-0.5,1.1
						c0,0.4,0.2,0.8,0.5,1.1C144.6,95.3,145,95.4,145.4,95.4z"/>
				</g>
				<g>
					<path id="m207b152e23_00000013906766498722522780000002412770855954426789_" class="st2" d="M171.7,77.1c0.4,0,0.8-0.2,1.1-0.5
						c0.3-0.3,0.5-0.7,0.5-1.1c0-0.4-0.2-0.8-0.5-1.1c-0.3-0.3-0.7-0.5-1.1-0.5s-0.8,0.2-1.1,0.5c-0.3,0.3-0.5,0.7-0.5,1.1
						c0,0.4,0.2,0.8,0.5,1.1C170.9,77,171.3,77.1,171.7,77.1z"/>
				</g>
			</g>
		</g>
	</g>
	<g id="PolyCollection_1">
		<g>
			<defs>
				<rect id="SVGID_00000127028261165264818560000008459321789025557174_" x="41" y="20.2" width="180.9" height="110.7"/>
			</defs>
			<clipPath id="SVGID_00000165923781065914680800000006336698843518306436_">
				<use xlink:href="#SVGID_00000127028261165264818560000008459321789025557174_"  style="overflow:visible;"/>
			</clipPath>
			<path style="clip-path:url(#SVGID_00000165923781065914680800000006336698843518306436_);fill:#818181;fill-opacity:0.15;" d="
				M49.3,89.6v27.5l1.7-0.5l1.7-0.5l1.7-0.5l1.7-0.5l1.7-0.5l1.7-0.5l1.7-0.6l1.7-0.6l1.7-0.6l1.7-0.6l1.7-0.6l1.7-0.5l1.7-0.4
				l1.7-0.4l1.7-0.4l1.7-0.5l1.7-0.6l1.7-0.6l1.7-0.6l1.7-0.6l1.7-0.6l1.7-0.5l1.7-0.5l1.7-0.5l1.7-0.3l1.7-0.3l1.7-0.6l1.7-0.7
				l1.7-0.5l1.7-0.4l1.7-0.4l1.7-0.5l1.7-0.5l1.7-0.4l1.7-0.5l1.7-0.5l1.7-0.4l1.7-0.4l1.7-0.4l1.7-0.6l1.7-0.3l1.7-0.4l1.7-0.5
				l1.7-0.4L124,95l1.7-0.4l1.7-0.4L129,94l1.7-0.4l1.7-0.4l1.7-0.4l1.7-0.4l1.7-0.3l1.7-0.3l1.7-0.4l1.7-0.3l1.7-0.3l1.7-0.4
				l1.7-0.3l1.7-0.3l1.7-0.3l1.7-0.2l1.7-0.2l1.7-0.2l1.7-0.2l1.7-0.1l1.7-0.2l1.7-0.2l1.7-0.3l1.7-0.2l1.7-0.3l1.7-0.3l1.7-0.2
				l1.7-0.2l1.7-0.2l1.7-0.2l1.7-0.2l1.7-0.2l1.7-0.2l1.7-0.3l1.7-0.3l1.7-0.2l1.7-0.2l1.7-0.2l1.7,0l1.7-0.1l1.7-0.2l1.7-0.1
				l1.7-0.1l1.7-0.1l1.7,0l1.7-0.1l1.7-0.1l1.7-0.1l1.7-0.1l1.7-0.2l1.7-0.2l1.7-0.2l1.7-0.2V58.9l0,0l-1.7,0.5l-1.7,0.5l-1.7,0.6
				l-1.7,0.5l-1.7,0.5l-1.7,0.5l-1.7,0.5l-1.7,0.5l-1.7,0.5l-1.7,0.5l-1.7,0.5l-1.7,0.5l-1.7,0.5l-1.7,0.5l-1.7,0.5l-1.7,0.6
				l-1.7,0.5l-1.7,0.5l-1.7,0.5l-1.7,0.4l-1.7,0.6l-1.7,0.6l-1.7,0.5l-1.7,0.5l-1.7,0.4l-1.7,0.4l-1.7,0.4l-1.7,0.5l-1.7,0.5
				l-1.7,0.5l-1.7,0.5l-1.7,0.5l-1.7,0.5l-1.7,0.4l-1.7,0.4l-1.7,0.4l-1.7,0.4l-1.7,0.4l-1.7,0.4l-1.7,0.4l-1.7,0.4l-1.7,0.4
				l-1.7,0.3l-1.7,0.4l-1.7,0.4l-1.7,0.3l-1.7,0.2l-1.7,0.3l-1.7,0.3l-1.7,0.3l-1.7,0.3l-1.7,0.2l-1.7,0.4l-1.7,0.3l-1.7,0.2
				l-1.7,0.2l-1.7,0.2l-1.7,0.2l-1.7,0.1l-1.7,0.2l-1.7,0.2l-1.7,0.2l-1.7,0.2l-1.7,0.2l-1.7,0.2l-1.7,0.2l-1.7,0.2l-1.7,0.1
				l-1.7,0.1l-1.7,0.1l-1.7,0.2l-1.7,0.2l-1.7,0.1l-1.7,0.1l-1.7,0.1l-1.7,0.3l-1.7,0.3l-1.7,0.1l-1.7,0.1l-1.7,0.2l-1.7,0.3
				l-1.7,0.1l-1.7,0.1l-1.7,0.2l-1.7,0.2l-1.7,0L69.2,88l-1.7,0.1l-1.7,0.1l-1.7,0.1l-1.7,0.1l-1.7,0.1l-1.7,0.1l-1.7,0.1l-1.7,0.1
				l-1.7,0.1l-1.7,0.1l-1.7,0.1L49.3,89.6z"/>
		</g>
	</g>
	<g id="matplotlib.axis_1">
		<g id="xtick_1">
			<g id="line2d_1">
				<g>
					<g>
						<path id="m7b89257a36" class="st4" d="M84.8,130.9v3.5"/>
					</g>
				</g>
			</g>
			<g id="text_1">
				<g transform="translate(80.162735 156.245533)scale(0.1 -0.1)">
					<g>
						<path id="DejaVuSans-2212" class="st5" d="M-64.6,143H-2v-8.3h-62.6V143z"/>
					</g>
					<g>
						<path id="DejaVuSans-30" class="st5" d="M40.3,173.9c-5.1,0-8.9-2.5-11.5-7.5c-2.6-5-3.8-12.5-3.8-22.5
							c0-10,1.3-17.5,3.8-22.5c2.6-5,6.4-7.5,11.5-7.5c5.1,0,8.9,2.5,11.5,7.5c2.6,5,3.8,12.5,3.8,22.5c0,10-1.3,17.5-3.8,22.5
							C49.3,171.4,45.4,173.9,40.3,173.9z M40.3,181.7c8.2,0,14.4-3.2,18.7-9.7c4.3-6.5,6.5-15.8,6.5-28.1c0-12.3-2.2-21.6-6.5-28.1
							c-4.3-6.5-10.6-9.7-18.7-9.7c-8.2,0-14.4,3.2-18.7,9.7c-4.3,6.5-6.5,15.8-6.5,28.1c0,12.3,2.2,21.7,6.5,28.1
							C25.9,178.5,32.2,181.7,40.3,181.7z"/>
					</g>
					<g>
						<path id="DejaVuSans-2e" class="st5" d="M82.9,119.9h10.3v-12.4H82.9V119.9z"/>
					</g>
					<g>
						<path id="DejaVuSans-32" class="st5" d="M123.2,115.8h34.4v-8.3h-46.3v8.3c3.7,3.9,8.8,9.1,15.3,15.6
							c6.5,6.5,10.5,10.7,12.2,12.6c3.2,3.5,5.4,6.5,6.6,9c1.3,2.5,1.9,4.9,1.9,7.2c0,3.9-1.4,7-4.1,9.5c-2.7,2.4-6.3,3.7-10.6,3.7
							c-3.1,0-6.4-0.5-9.8-1.6c-3.4-1.1-7.1-2.7-11-4.9v10c4,1.6,7.7,2.8,11.1,3.6c3.5,0.8,6.6,1.2,9.5,1.2c7.6,0,13.6-1.9,18.1-5.7
							c4.5-3.8,6.7-8.8,6.7-15.1c0-3-0.6-5.8-1.7-8.5c-1.1-2.7-3.2-5.8-6.1-9.5c-0.8-0.9-3.4-3.7-7.8-8.2
							C137.3,130.2,131.1,123.9,123.2,115.8z"/>
					</g>
				</g>
			</g>
		</g>
		<g id="xtick_2">
			<g id="line2d_2">
				<g>
					<g>
						<path id="m7b89257a36_00000183965655918316260880000012047019171779340705_" class="st4" d="M137.8,130.9v3.5"/>
					</g>
				</g>
			</g>
			<g id="text_2">
				<g transform="translate(137.335552 156.245533)scale(0.1 -0.1)">
					<g>
						<path id="DejaVuSans-30_00000182490574808017287320000000553604680260985256_" class="st5" d="M-43.5,173.9
							c-5.1,0-8.9-2.5-11.5-7.5c-2.6-5-3.8-12.5-3.8-22.5c0-10,1.3-17.5,3.8-22.5c2.6-5,6.4-7.5,11.5-7.5c5.1,0,8.9,2.5,11.5,7.5
							c2.6,5,3.8,12.5,3.8,22.5c0,10-1.3,17.5-3.8,22.5C-34.5,171.4-38.3,173.9-43.5,173.9z M-43.5,181.7c8.2,0,14.4-3.2,18.7-9.7
							c4.3-6.5,6.5-15.8,6.5-28.1c0-12.3-2.2-21.6-6.5-28.1c-4.3-6.5-10.6-9.7-18.7-9.7c-8.2,0-14.4,3.2-18.7,9.7
							c-4.3,6.5-6.5,15.8-6.5,28.1c0,12.3,2.2,21.7,6.5,28.1C-57.9,178.5-51.6,181.7-43.5,181.7z"/>
					</g>
					<g>
						<path id="DejaVuSans-2e_00000181792836884596045130000014832503541873227931_" class="st5" d="M-0.9,119.9H9.4v-12.4H-0.9
							V119.9z"/>
					</g>
					<g>
						<path id="DejaVuSans-30_00000170243167604373339490000007530181736949707413_" class="st5" d="M52,173.9
							c-5.1,0-8.9-2.5-11.5-7.5c-2.6-5-3.8-12.5-3.8-22.5c0-10,1.3-17.5,3.8-22.5c2.6-5,6.4-7.5,11.5-7.5c5.1,0,8.9,2.5,11.5,7.5
							c2.6,5,3.8,12.5,3.8,22.5c0,10-1.3,17.5-3.8,22.5C60.9,171.4,57.1,173.9,52,173.9z M52,181.7c8.2,0,14.4-3.2,18.7-9.7
							c4.3-6.5,6.5-15.8,6.5-28.1c0-12.3-2.2-21.6-6.5-28.1c-4.3-6.5-10.6-9.7-18.7-9.7c-8.2,0-14.4,3.2-18.7,9.7
							c-4.3,6.5-6.5,15.8-6.5,28.1c0,12.3,2.2,21.7,6.5,28.1C37.5,178.5,43.8,181.7,52,181.7z"/>
					</g>
				</g>
			</g>
		</g>
		<g id="xtick_3">
			<g id="line2d_3">
				<g>
					<g>
						<path id="m7b89257a36_00000095296858922655341380000016799007783631902650_" class="st4" d="M190.7,130.9v3.5"/>
					</g>
				</g>
			</g>
			<g id="text_3">
				<g transform="translate(190.318524 156.245533)scale(0.1 -0.1)">
					<g>
						<path id="DejaVuSans-30_00000140719665478325988790000001317313597492702650_" class="st5" d="M-43.5,173.9
							c-5.1,0-8.9-2.5-11.5-7.5c-2.6-5-3.8-12.5-3.8-22.5c0-10,1.3-17.5,3.8-22.5c2.6-5,6.4-7.5,11.5-7.5c5.1,0,8.9,2.5,11.5,7.5
							c2.6,5,3.8,12.5,3.8,22.5c0,10-1.3,17.5-3.8,22.5C-34.5,171.4-38.3,173.9-43.5,173.9z M-43.5,181.7c8.2,0,14.4-3.2,18.7-9.7
							c4.3-6.5,6.5-15.8,6.5-28.1c0-12.3-2.2-21.6-6.5-28.1c-4.3-6.5-10.6-9.7-18.7-9.7c-8.2,0-14.4,3.2-18.7,9.7
							c-4.3,6.5-6.5,15.8-6.5,28.1c0,12.3,2.2,21.7,6.5,28.1C-57.9,178.5-51.6,181.7-43.5,181.7z"/>
					</g>
					<g>
						<path id="DejaVuSans-2e_00000170977494963349493570000001216938597607351446_" class="st5" d="M-0.9,119.9H9.4v-12.4H-0.9
							V119.9z"/>
					</g>
					<g>
						<path id="DejaVuSans-32_00000028326649507235934350000005766938486008039060_" class="st5" d="M39.4,115.8h34.4v-8.3H27.5v8.3
							c3.7,3.9,8.8,9.1,15.3,15.6c6.5,6.5,10.5,10.7,12.2,12.6c3.2,3.5,5.4,6.5,6.6,9c1.3,2.5,1.9,4.9,1.9,7.2c0,3.9-1.4,7-4.1,9.5
							c-2.7,2.4-6.3,3.7-10.6,3.7c-3.1,0-6.4-0.5-9.8-1.6c-3.4-1.1-7.1-2.7-11-4.9v10c4,1.6,7.7,2.8,11.1,3.6
							c3.5,0.8,6.6,1.2,9.5,1.2c7.6,0,13.6-1.9,18.1-5.7c4.5-3.8,6.7-8.8,6.7-15.1c0-3-0.6-5.8-1.7-8.5c-1.1-2.7-3.2-5.8-6.1-9.5
							c-0.8-0.9-3.4-3.7-7.8-8.2C53.5,130.2,47.3,123.9,39.4,115.8z"/>
					</g>
				</g>
			</g>
		</g>
		<g id="text_4">
			<g transform="translate(128.4125 169.923658)scale(0.1 -0.1)">
				<g transform="translate(0 0.78125)">
					<path id="DejaVuSans-394" class="st5" d="M-41,171.5l-20-55H-21L-41,171.5z M-74.5,108.3l27.8,72.9h11.2l27.8-72.9H-74.5z"/>
				</g>
				<g transform="translate(84.643879 0.78125)">
					<path id="DejaVuSans-46" class="st5" d="M19.2,181.2h41.9v-8.3h-32v-21.5H58v-8.3H29.1v-34.8h-9.9V181.2z"/>
				</g>
				<g transform="translate(142.163411 0.78125)">
					<path id="DejaVuSans-43" class="st5" d="M131.3,175.6v-10.4c-3.3,3.1-6.9,5.4-10.6,6.9c-3.8,1.5-7.8,2.3-12,2.3
						c-8.3,0-14.7-2.5-19.1-7.6c-4.4-5.1-6.6-12.5-6.6-22.1c0-9.6,2.2-17,6.6-22c4.4-5.1,10.8-7.6,19.1-7.6c4.2,0,8.2,0.8,12,2.3
						c3.8,1.5,7.3,3.8,10.6,6.9v-10.3c-3.4-2.3-7.1-4.1-11-5.3c-3.9-1.2-7.9-1.8-12.2-1.8c-11,0-19.7,3.4-26.1,10.1
						c-6.3,6.8-9.5,16-9.5,27.7c0,11.7,3.2,21,9.5,27.7c6.4,6.8,15.1,10.1,26.1,10.1c4.4,0,8.5-0.6,12.3-1.7
						C124.3,179.6,127.9,177.9,131.3,175.6z"/>
				</g>
			</g>
		</g>
	</g>
	<g id="matplotlib.axis_2">
		<g id="ytick_1">
			<g id="line2d_4">
				<g>
					<g>
						<path id="m2df12fd035" class="st4" d="M41,130.4h-3.5"/>
					</g>
				</g>
			</g>
			<g id="text_5">
				<g transform="translate(26.807813 144.98907)scale(0.1 -0.1)">
					<g>
						<path id="DejaVuSans-2212_00000125592748547480383410000004596763613388991900_" class="st5" d="M-64.6,143H-2v-8.3h-62.6V143
							z"/>
					</g>
					<g>
						<path id="DejaVuSans-35" class="st5" d="M19.4,180.4h38.7v-8.3H28.4v-17.9c1.4,0.5,2.9,0.9,4.3,1.1c1.4,0.2,2.9,0.4,4.3,0.4
							c8.1,0,14.6-2.2,19.3-6.7c4.8-4.5,7.1-10.5,7.1-18.1c0-7.8-2.4-13.9-7.3-18.3c-4.9-4.3-11.8-6.5-20.7-6.5
							c-3.1,0-6.2,0.3-9.4,0.8c-3.2,0.5-6.4,1.3-9.8,2.3v9.9c2.9-1.6,6-2.8,9.1-3.6s6.4-1.2,9.9-1.2c5.6,0,10.1,1.5,13.4,4.4
							c3.3,3,4.9,7,4.9,12.1c0,5.1-1.6,9.1-4.9,12c-3.3,3-7.7,4.5-13.4,4.5c-2.6,0-5.3-0.3-7.9-0.9c-2.6-0.6-5.3-1.5-8-2.7V180.4z"
							/>
					</g>
				</g>
			</g>
		</g>
		<g id="ytick_2">
			<g id="line2d_5">
				<g>
					<g>
						<path id="m2df12fd035_00000023972514776373525400000005712341747828404116_" class="st4" d="M41,107.6h-3.5"/>
					</g>
				</g>
			</g>
			<g id="text_6">
				<g transform="translate(35.1875 122.1269)scale(0.1 -0.1)">
					<g>
						<path id="DejaVuSans-30_00000140729131148833153490000005002888101803966120_" class="st5" d="M-43.5,173.9
							c-5.1,0-8.9-2.5-11.5-7.5c-2.6-5-3.8-12.5-3.8-22.5c0-10,1.3-17.5,3.8-22.5c2.6-5,6.4-7.5,11.5-7.5c5.1,0,8.9,2.5,11.5,7.5
							c2.6,5,3.8,12.5,3.8,22.5c0,10-1.3,17.5-3.8,22.5C-34.5,171.4-38.3,173.9-43.5,173.9z M-43.5,181.7c8.2,0,14.4-3.2,18.7-9.7
							c4.3-6.5,6.5-15.8,6.5-28.1c0-12.3-2.2-21.6-6.5-28.1c-4.3-6.5-10.6-9.7-18.7-9.7c-8.2,0-14.4,3.2-18.7,9.7
							c-4.3,6.5-6.5,15.8-6.5,28.1c0,12.3,2.2,21.7,6.5,28.1C-57.9,178.5-51.6,181.7-43.5,181.7z"/>
					</g>
				</g>
			</g>
		</g>
		<g id="ytick_3">
			<g id="line2d_6">
				<g>
					<g>
						<path id="m2df12fd035_00000172434375535188527760000006123995412992894654_" class="st4" d="M41,84.7h-3.5"/>
					</g>
				</g>
			</g>
			<g id="text_7">
				<g transform="translate(35.1875 99.26473)scale(0.1 -0.1)">
					<g>
						<path id="DejaVuSans-35_00000001663087317375166620000014244697256019374773_" class="st5" d="M-64.4,180.4h38.7v-8.3h-29.7
							v-17.9c1.4,0.5,2.9,0.9,4.3,1.1c1.4,0.2,2.9,0.4,4.3,0.4c8.1,0,14.6-2.2,19.3-6.7c4.8-4.5,7.1-10.5,7.1-18.1
							c0-7.8-2.4-13.9-7.3-18.3c-4.9-4.3-11.8-6.5-20.7-6.5c-3.1,0-6.2,0.3-9.4,0.8c-3.2,0.5-6.4,1.3-9.8,2.3v9.9
							c2.9-1.6,6-2.8,9.1-3.6s6.4-1.2,9.9-1.2c5.6,0,10.1,1.5,13.4,4.4c3.3,3,4.9,7,4.9,12.1c0,5.1-1.6,9.1-4.9,12
							c-3.3,3-7.7,4.5-13.4,4.5c-2.6,0-5.3-0.3-7.9-0.9c-2.6-0.6-5.3-1.5-8-2.7V180.4z"/>
					</g>
				</g>
			</g>
		</g>
		<g id="ytick_4">
			<g id="line2d_7">
				<g>
					<g>
						<path id="m2df12fd035_00000106863688523689030210000013745323635576115132_" class="st4" d="M41,61.9h-3.5"/>
					</g>
				</g>
			</g>
			<g id="text_8">
				<g transform="translate(28.825 76.402559)scale(0.1 -0.1)">
					<g>
						<path id="DejaVuSans-31" class="st5" d="M-62.8,115.8h16.1v55.6l-17.5-3.5v9l17.4,3.5h9.9v-64.6h16.1v-8.3h-42V115.8z"/>
					</g>
					<g>
						<path id="DejaVuSans-30_00000097466982363873051730000007757748553323905178_" class="st5" d="M20.2,173.9
							c-5.1,0-8.9-2.5-11.5-7.5c-2.6-5-3.8-12.5-3.8-22.5c0-10,1.3-17.5,3.8-22.5c2.6-5,6.4-7.5,11.5-7.5c5.1,0,8.9,2.5,11.5,7.5
							c2.6,5,3.8,12.5,3.8,22.5c0,10-1.3,17.5-3.8,22.5C29.1,171.4,25.3,173.9,20.2,173.9z M20.2,181.7c8.2,0,14.4-3.2,18.7-9.7
							c4.3-6.5,6.5-15.8,6.5-28.1c0-12.3-2.2-21.6-6.5-28.1c-4.3-6.5-10.6-9.7-18.7-9.7c-8.2,0-14.4,3.2-18.7,9.7
							c-4.3,6.5-6.5,15.8-6.5,28.1c0,12.3,2.2,21.7,6.5,28.1C5.8,178.5,12,181.7,20.2,181.7z"/>
					</g>
				</g>
			</g>
		</g>
		<g id="ytick_5">
			<g id="line2d_8">
				<g>
					<g>
						<path id="m2df12fd035_00000167370985415588591920000016547590035242683323_" class="st4" d="M41,39h-3.5"/>
					</g>
				</g>
			</g>
			<g id="text_9">
				<g transform="translate(28.825 53.540389)scale(0.1 -0.1)">
					<g>
						<path id="DejaVuSans-31_00000125564405362468948490000011364098760763139234_" class="st5" d="M-62.8,115.8h16.1v55.6
							l-17.5-3.5v9l17.4,3.5h9.9v-64.6h16.1v-8.3h-42V115.8z"/>
					</g>
					<g>
						<path id="DejaVuSans-35_00000031898335438518841230000000340354153559856788_" class="st5" d="M-0.8,180.4h38.7v-8.3H8.2
							v-17.9c1.4,0.5,2.9,0.9,4.3,1.1c1.4,0.2,2.9,0.4,4.3,0.4c8.1,0,14.6-2.2,19.3-6.7c4.8-4.5,7.1-10.5,7.1-18.1
							c0-7.8-2.4-13.9-7.3-18.3c-4.9-4.3-11.8-6.5-20.7-6.5c-3.1,0-6.2,0.3-9.4,0.8c-3.2,0.5-6.4,1.3-9.8,2.3v9.9
							c2.9-1.6,6-2.8,9.1-3.6s6.4-1.2,9.9-1.2c5.6,0,10.1,1.5,13.4,4.4c3.3,3,4.9,7,4.9,12.1c0,5.1-1.6,9.1-4.9,12
							c-3.3,3-7.7,4.5-13.4,4.5c-2.6,0-5.3-0.3-7.9-0.9c-2.6-0.6-5.3-1.5-8-2.7V180.4z"/>
					</g>
				</g>
			</g>
		</g>
		<g id="text_10">
			<g transform="translate(20.728125 107.670643)rotate(-90)scale(0.1 -0.1)">
				<g transform="translate(0 0.78125)">
					<path id="DejaVuSans-394_00000060020045282077217110000000361147880934056631_" class="st5" d="M141.7,139.2l-20-55h40.1
						L141.7,139.2z M108.3,76l27.8,72.9h11.2L175.1,76H108.3z"/>
				</g>
				<g transform="translate(84.643879 0.78125)">
					<path id="DejaVuSans-59" class="st5" d="M192,148.9h10.6l20.2-30l20.1,30h10.6l-25.8-38.2V76h-9.9v34.7L192,148.9z"/>
				</g>
				<g transform="translate(145.727864 0.78125)">
					<path id="DejaVuSans-42" class="st5" d="M272.9,110.8V84.1h15.8c5.3,0,9.2,1.1,11.8,3.3c2.6,2.2,3.8,5.6,3.8,10.1
						c0,4.6-1.3,7.9-3.8,10.1c-2.6,2.2-6.5,3.2-11.8,3.2H272.9z M272.9,140.8v-22h14.6c4.8,0,8.4,0.9,10.8,2.7
						c2.4,1.8,3.5,4.6,3.5,8.3c0,3.7-1.2,6.4-3.5,8.2c-2.4,1.8-5.9,2.7-10.8,2.7H272.9z M263.1,148.9h25.2c7.5,0,13.3-1.6,17.4-4.7
						c4.1-3.1,6.1-7.6,6.1-13.3c0-4.5-1-8-3.1-10.7c-2.1-2.6-5.1-4.3-9.2-4.9c4.9-1,8.6-3.2,11.3-6.5c2.7-3.3,4-7.4,4-12.4
						c0-6.5-2.2-11.5-6.6-15.1c-4.4-3.5-10.7-5.3-18.9-5.3h-26.2V148.9z"/>
				</g>
				<g transform="translate(214.331379 0.78125)">
					<path id="DejaVuSans-4f" class="st5" d="M361.3,142.2c-7.2,0-12.9-2.7-17.1-8c-4.2-5.3-6.3-12.6-6.3-21.8
						c0-9.2,2.1-16.4,6.3-21.8c4.2-5.3,9.9-8,17.1-8c7.2,0,12.8,2.7,17,8c4.2,5.3,6.3,12.6,6.3,21.8c0,9.2-2.1,16.5-6.3,21.8
						C374.1,139.6,368.4,142.2,361.3,142.2z M361.3,150.2c10.2,0,18.4-3.4,24.5-10.3c6.1-6.9,9.2-16,9.2-27.6
						c0-11.5-3.1-20.7-9.2-27.5c-6.1-6.9-14.3-10.3-24.5-10.3c-10.2,0-18.4,3.4-24.6,10.2c-6.1,6.8-9.2,16-9.2,27.5
						s3.1,20.7,9.2,27.6C342.8,146.8,351,150.2,361.3,150.2z"/>
				</g>
				<g transform="translate(293.042317 0.78125)">
					<path id="DejaVuSans-43_00000168105089973068348550000005601403072025246122_" class="st5" d="M465,143.3v-10.4
						c-3.3,3.1-6.9,5.4-10.6,6.9c-3.8,1.5-7.8,2.3-12,2.3c-8.3,0-14.7-2.5-19.1-7.6c-4.4-5.1-6.6-12.5-6.6-22.1c0-9.6,2.2-17,6.6-22
						c4.4-5.1,10.8-7.6,19.1-7.6c4.2,0,8.2,0.8,12,2.3c3.8,1.5,7.3,3.8,10.6,6.9V81.6c-3.4-2.3-7.1-4.1-11-5.3
						c-3.9-1.2-7.9-1.8-12.2-1.8c-11,0-19.7,3.4-26.1,10.1c-6.3,6.8-9.5,16-9.5,27.7c0,11.7,3.2,21,9.5,27.7
						c6.4,6.8,15.1,10.1,26.1,10.1c4.4,0,8.5-0.6,12.3-1.7C458,147.3,461.6,145.6,465,143.3z"/>
				</g>
				<g transform="translate(362.866536 0.78125)">
					<path id="DejaVuSans-53" class="st5" d="M523.9,146.5v-9.6c-3.7,1.8-7.3,3.1-10.6,4c-3.3,0.9-6.5,1.3-9.6,1.3
						c-5.4,0-9.5-1-12.4-3.1c-2.9-2.1-4.4-5-4.4-8.9c0-3.2,1-5.7,2.9-7.3c1.9-1.6,5.6-3,11-4l6-1.2c7.4-1.4,12.8-3.9,16.3-7.4
						s5.2-8.3,5.2-14.2c0-7.1-2.4-12.4-7.1-16.1c-4.7-3.6-11.7-5.5-20.8-5.5c-3.4,0-7.1,0.4-11,1.2c-3.9,0.8-7.9,1.9-12.1,3.5v10.2
						c4-2.2,7.9-3.9,11.8-5.1c3.8-1.1,7.6-1.7,11.3-1.7c5.6,0,10,1.1,13,3.3c3.1,2.2,4.6,5.4,4.6,9.5c0,3.6-1.1,6.4-3.3,8.4
						c-2.2,2-5.8,3.5-10.8,4.5l-6,1.2c-7.4,1.5-12.7,3.8-16,6.9c-3.3,3.1-4.9,7.5-4.9,13c0,6.4,2.3,11.5,6.8,15.2
						c4.5,3.7,10.8,5.6,18.8,5.6c3.4,0,6.9-0.3,10.5-0.9C516.6,148.7,520.2,147.8,523.9,146.5z"/>
				</g>
			</g>
		</g>
	</g>
	<g id="line2d_9">
		<g>
			<defs>
				<rect id="SVGID_00000174577224604797212560000014728813983493121950_" x="41" y="20.2" width="180.9" height="110.7"/>
			</defs>
			<clipPath id="SVGID_00000078011385350521178060000002100779626640096151_">
				<use xlink:href="#SVGID_00000174577224604797212560000014728813983493121950_"  style="overflow:visible;"/>
			</clipPath>
			
				<path style="clip-path:url(#SVGID_00000078011385350521178060000002100779626640096151_);fill:none;stroke:#818181;stroke-width:2.25;stroke-linecap:square;stroke-linejoin:round;" d="
				M49.3,104.5l1.7-0.3l1.7-0.3l1.7-0.3l1.7-0.3l1.7-0.3l1.7-0.3l1.7-0.3l1.7-0.3l1.7-0.3l1.7-0.3l1.7-0.3l1.7-0.3l1.7-0.3l1.7-0.3
				l1.7-0.3l1.7-0.3l1.7-0.3l1.7-0.3l1.7-0.3l1.7-0.3l1.7-0.3l1.7-0.3l1.7-0.3l1.7-0.3l1.7-0.3l1.7-0.3l1.7-0.3l1.7-0.3l1.7-0.3
				l1.7-0.3l1.7-0.3l1.7-0.3l1.7-0.3l1.7-0.3l1.7-0.3l1.7-0.3l1.7-0.3l1.7-0.3l1.7-0.3l1.7-0.3l1.7-0.3l1.7-0.3l1.7-0.3l1.7-0.3
				l1.7-0.3l1.7-0.3l1.7-0.3l1.7-0.3l1.7-0.3l1.7-0.3l1.7-0.3l1.7-0.3l1.7-0.3l1.7-0.3l1.7-0.3l1.7-0.3l1.7-0.3l1.7-0.3l1.7-0.3
				l1.7-0.3l1.7-0.3l1.7-0.3l1.7-0.3l1.7-0.3l1.7-0.3l1.7-0.3l1.7-0.3l1.7-0.3l1.7-0.3l1.7-0.3l1.7-0.3l1.7-0.3l1.7-0.3l1.7-0.3
				l1.7-0.3l1.7-0.3l1.7-0.3l1.7-0.3l1.7-0.3l1.7-0.3l1.7-0.3l1.7-0.3l1.7-0.3l1.7-0.3l1.7-0.3l1.7-0.3l1.7-0.3l1.7-0.3l1.7-0.3
				l1.7-0.3l1.7-0.3l1.7-0.3l1.7-0.3l1.7-0.3l1.7-0.3l1.7-0.3l1.7-0.3l1.7-0.3l1.7-0.3"/>
		</g>
	</g>
	<g id="patch_3">
		<path class="st7" d="M41,130.9V20.2"/>
	</g>
	<g id="patch_4">
		<path class="st7" d="M41,130.9H222"/>
	</g>
	<g id="text_11">
		<g transform="translate(79.878906 24.99419)scale(0.1 -0.1)">
			<g>
				<path id="DejaVuSans-6e" class="st5" d="M-20.3,140.5v-33h-9v32.7c0,5.2-1,9-3,11.6c-2,2.6-5,3.9-9.1,3.9
					c-4.9,0-8.7-1.5-11.5-4.6c-2.8-3.1-4.2-7.3-4.2-12.6v-30.9h-9v54.7h9v-8.5c2.2,3.3,4.7,5.8,7.6,7.4c2.9,1.6,6.3,2.4,10.1,2.4
					c6.3,0,11-1.9,14.2-5.8C-22,153.8-20.3,148.1-20.3,140.5z"/>
			</g>
			<g>
				<path id="DejaVuSans-3d" class="st5" d="M-1.3,152.9h62.6v-8.2H-1.3V152.9z M-1.3,133h62.6v-8.3H-1.3V133z"/>
			</g>
			<g>
				<path id="DejaVuSans-34" class="st5" d="M109.7,171.8l-24.9-38.9h24.9V171.8z M107.1,180.4h12.4v-47.5h10.4v-8.2h-10.4v-17.2
					h-9.8v17.2H76.8v9.5L107.1,180.4z"/>
			</g>
			<g>
				<path id="DejaVuSans-38" class="st5" d="M167.3,142.1c-4.7,0-8.4-1.3-11.1-3.8c-2.7-2.5-4-6-4-10.3c0-4.4,1.3-7.8,4-10.4
					c2.7-2.5,6.4-3.8,11.1-3.8s8.4,1.3,11.1,3.8c2.7,2.5,4.1,6,4.1,10.3c0,4.4-1.3,7.8-4,10.3C175.8,140.9,172.1,142.1,167.3,142.1z
					 M157.5,146.3c-4.2,1-7.5,3-9.9,5.9c-2.4,2.9-3.5,6.4-3.5,10.6c0,5.8,2.1,10.4,6.2,13.8c4.2,3.4,9.8,5.1,17.1,5.1
					c7.3,0,13-1.7,17.1-5.1c4.1-3.4,6.2-8,6.2-13.8c0-4.2-1.2-7.7-3.5-10.6c-2.4-2.9-5.6-4.9-9.8-5.9c4.8-1.1,8.4-3.3,11.1-6.5
					c2.7-3.2,4-7.2,4-11.8c0-7.1-2.2-12.5-6.5-16.3c-4.3-3.8-10.5-5.7-18.5-5.7c-8,0-14.2,1.9-18.5,5.7c-4.3,3.8-6.5,9.2-6.5,16.3
					c0,4.6,1.3,8.6,4,11.8C149,143.1,152.7,145.2,157.5,146.3z M153.9,161.9c0-3.8,1.2-6.7,3.5-8.8c2.4-2.1,5.7-3.2,9.9-3.2
					c4.2,0,7.6,1.1,9.9,3.2c2.4,2.1,3.6,5.1,3.6,8.8c0,3.8-1.2,6.7-3.6,8.8c-2.4,2.1-5.7,3.2-9.9,3.2c-4.3,0-7.6-1.1-9.9-3.2
					C155,168.6,153.9,165.7,153.9,161.9z"/>
			</g>
			<g>
				<path id="DejaVuSans-20" class="st5" d="M199.2,107.5"/>
			</g>
			<g>
				<path id="DejaVuSans-20_00000085960948359803611350000002615362567663640723_" class="st5" d="M231,107.5"/>
			</g>
			<g>
				<path id="DejaVuSans-72" class="st5" d="M303.9,153.8c-1,0.6-2.1,1-3.3,1.3c-1.2,0.3-2.5,0.4-3.9,0.4c-5.1,0-9-1.7-11.7-5
					s-4.1-8-4.1-14.2v-28.8h-9v54.7h9v-8.5c1.9,3.3,4.4,5.8,7.4,7.4c3,1.6,6.7,2.4,11,2.4c0.6,0,1.3,0,2-0.1
					c0.8-0.1,1.6-0.2,2.5-0.4L303.9,153.8z"/>
			</g>
			<g>
				<path id="DejaVuSans-3d_00000101787904362946584640000003626068891069468573_" class="st5" d="M314.5,152.9h62.6v-8.2h-62.6
					V152.9z M314.5,133h62.6v-8.3h-62.6V133z"/>
			</g>
			<g>
				<path id="DejaVuSans-30_00000057859379142703933860000003763551792526855300_" class="st5" d="M419.4,173.9
					c-5.1,0-8.9-2.5-11.5-7.5c-2.6-5-3.8-12.5-3.8-22.5c0-10,1.3-17.5,3.8-22.5c2.6-5,6.4-7.5,11.5-7.5c5.1,0,8.9,2.5,11.5,7.5
					c2.6,5,3.8,12.5,3.8,22.5c0,10-1.3,17.5-3.8,22.5C428.4,171.4,424.6,173.9,419.4,173.9z M419.4,181.7c8.2,0,14.4-3.2,18.7-9.7
					c4.3-6.5,6.5-15.8,6.5-28.1c0-12.3-2.2-21.6-6.5-28.1c-4.3-6.5-10.6-9.7-18.7-9.7c-8.2,0-14.4,3.2-18.7,9.7
					c-4.3,6.5-6.5,15.8-6.5,28.1c0,12.3,2.2,21.7,6.5,28.1C405,178.5,411.3,181.7,419.4,181.7z"/>
			</g>
			<g>
				<path id="DejaVuSans-2e_00000037683184133216314640000011082189245552573374_" class="st5" d="M462,119.9h10.3v-12.4H462V119.9z
					"/>
			</g>
			<g>
				<path id="DejaVuSans-33" class="st5" d="M523.6,146.8c4.7-1,8.4-3.1,11-6.3c2.7-3.2,4-7.1,4-11.8c0-7.2-2.5-12.8-7.4-16.7
					c-4.9-3.9-12-5.9-21.1-5.9c-3.1,0-6.2,0.3-9.4,0.9c-3.2,0.6-6.6,1.5-10,2.7v9.5c2.7-1.6,5.7-2.8,9-3.6c3.3-0.8,6.7-1.2,10.2-1.2
					c6.2,0,10.9,1.2,14.1,3.7c3.2,2.4,4.9,6,4.9,10.6c0,4.3-1.5,7.7-4.5,10.1c-3,2.4-7.2,3.6-12.6,3.6h-8.5v8.1h8.9
					c4.8,0,8.6,1,11.1,2.9c2.6,1.9,3.9,4.7,3.9,8.4c0,3.7-1.3,6.6-4,8.6c-2.6,2-6.4,3-11.4,3c-2.7,0-5.6-0.3-8.7-0.9
					c-3.1-0.6-6.5-1.5-10.2-2.7v8.8c3.8,1,7.3,1.8,10.5,2.3c3.3,0.5,6.4,0.8,9.2,0.8c7.5,0,13.4-1.7,17.8-5.1
					c4.4-3.4,6.5-8,6.5-13.8c0-4-1.2-7.5-3.5-10.2S527.9,147.9,523.6,146.8z"/>
			</g>
			<g>
				<path id="DejaVuSans-35_00000159434419844822458550000007589359816617300142_" class="st5" d="M557.5,180.4h38.7v-8.3h-29.7
					v-17.9c1.4,0.5,2.9,0.9,4.3,1.1c1.4,0.2,2.9,0.4,4.3,0.4c8.1,0,14.6-2.2,19.3-6.7c4.8-4.5,7.1-10.5,7.1-18.1
					c0-7.8-2.4-13.9-7.3-18.3c-4.9-4.3-11.8-6.5-20.7-6.5c-3.1,0-6.2,0.3-9.4,0.8c-3.2,0.5-6.4,1.3-9.8,2.3v9.9
					c2.9-1.6,6-2.8,9.1-3.6s6.4-1.2,9.9-1.2c5.6,0,10.1,1.5,13.4,4.4c3.3,3,4.9,7,4.9,12.1c0,5.1-1.6,9.1-4.9,12
					c-3.3,3-7.7,4.5-13.4,4.5c-2.6,0-5.3-0.3-7.9-0.9c-2.6-0.6-5.3-1.5-8-2.7V180.4z"/>
			</g>
			<g>
				<path id="DejaVuSans-20_00000059294055112677895550000012712413417625998243_" class="st5" d="M610.3,107.5"/>
			</g>
			<g>
				<path id="DejaVuSans-20_00000044862576525253413660000000520486465193542802_" class="st5" d="M642.1,107.5"/>
			</g>
			<g>
				<path id="DejaVuSans-70" class="st5" d="M692,115.7v-29h-9v75.5h9v-8.3c1.9,3.2,4.3,5.7,7.2,7.2c2.9,1.6,6.3,2.4,10.3,2.4
					c6.6,0,12-2.6,16.2-7.9c4.2-5.3,6.2-12.2,6.2-20.8s-2.1-15.5-6.2-20.8c-4.1-5.3-9.5-7.9-16.2-7.9c-4,0-7.4,0.8-10.3,2.4
					C696.3,110.1,693.9,112.5,692,115.7z M722.6,134.8c0,6.6-1.4,11.8-4.1,15.5s-6.5,5.6-11.2,5.6c-4.8,0-8.5-1.9-11.2-5.6
					s-4.1-8.9-4.1-15.5s1.4-11.8,4.1-15.5c2.7-3.8,6.5-5.6,11.2-5.6c4.8,0,8.5,1.9,11.2,5.6C721.2,123,722.6,128.2,722.6,134.8z"/>
			</g>
			<g>
				<path id="DejaVuSans-3d_00000052078564787025731100000001464019177284362669_" class="st5" d="M748,152.9h62.6v-8.2H748V152.9z
					 M748,133h62.6v-8.3H748V133z"/>
			</g>
			<g>
				<path id="DejaVuSans-30_00000044137956489434607870000000678888212445745573_" class="st5" d="M852.9,173.9
					c-5.1,0-8.9-2.5-11.5-7.5c-2.6-5-3.8-12.5-3.8-22.5c0-10,1.3-17.5,3.8-22.5c2.6-5,6.4-7.5,11.5-7.5c5.1,0,8.9,2.5,11.5,7.5
					c2.6,5,3.8,12.5,3.8,22.5c0,10-1.3,17.5-3.8,22.5C861.9,171.4,858,173.9,852.9,173.9z M852.9,181.7c8.2,0,14.4-3.2,18.7-9.7
					c4.3-6.5,6.5-15.8,6.5-28.1c0-12.3-2.2-21.6-6.5-28.1c-4.3-6.5-10.6-9.7-18.7-9.7c-8.2,0-14.4,3.2-18.7,9.7
					c-4.3,6.5-6.5,15.8-6.5,28.1c0,12.3,2.2,21.7,6.5,28.1C838.5,178.5,844.8,181.7,852.9,181.7z"/>
			</g>
			<g>
				<path id="DejaVuSans-2e_00000049930522006959746840000008057362383462647424_" class="st5" d="M895.5,119.9h10.3v-12.4h-10.3
					V119.9z"/>
			</g>
			<g>
				<path id="DejaVuSans-30_00000150061450023388545500000004562037250952842373_" class="st5" d="M948.3,173.9
					c-5.1,0-8.9-2.5-11.5-7.5c-2.6-5-3.8-12.5-3.8-22.5c0-10,1.3-17.5,3.8-22.5c2.6-5,6.4-7.5,11.5-7.5c5.1,0,8.9,2.5,11.5,7.5
					c2.6,5,3.8,12.5,3.8,22.5c0,10-1.3,17.5-3.8,22.5C957.3,171.4,953.5,173.9,948.3,173.9z M948.3,181.7c8.2,0,14.4-3.2,18.7-9.7
					c4.3-6.5,6.5-15.8,6.5-28.1c0-12.3-2.2-21.6-6.5-28.1c-4.3-6.5-10.6-9.7-18.7-9.7c-8.2,0-14.4,3.2-18.7,9.7
					c-4.3,6.5-6.5,15.8-6.5,28.1c0,12.3,2.2,21.7,6.5,28.1C933.9,178.5,940.2,181.7,948.3,181.7z"/>
			</g>
			<g>
				<path id="DejaVuSans-31_00000065781076231354309240000017513959679579731342_" class="st5" d="M992.6,115.8h16.1v55.6l-17.5-3.5
					v9l17.4,3.5h9.9v-64.6h16.1v-8.3h-42V115.8z"/>
			</g>
			<g>
				<path id="DejaVuSans-36" class="st5" d="M1076.8,147.9c-4.4,0-7.9-1.5-10.5-4.5c-2.6-3-3.9-7.2-3.9-12.4c0-5.2,1.3-9.4,3.9-12.4
					c2.6-3,6.1-4.6,10.5-4.6s7.9,1.5,10.5,4.6c2.6,3.1,3.9,7.2,3.9,12.4c0,5.3-1.3,9.4-3.9,12.4
					C1084.8,146.4,1081.3,147.9,1076.8,147.9z M1096.4,178.8v-9c-2.5,1.2-5,2.1-7.5,2.7c-2.5,0.6-5,0.9-7.5,0.9
					c-6.5,0-11.5-2.2-14.9-6.6c-3.4-4.4-5.4-11-5.9-19.9c1.9,2.8,4.3,5,7.2,6.5c2.9,1.5,6.1,2.3,9.6,2.3c7.3,0,13.1-2.2,17.4-6.7
					c4.2-4.4,6.4-10.5,6.4-18.1c0-7.5-2.2-13.5-6.6-18c-4.4-4.5-10.3-6.8-17.7-6.8c-8.4,0-14.9,3.2-19.3,9.7
					c-4.5,6.5-6.7,15.8-6.7,28.1c0,11.5,2.7,20.7,8.2,27.6c5.5,6.9,12.8,10.3,22,10.3c2.5,0,5-0.2,7.5-0.7
					C1091,180.5,1093.7,179.8,1096.4,178.8z"/>
			</g>
		</g>
	</g>
</g>
</svg>
